G04 #@! TF.GenerationSoftware,KiCad,Pcbnew,(5.1.5)-3*
G04 #@! TF.CreationDate,2020-07-31T11:24:54+01:00*
G04 #@! TF.ProjectId,SCART_to_GBS8200,53434152-545f-4746-9f5f-474253383230,rev?*
G04 #@! TF.SameCoordinates,Original*
G04 #@! TF.FileFunction,Legend,Top*
G04 #@! TF.FilePolarity,Positive*
%FSLAX46Y46*%
G04 Gerber Fmt 4.6, Leading zero omitted, Abs format (unit mm)*
G04 Created by KiCad (PCBNEW (5.1.5)-3) date 2020-07-31 11:24:54*
%MOMM*%
%LPD*%
G04 APERTURE LIST*
%ADD10C,0.150000*%
%ADD11C,0.120000*%
%ADD12C,0.010000*%
G04 APERTURE END LIST*
D10*
X127452380Y-98461904D02*
X126452380Y-98461904D01*
X126452380Y-98223809D01*
X126500000Y-98080952D01*
X126595238Y-97985714D01*
X126690476Y-97938095D01*
X126880952Y-97890476D01*
X127023809Y-97890476D01*
X127214285Y-97938095D01*
X127309523Y-97985714D01*
X127404761Y-98080952D01*
X127452380Y-98223809D01*
X127452380Y-98461904D01*
X126928571Y-97128571D02*
X126976190Y-96985714D01*
X127023809Y-96938095D01*
X127119047Y-96890476D01*
X127261904Y-96890476D01*
X127357142Y-96938095D01*
X127404761Y-96985714D01*
X127452380Y-97080952D01*
X127452380Y-97461904D01*
X126452380Y-97461904D01*
X126452380Y-97128571D01*
X126500000Y-97033333D01*
X126547619Y-96985714D01*
X126642857Y-96938095D01*
X126738095Y-96938095D01*
X126833333Y-96985714D01*
X126880952Y-97033333D01*
X126928571Y-97128571D01*
X126928571Y-97461904D01*
X126500000Y-95938095D02*
X126452380Y-96033333D01*
X126452380Y-96176190D01*
X126500000Y-96319047D01*
X126595238Y-96414285D01*
X126690476Y-96461904D01*
X126880952Y-96509523D01*
X127023809Y-96509523D01*
X127214285Y-96461904D01*
X127309523Y-96414285D01*
X127404761Y-96319047D01*
X127452380Y-96176190D01*
X127452380Y-96080952D01*
X127404761Y-95938095D01*
X127357142Y-95890476D01*
X127023809Y-95890476D01*
X127023809Y-96080952D01*
X139119047Y-117447619D02*
X139119047Y-116733333D01*
X139166666Y-116590476D01*
X139261904Y-116495238D01*
X139404761Y-116447619D01*
X139500000Y-116447619D01*
X138166666Y-116447619D02*
X138642857Y-116447619D01*
X138642857Y-117447619D01*
X137261904Y-116542857D02*
X137309523Y-116495238D01*
X137452380Y-116447619D01*
X137547619Y-116447619D01*
X137690476Y-116495238D01*
X137785714Y-116590476D01*
X137833333Y-116685714D01*
X137880952Y-116876190D01*
X137880952Y-117019047D01*
X137833333Y-117209523D01*
X137785714Y-117304761D01*
X137690476Y-117400000D01*
X137547619Y-117447619D01*
X137452380Y-117447619D01*
X137309523Y-117400000D01*
X137261904Y-117352380D01*
X136547619Y-117447619D02*
X136547619Y-116733333D01*
X136595238Y-116590476D01*
X136690476Y-116495238D01*
X136833333Y-116447619D01*
X136928571Y-116447619D01*
X135595238Y-116447619D02*
X136071428Y-116447619D01*
X136071428Y-117447619D01*
X134690476Y-116542857D02*
X134738095Y-116495238D01*
X134880952Y-116447619D01*
X134976190Y-116447619D01*
X135119047Y-116495238D01*
X135214285Y-116590476D01*
X135261904Y-116685714D01*
X135309523Y-116876190D01*
X135309523Y-117019047D01*
X135261904Y-117209523D01*
X135214285Y-117304761D01*
X135119047Y-117400000D01*
X134976190Y-117447619D01*
X134880952Y-117447619D01*
X134738095Y-117400000D01*
X134690476Y-117352380D01*
X133976190Y-117447619D02*
X133976190Y-116733333D01*
X134023809Y-116590476D01*
X134119047Y-116495238D01*
X134261904Y-116447619D01*
X134357142Y-116447619D01*
X133023809Y-116447619D02*
X133500000Y-116447619D01*
X133500000Y-117447619D01*
X132119047Y-116542857D02*
X132166666Y-116495238D01*
X132309523Y-116447619D01*
X132404761Y-116447619D01*
X132547619Y-116495238D01*
X132642857Y-116590476D01*
X132690476Y-116685714D01*
X132738095Y-116876190D01*
X132738095Y-117019047D01*
X132690476Y-117209523D01*
X132642857Y-117304761D01*
X132547619Y-117400000D01*
X132404761Y-117447619D01*
X132309523Y-117447619D01*
X132166666Y-117400000D01*
X132119047Y-117352380D01*
X131404761Y-117447619D02*
X131404761Y-116733333D01*
X131452380Y-116590476D01*
X131547619Y-116495238D01*
X131690476Y-116447619D01*
X131785714Y-116447619D01*
X130452380Y-116447619D02*
X130928571Y-116447619D01*
X130928571Y-117447619D01*
X129547619Y-116542857D02*
X129595238Y-116495238D01*
X129738095Y-116447619D01*
X129833333Y-116447619D01*
X129976190Y-116495238D01*
X130071428Y-116590476D01*
X130119047Y-116685714D01*
X130166666Y-116876190D01*
X130166666Y-117019047D01*
X130119047Y-117209523D01*
X130071428Y-117304761D01*
X129976190Y-117400000D01*
X129833333Y-117447619D01*
X129738095Y-117447619D01*
X129595238Y-117400000D01*
X129547619Y-117352380D01*
X165475000Y-146195238D02*
X165427380Y-146290476D01*
X165427380Y-146433333D01*
X165475000Y-146576190D01*
X165570238Y-146671428D01*
X165665476Y-146719047D01*
X165855952Y-146766666D01*
X165998809Y-146766666D01*
X166189285Y-146719047D01*
X166284523Y-146671428D01*
X166379761Y-146576190D01*
X166427380Y-146433333D01*
X166427380Y-146338095D01*
X166379761Y-146195238D01*
X166332142Y-146147619D01*
X165998809Y-146147619D01*
X165998809Y-146338095D01*
X165903571Y-145385714D02*
X165951190Y-145242857D01*
X165998809Y-145195238D01*
X166094047Y-145147619D01*
X166236904Y-145147619D01*
X166332142Y-145195238D01*
X166379761Y-145242857D01*
X166427380Y-145338095D01*
X166427380Y-145719047D01*
X165427380Y-145719047D01*
X165427380Y-145385714D01*
X165475000Y-145290476D01*
X165522619Y-145242857D01*
X165617857Y-145195238D01*
X165713095Y-145195238D01*
X165808333Y-145242857D01*
X165855952Y-145290476D01*
X165903571Y-145385714D01*
X165903571Y-145719047D01*
X166379761Y-144766666D02*
X166427380Y-144623809D01*
X166427380Y-144385714D01*
X166379761Y-144290476D01*
X166332142Y-144242857D01*
X166236904Y-144195238D01*
X166141666Y-144195238D01*
X166046428Y-144242857D01*
X165998809Y-144290476D01*
X165951190Y-144385714D01*
X165903571Y-144576190D01*
X165855952Y-144671428D01*
X165808333Y-144719047D01*
X165713095Y-144766666D01*
X165617857Y-144766666D01*
X165522619Y-144719047D01*
X165475000Y-144671428D01*
X165427380Y-144576190D01*
X165427380Y-144338095D01*
X165475000Y-144195238D01*
X166046428Y-143766666D02*
X166046428Y-143004761D01*
X165855952Y-142385714D02*
X165808333Y-142480952D01*
X165760714Y-142528571D01*
X165665476Y-142576190D01*
X165617857Y-142576190D01*
X165522619Y-142528571D01*
X165475000Y-142480952D01*
X165427380Y-142385714D01*
X165427380Y-142195238D01*
X165475000Y-142100000D01*
X165522619Y-142052380D01*
X165617857Y-142004761D01*
X165665476Y-142004761D01*
X165760714Y-142052380D01*
X165808333Y-142100000D01*
X165855952Y-142195238D01*
X165855952Y-142385714D01*
X165903571Y-142480952D01*
X165951190Y-142528571D01*
X166046428Y-142576190D01*
X166236904Y-142576190D01*
X166332142Y-142528571D01*
X166379761Y-142480952D01*
X166427380Y-142385714D01*
X166427380Y-142195238D01*
X166379761Y-142100000D01*
X166332142Y-142052380D01*
X166236904Y-142004761D01*
X166046428Y-142004761D01*
X165951190Y-142052380D01*
X165903571Y-142100000D01*
X165855952Y-142195238D01*
X165522619Y-141623809D02*
X165475000Y-141576190D01*
X165427380Y-141480952D01*
X165427380Y-141242857D01*
X165475000Y-141147619D01*
X165522619Y-141100000D01*
X165617857Y-141052380D01*
X165713095Y-141052380D01*
X165855952Y-141100000D01*
X166427380Y-141671428D01*
X166427380Y-141052380D01*
X165427380Y-140433333D02*
X165427380Y-140338095D01*
X165475000Y-140242857D01*
X165522619Y-140195238D01*
X165617857Y-140147619D01*
X165808333Y-140100000D01*
X166046428Y-140100000D01*
X166236904Y-140147619D01*
X166332142Y-140195238D01*
X166379761Y-140242857D01*
X166427380Y-140338095D01*
X166427380Y-140433333D01*
X166379761Y-140528571D01*
X166332142Y-140576190D01*
X166236904Y-140623809D01*
X166046428Y-140671428D01*
X165808333Y-140671428D01*
X165617857Y-140623809D01*
X165522619Y-140576190D01*
X165475000Y-140528571D01*
X165427380Y-140433333D01*
X165427380Y-139480952D02*
X165427380Y-139385714D01*
X165475000Y-139290476D01*
X165522619Y-139242857D01*
X165617857Y-139195238D01*
X165808333Y-139147619D01*
X166046428Y-139147619D01*
X166236904Y-139195238D01*
X166332142Y-139242857D01*
X166379761Y-139290476D01*
X166427380Y-139385714D01*
X166427380Y-139480952D01*
X166379761Y-139576190D01*
X166332142Y-139623809D01*
X166236904Y-139671428D01*
X166046428Y-139719047D01*
X165808333Y-139719047D01*
X165617857Y-139671428D01*
X165522619Y-139623809D01*
X165475000Y-139576190D01*
X165427380Y-139480952D01*
X166379761Y-138004761D02*
X166427380Y-137861904D01*
X166427380Y-137623809D01*
X166379761Y-137528571D01*
X166332142Y-137480952D01*
X166236904Y-137433333D01*
X166141666Y-137433333D01*
X166046428Y-137480952D01*
X165998809Y-137528571D01*
X165951190Y-137623809D01*
X165903571Y-137814285D01*
X165855952Y-137909523D01*
X165808333Y-137957142D01*
X165713095Y-138004761D01*
X165617857Y-138004761D01*
X165522619Y-137957142D01*
X165475000Y-137909523D01*
X165427380Y-137814285D01*
X165427380Y-137576190D01*
X165475000Y-137433333D01*
X166332142Y-136433333D02*
X166379761Y-136480952D01*
X166427380Y-136623809D01*
X166427380Y-136719047D01*
X166379761Y-136861904D01*
X166284523Y-136957142D01*
X166189285Y-137004761D01*
X165998809Y-137052380D01*
X165855952Y-137052380D01*
X165665476Y-137004761D01*
X165570238Y-136957142D01*
X165475000Y-136861904D01*
X165427380Y-136719047D01*
X165427380Y-136623809D01*
X165475000Y-136480952D01*
X165522619Y-136433333D01*
X166141666Y-136052380D02*
X166141666Y-135576190D01*
X166427380Y-136147619D02*
X165427380Y-135814285D01*
X166427380Y-135480952D01*
X166427380Y-134576190D02*
X165951190Y-134909523D01*
X166427380Y-135147619D02*
X165427380Y-135147619D01*
X165427380Y-134766666D01*
X165475000Y-134671428D01*
X165522619Y-134623809D01*
X165617857Y-134576190D01*
X165760714Y-134576190D01*
X165855952Y-134623809D01*
X165903571Y-134671428D01*
X165951190Y-134766666D01*
X165951190Y-135147619D01*
X165427380Y-134290476D02*
X165427380Y-133719047D01*
X166427380Y-134004761D02*
X165427380Y-134004761D01*
X166427380Y-132623809D02*
X165427380Y-132623809D01*
X165760714Y-132147619D02*
X166427380Y-132147619D01*
X165855952Y-132147619D02*
X165808333Y-132100000D01*
X165760714Y-132004761D01*
X165760714Y-131861904D01*
X165808333Y-131766666D01*
X165903571Y-131719047D01*
X166427380Y-131719047D01*
X165760714Y-131385714D02*
X165760714Y-131004761D01*
X165427380Y-131242857D02*
X166284523Y-131242857D01*
X166379761Y-131195238D01*
X166427380Y-131100000D01*
X166427380Y-131004761D01*
X166379761Y-130290476D02*
X166427380Y-130385714D01*
X166427380Y-130576190D01*
X166379761Y-130671428D01*
X166284523Y-130719047D01*
X165903571Y-130719047D01*
X165808333Y-130671428D01*
X165760714Y-130576190D01*
X165760714Y-130385714D01*
X165808333Y-130290476D01*
X165903571Y-130242857D01*
X165998809Y-130242857D01*
X166094047Y-130719047D01*
X166427380Y-129814285D02*
X165760714Y-129814285D01*
X165951190Y-129814285D02*
X165855952Y-129766666D01*
X165808333Y-129719047D01*
X165760714Y-129623809D01*
X165760714Y-129528571D01*
X165760714Y-129338095D02*
X165760714Y-128957142D01*
X166427380Y-129195238D02*
X165570238Y-129195238D01*
X165475000Y-129147619D01*
X165427380Y-129052380D01*
X165427380Y-128957142D01*
X166427380Y-128195238D02*
X165903571Y-128195238D01*
X165808333Y-128242857D01*
X165760714Y-128338095D01*
X165760714Y-128528571D01*
X165808333Y-128623809D01*
X166379761Y-128195238D02*
X166427380Y-128290476D01*
X166427380Y-128528571D01*
X166379761Y-128623809D01*
X166284523Y-128671428D01*
X166189285Y-128671428D01*
X166094047Y-128623809D01*
X166046428Y-128528571D01*
X166046428Y-128290476D01*
X165998809Y-128195238D01*
X166379761Y-127290476D02*
X166427380Y-127385714D01*
X166427380Y-127576190D01*
X166379761Y-127671428D01*
X166332142Y-127719047D01*
X166236904Y-127766666D01*
X165951190Y-127766666D01*
X165855952Y-127719047D01*
X165808333Y-127671428D01*
X165760714Y-127576190D01*
X165760714Y-127385714D01*
X165808333Y-127290476D01*
X166379761Y-126480952D02*
X166427380Y-126576190D01*
X166427380Y-126766666D01*
X166379761Y-126861904D01*
X166284523Y-126909523D01*
X165903571Y-126909523D01*
X165808333Y-126861904D01*
X165760714Y-126766666D01*
X165760714Y-126576190D01*
X165808333Y-126480952D01*
X165903571Y-126433333D01*
X165998809Y-126433333D01*
X166094047Y-126909523D01*
X168077380Y-137576190D02*
X167601190Y-137909523D01*
X168077380Y-138147619D02*
X167077380Y-138147619D01*
X167077380Y-137766666D01*
X167125000Y-137671428D01*
X167172619Y-137623809D01*
X167267857Y-137576190D01*
X167410714Y-137576190D01*
X167505952Y-137623809D01*
X167553571Y-137671428D01*
X167601190Y-137766666D01*
X167601190Y-138147619D01*
X168029761Y-136766666D02*
X168077380Y-136861904D01*
X168077380Y-137052380D01*
X168029761Y-137147619D01*
X167934523Y-137195238D01*
X167553571Y-137195238D01*
X167458333Y-137147619D01*
X167410714Y-137052380D01*
X167410714Y-136861904D01*
X167458333Y-136766666D01*
X167553571Y-136719047D01*
X167648809Y-136719047D01*
X167744047Y-137195238D01*
X167410714Y-136385714D02*
X168077380Y-136147619D01*
X167410714Y-135909523D01*
X167077380Y-135623809D02*
X167077380Y-135004761D01*
X167458333Y-135338095D01*
X167458333Y-135195238D01*
X167505952Y-135100000D01*
X167553571Y-135052380D01*
X167648809Y-135004761D01*
X167886904Y-135004761D01*
X167982142Y-135052380D01*
X168029761Y-135100000D01*
X168077380Y-135195238D01*
X168077380Y-135480952D01*
X168029761Y-135576190D01*
X167982142Y-135623809D01*
X124100000Y-97761904D02*
X124052380Y-97857142D01*
X124052380Y-98000000D01*
X124100000Y-98142857D01*
X124195238Y-98238095D01*
X124290476Y-98285714D01*
X124480952Y-98333333D01*
X124623809Y-98333333D01*
X124814285Y-98285714D01*
X124909523Y-98238095D01*
X125004761Y-98142857D01*
X125052380Y-98000000D01*
X125052380Y-97904761D01*
X125004761Y-97761904D01*
X124957142Y-97714285D01*
X124623809Y-97714285D01*
X124623809Y-97904761D01*
X125052380Y-97285714D02*
X124052380Y-97285714D01*
X125052380Y-96714285D01*
X124052380Y-96714285D01*
X125052380Y-96238095D02*
X124052380Y-96238095D01*
X124052380Y-96000000D01*
X124100000Y-95857142D01*
X124195238Y-95761904D01*
X124290476Y-95714285D01*
X124480952Y-95666666D01*
X124623809Y-95666666D01*
X124814285Y-95714285D01*
X124909523Y-95761904D01*
X125004761Y-95857142D01*
X125052380Y-96000000D01*
X125052380Y-96238095D01*
X122604761Y-98214285D02*
X122652380Y-98071428D01*
X122652380Y-97833333D01*
X122604761Y-97738095D01*
X122557142Y-97690476D01*
X122461904Y-97642857D01*
X122366666Y-97642857D01*
X122271428Y-97690476D01*
X122223809Y-97738095D01*
X122176190Y-97833333D01*
X122128571Y-98023809D01*
X122080952Y-98119047D01*
X122033333Y-98166666D01*
X121938095Y-98214285D01*
X121842857Y-98214285D01*
X121747619Y-98166666D01*
X121700000Y-98119047D01*
X121652380Y-98023809D01*
X121652380Y-97785714D01*
X121700000Y-97642857D01*
X122652380Y-97214285D02*
X121652380Y-97214285D01*
X121652380Y-96976190D01*
X121700000Y-96833333D01*
X121795238Y-96738095D01*
X121890476Y-96690476D01*
X122080952Y-96642857D01*
X122223809Y-96642857D01*
X122414285Y-96690476D01*
X122509523Y-96738095D01*
X122604761Y-96833333D01*
X122652380Y-96976190D01*
X122652380Y-97214285D01*
X122366666Y-96261904D02*
X122366666Y-95785714D01*
X122652380Y-96357142D02*
X121652380Y-96023809D01*
X122652380Y-95690476D01*
X120004761Y-98190476D02*
X120052380Y-98047619D01*
X120052380Y-97809523D01*
X120004761Y-97714285D01*
X119957142Y-97666666D01*
X119861904Y-97619047D01*
X119766666Y-97619047D01*
X119671428Y-97666666D01*
X119623809Y-97714285D01*
X119576190Y-97809523D01*
X119528571Y-98000000D01*
X119480952Y-98095238D01*
X119433333Y-98142857D01*
X119338095Y-98190476D01*
X119242857Y-98190476D01*
X119147619Y-98142857D01*
X119100000Y-98095238D01*
X119052380Y-98000000D01*
X119052380Y-97761904D01*
X119100000Y-97619047D01*
X119957142Y-96619047D02*
X120004761Y-96666666D01*
X120052380Y-96809523D01*
X120052380Y-96904761D01*
X120004761Y-97047619D01*
X119909523Y-97142857D01*
X119814285Y-97190476D01*
X119623809Y-97238095D01*
X119480952Y-97238095D01*
X119290476Y-97190476D01*
X119195238Y-97142857D01*
X119100000Y-97047619D01*
X119052380Y-96904761D01*
X119052380Y-96809523D01*
X119100000Y-96666666D01*
X119147619Y-96619047D01*
X120052380Y-95714285D02*
X120052380Y-96190476D01*
X119052380Y-96190476D01*
X99452380Y-97690476D02*
X99452380Y-98166666D01*
X98452380Y-98166666D01*
X99404761Y-96976190D02*
X99452380Y-97071428D01*
X99452380Y-97261904D01*
X99404761Y-97357142D01*
X99309523Y-97404761D01*
X98928571Y-97404761D01*
X98833333Y-97357142D01*
X98785714Y-97261904D01*
X98785714Y-97071428D01*
X98833333Y-96976190D01*
X98928571Y-96928571D01*
X99023809Y-96928571D01*
X99119047Y-97404761D01*
X98785714Y-96642857D02*
X98785714Y-96261904D01*
X99452380Y-96500000D02*
X98595238Y-96500000D01*
X98500000Y-96452380D01*
X98452380Y-96357142D01*
X98452380Y-96261904D01*
X98785714Y-96071428D02*
X98785714Y-95690476D01*
X98452380Y-95928571D02*
X99309523Y-95928571D01*
X99404761Y-95880952D01*
X99452380Y-95785714D01*
X99452380Y-95690476D01*
X101952380Y-98619047D02*
X101476190Y-98952380D01*
X101952380Y-99190476D02*
X100952380Y-99190476D01*
X100952380Y-98809523D01*
X101000000Y-98714285D01*
X101047619Y-98666666D01*
X101142857Y-98619047D01*
X101285714Y-98619047D01*
X101380952Y-98666666D01*
X101428571Y-98714285D01*
X101476190Y-98809523D01*
X101476190Y-99190476D01*
X101952380Y-98190476D02*
X101285714Y-98190476D01*
X100952380Y-98190476D02*
X101000000Y-98238095D01*
X101047619Y-98190476D01*
X101000000Y-98142857D01*
X100952380Y-98190476D01*
X101047619Y-98190476D01*
X101285714Y-97285714D02*
X102095238Y-97285714D01*
X102190476Y-97333333D01*
X102238095Y-97380952D01*
X102285714Y-97476190D01*
X102285714Y-97619047D01*
X102238095Y-97714285D01*
X101904761Y-97285714D02*
X101952380Y-97380952D01*
X101952380Y-97571428D01*
X101904761Y-97666666D01*
X101857142Y-97714285D01*
X101761904Y-97761904D01*
X101476190Y-97761904D01*
X101380952Y-97714285D01*
X101333333Y-97666666D01*
X101285714Y-97571428D01*
X101285714Y-97380952D01*
X101333333Y-97285714D01*
X101952380Y-96809523D02*
X100952380Y-96809523D01*
X101952380Y-96380952D02*
X101428571Y-96380952D01*
X101333333Y-96428571D01*
X101285714Y-96523809D01*
X101285714Y-96666666D01*
X101333333Y-96761904D01*
X101380952Y-96809523D01*
X101285714Y-96047619D02*
X101285714Y-95666666D01*
X100952380Y-95904761D02*
X101809523Y-95904761D01*
X101904761Y-95857142D01*
X101952380Y-95761904D01*
X101952380Y-95666666D01*
X103642000Y-97761904D02*
X103594380Y-97857142D01*
X103594380Y-98000000D01*
X103642000Y-98142857D01*
X103737238Y-98238095D01*
X103832476Y-98285714D01*
X104022952Y-98333333D01*
X104165809Y-98333333D01*
X104356285Y-98285714D01*
X104451523Y-98238095D01*
X104546761Y-98142857D01*
X104594380Y-98000000D01*
X104594380Y-97904761D01*
X104546761Y-97761904D01*
X104499142Y-97714285D01*
X104165809Y-97714285D01*
X104165809Y-97904761D01*
X104594380Y-97285714D02*
X103594380Y-97285714D01*
X104594380Y-96714285D01*
X103594380Y-96714285D01*
X104594380Y-96238095D02*
X103594380Y-96238095D01*
X103594380Y-96000000D01*
X103642000Y-95857142D01*
X103737238Y-95761904D01*
X103832476Y-95714285D01*
X104022952Y-95666666D01*
X104165809Y-95666666D01*
X104356285Y-95714285D01*
X104451523Y-95761904D01*
X104546761Y-95857142D01*
X104594380Y-96000000D01*
X104594380Y-96238095D01*
X70300000Y-97511904D02*
X70252380Y-97607142D01*
X70252380Y-97750000D01*
X70300000Y-97892857D01*
X70395238Y-97988095D01*
X70490476Y-98035714D01*
X70680952Y-98083333D01*
X70823809Y-98083333D01*
X71014285Y-98035714D01*
X71109523Y-97988095D01*
X71204761Y-97892857D01*
X71252380Y-97750000D01*
X71252380Y-97654761D01*
X71204761Y-97511904D01*
X71157142Y-97464285D01*
X70823809Y-97464285D01*
X70823809Y-97654761D01*
X71252380Y-97035714D02*
X70252380Y-97035714D01*
X71252380Y-96464285D01*
X70252380Y-96464285D01*
X71252380Y-95988095D02*
X70252380Y-95988095D01*
X70252380Y-95750000D01*
X70300000Y-95607142D01*
X70395238Y-95511904D01*
X70490476Y-95464285D01*
X70680952Y-95416666D01*
X70823809Y-95416666D01*
X71014285Y-95464285D01*
X71109523Y-95511904D01*
X71204761Y-95607142D01*
X71252380Y-95750000D01*
X71252380Y-95988095D01*
X68128571Y-97971428D02*
X68176190Y-97828571D01*
X68223809Y-97780952D01*
X68319047Y-97733333D01*
X68461904Y-97733333D01*
X68557142Y-97780952D01*
X68604761Y-97828571D01*
X68652380Y-97923809D01*
X68652380Y-98304761D01*
X67652380Y-98304761D01*
X67652380Y-97971428D01*
X67700000Y-97876190D01*
X67747619Y-97828571D01*
X67842857Y-97780952D01*
X67938095Y-97780952D01*
X68033333Y-97828571D01*
X68080952Y-97876190D01*
X68128571Y-97971428D01*
X68128571Y-98304761D01*
X68652380Y-97161904D02*
X68604761Y-97257142D01*
X68509523Y-97304761D01*
X67652380Y-97304761D01*
X67985714Y-96352380D02*
X68652380Y-96352380D01*
X67985714Y-96780952D02*
X68509523Y-96780952D01*
X68604761Y-96733333D01*
X68652380Y-96638095D01*
X68652380Y-96495238D01*
X68604761Y-96400000D01*
X68557142Y-96352380D01*
X68604761Y-95495238D02*
X68652380Y-95590476D01*
X68652380Y-95780952D01*
X68604761Y-95876190D01*
X68509523Y-95923809D01*
X68128571Y-95923809D01*
X68033333Y-95876190D01*
X67985714Y-95780952D01*
X67985714Y-95590476D01*
X68033333Y-95495238D01*
X68128571Y-95447619D01*
X68223809Y-95447619D01*
X68319047Y-95923809D01*
X64950000Y-98707142D02*
X64902380Y-98802380D01*
X64902380Y-98945238D01*
X64950000Y-99088095D01*
X65045238Y-99183333D01*
X65140476Y-99230952D01*
X65330952Y-99278571D01*
X65473809Y-99278571D01*
X65664285Y-99230952D01*
X65759523Y-99183333D01*
X65854761Y-99088095D01*
X65902380Y-98945238D01*
X65902380Y-98850000D01*
X65854761Y-98707142D01*
X65807142Y-98659523D01*
X65473809Y-98659523D01*
X65473809Y-98850000D01*
X65902380Y-98230952D02*
X65235714Y-98230952D01*
X65426190Y-98230952D02*
X65330952Y-98183333D01*
X65283333Y-98135714D01*
X65235714Y-98040476D01*
X65235714Y-97945238D01*
X65854761Y-97230952D02*
X65902380Y-97326190D01*
X65902380Y-97516666D01*
X65854761Y-97611904D01*
X65759523Y-97659523D01*
X65378571Y-97659523D01*
X65283333Y-97611904D01*
X65235714Y-97516666D01*
X65235714Y-97326190D01*
X65283333Y-97230952D01*
X65378571Y-97183333D01*
X65473809Y-97183333D01*
X65569047Y-97659523D01*
X65854761Y-96373809D02*
X65902380Y-96469047D01*
X65902380Y-96659523D01*
X65854761Y-96754761D01*
X65759523Y-96802380D01*
X65378571Y-96802380D01*
X65283333Y-96754761D01*
X65235714Y-96659523D01*
X65235714Y-96469047D01*
X65283333Y-96373809D01*
X65378571Y-96326190D01*
X65473809Y-96326190D01*
X65569047Y-96802380D01*
X65235714Y-95897619D02*
X65902380Y-95897619D01*
X65330952Y-95897619D02*
X65283333Y-95850000D01*
X65235714Y-95754761D01*
X65235714Y-95611904D01*
X65283333Y-95516666D01*
X65378571Y-95469047D01*
X65902380Y-95469047D01*
X63452380Y-97209428D02*
X62976190Y-97542761D01*
X63452380Y-97780857D02*
X62452380Y-97780857D01*
X62452380Y-97399904D01*
X62500000Y-97304666D01*
X62547619Y-97257047D01*
X62642857Y-97209428D01*
X62785714Y-97209428D01*
X62880952Y-97257047D01*
X62928571Y-97304666D01*
X62976190Y-97399904D01*
X62976190Y-97780857D01*
X63404761Y-96399904D02*
X63452380Y-96495142D01*
X63452380Y-96685619D01*
X63404761Y-96780857D01*
X63309523Y-96828476D01*
X62928571Y-96828476D01*
X62833333Y-96780857D01*
X62785714Y-96685619D01*
X62785714Y-96495142D01*
X62833333Y-96399904D01*
X62928571Y-96352285D01*
X63023809Y-96352285D01*
X63119047Y-96828476D01*
X63452380Y-95495142D02*
X62452380Y-95495142D01*
X63404761Y-95495142D02*
X63452380Y-95590380D01*
X63452380Y-95780857D01*
X63404761Y-95876095D01*
X63357142Y-95923714D01*
X63261904Y-95971333D01*
X62976190Y-95971333D01*
X62880952Y-95923714D01*
X62833333Y-95876095D01*
X62785714Y-95780857D01*
X62785714Y-95590380D01*
X62833333Y-95495142D01*
X60857142Y-98928571D02*
X60904761Y-98976190D01*
X60952380Y-99119047D01*
X60952380Y-99214285D01*
X60904761Y-99357142D01*
X60809523Y-99452380D01*
X60714285Y-99500000D01*
X60523809Y-99547619D01*
X60380952Y-99547619D01*
X60190476Y-99500000D01*
X60095238Y-99452380D01*
X60000000Y-99357142D01*
X59952380Y-99214285D01*
X59952380Y-99119047D01*
X60000000Y-98976190D01*
X60047619Y-98928571D01*
X60904761Y-98547619D02*
X60952380Y-98404761D01*
X60952380Y-98166666D01*
X60904761Y-98071428D01*
X60857142Y-98023809D01*
X60761904Y-97976190D01*
X60666666Y-97976190D01*
X60571428Y-98023809D01*
X60523809Y-98071428D01*
X60476190Y-98166666D01*
X60428571Y-98357142D01*
X60380952Y-98452380D01*
X60333333Y-98500000D01*
X60238095Y-98547619D01*
X60142857Y-98547619D01*
X60047619Y-98500000D01*
X60000000Y-98452380D01*
X59952380Y-98357142D01*
X59952380Y-98119047D01*
X60000000Y-97976190D01*
X60285714Y-97642857D02*
X60952380Y-97404761D01*
X60285714Y-97166666D02*
X60952380Y-97404761D01*
X61190476Y-97500000D01*
X61238095Y-97547619D01*
X61285714Y-97642857D01*
X60285714Y-96785714D02*
X60952380Y-96785714D01*
X60380952Y-96785714D02*
X60333333Y-96738095D01*
X60285714Y-96642857D01*
X60285714Y-96500000D01*
X60333333Y-96404761D01*
X60428571Y-96357142D01*
X60952380Y-96357142D01*
X60904761Y-95452380D02*
X60952380Y-95547619D01*
X60952380Y-95738095D01*
X60904761Y-95833333D01*
X60857142Y-95880952D01*
X60761904Y-95928571D01*
X60476190Y-95928571D01*
X60380952Y-95880952D01*
X60333333Y-95833333D01*
X60285714Y-95738095D01*
X60285714Y-95547619D01*
X60333333Y-95452380D01*
X81000000Y-97761904D02*
X80952380Y-97857142D01*
X80952380Y-98000000D01*
X81000000Y-98142857D01*
X81095238Y-98238095D01*
X81190476Y-98285714D01*
X81380952Y-98333333D01*
X81523809Y-98333333D01*
X81714285Y-98285714D01*
X81809523Y-98238095D01*
X81904761Y-98142857D01*
X81952380Y-98000000D01*
X81952380Y-97904761D01*
X81904761Y-97761904D01*
X81857142Y-97714285D01*
X81523809Y-97714285D01*
X81523809Y-97904761D01*
X81952380Y-97285714D02*
X80952380Y-97285714D01*
X81952380Y-96714285D01*
X80952380Y-96714285D01*
X81952380Y-96238095D02*
X80952380Y-96238095D01*
X80952380Y-96000000D01*
X81000000Y-95857142D01*
X81095238Y-95761904D01*
X81190476Y-95714285D01*
X81380952Y-95666666D01*
X81523809Y-95666666D01*
X81714285Y-95714285D01*
X81809523Y-95761904D01*
X81904761Y-95857142D01*
X81952380Y-96000000D01*
X81952380Y-96238095D01*
X84071428Y-98238095D02*
X84071428Y-97476190D01*
X84452380Y-97857142D02*
X83690476Y-97857142D01*
X83452380Y-96523809D02*
X83452380Y-97000000D01*
X83928571Y-97047619D01*
X83880952Y-97000000D01*
X83833333Y-96904761D01*
X83833333Y-96666666D01*
X83880952Y-96571428D01*
X83928571Y-96523809D01*
X84023809Y-96476190D01*
X84261904Y-96476190D01*
X84357142Y-96523809D01*
X84404761Y-96571428D01*
X84452380Y-96666666D01*
X84452380Y-96904761D01*
X84404761Y-97000000D01*
X84357142Y-97047619D01*
X83785714Y-96142857D02*
X84452380Y-95904761D01*
X83785714Y-95666666D01*
D11*
X119490000Y-105370000D02*
X155110000Y-105370000D01*
X119490000Y-102710000D02*
X155110000Y-102710000D01*
X116890000Y-104040000D02*
X116890000Y-102710000D01*
X119490000Y-105370000D02*
X119490000Y-102710000D01*
X155110000Y-105370000D02*
X155110000Y-102710000D01*
X116890000Y-102710000D02*
X118220000Y-102710000D01*
X116890000Y-126900000D02*
X116890000Y-125570000D01*
X116890000Y-125570000D02*
X118220000Y-125570000D01*
X119490000Y-125570000D02*
X155110000Y-125570000D01*
X155110000Y-128230000D02*
X155110000Y-125570000D01*
X119490000Y-128230000D02*
X155110000Y-128230000D01*
X119490000Y-128230000D02*
X119490000Y-125570000D01*
D12*
G36*
X142155918Y-143952489D02*
G01*
X142296332Y-143920478D01*
X142468841Y-143859135D01*
X142677720Y-143766506D01*
X142927243Y-143640634D01*
X143221686Y-143479563D01*
X143353969Y-143404283D01*
X143754472Y-143167733D01*
X144102505Y-142947286D01*
X144405223Y-142737204D01*
X144669781Y-142531748D01*
X144903334Y-142325178D01*
X145113038Y-142111758D01*
X145306047Y-141885748D01*
X145401704Y-141761991D01*
X145606694Y-141465258D01*
X145766262Y-141178220D01*
X145884013Y-140888616D01*
X145963552Y-140584181D01*
X146008481Y-140252652D01*
X146022405Y-139881765D01*
X146018396Y-139663546D01*
X145998133Y-139306992D01*
X145961785Y-139003942D01*
X145906439Y-138745779D01*
X145829178Y-138523888D01*
X145727090Y-138329652D01*
X145597257Y-138154455D01*
X145459173Y-138010540D01*
X145190697Y-137795530D01*
X144905940Y-137641443D01*
X144605673Y-137548669D01*
X144504506Y-137531733D01*
X144249749Y-137497625D01*
X144249749Y-136948813D01*
X144249750Y-136400000D01*
X144352937Y-136399531D01*
X144605524Y-136369352D01*
X144864635Y-136286250D01*
X145118245Y-136158035D01*
X145354328Y-135992515D01*
X145560860Y-135797499D01*
X145725816Y-135580794D01*
X145788739Y-135467173D01*
X145852901Y-135315600D01*
X145911907Y-135143676D01*
X145949542Y-135003000D01*
X145975811Y-134841364D01*
X145996747Y-134635348D01*
X146011825Y-134401886D01*
X146020518Y-134157912D01*
X146022302Y-133920360D01*
X146016651Y-133706165D01*
X146003040Y-133532259D01*
X145996598Y-133485887D01*
X145900456Y-133083854D01*
X145743566Y-132694116D01*
X145525630Y-132316316D01*
X145246352Y-131950094D01*
X144905437Y-131595091D01*
X144502587Y-131250950D01*
X144037507Y-130917312D01*
X143696563Y-130702835D01*
X143335649Y-130491635D01*
X143014696Y-130314007D01*
X142735646Y-130170876D01*
X142500443Y-130063170D01*
X142311032Y-129991815D01*
X142169355Y-129957737D01*
X142127054Y-129954750D01*
X142075490Y-129948470D01*
X142076462Y-129928743D01*
X142132058Y-129894239D01*
X142244367Y-129843626D01*
X142397470Y-129782505D01*
X142943722Y-129605438D01*
X143509223Y-129487185D01*
X144089517Y-129427649D01*
X144680151Y-129426735D01*
X145276671Y-129484344D01*
X145874621Y-129600382D01*
X146469549Y-129774752D01*
X146746559Y-129876713D01*
X146901421Y-129940342D01*
X147065734Y-130012633D01*
X147229207Y-130088485D01*
X147381549Y-130162797D01*
X147512468Y-130230472D01*
X147611673Y-130286408D01*
X147668872Y-130325506D01*
X147678750Y-130338642D01*
X147649258Y-130350316D01*
X147568698Y-130368111D01*
X147448938Y-130389719D01*
X147301846Y-130412835D01*
X147282233Y-130415700D01*
X147106711Y-130442964D01*
X146992842Y-130467070D01*
X146939116Y-130491398D01*
X146944022Y-130519327D01*
X147006049Y-130554238D01*
X147123689Y-130599510D01*
X147189790Y-130622589D01*
X147488036Y-130692205D01*
X147794905Y-130700268D01*
X148105239Y-130647212D01*
X148413878Y-130533470D01*
X148448429Y-130516815D01*
X148557854Y-130464213D01*
X148623803Y-130438425D01*
X148659072Y-130436840D01*
X148676459Y-130456849D01*
X148680983Y-130469393D01*
X148686576Y-130588672D01*
X148634666Y-130717687D01*
X148529335Y-130850690D01*
X148374662Y-130981934D01*
X148266125Y-131053669D01*
X148181907Y-131106679D01*
X148133445Y-131141118D01*
X148129467Y-131150671D01*
X148133815Y-131149375D01*
X148190175Y-131136947D01*
X148291863Y-131120488D01*
X148421074Y-131102760D01*
X148484686Y-131094959D01*
X148813518Y-131081498D01*
X149123801Y-131118854D01*
X149408149Y-131204885D01*
X149659179Y-131337447D01*
X149845860Y-131490090D01*
X149921010Y-131568303D01*
X149972133Y-131627667D01*
X149988642Y-131655845D01*
X149988392Y-131656191D01*
X149954424Y-131654354D01*
X149873474Y-131639438D01*
X149760036Y-131614280D01*
X149699135Y-131599604D01*
X149513321Y-131563609D01*
X149373142Y-131557291D01*
X149281374Y-131579326D01*
X149240793Y-131628388D01*
X149254175Y-131703151D01*
X149309735Y-131785541D01*
X149428414Y-131890322D01*
X149591336Y-131983782D01*
X149779262Y-132055985D01*
X149885375Y-132082845D01*
X150041807Y-132101666D01*
X150234039Y-132105607D01*
X150436400Y-132095708D01*
X150623217Y-132073014D01*
X150737664Y-132048229D01*
X150818548Y-132030255D01*
X150870077Y-132027700D01*
X150876223Y-132030391D01*
X150873081Y-132067767D01*
X150837182Y-132136002D01*
X150779103Y-132219538D01*
X150709421Y-132302815D01*
X150653806Y-132357593D01*
X150560480Y-132426898D01*
X150439272Y-132492164D01*
X150274703Y-132561485D01*
X150234625Y-132576774D01*
X150221566Y-132592106D01*
X150266152Y-132607754D01*
X150370992Y-132624518D01*
X150404015Y-132628629D01*
X150758013Y-132689146D01*
X151124623Y-132784167D01*
X151477021Y-132905846D01*
X151727857Y-133015728D01*
X151891248Y-133100655D01*
X152045890Y-133189839D01*
X152182812Y-133277111D01*
X152293046Y-133356304D01*
X152367622Y-133421250D01*
X152397569Y-133465779D01*
X152395984Y-133475183D01*
X152360149Y-133488250D01*
X152274110Y-133505254D01*
X152150865Y-133523969D01*
X152007309Y-133541736D01*
X151852169Y-133560313D01*
X151713550Y-133579254D01*
X151607556Y-133596213D01*
X151553465Y-133607815D01*
X151472875Y-133632293D01*
X151556635Y-133635022D01*
X151653761Y-133648853D01*
X151792821Y-133682313D01*
X151957285Y-133730250D01*
X152130621Y-133787518D01*
X152296296Y-133848965D01*
X152437779Y-133909444D01*
X152437911Y-133909506D01*
X152809747Y-134114745D01*
X153138536Y-134361844D01*
X153314375Y-134528054D01*
X153413738Y-134632580D01*
X153469331Y-134698661D01*
X153484258Y-134730693D01*
X153461619Y-134733070D01*
X153458395Y-134732147D01*
X153242109Y-134691172D01*
X152995362Y-134683804D01*
X152741005Y-134709147D01*
X152501888Y-134766306D01*
X152490567Y-134770042D01*
X152330125Y-134823788D01*
X152536500Y-134862855D01*
X152888137Y-134953181D01*
X153198518Y-135082174D01*
X153463611Y-135247501D01*
X153679389Y-135446829D01*
X153786884Y-135586835D01*
X153867858Y-135725708D01*
X153939691Y-135879351D01*
X153994678Y-136028325D01*
X154025114Y-136153192D01*
X154028750Y-136197044D01*
X154028750Y-136269896D01*
X153893812Y-136208645D01*
X153755570Y-136168552D01*
X153571808Y-136148824D01*
X153357232Y-136149709D01*
X153126552Y-136171454D01*
X152992411Y-136193484D01*
X152821470Y-136229780D01*
X152672398Y-136268202D01*
X152555073Y-136305560D01*
X152479371Y-136338664D01*
X152455172Y-136364323D01*
X152456166Y-136366699D01*
X152494080Y-136384920D01*
X152573710Y-136403754D01*
X152629341Y-136412559D01*
X152729879Y-136431789D01*
X152872020Y-136467062D01*
X153045875Y-136515176D01*
X153241556Y-136572928D01*
X153449175Y-136637114D01*
X153658843Y-136704531D01*
X153860671Y-136771977D01*
X154044773Y-136836248D01*
X154201258Y-136894142D01*
X154320239Y-136942455D01*
X154391828Y-136977985D01*
X154404724Y-136987642D01*
X154385410Y-136996377D01*
X154319053Y-137002042D01*
X154257657Y-137003250D01*
X154099981Y-137016500D01*
X153896278Y-137054104D01*
X153657722Y-137112845D01*
X153395488Y-137189505D01*
X153120750Y-137280866D01*
X152844683Y-137383711D01*
X152632226Y-137471295D01*
X152489827Y-137532816D01*
X152743351Y-137616282D01*
X153061064Y-137707092D01*
X153344246Y-137759643D01*
X153588780Y-137773607D01*
X153790550Y-137748659D01*
X153903633Y-137708120D01*
X154028750Y-137646217D01*
X154028750Y-137716638D01*
X154018609Y-137785104D01*
X153992509Y-137886535D01*
X153968531Y-137962088D01*
X153841438Y-138237130D01*
X153662428Y-138476866D01*
X153433289Y-138679876D01*
X153155806Y-138844736D01*
X152831767Y-138970027D01*
X152637396Y-139020878D01*
X152331892Y-139088961D01*
X152505633Y-139148969D01*
X152625574Y-139177292D01*
X152786183Y-139197628D01*
X152967275Y-139209263D01*
X153148664Y-139211480D01*
X153310163Y-139203566D01*
X153431586Y-139184804D01*
X153441375Y-139182121D01*
X153485441Y-139171516D01*
X153499087Y-139178556D01*
X153478391Y-139210851D01*
X153419432Y-139276012D01*
X153362000Y-139336197D01*
X153034461Y-139632521D01*
X152671928Y-139876555D01*
X152488875Y-139973224D01*
X152328829Y-140044595D01*
X152150550Y-140113982D01*
X151969234Y-140176475D01*
X151800078Y-140227165D01*
X151658280Y-140261143D01*
X151559281Y-140273500D01*
X151494033Y-140276751D01*
X151488681Y-140286011D01*
X151539983Y-140300550D01*
X151644695Y-140319632D01*
X151799572Y-140342524D01*
X151952951Y-140362532D01*
X152111339Y-140384388D01*
X152244198Y-140406756D01*
X152340282Y-140427430D01*
X152388347Y-140444201D01*
X152391750Y-140448664D01*
X152363695Y-140490831D01*
X152290065Y-140555096D01*
X152181499Y-140634028D01*
X152048638Y-140720195D01*
X151902123Y-140806167D01*
X151806250Y-140857578D01*
X151406307Y-141033941D01*
X150973075Y-141171387D01*
X150527724Y-141263658D01*
X150358171Y-141285741D01*
X150139375Y-141309352D01*
X150278793Y-141349482D01*
X150454857Y-141420442D01*
X150616765Y-141522094D01*
X150714610Y-141611139D01*
X150777862Y-141688923D01*
X150834114Y-141769657D01*
X150872667Y-141836525D01*
X150882820Y-141872710D01*
X150881863Y-141873991D01*
X150847163Y-141873822D01*
X150765690Y-141863668D01*
X150653019Y-141845579D01*
X150615625Y-141838942D01*
X150318583Y-141804662D01*
X150037204Y-141810174D01*
X149784056Y-141854431D01*
X149596212Y-141923811D01*
X149458505Y-142003744D01*
X149344757Y-142092822D01*
X149266353Y-142180433D01*
X149234674Y-142255968D01*
X149234500Y-142260992D01*
X149260502Y-142306975D01*
X149312394Y-142342353D01*
X149393512Y-142356322D01*
X149514828Y-142350292D01*
X149657281Y-142327081D01*
X149801810Y-142289509D01*
X149893312Y-142256462D01*
X149965324Y-142232660D01*
X149990344Y-142242081D01*
X149967829Y-142286872D01*
X149897235Y-142369179D01*
X149852999Y-142415573D01*
X149651727Y-142578967D01*
X149407564Y-142703819D01*
X149130061Y-142787400D01*
X148828765Y-142826982D01*
X148513225Y-142819836D01*
X148459400Y-142813845D01*
X148328432Y-142796466D01*
X148217151Y-142779695D01*
X148144162Y-142766406D01*
X148131586Y-142763254D01*
X148125500Y-142767125D01*
X148166556Y-142794249D01*
X148229373Y-142829698D01*
X148395246Y-142937489D01*
X148530628Y-143060931D01*
X148628551Y-143190577D01*
X148682044Y-143316980D01*
X148684138Y-143430691D01*
X148680983Y-143441858D01*
X148667000Y-143469284D01*
X148639929Y-143476081D01*
X148586982Y-143459629D01*
X148495371Y-143417310D01*
X148448429Y-143394232D01*
X148149646Y-143276524D01*
X147847171Y-143215071D01*
X147551337Y-143211733D01*
X147481117Y-143219981D01*
X147325018Y-143251533D01*
X147166014Y-143298170D01*
X147052492Y-143343268D01*
X146869125Y-143431157D01*
X147273937Y-143492709D01*
X147425217Y-143517391D01*
X147550787Y-143541078D01*
X147638914Y-143561317D01*
X147677863Y-143575657D01*
X147678749Y-143577321D01*
X147650730Y-143605352D01*
X147573012Y-143652034D01*
X147455104Y-143713073D01*
X147306516Y-143784173D01*
X147136758Y-143861039D01*
X146955340Y-143939375D01*
X146771771Y-144014885D01*
X146595561Y-144083276D01*
X146436220Y-144140250D01*
X146421668Y-144145125D01*
X145799363Y-144322423D01*
X145186204Y-144437430D01*
X144582759Y-144490151D01*
X143989599Y-144480593D01*
X143407294Y-144408760D01*
X142836414Y-144274658D01*
X142344750Y-144105465D01*
X142011375Y-143973170D01*
X142155918Y-143952489D01*
G37*
X142155918Y-143952489D02*
X142296332Y-143920478D01*
X142468841Y-143859135D01*
X142677720Y-143766506D01*
X142927243Y-143640634D01*
X143221686Y-143479563D01*
X143353969Y-143404283D01*
X143754472Y-143167733D01*
X144102505Y-142947286D01*
X144405223Y-142737204D01*
X144669781Y-142531748D01*
X144903334Y-142325178D01*
X145113038Y-142111758D01*
X145306047Y-141885748D01*
X145401704Y-141761991D01*
X145606694Y-141465258D01*
X145766262Y-141178220D01*
X145884013Y-140888616D01*
X145963552Y-140584181D01*
X146008481Y-140252652D01*
X146022405Y-139881765D01*
X146018396Y-139663546D01*
X145998133Y-139306992D01*
X145961785Y-139003942D01*
X145906439Y-138745779D01*
X145829178Y-138523888D01*
X145727090Y-138329652D01*
X145597257Y-138154455D01*
X145459173Y-138010540D01*
X145190697Y-137795530D01*
X144905940Y-137641443D01*
X144605673Y-137548669D01*
X144504506Y-137531733D01*
X144249749Y-137497625D01*
X144249749Y-136948813D01*
X144249750Y-136400000D01*
X144352937Y-136399531D01*
X144605524Y-136369352D01*
X144864635Y-136286250D01*
X145118245Y-136158035D01*
X145354328Y-135992515D01*
X145560860Y-135797499D01*
X145725816Y-135580794D01*
X145788739Y-135467173D01*
X145852901Y-135315600D01*
X145911907Y-135143676D01*
X145949542Y-135003000D01*
X145975811Y-134841364D01*
X145996747Y-134635348D01*
X146011825Y-134401886D01*
X146020518Y-134157912D01*
X146022302Y-133920360D01*
X146016651Y-133706165D01*
X146003040Y-133532259D01*
X145996598Y-133485887D01*
X145900456Y-133083854D01*
X145743566Y-132694116D01*
X145525630Y-132316316D01*
X145246352Y-131950094D01*
X144905437Y-131595091D01*
X144502587Y-131250950D01*
X144037507Y-130917312D01*
X143696563Y-130702835D01*
X143335649Y-130491635D01*
X143014696Y-130314007D01*
X142735646Y-130170876D01*
X142500443Y-130063170D01*
X142311032Y-129991815D01*
X142169355Y-129957737D01*
X142127054Y-129954750D01*
X142075490Y-129948470D01*
X142076462Y-129928743D01*
X142132058Y-129894239D01*
X142244367Y-129843626D01*
X142397470Y-129782505D01*
X142943722Y-129605438D01*
X143509223Y-129487185D01*
X144089517Y-129427649D01*
X144680151Y-129426735D01*
X145276671Y-129484344D01*
X145874621Y-129600382D01*
X146469549Y-129774752D01*
X146746559Y-129876713D01*
X146901421Y-129940342D01*
X147065734Y-130012633D01*
X147229207Y-130088485D01*
X147381549Y-130162797D01*
X147512468Y-130230472D01*
X147611673Y-130286408D01*
X147668872Y-130325506D01*
X147678750Y-130338642D01*
X147649258Y-130350316D01*
X147568698Y-130368111D01*
X147448938Y-130389719D01*
X147301846Y-130412835D01*
X147282233Y-130415700D01*
X147106711Y-130442964D01*
X146992842Y-130467070D01*
X146939116Y-130491398D01*
X146944022Y-130519327D01*
X147006049Y-130554238D01*
X147123689Y-130599510D01*
X147189790Y-130622589D01*
X147488036Y-130692205D01*
X147794905Y-130700268D01*
X148105239Y-130647212D01*
X148413878Y-130533470D01*
X148448429Y-130516815D01*
X148557854Y-130464213D01*
X148623803Y-130438425D01*
X148659072Y-130436840D01*
X148676459Y-130456849D01*
X148680983Y-130469393D01*
X148686576Y-130588672D01*
X148634666Y-130717687D01*
X148529335Y-130850690D01*
X148374662Y-130981934D01*
X148266125Y-131053669D01*
X148181907Y-131106679D01*
X148133445Y-131141118D01*
X148129467Y-131150671D01*
X148133815Y-131149375D01*
X148190175Y-131136947D01*
X148291863Y-131120488D01*
X148421074Y-131102760D01*
X148484686Y-131094959D01*
X148813518Y-131081498D01*
X149123801Y-131118854D01*
X149408149Y-131204885D01*
X149659179Y-131337447D01*
X149845860Y-131490090D01*
X149921010Y-131568303D01*
X149972133Y-131627667D01*
X149988642Y-131655845D01*
X149988392Y-131656191D01*
X149954424Y-131654354D01*
X149873474Y-131639438D01*
X149760036Y-131614280D01*
X149699135Y-131599604D01*
X149513321Y-131563609D01*
X149373142Y-131557291D01*
X149281374Y-131579326D01*
X149240793Y-131628388D01*
X149254175Y-131703151D01*
X149309735Y-131785541D01*
X149428414Y-131890322D01*
X149591336Y-131983782D01*
X149779262Y-132055985D01*
X149885375Y-132082845D01*
X150041807Y-132101666D01*
X150234039Y-132105607D01*
X150436400Y-132095708D01*
X150623217Y-132073014D01*
X150737664Y-132048229D01*
X150818548Y-132030255D01*
X150870077Y-132027700D01*
X150876223Y-132030391D01*
X150873081Y-132067767D01*
X150837182Y-132136002D01*
X150779103Y-132219538D01*
X150709421Y-132302815D01*
X150653806Y-132357593D01*
X150560480Y-132426898D01*
X150439272Y-132492164D01*
X150274703Y-132561485D01*
X150234625Y-132576774D01*
X150221566Y-132592106D01*
X150266152Y-132607754D01*
X150370992Y-132624518D01*
X150404015Y-132628629D01*
X150758013Y-132689146D01*
X151124623Y-132784167D01*
X151477021Y-132905846D01*
X151727857Y-133015728D01*
X151891248Y-133100655D01*
X152045890Y-133189839D01*
X152182812Y-133277111D01*
X152293046Y-133356304D01*
X152367622Y-133421250D01*
X152397569Y-133465779D01*
X152395984Y-133475183D01*
X152360149Y-133488250D01*
X152274110Y-133505254D01*
X152150865Y-133523969D01*
X152007309Y-133541736D01*
X151852169Y-133560313D01*
X151713550Y-133579254D01*
X151607556Y-133596213D01*
X151553465Y-133607815D01*
X151472875Y-133632293D01*
X151556635Y-133635022D01*
X151653761Y-133648853D01*
X151792821Y-133682313D01*
X151957285Y-133730250D01*
X152130621Y-133787518D01*
X152296296Y-133848965D01*
X152437779Y-133909444D01*
X152437911Y-133909506D01*
X152809747Y-134114745D01*
X153138536Y-134361844D01*
X153314375Y-134528054D01*
X153413738Y-134632580D01*
X153469331Y-134698661D01*
X153484258Y-134730693D01*
X153461619Y-134733070D01*
X153458395Y-134732147D01*
X153242109Y-134691172D01*
X152995362Y-134683804D01*
X152741005Y-134709147D01*
X152501888Y-134766306D01*
X152490567Y-134770042D01*
X152330125Y-134823788D01*
X152536500Y-134862855D01*
X152888137Y-134953181D01*
X153198518Y-135082174D01*
X153463611Y-135247501D01*
X153679389Y-135446829D01*
X153786884Y-135586835D01*
X153867858Y-135725708D01*
X153939691Y-135879351D01*
X153994678Y-136028325D01*
X154025114Y-136153192D01*
X154028750Y-136197044D01*
X154028750Y-136269896D01*
X153893812Y-136208645D01*
X153755570Y-136168552D01*
X153571808Y-136148824D01*
X153357232Y-136149709D01*
X153126552Y-136171454D01*
X152992411Y-136193484D01*
X152821470Y-136229780D01*
X152672398Y-136268202D01*
X152555073Y-136305560D01*
X152479371Y-136338664D01*
X152455172Y-136364323D01*
X152456166Y-136366699D01*
X152494080Y-136384920D01*
X152573710Y-136403754D01*
X152629341Y-136412559D01*
X152729879Y-136431789D01*
X152872020Y-136467062D01*
X153045875Y-136515176D01*
X153241556Y-136572928D01*
X153449175Y-136637114D01*
X153658843Y-136704531D01*
X153860671Y-136771977D01*
X154044773Y-136836248D01*
X154201258Y-136894142D01*
X154320239Y-136942455D01*
X154391828Y-136977985D01*
X154404724Y-136987642D01*
X154385410Y-136996377D01*
X154319053Y-137002042D01*
X154257657Y-137003250D01*
X154099981Y-137016500D01*
X153896278Y-137054104D01*
X153657722Y-137112845D01*
X153395488Y-137189505D01*
X153120750Y-137280866D01*
X152844683Y-137383711D01*
X152632226Y-137471295D01*
X152489827Y-137532816D01*
X152743351Y-137616282D01*
X153061064Y-137707092D01*
X153344246Y-137759643D01*
X153588780Y-137773607D01*
X153790550Y-137748659D01*
X153903633Y-137708120D01*
X154028750Y-137646217D01*
X154028750Y-137716638D01*
X154018609Y-137785104D01*
X153992509Y-137886535D01*
X153968531Y-137962088D01*
X153841438Y-138237130D01*
X153662428Y-138476866D01*
X153433289Y-138679876D01*
X153155806Y-138844736D01*
X152831767Y-138970027D01*
X152637396Y-139020878D01*
X152331892Y-139088961D01*
X152505633Y-139148969D01*
X152625574Y-139177292D01*
X152786183Y-139197628D01*
X152967275Y-139209263D01*
X153148664Y-139211480D01*
X153310163Y-139203566D01*
X153431586Y-139184804D01*
X153441375Y-139182121D01*
X153485441Y-139171516D01*
X153499087Y-139178556D01*
X153478391Y-139210851D01*
X153419432Y-139276012D01*
X153362000Y-139336197D01*
X153034461Y-139632521D01*
X152671928Y-139876555D01*
X152488875Y-139973224D01*
X152328829Y-140044595D01*
X152150550Y-140113982D01*
X151969234Y-140176475D01*
X151800078Y-140227165D01*
X151658280Y-140261143D01*
X151559281Y-140273500D01*
X151494033Y-140276751D01*
X151488681Y-140286011D01*
X151539983Y-140300550D01*
X151644695Y-140319632D01*
X151799572Y-140342524D01*
X151952951Y-140362532D01*
X152111339Y-140384388D01*
X152244198Y-140406756D01*
X152340282Y-140427430D01*
X152388347Y-140444201D01*
X152391750Y-140448664D01*
X152363695Y-140490831D01*
X152290065Y-140555096D01*
X152181499Y-140634028D01*
X152048638Y-140720195D01*
X151902123Y-140806167D01*
X151806250Y-140857578D01*
X151406307Y-141033941D01*
X150973075Y-141171387D01*
X150527724Y-141263658D01*
X150358171Y-141285741D01*
X150139375Y-141309352D01*
X150278793Y-141349482D01*
X150454857Y-141420442D01*
X150616765Y-141522094D01*
X150714610Y-141611139D01*
X150777862Y-141688923D01*
X150834114Y-141769657D01*
X150872667Y-141836525D01*
X150882820Y-141872710D01*
X150881863Y-141873991D01*
X150847163Y-141873822D01*
X150765690Y-141863668D01*
X150653019Y-141845579D01*
X150615625Y-141838942D01*
X150318583Y-141804662D01*
X150037204Y-141810174D01*
X149784056Y-141854431D01*
X149596212Y-141923811D01*
X149458505Y-142003744D01*
X149344757Y-142092822D01*
X149266353Y-142180433D01*
X149234674Y-142255968D01*
X149234500Y-142260992D01*
X149260502Y-142306975D01*
X149312394Y-142342353D01*
X149393512Y-142356322D01*
X149514828Y-142350292D01*
X149657281Y-142327081D01*
X149801810Y-142289509D01*
X149893312Y-142256462D01*
X149965324Y-142232660D01*
X149990344Y-142242081D01*
X149967829Y-142286872D01*
X149897235Y-142369179D01*
X149852999Y-142415573D01*
X149651727Y-142578967D01*
X149407564Y-142703819D01*
X149130061Y-142787400D01*
X148828765Y-142826982D01*
X148513225Y-142819836D01*
X148459400Y-142813845D01*
X148328432Y-142796466D01*
X148217151Y-142779695D01*
X148144162Y-142766406D01*
X148131586Y-142763254D01*
X148125500Y-142767125D01*
X148166556Y-142794249D01*
X148229373Y-142829698D01*
X148395246Y-142937489D01*
X148530628Y-143060931D01*
X148628551Y-143190577D01*
X148682044Y-143316980D01*
X148684138Y-143430691D01*
X148680983Y-143441858D01*
X148667000Y-143469284D01*
X148639929Y-143476081D01*
X148586982Y-143459629D01*
X148495371Y-143417310D01*
X148448429Y-143394232D01*
X148149646Y-143276524D01*
X147847171Y-143215071D01*
X147551337Y-143211733D01*
X147481117Y-143219981D01*
X147325018Y-143251533D01*
X147166014Y-143298170D01*
X147052492Y-143343268D01*
X146869125Y-143431157D01*
X147273937Y-143492709D01*
X147425217Y-143517391D01*
X147550787Y-143541078D01*
X147638914Y-143561317D01*
X147677863Y-143575657D01*
X147678749Y-143577321D01*
X147650730Y-143605352D01*
X147573012Y-143652034D01*
X147455104Y-143713073D01*
X147306516Y-143784173D01*
X147136758Y-143861039D01*
X146955340Y-143939375D01*
X146771771Y-144014885D01*
X146595561Y-144083276D01*
X146436220Y-144140250D01*
X146421668Y-144145125D01*
X145799363Y-144322423D01*
X145186204Y-144437430D01*
X144582759Y-144490151D01*
X143989599Y-144480593D01*
X143407294Y-144408760D01*
X142836414Y-144274658D01*
X142344750Y-144105465D01*
X142011375Y-143973170D01*
X142155918Y-143952489D01*
G36*
X152791809Y-144138321D02*
G01*
X152798784Y-144115013D01*
X152817127Y-144090852D01*
X152852362Y-144062868D01*
X152910013Y-144028092D01*
X152995605Y-143983552D01*
X153114663Y-143926279D01*
X153272710Y-143853301D01*
X153475270Y-143761649D01*
X153727869Y-143648352D01*
X153855179Y-143591375D01*
X154098620Y-143482529D01*
X154324142Y-143381858D01*
X154525096Y-143292318D01*
X154694831Y-143216866D01*
X154826697Y-143158458D01*
X154914045Y-143120049D01*
X154950225Y-143104595D01*
X154950376Y-143104542D01*
X154972151Y-143123835D01*
X154980708Y-143183917D01*
X154975487Y-143229147D01*
X154952927Y-143265490D01*
X154901725Y-143301708D01*
X154810582Y-143346564D01*
X154718770Y-143387013D01*
X154457375Y-143500150D01*
X154448789Y-144158106D01*
X154440204Y-144816062D01*
X154710727Y-144940453D01*
X154838713Y-145001179D01*
X154918881Y-145045919D01*
X154962060Y-145083023D01*
X154979081Y-145120845D01*
X154981250Y-145149069D01*
X154972980Y-145207985D01*
X154940938Y-145217043D01*
X154925687Y-145212116D01*
X154884625Y-145194587D01*
X154792567Y-145154156D01*
X154656456Y-145093910D01*
X154483234Y-145016932D01*
X154282750Y-144927603D01*
X154282750Y-144751103D01*
X154282750Y-143576301D01*
X154100187Y-143657000D01*
X153804864Y-143787917D01*
X153563481Y-143895845D01*
X153371644Y-143982876D01*
X153224958Y-144051108D01*
X153119029Y-144102635D01*
X153049463Y-144139552D01*
X153011865Y-144163956D01*
X153001840Y-144177940D01*
X153003143Y-144180068D01*
X153037995Y-144198808D01*
X153121423Y-144238484D01*
X153243747Y-144294758D01*
X153395290Y-144363293D01*
X153566373Y-144439752D01*
X153747318Y-144519798D01*
X153928445Y-144599094D01*
X154100076Y-144673301D01*
X154179562Y-144707251D01*
X154282750Y-144751103D01*
X154282750Y-144927603D01*
X154279845Y-144926308D01*
X154053232Y-144825122D01*
X153830312Y-144725404D01*
X153557672Y-144603240D01*
X153337414Y-144503980D01*
X153163950Y-144424607D01*
X153031695Y-144362104D01*
X152935063Y-144313451D01*
X152868466Y-144275631D01*
X152826318Y-144245625D01*
X152803033Y-144220416D01*
X152793025Y-144196987D01*
X152790708Y-144172318D01*
X152790678Y-144163748D01*
X152791809Y-144138321D01*
G37*
X152791809Y-144138321D02*
X152798784Y-144115013D01*
X152817127Y-144090852D01*
X152852362Y-144062868D01*
X152910013Y-144028092D01*
X152995605Y-143983552D01*
X153114663Y-143926279D01*
X153272710Y-143853301D01*
X153475270Y-143761649D01*
X153727869Y-143648352D01*
X153855179Y-143591375D01*
X154098620Y-143482529D01*
X154324142Y-143381858D01*
X154525096Y-143292318D01*
X154694831Y-143216866D01*
X154826697Y-143158458D01*
X154914045Y-143120049D01*
X154950225Y-143104595D01*
X154950376Y-143104542D01*
X154972151Y-143123835D01*
X154980708Y-143183917D01*
X154975487Y-143229147D01*
X154952927Y-143265490D01*
X154901725Y-143301708D01*
X154810582Y-143346564D01*
X154718770Y-143387013D01*
X154457375Y-143500150D01*
X154448789Y-144158106D01*
X154440204Y-144816062D01*
X154710727Y-144940453D01*
X154838713Y-145001179D01*
X154918881Y-145045919D01*
X154962060Y-145083023D01*
X154979081Y-145120845D01*
X154981250Y-145149069D01*
X154972980Y-145207985D01*
X154940938Y-145217043D01*
X154925687Y-145212116D01*
X154884625Y-145194587D01*
X154792567Y-145154156D01*
X154656456Y-145093910D01*
X154483234Y-145016932D01*
X154282750Y-144927603D01*
X154282750Y-144751103D01*
X154282750Y-143576301D01*
X154100187Y-143657000D01*
X153804864Y-143787917D01*
X153563481Y-143895845D01*
X153371644Y-143982876D01*
X153224958Y-144051108D01*
X153119029Y-144102635D01*
X153049463Y-144139552D01*
X153011865Y-144163956D01*
X153001840Y-144177940D01*
X153003143Y-144180068D01*
X153037995Y-144198808D01*
X153121423Y-144238484D01*
X153243747Y-144294758D01*
X153395290Y-144363293D01*
X153566373Y-144439752D01*
X153747318Y-144519798D01*
X153928445Y-144599094D01*
X154100076Y-144673301D01*
X154179562Y-144707251D01*
X154282750Y-144751103D01*
X154282750Y-144927603D01*
X154279845Y-144926308D01*
X154053232Y-144825122D01*
X153830312Y-144725404D01*
X153557672Y-144603240D01*
X153337414Y-144503980D01*
X153163950Y-144424607D01*
X153031695Y-144362104D01*
X152935063Y-144313451D01*
X152868466Y-144275631D01*
X152826318Y-144245625D01*
X152803033Y-144220416D01*
X152793025Y-144196987D01*
X152790708Y-144172318D01*
X152790678Y-144163748D01*
X152791809Y-144138321D01*
G36*
X153838250Y-147068000D02*
G01*
X153838250Y-145671000D01*
X152790500Y-145671000D01*
X152790500Y-145479667D01*
X153877937Y-145488021D01*
X154965375Y-145496375D01*
X154975421Y-145583688D01*
X154985467Y-145671000D01*
X153964011Y-145671000D01*
X153972568Y-146361563D01*
X153981125Y-147052125D01*
X154481187Y-147060869D01*
X154981250Y-147069613D01*
X154981250Y-147226750D01*
X152790500Y-147226750D01*
X152790500Y-147068000D01*
X153838250Y-147068000D01*
G37*
X153838250Y-147068000D02*
X153838250Y-145671000D01*
X152790500Y-145671000D01*
X152790500Y-145479667D01*
X153877937Y-145488021D01*
X154965375Y-145496375D01*
X154975421Y-145583688D01*
X154985467Y-145671000D01*
X153964011Y-145671000D01*
X153972568Y-146361563D01*
X153981125Y-147052125D01*
X154481187Y-147060869D01*
X154981250Y-147069613D01*
X154981250Y-147226750D01*
X152790500Y-147226750D01*
X152790500Y-147068000D01*
X153838250Y-147068000D01*
G36*
X152783104Y-141823497D02*
G01*
X152843465Y-141620153D01*
X152931989Y-141463120D01*
X153025681Y-141357453D01*
X153099576Y-141312095D01*
X153153705Y-141327033D01*
X153169363Y-141349008D01*
X153181038Y-141395852D01*
X153157958Y-141448643D01*
X153096289Y-141521029D01*
X153020539Y-141624547D01*
X152961046Y-141745453D01*
X152950052Y-141778761D01*
X152923481Y-141938426D01*
X152921298Y-142120136D01*
X152941563Y-142300253D01*
X152982337Y-142455133D01*
X153010621Y-142517175D01*
X153108515Y-142645335D01*
X153224335Y-142723813D01*
X153347739Y-142749892D01*
X153468385Y-142720860D01*
X153552690Y-142659444D01*
X153588924Y-142619068D01*
X153620279Y-142571346D01*
X153649795Y-142507328D01*
X153680513Y-142418064D01*
X153715473Y-142294605D01*
X153757715Y-142128001D01*
X153810279Y-141909302D01*
X153816674Y-141882303D01*
X153882368Y-141649067D01*
X153957991Y-141473323D01*
X154048732Y-141349237D01*
X154159782Y-141270978D01*
X154296331Y-141232714D01*
X154400235Y-141226523D01*
X154583478Y-141255163D01*
X154736215Y-141337911D01*
X154856264Y-141472039D01*
X154941442Y-141654822D01*
X154989566Y-141883532D01*
X154997149Y-141972125D01*
X154998869Y-142154895D01*
X154984074Y-142317470D01*
X154970451Y-142384875D01*
X154911749Y-142564944D01*
X154834678Y-142705284D01*
X154725553Y-142829493D01*
X154697463Y-142855574D01*
X154606729Y-142932523D01*
X154548694Y-142965413D01*
X154513022Y-142956877D01*
X154489379Y-142909548D01*
X154489097Y-142908663D01*
X154491299Y-142850677D01*
X154538691Y-142781433D01*
X154577780Y-142741975D01*
X154714793Y-142570177D01*
X154806475Y-142363886D01*
X154849742Y-142136016D01*
X154841511Y-141899482D01*
X154811657Y-141762488D01*
X154741056Y-141601537D01*
X154641765Y-141483940D01*
X154523819Y-141411573D01*
X154397257Y-141386312D01*
X154272116Y-141410035D01*
X154158432Y-141484618D01*
X154066242Y-141611937D01*
X154061185Y-141622182D01*
X154029988Y-141704678D01*
X153992069Y-141831442D01*
X153952494Y-141984346D01*
X153920364Y-142125940D01*
X153860729Y-142378083D01*
X153798148Y-142572973D01*
X153728051Y-142716839D01*
X153645871Y-142815905D01*
X153547036Y-142876401D01*
X153426979Y-142904552D01*
X153346125Y-142908513D01*
X153170560Y-142882421D01*
X153025299Y-142802031D01*
X152904619Y-142664177D01*
X152904455Y-142663927D01*
X152818914Y-142483968D01*
X152770437Y-142272507D01*
X152758631Y-142046649D01*
X152783104Y-141823497D01*
G37*
X152783104Y-141823497D02*
X152843465Y-141620153D01*
X152931989Y-141463120D01*
X153025681Y-141357453D01*
X153099576Y-141312095D01*
X153153705Y-141327033D01*
X153169363Y-141349008D01*
X153181038Y-141395852D01*
X153157958Y-141448643D01*
X153096289Y-141521029D01*
X153020539Y-141624547D01*
X152961046Y-141745453D01*
X152950052Y-141778761D01*
X152923481Y-141938426D01*
X152921298Y-142120136D01*
X152941563Y-142300253D01*
X152982337Y-142455133D01*
X153010621Y-142517175D01*
X153108515Y-142645335D01*
X153224335Y-142723813D01*
X153347739Y-142749892D01*
X153468385Y-142720860D01*
X153552690Y-142659444D01*
X153588924Y-142619068D01*
X153620279Y-142571346D01*
X153649795Y-142507328D01*
X153680513Y-142418064D01*
X153715473Y-142294605D01*
X153757715Y-142128001D01*
X153810279Y-141909302D01*
X153816674Y-141882303D01*
X153882368Y-141649067D01*
X153957991Y-141473323D01*
X154048732Y-141349237D01*
X154159782Y-141270978D01*
X154296331Y-141232714D01*
X154400235Y-141226523D01*
X154583478Y-141255163D01*
X154736215Y-141337911D01*
X154856264Y-141472039D01*
X154941442Y-141654822D01*
X154989566Y-141883532D01*
X154997149Y-141972125D01*
X154998869Y-142154895D01*
X154984074Y-142317470D01*
X154970451Y-142384875D01*
X154911749Y-142564944D01*
X154834678Y-142705284D01*
X154725553Y-142829493D01*
X154697463Y-142855574D01*
X154606729Y-142932523D01*
X154548694Y-142965413D01*
X154513022Y-142956877D01*
X154489379Y-142909548D01*
X154489097Y-142908663D01*
X154491299Y-142850677D01*
X154538691Y-142781433D01*
X154577780Y-142741975D01*
X154714793Y-142570177D01*
X154806475Y-142363886D01*
X154849742Y-142136016D01*
X154841511Y-141899482D01*
X154811657Y-141762488D01*
X154741056Y-141601537D01*
X154641765Y-141483940D01*
X154523819Y-141411573D01*
X154397257Y-141386312D01*
X154272116Y-141410035D01*
X154158432Y-141484618D01*
X154066242Y-141611937D01*
X154061185Y-141622182D01*
X154029988Y-141704678D01*
X153992069Y-141831442D01*
X153952494Y-141984346D01*
X153920364Y-142125940D01*
X153860729Y-142378083D01*
X153798148Y-142572973D01*
X153728051Y-142716839D01*
X153645871Y-142815905D01*
X153547036Y-142876401D01*
X153426979Y-142904552D01*
X153346125Y-142908513D01*
X153170560Y-142882421D01*
X153025299Y-142802031D01*
X152904619Y-142664177D01*
X152904455Y-142663927D01*
X152818914Y-142483968D01*
X152770437Y-142272507D01*
X152758631Y-142046649D01*
X152783104Y-141823497D01*
G36*
X155584913Y-128526000D02*
G01*
X155585466Y-128230081D01*
X155587124Y-127989104D01*
X155590280Y-127794515D01*
X155595331Y-127637761D01*
X155602669Y-127510288D01*
X155612691Y-127403542D01*
X155625791Y-127308970D01*
X155642363Y-127218018D01*
X155646133Y-127199491D01*
X155730200Y-126888448D01*
X155849316Y-126618338D01*
X156012591Y-126372134D01*
X156202921Y-126158826D01*
X156433633Y-125952353D01*
X156672468Y-125793647D01*
X156939005Y-125671239D01*
X157157555Y-125599570D01*
X157348617Y-125559703D01*
X157579605Y-125534370D01*
X157830368Y-125523798D01*
X158080758Y-125528214D01*
X158310623Y-125547843D01*
X158499815Y-125582912D01*
X158505500Y-125584435D01*
X158861766Y-125711611D01*
X159180701Y-125888033D01*
X159458937Y-126110392D01*
X159693108Y-126375380D01*
X159879846Y-126679687D01*
X160015783Y-127020005D01*
X160035385Y-127087710D01*
X160053747Y-127159535D01*
X160068679Y-127231944D01*
X160080648Y-127312712D01*
X160090126Y-127409615D01*
X160097581Y-127530427D01*
X160103484Y-127682925D01*
X160108303Y-127874883D01*
X160112509Y-128114076D01*
X160116571Y-128408281D01*
X160116952Y-128438270D01*
X160130912Y-129541165D01*
X159299250Y-129544221D01*
X159299250Y-128717141D01*
X159298698Y-128169133D01*
X159294636Y-127890930D01*
X159283324Y-127658678D01*
X159265173Y-127479153D01*
X159252530Y-127405848D01*
X159164454Y-127128623D01*
X159027808Y-126890546D01*
X158845792Y-126693997D01*
X158621607Y-126541353D01*
X158358453Y-126434992D01*
X158059530Y-126377294D01*
X157854624Y-126367000D01*
X157538019Y-126393027D01*
X157250499Y-126469306D01*
X156996831Y-126593138D01*
X156781783Y-126761822D01*
X156610121Y-126972659D01*
X156530490Y-127117075D01*
X156465534Y-127295322D01*
X156419818Y-127514195D01*
X156392616Y-127779542D01*
X156383205Y-128097209D01*
X156385188Y-128289024D01*
X156394125Y-128700625D01*
X157846687Y-128708883D01*
X159299250Y-128717141D01*
X159299250Y-129544221D01*
X155584492Y-129557875D01*
X155584913Y-128526000D01*
G37*
X155584913Y-128526000D02*
X155585466Y-128230081D01*
X155587124Y-127989104D01*
X155590280Y-127794515D01*
X155595331Y-127637761D01*
X155602669Y-127510288D01*
X155612691Y-127403542D01*
X155625791Y-127308970D01*
X155642363Y-127218018D01*
X155646133Y-127199491D01*
X155730200Y-126888448D01*
X155849316Y-126618338D01*
X156012591Y-126372134D01*
X156202921Y-126158826D01*
X156433633Y-125952353D01*
X156672468Y-125793647D01*
X156939005Y-125671239D01*
X157157555Y-125599570D01*
X157348617Y-125559703D01*
X157579605Y-125534370D01*
X157830368Y-125523798D01*
X158080758Y-125528214D01*
X158310623Y-125547843D01*
X158499815Y-125582912D01*
X158505500Y-125584435D01*
X158861766Y-125711611D01*
X159180701Y-125888033D01*
X159458937Y-126110392D01*
X159693108Y-126375380D01*
X159879846Y-126679687D01*
X160015783Y-127020005D01*
X160035385Y-127087710D01*
X160053747Y-127159535D01*
X160068679Y-127231944D01*
X160080648Y-127312712D01*
X160090126Y-127409615D01*
X160097581Y-127530427D01*
X160103484Y-127682925D01*
X160108303Y-127874883D01*
X160112509Y-128114076D01*
X160116571Y-128408281D01*
X160116952Y-128438270D01*
X160130912Y-129541165D01*
X159299250Y-129544221D01*
X159299250Y-128717141D01*
X159298698Y-128169133D01*
X159294636Y-127890930D01*
X159283324Y-127658678D01*
X159265173Y-127479153D01*
X159252530Y-127405848D01*
X159164454Y-127128623D01*
X159027808Y-126890546D01*
X158845792Y-126693997D01*
X158621607Y-126541353D01*
X158358453Y-126434992D01*
X158059530Y-126377294D01*
X157854624Y-126367000D01*
X157538019Y-126393027D01*
X157250499Y-126469306D01*
X156996831Y-126593138D01*
X156781783Y-126761822D01*
X156610121Y-126972659D01*
X156530490Y-127117075D01*
X156465534Y-127295322D01*
X156419818Y-127514195D01*
X156392616Y-127779542D01*
X156383205Y-128097209D01*
X156385188Y-128289024D01*
X156394125Y-128700625D01*
X157846687Y-128708883D01*
X159299250Y-128717141D01*
X159299250Y-129544221D01*
X155584492Y-129557875D01*
X155584913Y-128526000D01*
G36*
X155585051Y-132677313D02*
G01*
X155585751Y-132332011D01*
X155588041Y-132043085D01*
X155592731Y-131803412D01*
X155600629Y-131605872D01*
X155612546Y-131443345D01*
X155629291Y-131308711D01*
X155651673Y-131194848D01*
X155680502Y-131094636D01*
X155716587Y-131000955D01*
X155760738Y-130906684D01*
X155793610Y-130842734D01*
X155957462Y-130597393D01*
X156166762Y-130392370D01*
X156413492Y-130233726D01*
X156689632Y-130127523D01*
X156763480Y-130109627D01*
X156922336Y-130090194D01*
X157116044Y-130087917D01*
X157319228Y-130101284D01*
X157506510Y-130128778D01*
X157632375Y-130161478D01*
X157890746Y-130282497D01*
X158109244Y-130452584D01*
X158286395Y-130670236D01*
X158420728Y-130933950D01*
X158440463Y-130986806D01*
X158521375Y-131215037D01*
X159283375Y-130537309D01*
X159469875Y-130372495D01*
X159642297Y-130222151D01*
X159794686Y-130091310D01*
X159921089Y-129985006D01*
X160015551Y-129908272D01*
X160072119Y-129866142D01*
X160085062Y-129859541D01*
X160100888Y-129875559D01*
X160112231Y-129928187D01*
X160119629Y-130024232D01*
X160123621Y-130170498D01*
X160124750Y-130360938D01*
X160124750Y-130862376D01*
X159362750Y-131525716D01*
X158600750Y-132189055D01*
X158600750Y-133002750D01*
X160124750Y-133002750D01*
X160124750Y-133860000D01*
X157843710Y-133860000D01*
X157843710Y-133002750D01*
X157833282Y-132232813D01*
X157829661Y-131989778D01*
X157825687Y-131801475D01*
X157820589Y-131659139D01*
X157813593Y-131554003D01*
X157803931Y-131477301D01*
X157790828Y-131420266D01*
X157773515Y-131374133D01*
X157754335Y-131335875D01*
X157625424Y-131154586D01*
X157464192Y-131027811D01*
X157271681Y-130956182D01*
X157099878Y-130939000D01*
X156892082Y-130968513D01*
X156708603Y-131052545D01*
X156558307Y-131184337D01*
X156450060Y-131357128D01*
X156412808Y-131462875D01*
X156402079Y-131535046D01*
X156392863Y-131660519D01*
X156385578Y-131829109D01*
X156380647Y-132030629D01*
X156378488Y-132254892D01*
X156378427Y-132296313D01*
X156378250Y-133002750D01*
X157843710Y-133002750D01*
X157843710Y-133860000D01*
X155584500Y-133860000D01*
X155585051Y-132677313D01*
G37*
X155585051Y-132677313D02*
X155585751Y-132332011D01*
X155588041Y-132043085D01*
X155592731Y-131803412D01*
X155600629Y-131605872D01*
X155612546Y-131443345D01*
X155629291Y-131308711D01*
X155651673Y-131194848D01*
X155680502Y-131094636D01*
X155716587Y-131000955D01*
X155760738Y-130906684D01*
X155793610Y-130842734D01*
X155957462Y-130597393D01*
X156166762Y-130392370D01*
X156413492Y-130233726D01*
X156689632Y-130127523D01*
X156763480Y-130109627D01*
X156922336Y-130090194D01*
X157116044Y-130087917D01*
X157319228Y-130101284D01*
X157506510Y-130128778D01*
X157632375Y-130161478D01*
X157890746Y-130282497D01*
X158109244Y-130452584D01*
X158286395Y-130670236D01*
X158420728Y-130933950D01*
X158440463Y-130986806D01*
X158521375Y-131215037D01*
X159283375Y-130537309D01*
X159469875Y-130372495D01*
X159642297Y-130222151D01*
X159794686Y-130091310D01*
X159921089Y-129985006D01*
X160015551Y-129908272D01*
X160072119Y-129866142D01*
X160085062Y-129859541D01*
X160100888Y-129875559D01*
X160112231Y-129928187D01*
X160119629Y-130024232D01*
X160123621Y-130170498D01*
X160124750Y-130360938D01*
X160124750Y-130862376D01*
X159362750Y-131525716D01*
X158600750Y-132189055D01*
X158600750Y-133002750D01*
X160124750Y-133002750D01*
X160124750Y-133860000D01*
X157843710Y-133860000D01*
X157843710Y-133002750D01*
X157833282Y-132232813D01*
X157829661Y-131989778D01*
X157825687Y-131801475D01*
X157820589Y-131659139D01*
X157813593Y-131554003D01*
X157803931Y-131477301D01*
X157790828Y-131420266D01*
X157773515Y-131374133D01*
X157754335Y-131335875D01*
X157625424Y-131154586D01*
X157464192Y-131027811D01*
X157271681Y-130956182D01*
X157099878Y-130939000D01*
X156892082Y-130968513D01*
X156708603Y-131052545D01*
X156558307Y-131184337D01*
X156450060Y-131357128D01*
X156412808Y-131462875D01*
X156402079Y-131535046D01*
X156392863Y-131660519D01*
X156385578Y-131829109D01*
X156380647Y-132030629D01*
X156378488Y-132254892D01*
X156378427Y-132296313D01*
X156378250Y-133002750D01*
X157843710Y-133002750D01*
X157843710Y-133860000D01*
X155584500Y-133860000D01*
X155585051Y-132677313D01*
G36*
X157831068Y-135280813D02*
G01*
X158186847Y-135121343D01*
X158525865Y-134969642D01*
X158843661Y-134827689D01*
X159135772Y-134697466D01*
X159397738Y-134580954D01*
X159625095Y-134480134D01*
X159813382Y-134396987D01*
X159958137Y-134333495D01*
X160054899Y-134291638D01*
X160099205Y-134273398D01*
X160101483Y-134272750D01*
X160109746Y-134302629D01*
X160116717Y-134384788D01*
X160121823Y-134508011D01*
X160124492Y-134661084D01*
X160124750Y-134728714D01*
X160124750Y-135184678D01*
X159704062Y-135373401D01*
X159283375Y-135562124D01*
X159266745Y-137946146D01*
X160108875Y-138327098D01*
X160117661Y-138792299D01*
X160120134Y-138955959D01*
X160121050Y-139094412D01*
X160120427Y-139196557D01*
X160118285Y-139251293D01*
X160116837Y-139257500D01*
X160087070Y-139244807D01*
X160003810Y-139208044D01*
X159871477Y-139149190D01*
X159694490Y-139070221D01*
X159477268Y-138973116D01*
X159224232Y-138859851D01*
X158939801Y-138732404D01*
X158628394Y-138592752D01*
X158473750Y-138523350D01*
X158473750Y-137605700D01*
X158473750Y-136764725D01*
X158473262Y-136541109D01*
X158471886Y-136339862D01*
X158469756Y-136169245D01*
X158467003Y-136037517D01*
X158463761Y-135952937D01*
X158460238Y-135923750D01*
X158426476Y-135936089D01*
X158343279Y-135970599D01*
X158219176Y-136023525D01*
X158062697Y-136091110D01*
X157882372Y-136169598D01*
X157686730Y-136255232D01*
X157484303Y-136344256D01*
X157283618Y-136432915D01*
X157093207Y-136517450D01*
X156921598Y-136594106D01*
X156777322Y-136659127D01*
X156668909Y-136708756D01*
X156604887Y-136739236D01*
X156591292Y-136746808D01*
X156612376Y-136765295D01*
X156684587Y-136805175D01*
X156800642Y-136862928D01*
X156953261Y-136935032D01*
X157135159Y-137017968D01*
X157337417Y-137107499D01*
X157554744Y-137202411D01*
X157762811Y-137293354D01*
X157951468Y-137375887D01*
X158110565Y-137445568D01*
X158229950Y-137497953D01*
X158291187Y-137524928D01*
X158473750Y-137605700D01*
X158473750Y-138523350D01*
X158294430Y-138442873D01*
X157942330Y-138284744D01*
X157853801Y-138244968D01*
X155600375Y-137232436D01*
X155592146Y-136760656D01*
X155583918Y-136288875D01*
X157831068Y-135280813D01*
G37*
X157831068Y-135280813D02*
X158186847Y-135121343D01*
X158525865Y-134969642D01*
X158843661Y-134827689D01*
X159135772Y-134697466D01*
X159397738Y-134580954D01*
X159625095Y-134480134D01*
X159813382Y-134396987D01*
X159958137Y-134333495D01*
X160054899Y-134291638D01*
X160099205Y-134273398D01*
X160101483Y-134272750D01*
X160109746Y-134302629D01*
X160116717Y-134384788D01*
X160121823Y-134508011D01*
X160124492Y-134661084D01*
X160124750Y-134728714D01*
X160124750Y-135184678D01*
X159704062Y-135373401D01*
X159283375Y-135562124D01*
X159266745Y-137946146D01*
X160108875Y-138327098D01*
X160117661Y-138792299D01*
X160120134Y-138955959D01*
X160121050Y-139094412D01*
X160120427Y-139196557D01*
X160118285Y-139251293D01*
X160116837Y-139257500D01*
X160087070Y-139244807D01*
X160003810Y-139208044D01*
X159871477Y-139149190D01*
X159694490Y-139070221D01*
X159477268Y-138973116D01*
X159224232Y-138859851D01*
X158939801Y-138732404D01*
X158628394Y-138592752D01*
X158473750Y-138523350D01*
X158473750Y-137605700D01*
X158473750Y-136764725D01*
X158473262Y-136541109D01*
X158471886Y-136339862D01*
X158469756Y-136169245D01*
X158467003Y-136037517D01*
X158463761Y-135952937D01*
X158460238Y-135923750D01*
X158426476Y-135936089D01*
X158343279Y-135970599D01*
X158219176Y-136023525D01*
X158062697Y-136091110D01*
X157882372Y-136169598D01*
X157686730Y-136255232D01*
X157484303Y-136344256D01*
X157283618Y-136432915D01*
X157093207Y-136517450D01*
X156921598Y-136594106D01*
X156777322Y-136659127D01*
X156668909Y-136708756D01*
X156604887Y-136739236D01*
X156591292Y-136746808D01*
X156612376Y-136765295D01*
X156684587Y-136805175D01*
X156800642Y-136862928D01*
X156953261Y-136935032D01*
X157135159Y-137017968D01*
X157337417Y-137107499D01*
X157554744Y-137202411D01*
X157762811Y-137293354D01*
X157951468Y-137375887D01*
X158110565Y-137445568D01*
X158229950Y-137497953D01*
X158291187Y-137524928D01*
X158473750Y-137605700D01*
X158473750Y-138523350D01*
X158294430Y-138442873D01*
X157942330Y-138284744D01*
X157853801Y-138244968D01*
X155600375Y-137232436D01*
X155592146Y-136760656D01*
X155583918Y-136288875D01*
X157831068Y-135280813D01*
G36*
X156410000Y-139448000D02*
G01*
X156410000Y-141988000D01*
X157457750Y-141988000D01*
X157457750Y-139543250D01*
X158251500Y-139543250D01*
X158251500Y-141988000D01*
X159267500Y-141988000D01*
X159267500Y-139448000D01*
X160124750Y-139448000D01*
X160124750Y-142845250D01*
X155584500Y-142845250D01*
X155584500Y-139448000D01*
X156410000Y-139448000D01*
G37*
X156410000Y-139448000D02*
X156410000Y-141988000D01*
X157457750Y-141988000D01*
X157457750Y-139543250D01*
X158251500Y-139543250D01*
X158251500Y-141988000D01*
X159267500Y-141988000D01*
X159267500Y-139448000D01*
X160124750Y-139448000D01*
X160124750Y-142845250D01*
X155584500Y-142845250D01*
X155584500Y-139448000D01*
X156410000Y-139448000D01*
G36*
X155590865Y-145980563D02*
G01*
X155593627Y-145657041D01*
X155596338Y-145390372D01*
X155599368Y-145173911D01*
X155603084Y-145001012D01*
X155607855Y-144865030D01*
X155614050Y-144759321D01*
X155622036Y-144677237D01*
X155632182Y-144612135D01*
X155644857Y-144557369D01*
X155660428Y-144506292D01*
X155674907Y-144464500D01*
X155798688Y-144186414D01*
X155954221Y-143962788D01*
X156143651Y-143791912D01*
X156369125Y-143672070D01*
X156632787Y-143601550D01*
X156776702Y-143584471D01*
X157028748Y-143588318D01*
X157247172Y-143642929D01*
X157439218Y-143750468D01*
X157501346Y-143800837D01*
X157593115Y-143891940D01*
X157672188Y-143988145D01*
X157708634Y-144045409D01*
X157766736Y-144158662D01*
X157820650Y-144045047D01*
X157950798Y-143841493D01*
X158124886Y-143676950D01*
X158334388Y-143554657D01*
X158570778Y-143477852D01*
X158825530Y-143449776D01*
X159090118Y-143473668D01*
X159232225Y-143508751D01*
X159471839Y-143609945D01*
X159671798Y-143757104D01*
X159834245Y-143952658D01*
X159961325Y-144199037D01*
X160034394Y-144417458D01*
X160051703Y-144483708D01*
X160066004Y-144549090D01*
X160077662Y-144620511D01*
X160087042Y-144704876D01*
X160094510Y-144809091D01*
X160100430Y-144940063D01*
X160105169Y-145104699D01*
X160109090Y-145309903D01*
X160112560Y-145562583D01*
X160115944Y-145869645D01*
X160117069Y-145980563D01*
X160130186Y-147290250D01*
X159336686Y-147290250D01*
X159336686Y-146433000D01*
X159322768Y-145647188D01*
X159316789Y-145392465D01*
X159308623Y-145168665D01*
X159298698Y-144983423D01*
X159287447Y-144844376D01*
X159275298Y-144759159D01*
X159271968Y-144746516D01*
X159187128Y-144556238D01*
X159072844Y-144415978D01*
X158933280Y-144329474D01*
X158775340Y-144300459D01*
X158604507Y-144330259D01*
X158455070Y-144419722D01*
X158326896Y-144568944D01*
X158267561Y-144672254D01*
X158172125Y-144861375D01*
X158162175Y-145647188D01*
X158152225Y-146433000D01*
X159336686Y-146433000D01*
X159336686Y-147290250D01*
X157394250Y-147290250D01*
X157394250Y-146433000D01*
X157394250Y-145653074D01*
X157393909Y-145407645D01*
X157392457Y-145216697D01*
X157389245Y-145071211D01*
X157383624Y-144962170D01*
X157374946Y-144880555D01*
X157362563Y-144817349D01*
X157345826Y-144763533D01*
X157326941Y-144716685D01*
X157235472Y-144568791D01*
X157113120Y-144473225D01*
X156964911Y-144433648D01*
X156937045Y-144432750D01*
X156756234Y-144461567D01*
X156603079Y-144547029D01*
X156479674Y-144687655D01*
X156420598Y-144798309D01*
X156402148Y-144848784D01*
X156387687Y-144912444D01*
X156376546Y-144997941D01*
X156368058Y-145113926D01*
X156361556Y-145269050D01*
X156356373Y-145471964D01*
X156352656Y-145678938D01*
X156340646Y-146433000D01*
X157394250Y-146433000D01*
X157394250Y-147290250D01*
X155580106Y-147290250D01*
X155590865Y-145980563D01*
G37*
X155590865Y-145980563D02*
X155593627Y-145657041D01*
X155596338Y-145390372D01*
X155599368Y-145173911D01*
X155603084Y-145001012D01*
X155607855Y-144865030D01*
X155614050Y-144759321D01*
X155622036Y-144677237D01*
X155632182Y-144612135D01*
X155644857Y-144557369D01*
X155660428Y-144506292D01*
X155674907Y-144464500D01*
X155798688Y-144186414D01*
X155954221Y-143962788D01*
X156143651Y-143791912D01*
X156369125Y-143672070D01*
X156632787Y-143601550D01*
X156776702Y-143584471D01*
X157028748Y-143588318D01*
X157247172Y-143642929D01*
X157439218Y-143750468D01*
X157501346Y-143800837D01*
X157593115Y-143891940D01*
X157672188Y-143988145D01*
X157708634Y-144045409D01*
X157766736Y-144158662D01*
X157820650Y-144045047D01*
X157950798Y-143841493D01*
X158124886Y-143676950D01*
X158334388Y-143554657D01*
X158570778Y-143477852D01*
X158825530Y-143449776D01*
X159090118Y-143473668D01*
X159232225Y-143508751D01*
X159471839Y-143609945D01*
X159671798Y-143757104D01*
X159834245Y-143952658D01*
X159961325Y-144199037D01*
X160034394Y-144417458D01*
X160051703Y-144483708D01*
X160066004Y-144549090D01*
X160077662Y-144620511D01*
X160087042Y-144704876D01*
X160094510Y-144809091D01*
X160100430Y-144940063D01*
X160105169Y-145104699D01*
X160109090Y-145309903D01*
X160112560Y-145562583D01*
X160115944Y-145869645D01*
X160117069Y-145980563D01*
X160130186Y-147290250D01*
X159336686Y-147290250D01*
X159336686Y-146433000D01*
X159322768Y-145647188D01*
X159316789Y-145392465D01*
X159308623Y-145168665D01*
X159298698Y-144983423D01*
X159287447Y-144844376D01*
X159275298Y-144759159D01*
X159271968Y-144746516D01*
X159187128Y-144556238D01*
X159072844Y-144415978D01*
X158933280Y-144329474D01*
X158775340Y-144300459D01*
X158604507Y-144330259D01*
X158455070Y-144419722D01*
X158326896Y-144568944D01*
X158267561Y-144672254D01*
X158172125Y-144861375D01*
X158162175Y-145647188D01*
X158152225Y-146433000D01*
X159336686Y-146433000D01*
X159336686Y-147290250D01*
X157394250Y-147290250D01*
X157394250Y-146433000D01*
X157394250Y-145653074D01*
X157393909Y-145407645D01*
X157392457Y-145216697D01*
X157389245Y-145071211D01*
X157383624Y-144962170D01*
X157374946Y-144880555D01*
X157362563Y-144817349D01*
X157345826Y-144763533D01*
X157326941Y-144716685D01*
X157235472Y-144568791D01*
X157113120Y-144473225D01*
X156964911Y-144433648D01*
X156937045Y-144432750D01*
X156756234Y-144461567D01*
X156603079Y-144547029D01*
X156479674Y-144687655D01*
X156420598Y-144798309D01*
X156402148Y-144848784D01*
X156387687Y-144912444D01*
X156376546Y-144997941D01*
X156368058Y-145113926D01*
X156361556Y-145269050D01*
X156356373Y-145471964D01*
X156352656Y-145678938D01*
X156340646Y-146433000D01*
X157394250Y-146433000D01*
X157394250Y-147290250D01*
X155580106Y-147290250D01*
X155590865Y-145980563D01*
G36*
X161140750Y-128240250D02*
G01*
X161140750Y-129573750D01*
X161998000Y-129573750D01*
X161998000Y-128303750D01*
X162156750Y-128303750D01*
X162156750Y-129573750D01*
X163014000Y-129573750D01*
X163014000Y-128208500D01*
X163172750Y-128208500D01*
X163172750Y-129764250D01*
X160982000Y-129764250D01*
X160982000Y-128240250D01*
X161140750Y-128240250D01*
G37*
X161140750Y-128240250D02*
X161140750Y-129573750D01*
X161998000Y-129573750D01*
X161998000Y-128303750D01*
X162156750Y-128303750D01*
X162156750Y-129573750D01*
X163014000Y-129573750D01*
X163014000Y-128208500D01*
X163172750Y-128208500D01*
X163172750Y-129764250D01*
X160982000Y-129764250D01*
X160982000Y-128240250D01*
X161140750Y-128240250D01*
G36*
X163172750Y-130240500D02*
G01*
X163172750Y-130398319D01*
X162213044Y-130406722D01*
X161253339Y-130415125D01*
X161879669Y-130823602D01*
X162056160Y-130940234D01*
X162213204Y-131046944D01*
X162343432Y-131138485D01*
X162439480Y-131209608D01*
X162493978Y-131255067D01*
X162503669Y-131268102D01*
X162477524Y-131294877D01*
X162405329Y-131350841D01*
X162294412Y-131430791D01*
X162152102Y-131529525D01*
X161985728Y-131641838D01*
X161860731Y-131724532D01*
X161220125Y-132144938D01*
X162196437Y-132145219D01*
X163172750Y-132145500D01*
X163172750Y-132304250D01*
X160982000Y-132304250D01*
X160983047Y-132201063D01*
X160985637Y-132167125D01*
X160996863Y-132135131D01*
X161023022Y-132099960D01*
X161070411Y-132056492D01*
X161145329Y-131999606D01*
X161254074Y-131924184D01*
X161402942Y-131825103D01*
X161598232Y-131697246D01*
X161621016Y-131682380D01*
X162257938Y-131266885D01*
X161621116Y-130856880D01*
X161420440Y-130727321D01*
X161266989Y-130626774D01*
X161154427Y-130550141D01*
X161076419Y-130492326D01*
X161026629Y-130448232D01*
X160998719Y-130412763D01*
X160986355Y-130380821D01*
X160983200Y-130347309D01*
X160983147Y-130343688D01*
X160982000Y-130240500D01*
X163172750Y-130240500D01*
G37*
X163172750Y-130240500D02*
X163172750Y-130398319D01*
X162213044Y-130406722D01*
X161253339Y-130415125D01*
X161879669Y-130823602D01*
X162056160Y-130940234D01*
X162213204Y-131046944D01*
X162343432Y-131138485D01*
X162439480Y-131209608D01*
X162493978Y-131255067D01*
X162503669Y-131268102D01*
X162477524Y-131294877D01*
X162405329Y-131350841D01*
X162294412Y-131430791D01*
X162152102Y-131529525D01*
X161985728Y-131641838D01*
X161860731Y-131724532D01*
X161220125Y-132144938D01*
X162196437Y-132145219D01*
X163172750Y-132145500D01*
X163172750Y-132304250D01*
X160982000Y-132304250D01*
X160983047Y-132201063D01*
X160985637Y-132167125D01*
X160996863Y-132135131D01*
X161023022Y-132099960D01*
X161070411Y-132056492D01*
X161145329Y-131999606D01*
X161254074Y-131924184D01*
X161402942Y-131825103D01*
X161598232Y-131697246D01*
X161621016Y-131682380D01*
X162257938Y-131266885D01*
X161621116Y-130856880D01*
X161420440Y-130727321D01*
X161266989Y-130626774D01*
X161154427Y-130550141D01*
X161076419Y-130492326D01*
X161026629Y-130448232D01*
X160998719Y-130412763D01*
X160986355Y-130380821D01*
X160983200Y-130347309D01*
X160983147Y-130343688D01*
X160982000Y-130240500D01*
X163172750Y-130240500D01*
G36*
X160988338Y-133626310D02*
G01*
X160992576Y-133600383D01*
X161003526Y-133576067D01*
X161026838Y-133550329D01*
X161068162Y-133520133D01*
X161133149Y-133482445D01*
X161227450Y-133434233D01*
X161356715Y-133372462D01*
X161526595Y-133294098D01*
X161742740Y-133196108D01*
X162010802Y-133075456D01*
X162032187Y-133065845D01*
X162273184Y-132957634D01*
X162497237Y-132857213D01*
X162697410Y-132767677D01*
X162866766Y-132692121D01*
X162998368Y-132633640D01*
X163085281Y-132595330D01*
X163119625Y-132580629D01*
X163158269Y-132578928D01*
X163172059Y-132623492D01*
X163172750Y-132649475D01*
X163167777Y-132693813D01*
X163145519Y-132730070D01*
X163094965Y-132766792D01*
X163005104Y-132812525D01*
X162902875Y-132858958D01*
X162633000Y-132979209D01*
X162633000Y-134291127D01*
X162894937Y-134401847D01*
X163022279Y-134457878D01*
X163101717Y-134500423D01*
X163144932Y-134537950D01*
X163163606Y-134578929D01*
X163166921Y-134599033D01*
X163166093Y-134661756D01*
X163151046Y-134685643D01*
X163117143Y-134673091D01*
X163031933Y-134637286D01*
X162901986Y-134581109D01*
X162733869Y-134507437D01*
X162534151Y-134419150D01*
X162463451Y-134387687D01*
X162463451Y-134209250D01*
X162466869Y-134179154D01*
X162469842Y-134095481D01*
X162472185Y-133968152D01*
X162473716Y-133807090D01*
X162474250Y-133626537D01*
X162474250Y-133043823D01*
X161824213Y-133332100D01*
X161638278Y-133415951D01*
X161475116Y-133492213D01*
X161342602Y-133556980D01*
X161248612Y-133606348D01*
X161201024Y-133636411D01*
X161197150Y-133643043D01*
X161230032Y-133660508D01*
X161310497Y-133698705D01*
X161428159Y-133752989D01*
X161572629Y-133818714D01*
X161733518Y-133891237D01*
X161900439Y-133965911D01*
X162063003Y-134038093D01*
X162210821Y-134103137D01*
X162333506Y-134156397D01*
X162420670Y-134193230D01*
X162461923Y-134208990D01*
X162463451Y-134209250D01*
X162463451Y-134387687D01*
X162309398Y-134319128D01*
X162066180Y-134210249D01*
X162051963Y-134203865D01*
X160978801Y-133721944D01*
X160988338Y-133626310D01*
G37*
X160988338Y-133626310D02*
X160992576Y-133600383D01*
X161003526Y-133576067D01*
X161026838Y-133550329D01*
X161068162Y-133520133D01*
X161133149Y-133482445D01*
X161227450Y-133434233D01*
X161356715Y-133372462D01*
X161526595Y-133294098D01*
X161742740Y-133196108D01*
X162010802Y-133075456D01*
X162032187Y-133065845D01*
X162273184Y-132957634D01*
X162497237Y-132857213D01*
X162697410Y-132767677D01*
X162866766Y-132692121D01*
X162998368Y-132633640D01*
X163085281Y-132595330D01*
X163119625Y-132580629D01*
X163158269Y-132578928D01*
X163172059Y-132623492D01*
X163172750Y-132649475D01*
X163167777Y-132693813D01*
X163145519Y-132730070D01*
X163094965Y-132766792D01*
X163005104Y-132812525D01*
X162902875Y-132858958D01*
X162633000Y-132979209D01*
X162633000Y-134291127D01*
X162894937Y-134401847D01*
X163022279Y-134457878D01*
X163101717Y-134500423D01*
X163144932Y-134537950D01*
X163163606Y-134578929D01*
X163166921Y-134599033D01*
X163166093Y-134661756D01*
X163151046Y-134685643D01*
X163117143Y-134673091D01*
X163031933Y-134637286D01*
X162901986Y-134581109D01*
X162733869Y-134507437D01*
X162534151Y-134419150D01*
X162463451Y-134387687D01*
X162463451Y-134209250D01*
X162466869Y-134179154D01*
X162469842Y-134095481D01*
X162472185Y-133968152D01*
X162473716Y-133807090D01*
X162474250Y-133626537D01*
X162474250Y-133043823D01*
X161824213Y-133332100D01*
X161638278Y-133415951D01*
X161475116Y-133492213D01*
X161342602Y-133556980D01*
X161248612Y-133606348D01*
X161201024Y-133636411D01*
X161197150Y-133643043D01*
X161230032Y-133660508D01*
X161310497Y-133698705D01*
X161428159Y-133752989D01*
X161572629Y-133818714D01*
X161733518Y-133891237D01*
X161900439Y-133965911D01*
X162063003Y-134038093D01*
X162210821Y-134103137D01*
X162333506Y-134156397D01*
X162420670Y-134193230D01*
X162461923Y-134208990D01*
X162463451Y-134209250D01*
X162463451Y-134387687D01*
X162309398Y-134319128D01*
X162066180Y-134210249D01*
X162051963Y-134203865D01*
X160978801Y-133721944D01*
X160988338Y-133626310D01*
G36*
X162286994Y-140781500D02*
G01*
X163172750Y-140781500D01*
X163172803Y-140868813D01*
X163172856Y-140956125D01*
X162749977Y-140946544D01*
X162327097Y-140936962D01*
X161667727Y-141367231D01*
X161486014Y-141485475D01*
X161322416Y-141591296D01*
X161184256Y-141680009D01*
X161078863Y-141746926D01*
X161013560Y-141787360D01*
X160995179Y-141797500D01*
X160985806Y-141769917D01*
X160982000Y-141705158D01*
X160985813Y-141671047D01*
X161001857Y-141637260D01*
X161037038Y-141598174D01*
X161098263Y-141548167D01*
X161192439Y-141481616D01*
X161326472Y-141392898D01*
X161507268Y-141276389D01*
X161513812Y-141272198D01*
X161679115Y-141165790D01*
X161827376Y-141069343D01*
X161949757Y-140988688D01*
X162037423Y-140929654D01*
X162081534Y-140898073D01*
X162083673Y-140896228D01*
X162083339Y-140875104D01*
X162049315Y-140837438D01*
X161977163Y-140779885D01*
X161862444Y-140699101D01*
X161700719Y-140591743D01*
X161552116Y-140495750D01*
X161363475Y-140374399D01*
X161221794Y-140281488D01*
X161120368Y-140211514D01*
X161052490Y-140158973D01*
X161011454Y-140118363D01*
X160990554Y-140084180D01*
X160983084Y-140050922D01*
X160982255Y-140028121D01*
X160982000Y-139925616D01*
X162286994Y-140781500D01*
G37*
X162286994Y-140781500D02*
X163172750Y-140781500D01*
X163172803Y-140868813D01*
X163172856Y-140956125D01*
X162749977Y-140946544D01*
X162327097Y-140936962D01*
X161667727Y-141367231D01*
X161486014Y-141485475D01*
X161322416Y-141591296D01*
X161184256Y-141680009D01*
X161078863Y-141746926D01*
X161013560Y-141787360D01*
X160995179Y-141797500D01*
X160985806Y-141769917D01*
X160982000Y-141705158D01*
X160985813Y-141671047D01*
X161001857Y-141637260D01*
X161037038Y-141598174D01*
X161098263Y-141548167D01*
X161192439Y-141481616D01*
X161326472Y-141392898D01*
X161507268Y-141276389D01*
X161513812Y-141272198D01*
X161679115Y-141165790D01*
X161827376Y-141069343D01*
X161949757Y-140988688D01*
X162037423Y-140929654D01*
X162081534Y-140898073D01*
X162083673Y-140896228D01*
X162083339Y-140875104D01*
X162049315Y-140837438D01*
X161977163Y-140779885D01*
X161862444Y-140699101D01*
X161700719Y-140591743D01*
X161552116Y-140495750D01*
X161363475Y-140374399D01*
X161221794Y-140281488D01*
X161120368Y-140211514D01*
X161052490Y-140158973D01*
X161011454Y-140118363D01*
X160990554Y-140084180D01*
X160983084Y-140050922D01*
X160982255Y-140028121D01*
X160982000Y-139925616D01*
X162286994Y-140781500D01*
G36*
X160988338Y-142611560D02*
G01*
X160992576Y-142585633D01*
X161003526Y-142561317D01*
X161026838Y-142535579D01*
X161068162Y-142505383D01*
X161133149Y-142467695D01*
X161227450Y-142419483D01*
X161356715Y-142357712D01*
X161526595Y-142279348D01*
X161742740Y-142181358D01*
X162010802Y-142060706D01*
X162032187Y-142051095D01*
X162273184Y-141942884D01*
X162497237Y-141842463D01*
X162697410Y-141752927D01*
X162866766Y-141677371D01*
X162998368Y-141618890D01*
X163085281Y-141580580D01*
X163119625Y-141565879D01*
X163158269Y-141564178D01*
X163172059Y-141608742D01*
X163172750Y-141634725D01*
X163167777Y-141679063D01*
X163145519Y-141715320D01*
X163094965Y-141752042D01*
X163005104Y-141797775D01*
X162902875Y-141844208D01*
X162633000Y-141964459D01*
X162633000Y-143276377D01*
X162894937Y-143387097D01*
X163022279Y-143443128D01*
X163101717Y-143485673D01*
X163144932Y-143523200D01*
X163163606Y-143564179D01*
X163166921Y-143584283D01*
X163166093Y-143647006D01*
X163151046Y-143670893D01*
X163117143Y-143658341D01*
X163031933Y-143622536D01*
X162901986Y-143566359D01*
X162733869Y-143492687D01*
X162534151Y-143404400D01*
X162462455Y-143372494D01*
X162462455Y-143194500D01*
X162466189Y-143164405D01*
X162469436Y-143080731D01*
X162471995Y-142953403D01*
X162473667Y-142792341D01*
X162474250Y-142611795D01*
X162474250Y-142029089D01*
X161823672Y-142316817D01*
X161637655Y-142400476D01*
X161474454Y-142476550D01*
X161341938Y-142541147D01*
X161247977Y-142590375D01*
X161200439Y-142620342D01*
X161196609Y-142626958D01*
X161229806Y-142644593D01*
X161310495Y-142682980D01*
X161428296Y-142737462D01*
X161572827Y-142803386D01*
X161733708Y-142876097D01*
X161900558Y-142950941D01*
X162062994Y-143023264D01*
X162210638Y-143088411D01*
X162333107Y-143141728D01*
X162420020Y-143178561D01*
X162460996Y-143194255D01*
X162462455Y-143194500D01*
X162462455Y-143372494D01*
X162309398Y-143304378D01*
X162066180Y-143195499D01*
X162051963Y-143189115D01*
X160978801Y-142707194D01*
X160988338Y-142611560D01*
G37*
X160988338Y-142611560D02*
X160992576Y-142585633D01*
X161003526Y-142561317D01*
X161026838Y-142535579D01*
X161068162Y-142505383D01*
X161133149Y-142467695D01*
X161227450Y-142419483D01*
X161356715Y-142357712D01*
X161526595Y-142279348D01*
X161742740Y-142181358D01*
X162010802Y-142060706D01*
X162032187Y-142051095D01*
X162273184Y-141942884D01*
X162497237Y-141842463D01*
X162697410Y-141752927D01*
X162866766Y-141677371D01*
X162998368Y-141618890D01*
X163085281Y-141580580D01*
X163119625Y-141565879D01*
X163158269Y-141564178D01*
X163172059Y-141608742D01*
X163172750Y-141634725D01*
X163167777Y-141679063D01*
X163145519Y-141715320D01*
X163094965Y-141752042D01*
X163005104Y-141797775D01*
X162902875Y-141844208D01*
X162633000Y-141964459D01*
X162633000Y-143276377D01*
X162894937Y-143387097D01*
X163022279Y-143443128D01*
X163101717Y-143485673D01*
X163144932Y-143523200D01*
X163163606Y-143564179D01*
X163166921Y-143584283D01*
X163166093Y-143647006D01*
X163151046Y-143670893D01*
X163117143Y-143658341D01*
X163031933Y-143622536D01*
X162901986Y-143566359D01*
X162733869Y-143492687D01*
X162534151Y-143404400D01*
X162462455Y-143372494D01*
X162462455Y-143194500D01*
X162466189Y-143164405D01*
X162469436Y-143080731D01*
X162471995Y-142953403D01*
X162473667Y-142792341D01*
X162474250Y-142611795D01*
X162474250Y-142029089D01*
X161823672Y-142316817D01*
X161637655Y-142400476D01*
X161474454Y-142476550D01*
X161341938Y-142541147D01*
X161247977Y-142590375D01*
X161200439Y-142620342D01*
X161196609Y-142626958D01*
X161229806Y-142644593D01*
X161310495Y-142682980D01*
X161428296Y-142737462D01*
X161572827Y-142803386D01*
X161733708Y-142876097D01*
X161900558Y-142950941D01*
X162062994Y-143023264D01*
X162210638Y-143088411D01*
X162333107Y-143141728D01*
X162420020Y-143178561D01*
X162460996Y-143194255D01*
X162462455Y-143194500D01*
X162462455Y-143372494D01*
X162309398Y-143304378D01*
X162066180Y-143195499D01*
X162051963Y-143189115D01*
X160978801Y-142707194D01*
X160988338Y-142611560D01*
G36*
X163014000Y-145004250D02*
G01*
X163014000Y-143797750D01*
X163172750Y-143797750D01*
X163172750Y-145194750D01*
X160982000Y-145194750D01*
X160982000Y-145004250D01*
X163014000Y-145004250D01*
G37*
X163014000Y-145004250D02*
X163014000Y-143797750D01*
X163172750Y-143797750D01*
X163172750Y-145194750D01*
X160982000Y-145194750D01*
X160982000Y-145004250D01*
X163014000Y-145004250D01*
G36*
X160982177Y-146694938D02*
G01*
X160984163Y-146456642D01*
X160991215Y-146271559D01*
X161005240Y-146129479D01*
X161028144Y-146020195D01*
X161061833Y-145933496D01*
X161108214Y-145859174D01*
X161147195Y-145811386D01*
X161309166Y-145672065D01*
X161498507Y-145588856D01*
X161709612Y-145563603D01*
X161854133Y-145578816D01*
X162050374Y-145644935D01*
X162208480Y-145761519D01*
X162326378Y-145927018D01*
X162330323Y-145934824D01*
X162361311Y-146000864D01*
X162383136Y-146062656D01*
X162397394Y-146133037D01*
X162405680Y-146224844D01*
X162409588Y-146350915D01*
X162410715Y-146524089D01*
X162410750Y-146582109D01*
X162410750Y-147068000D01*
X163172750Y-147068000D01*
X163172750Y-147226750D01*
X161140750Y-147226750D01*
X161140750Y-147068000D01*
X162252000Y-147068000D01*
X162252000Y-146580571D01*
X162251380Y-146392386D01*
X162248593Y-146256131D01*
X162242242Y-146160238D01*
X162230934Y-146093142D01*
X162213273Y-146043277D01*
X162187865Y-145999077D01*
X162180562Y-145988178D01*
X162086520Y-145870269D01*
X161987343Y-145797481D01*
X161864378Y-145760590D01*
X161699512Y-145750375D01*
X161572491Y-145753281D01*
X161486334Y-145765920D01*
X161418524Y-145794173D01*
X161349222Y-145841873D01*
X161274763Y-145905692D01*
X161220165Y-145974155D01*
X161182463Y-146058137D01*
X161158693Y-146168512D01*
X161145891Y-146316154D01*
X161141092Y-146511937D01*
X161140750Y-146606606D01*
X161140750Y-147068000D01*
X161140750Y-147226750D01*
X160982000Y-147226750D01*
X160982177Y-146694938D01*
G37*
X160982177Y-146694938D02*
X160984163Y-146456642D01*
X160991215Y-146271559D01*
X161005240Y-146129479D01*
X161028144Y-146020195D01*
X161061833Y-145933496D01*
X161108214Y-145859174D01*
X161147195Y-145811386D01*
X161309166Y-145672065D01*
X161498507Y-145588856D01*
X161709612Y-145563603D01*
X161854133Y-145578816D01*
X162050374Y-145644935D01*
X162208480Y-145761519D01*
X162326378Y-145927018D01*
X162330323Y-145934824D01*
X162361311Y-146000864D01*
X162383136Y-146062656D01*
X162397394Y-146133037D01*
X162405680Y-146224844D01*
X162409588Y-146350915D01*
X162410715Y-146524089D01*
X162410750Y-146582109D01*
X162410750Y-147068000D01*
X163172750Y-147068000D01*
X163172750Y-147226750D01*
X161140750Y-147226750D01*
X161140750Y-147068000D01*
X162252000Y-147068000D01*
X162252000Y-146580571D01*
X162251380Y-146392386D01*
X162248593Y-146256131D01*
X162242242Y-146160238D01*
X162230934Y-146093142D01*
X162213273Y-146043277D01*
X162187865Y-145999077D01*
X162180562Y-145988178D01*
X162086520Y-145870269D01*
X161987343Y-145797481D01*
X161864378Y-145760590D01*
X161699512Y-145750375D01*
X161572491Y-145753281D01*
X161486334Y-145765920D01*
X161418524Y-145794173D01*
X161349222Y-145841873D01*
X161274763Y-145905692D01*
X161220165Y-145974155D01*
X161182463Y-146058137D01*
X161158693Y-146168512D01*
X161145891Y-146316154D01*
X161141092Y-146511937D01*
X161140750Y-146606606D01*
X161140750Y-147068000D01*
X161140750Y-147226750D01*
X160982000Y-147226750D01*
X160982177Y-146694938D01*
G36*
X160968147Y-126830019D02*
G01*
X160976316Y-126719430D01*
X160993785Y-126634753D01*
X161023706Y-126557228D01*
X161045500Y-126512995D01*
X161111546Y-126407579D01*
X161189322Y-126314312D01*
X161225730Y-126281385D01*
X161326585Y-126203709D01*
X161362951Y-126271660D01*
X161380719Y-126326088D01*
X161358213Y-126374391D01*
X161320730Y-126412443D01*
X161213908Y-126552002D01*
X161143350Y-126731295D01*
X161111754Y-126936150D01*
X161121821Y-127152397D01*
X161152663Y-127294697D01*
X161220889Y-127454184D01*
X161315817Y-127572562D01*
X161428503Y-127645242D01*
X161550004Y-127667631D01*
X161671375Y-127635140D01*
X161733863Y-127593033D01*
X161782730Y-127545533D01*
X161823074Y-127487716D01*
X161858700Y-127409288D01*
X161893410Y-127299954D01*
X161931010Y-127149421D01*
X161975304Y-126947394D01*
X161979084Y-126929492D01*
X162035525Y-126693395D01*
X162095524Y-126511525D01*
X162163442Y-126374616D01*
X162243639Y-126273400D01*
X162315500Y-126214635D01*
X162444367Y-126160936D01*
X162599941Y-126145581D01*
X162759014Y-126167662D01*
X162898382Y-126226267D01*
X162916237Y-126238212D01*
X163018038Y-126345086D01*
X163100533Y-126498852D01*
X163160403Y-126684948D01*
X163194331Y-126888810D01*
X163198999Y-127095877D01*
X163171087Y-127291585D01*
X163163130Y-127321744D01*
X163103275Y-127481943D01*
X163020979Y-127634808D01*
X162928338Y-127760359D01*
X162858163Y-127825426D01*
X162784818Y-127874402D01*
X162743360Y-127885789D01*
X162715068Y-127860346D01*
X162698850Y-127831893D01*
X162689021Y-127790325D01*
X162709422Y-127740688D01*
X162767296Y-127669277D01*
X162807316Y-127626570D01*
X162923576Y-127466667D01*
X163002113Y-127277767D01*
X163042427Y-127073543D01*
X163044017Y-126867667D01*
X163006384Y-126673809D01*
X162929029Y-126505643D01*
X162851739Y-126411262D01*
X162775125Y-126351048D01*
X162693050Y-126324379D01*
X162602498Y-126319375D01*
X162484722Y-126332740D01*
X162388377Y-126377134D01*
X162308956Y-126459011D01*
X162241951Y-126584822D01*
X162182853Y-126761018D01*
X162127157Y-126994053D01*
X162125455Y-127002164D01*
X162065198Y-127261468D01*
X162002828Y-127463427D01*
X161933992Y-127614154D01*
X161854333Y-127719765D01*
X161759498Y-127786373D01*
X161645130Y-127820094D01*
X161537625Y-127827500D01*
X161378259Y-127807834D01*
X161249398Y-127744218D01*
X161141148Y-127629723D01*
X161061375Y-127494125D01*
X161016795Y-127399232D01*
X160988745Y-127317548D01*
X160973464Y-127228976D01*
X160967188Y-127113423D01*
X160966125Y-126985278D01*
X160968147Y-126830019D01*
G37*
X160968147Y-126830019D02*
X160976316Y-126719430D01*
X160993785Y-126634753D01*
X161023706Y-126557228D01*
X161045500Y-126512995D01*
X161111546Y-126407579D01*
X161189322Y-126314312D01*
X161225730Y-126281385D01*
X161326585Y-126203709D01*
X161362951Y-126271660D01*
X161380719Y-126326088D01*
X161358213Y-126374391D01*
X161320730Y-126412443D01*
X161213908Y-126552002D01*
X161143350Y-126731295D01*
X161111754Y-126936150D01*
X161121821Y-127152397D01*
X161152663Y-127294697D01*
X161220889Y-127454184D01*
X161315817Y-127572562D01*
X161428503Y-127645242D01*
X161550004Y-127667631D01*
X161671375Y-127635140D01*
X161733863Y-127593033D01*
X161782730Y-127545533D01*
X161823074Y-127487716D01*
X161858700Y-127409288D01*
X161893410Y-127299954D01*
X161931010Y-127149421D01*
X161975304Y-126947394D01*
X161979084Y-126929492D01*
X162035525Y-126693395D01*
X162095524Y-126511525D01*
X162163442Y-126374616D01*
X162243639Y-126273400D01*
X162315500Y-126214635D01*
X162444367Y-126160936D01*
X162599941Y-126145581D01*
X162759014Y-126167662D01*
X162898382Y-126226267D01*
X162916237Y-126238212D01*
X163018038Y-126345086D01*
X163100533Y-126498852D01*
X163160403Y-126684948D01*
X163194331Y-126888810D01*
X163198999Y-127095877D01*
X163171087Y-127291585D01*
X163163130Y-127321744D01*
X163103275Y-127481943D01*
X163020979Y-127634808D01*
X162928338Y-127760359D01*
X162858163Y-127825426D01*
X162784818Y-127874402D01*
X162743360Y-127885789D01*
X162715068Y-127860346D01*
X162698850Y-127831893D01*
X162689021Y-127790325D01*
X162709422Y-127740688D01*
X162767296Y-127669277D01*
X162807316Y-127626570D01*
X162923576Y-127466667D01*
X163002113Y-127277767D01*
X163042427Y-127073543D01*
X163044017Y-126867667D01*
X163006384Y-126673809D01*
X162929029Y-126505643D01*
X162851739Y-126411262D01*
X162775125Y-126351048D01*
X162693050Y-126324379D01*
X162602498Y-126319375D01*
X162484722Y-126332740D01*
X162388377Y-126377134D01*
X162308956Y-126459011D01*
X162241951Y-126584822D01*
X162182853Y-126761018D01*
X162127157Y-126994053D01*
X162125455Y-127002164D01*
X162065198Y-127261468D01*
X162002828Y-127463427D01*
X161933992Y-127614154D01*
X161854333Y-127719765D01*
X161759498Y-127786373D01*
X161645130Y-127820094D01*
X161537625Y-127827500D01*
X161378259Y-127807834D01*
X161249398Y-127744218D01*
X161141148Y-127629723D01*
X161061375Y-127494125D01*
X161016795Y-127399232D01*
X160988745Y-127317548D01*
X160973464Y-127228976D01*
X160967188Y-127113423D01*
X160966125Y-126985278D01*
X160968147Y-126830019D01*
G36*
X161001242Y-135446898D02*
G01*
X161091338Y-135218769D01*
X161122540Y-135165448D01*
X161199273Y-135055339D01*
X161257903Y-135000007D01*
X161304075Y-134995336D01*
X161328325Y-135015351D01*
X161343221Y-135054313D01*
X161327112Y-135111548D01*
X161275570Y-135202137D01*
X161271732Y-135208209D01*
X161172551Y-135416518D01*
X161121791Y-135642519D01*
X161118307Y-135873331D01*
X161160954Y-136096073D01*
X161248587Y-136297865D01*
X161380061Y-136465826D01*
X161383851Y-136469435D01*
X161562387Y-136596680D01*
X161774454Y-136680546D01*
X162005397Y-136719011D01*
X162240560Y-136710052D01*
X162465289Y-136651647D01*
X162523240Y-136626682D01*
X162724715Y-136502413D01*
X162873957Y-136343887D01*
X162972284Y-136148891D01*
X163021015Y-135915212D01*
X163027196Y-135780875D01*
X163021313Y-135618834D01*
X163000719Y-135493961D01*
X162960998Y-135380765D01*
X162955885Y-135369286D01*
X162899075Y-135250177D01*
X162847610Y-135172318D01*
X162786288Y-135126953D01*
X162699903Y-135105328D01*
X162573251Y-135098688D01*
X162485204Y-135098250D01*
X162188500Y-135098250D01*
X162188500Y-135860250D01*
X162029750Y-135860250D01*
X162029750Y-134939500D01*
X162849605Y-134939500D01*
X162936877Y-135042688D01*
X163057637Y-135229100D01*
X163143158Y-135451902D01*
X163188869Y-135691880D01*
X163190197Y-135929821D01*
X163173693Y-136037825D01*
X163093075Y-136275684D01*
X162962451Y-136485874D01*
X162789872Y-136658802D01*
X162583395Y-136784875D01*
X162527015Y-136808100D01*
X162318362Y-136860597D01*
X162082440Y-136878651D01*
X161845343Y-136862240D01*
X161633161Y-136811345D01*
X161626128Y-136808801D01*
X161458625Y-136722268D01*
X161296798Y-136594610D01*
X161157335Y-136442287D01*
X161056922Y-136281754D01*
X161033142Y-136223960D01*
X160971006Y-135962959D01*
X160960752Y-135699450D01*
X161001242Y-135446898D01*
G37*
X161001242Y-135446898D02*
X161091338Y-135218769D01*
X161122540Y-135165448D01*
X161199273Y-135055339D01*
X161257903Y-135000007D01*
X161304075Y-134995336D01*
X161328325Y-135015351D01*
X161343221Y-135054313D01*
X161327112Y-135111548D01*
X161275570Y-135202137D01*
X161271732Y-135208209D01*
X161172551Y-135416518D01*
X161121791Y-135642519D01*
X161118307Y-135873331D01*
X161160954Y-136096073D01*
X161248587Y-136297865D01*
X161380061Y-136465826D01*
X161383851Y-136469435D01*
X161562387Y-136596680D01*
X161774454Y-136680546D01*
X162005397Y-136719011D01*
X162240560Y-136710052D01*
X162465289Y-136651647D01*
X162523240Y-136626682D01*
X162724715Y-136502413D01*
X162873957Y-136343887D01*
X162972284Y-136148891D01*
X163021015Y-135915212D01*
X163027196Y-135780875D01*
X163021313Y-135618834D01*
X163000719Y-135493961D01*
X162960998Y-135380765D01*
X162955885Y-135369286D01*
X162899075Y-135250177D01*
X162847610Y-135172318D01*
X162786288Y-135126953D01*
X162699903Y-135105328D01*
X162573251Y-135098688D01*
X162485204Y-135098250D01*
X162188500Y-135098250D01*
X162188500Y-135860250D01*
X162029750Y-135860250D01*
X162029750Y-134939500D01*
X162849605Y-134939500D01*
X162936877Y-135042688D01*
X163057637Y-135229100D01*
X163143158Y-135451902D01*
X163188869Y-135691880D01*
X163190197Y-135929821D01*
X163173693Y-136037825D01*
X163093075Y-136275684D01*
X162962451Y-136485874D01*
X162789872Y-136658802D01*
X162583395Y-136784875D01*
X162527015Y-136808100D01*
X162318362Y-136860597D01*
X162082440Y-136878651D01*
X161845343Y-136862240D01*
X161633161Y-136811345D01*
X161626128Y-136808801D01*
X161458625Y-136722268D01*
X161296798Y-136594610D01*
X161157335Y-136442287D01*
X161056922Y-136281754D01*
X161033142Y-136223960D01*
X160971006Y-135962959D01*
X160960752Y-135699450D01*
X161001242Y-135446898D01*
G36*
X160961610Y-138690329D02*
G01*
X161008322Y-138470923D01*
X161101084Y-138287012D01*
X161172582Y-138198646D01*
X161243696Y-138125452D01*
X161287667Y-138093118D01*
X161319676Y-138095166D01*
X161351911Y-138122146D01*
X161382714Y-138158869D01*
X161381989Y-138192714D01*
X161344332Y-138242075D01*
X161304309Y-138284163D01*
X161205763Y-138422037D01*
X161141865Y-138587681D01*
X161111310Y-138769122D01*
X161112791Y-138954384D01*
X161145004Y-139131493D01*
X161206640Y-139288475D01*
X161296396Y-139413356D01*
X161412964Y-139494161D01*
X161437269Y-139503291D01*
X161533672Y-139525879D01*
X161615842Y-139515614D01*
X161667606Y-139496426D01*
X161748098Y-139444545D01*
X161814700Y-139357705D01*
X161871363Y-139227851D01*
X161922040Y-139046933D01*
X161948516Y-138924125D01*
X162005470Y-138664984D01*
X162062137Y-138462371D01*
X162120975Y-138309375D01*
X162184442Y-138199085D01*
X162222409Y-138153922D01*
X162362336Y-138052289D01*
X162521663Y-138004187D01*
X162687348Y-138008563D01*
X162846346Y-138064365D01*
X162985613Y-138170538D01*
X163026892Y-138218893D01*
X163109233Y-138368819D01*
X163166434Y-138559658D01*
X163195960Y-138772983D01*
X163195275Y-138990366D01*
X163161845Y-139193379D01*
X163161257Y-139195570D01*
X163067688Y-139423354D01*
X162919976Y-139619188D01*
X162864382Y-139671912D01*
X162793866Y-139730878D01*
X162752888Y-139751247D01*
X162724538Y-139737718D01*
X162706849Y-139715688D01*
X162671621Y-139656440D01*
X162678096Y-139612681D01*
X162732150Y-139563348D01*
X162753682Y-139547749D01*
X162818418Y-139484538D01*
X162891038Y-139388751D01*
X162936244Y-139315400D01*
X162980959Y-139228862D01*
X163008678Y-139152808D01*
X163023383Y-139067200D01*
X163029056Y-138952000D01*
X163029787Y-138844750D01*
X163027166Y-138690396D01*
X163017351Y-138580630D01*
X162997249Y-138496674D01*
X162963771Y-138419750D01*
X162958038Y-138408842D01*
X162857044Y-138276491D01*
X162725206Y-138199541D01*
X162584864Y-138178000D01*
X162481009Y-138188453D01*
X162395814Y-138224406D01*
X162324736Y-138292755D01*
X162263233Y-138400392D01*
X162206760Y-138554212D01*
X162150774Y-138761109D01*
X162123448Y-138878151D01*
X162084408Y-139042961D01*
X162045233Y-139193929D01*
X162010130Y-139315725D01*
X161983308Y-139393014D01*
X161980268Y-139399803D01*
X161878071Y-139552786D01*
X161746445Y-139652589D01*
X161593507Y-139696459D01*
X161427372Y-139681644D01*
X161299500Y-139630637D01*
X161156854Y-139518782D01*
X161051737Y-139356290D01*
X160984607Y-139144081D01*
X160959334Y-138950928D01*
X160961610Y-138690329D01*
G37*
X160961610Y-138690329D02*
X161008322Y-138470923D01*
X161101084Y-138287012D01*
X161172582Y-138198646D01*
X161243696Y-138125452D01*
X161287667Y-138093118D01*
X161319676Y-138095166D01*
X161351911Y-138122146D01*
X161382714Y-138158869D01*
X161381989Y-138192714D01*
X161344332Y-138242075D01*
X161304309Y-138284163D01*
X161205763Y-138422037D01*
X161141865Y-138587681D01*
X161111310Y-138769122D01*
X161112791Y-138954384D01*
X161145004Y-139131493D01*
X161206640Y-139288475D01*
X161296396Y-139413356D01*
X161412964Y-139494161D01*
X161437269Y-139503291D01*
X161533672Y-139525879D01*
X161615842Y-139515614D01*
X161667606Y-139496426D01*
X161748098Y-139444545D01*
X161814700Y-139357705D01*
X161871363Y-139227851D01*
X161922040Y-139046933D01*
X161948516Y-138924125D01*
X162005470Y-138664984D01*
X162062137Y-138462371D01*
X162120975Y-138309375D01*
X162184442Y-138199085D01*
X162222409Y-138153922D01*
X162362336Y-138052289D01*
X162521663Y-138004187D01*
X162687348Y-138008563D01*
X162846346Y-138064365D01*
X162985613Y-138170538D01*
X163026892Y-138218893D01*
X163109233Y-138368819D01*
X163166434Y-138559658D01*
X163195960Y-138772983D01*
X163195275Y-138990366D01*
X163161845Y-139193379D01*
X163161257Y-139195570D01*
X163067688Y-139423354D01*
X162919976Y-139619188D01*
X162864382Y-139671912D01*
X162793866Y-139730878D01*
X162752888Y-139751247D01*
X162724538Y-139737718D01*
X162706849Y-139715688D01*
X162671621Y-139656440D01*
X162678096Y-139612681D01*
X162732150Y-139563348D01*
X162753682Y-139547749D01*
X162818418Y-139484538D01*
X162891038Y-139388751D01*
X162936244Y-139315400D01*
X162980959Y-139228862D01*
X163008678Y-139152808D01*
X163023383Y-139067200D01*
X163029056Y-138952000D01*
X163029787Y-138844750D01*
X163027166Y-138690396D01*
X163017351Y-138580630D01*
X162997249Y-138496674D01*
X162963771Y-138419750D01*
X162958038Y-138408842D01*
X162857044Y-138276491D01*
X162725206Y-138199541D01*
X162584864Y-138178000D01*
X162481009Y-138188453D01*
X162395814Y-138224406D01*
X162324736Y-138292755D01*
X162263233Y-138400392D01*
X162206760Y-138554212D01*
X162150774Y-138761109D01*
X162123448Y-138878151D01*
X162084408Y-139042961D01*
X162045233Y-139193929D01*
X162010130Y-139315725D01*
X161983308Y-139393014D01*
X161980268Y-139399803D01*
X161878071Y-139552786D01*
X161746445Y-139652589D01*
X161593507Y-139696459D01*
X161427372Y-139681644D01*
X161299500Y-139630637D01*
X161156854Y-139518782D01*
X161051737Y-139356290D01*
X160984607Y-139144081D01*
X160959334Y-138950928D01*
X160961610Y-138690329D01*
D11*
X60500000Y-103880000D02*
X60500000Y-104650000D01*
X60500000Y-111960000D02*
X60500000Y-111190000D01*
X59130000Y-104650000D02*
X59130000Y-111190000D01*
X61870000Y-104650000D02*
X59130000Y-104650000D01*
X61870000Y-111190000D02*
X61870000Y-104650000D01*
X59130000Y-111190000D02*
X61870000Y-111190000D01*
X118130000Y-94860000D02*
X118130000Y-93530000D01*
X119460000Y-94860000D02*
X118130000Y-94860000D01*
X120730000Y-94860000D02*
X120730000Y-92200000D01*
X120730000Y-92200000D02*
X128410000Y-92200000D01*
X120730000Y-94860000D02*
X128410000Y-94860000D01*
X128410000Y-94860000D02*
X128410000Y-92200000D01*
X85330000Y-92170000D02*
X85330000Y-93500000D01*
X84000000Y-92170000D02*
X85330000Y-92170000D01*
X82730000Y-92170000D02*
X82730000Y-94830000D01*
X82730000Y-94830000D02*
X80130000Y-94830000D01*
X82730000Y-92170000D02*
X80130000Y-92170000D01*
X80130000Y-92170000D02*
X80130000Y-94830000D01*
X72960000Y-111670000D02*
X71310000Y-111670000D01*
X72960000Y-121950000D02*
X72960000Y-111670000D01*
X67660000Y-121950000D02*
X72960000Y-121950000D01*
X67660000Y-111670000D02*
X67660000Y-121950000D01*
X69310000Y-111670000D02*
X67660000Y-111670000D01*
X71310000Y-111670000D02*
G75*
G02X69310000Y-111670000I-1000000J0D01*
G01*
X66500000Y-127880000D02*
X66500000Y-128650000D01*
X66500000Y-135960000D02*
X66500000Y-135190000D01*
X65130000Y-128650000D02*
X65130000Y-135190000D01*
X67870000Y-128650000D02*
X65130000Y-128650000D01*
X67870000Y-135190000D02*
X67870000Y-128650000D01*
X65130000Y-135190000D02*
X67870000Y-135190000D01*
X97670000Y-94830000D02*
X97670000Y-93500000D01*
X99000000Y-94830000D02*
X97670000Y-94830000D01*
X100270000Y-94830000D02*
X100270000Y-92170000D01*
X100270000Y-92170000D02*
X105410000Y-92170000D01*
X100270000Y-94830000D02*
X105410000Y-94830000D01*
X105410000Y-94830000D02*
X105410000Y-92170000D01*
X59170000Y-94830000D02*
X59170000Y-93500000D01*
X60500000Y-94830000D02*
X59170000Y-94830000D01*
X61770000Y-94830000D02*
X61770000Y-92170000D01*
X61770000Y-92170000D02*
X71990000Y-92170000D01*
X61770000Y-94830000D02*
X71990000Y-94830000D01*
X71990000Y-94830000D02*
X71990000Y-92170000D01*
X80555000Y-112880000D02*
X80870000Y-112880000D01*
X78130000Y-112880000D02*
X78445000Y-112880000D01*
X80555000Y-118120000D02*
X80870000Y-118120000D01*
X78130000Y-118120000D02*
X78445000Y-118120000D01*
X80870000Y-118120000D02*
X80870000Y-112880000D01*
X78130000Y-118120000D02*
X78130000Y-112880000D01*
X59445000Y-123120000D02*
X59130000Y-123120000D01*
X61870000Y-123120000D02*
X61555000Y-123120000D01*
X59445000Y-117880000D02*
X59130000Y-117880000D01*
X61870000Y-117880000D02*
X61555000Y-117880000D01*
X59130000Y-117880000D02*
X59130000Y-123120000D01*
X61870000Y-117880000D02*
X61870000Y-123120000D01*
D10*
X133505714Y-130257142D02*
X133458095Y-130304761D01*
X133315238Y-130352380D01*
X133220000Y-130352380D01*
X133077142Y-130304761D01*
X132981904Y-130209523D01*
X132934285Y-130114285D01*
X132886666Y-129923809D01*
X132886666Y-129780952D01*
X132934285Y-129590476D01*
X132981904Y-129495238D01*
X133077142Y-129400000D01*
X133220000Y-129352380D01*
X133315238Y-129352380D01*
X133458095Y-129400000D01*
X133505714Y-129447619D01*
X134124761Y-129352380D02*
X134315238Y-129352380D01*
X134410476Y-129400000D01*
X134505714Y-129495238D01*
X134553333Y-129685714D01*
X134553333Y-130019047D01*
X134505714Y-130209523D01*
X134410476Y-130304761D01*
X134315238Y-130352380D01*
X134124761Y-130352380D01*
X134029523Y-130304761D01*
X133934285Y-130209523D01*
X133886666Y-130019047D01*
X133886666Y-129685714D01*
X133934285Y-129495238D01*
X134029523Y-129400000D01*
X134124761Y-129352380D01*
X134981904Y-130352380D02*
X134981904Y-129352380D01*
X135553333Y-130352380D01*
X135553333Y-129352380D01*
X136505714Y-129352380D02*
X136029523Y-129352380D01*
X135981904Y-129828571D01*
X136029523Y-129780952D01*
X136124761Y-129733333D01*
X136362857Y-129733333D01*
X136458095Y-129780952D01*
X136505714Y-129828571D01*
X136553333Y-129923809D01*
X136553333Y-130161904D01*
X136505714Y-130257142D01*
X136458095Y-130304761D01*
X136362857Y-130352380D01*
X136124761Y-130352380D01*
X136029523Y-130304761D01*
X135981904Y-130257142D01*
X58582380Y-108086666D02*
X58106190Y-108420000D01*
X58582380Y-108658095D02*
X57582380Y-108658095D01*
X57582380Y-108277142D01*
X57630000Y-108181904D01*
X57677619Y-108134285D01*
X57772857Y-108086666D01*
X57915714Y-108086666D01*
X58010952Y-108134285D01*
X58058571Y-108181904D01*
X58106190Y-108277142D01*
X58106190Y-108658095D01*
X58582380Y-107134285D02*
X58582380Y-107705714D01*
X58582380Y-107420000D02*
X57582380Y-107420000D01*
X57725238Y-107515238D01*
X57820476Y-107610476D01*
X57868095Y-107705714D01*
X117157142Y-94814285D02*
X117204761Y-94861904D01*
X117252380Y-95004761D01*
X117252380Y-95100000D01*
X117204761Y-95242857D01*
X117109523Y-95338095D01*
X117014285Y-95385714D01*
X116823809Y-95433333D01*
X116680952Y-95433333D01*
X116490476Y-95385714D01*
X116395238Y-95338095D01*
X116300000Y-95242857D01*
X116252380Y-95100000D01*
X116252380Y-95004761D01*
X116300000Y-94861904D01*
X116347619Y-94814285D01*
X116252380Y-94195238D02*
X116252380Y-94004761D01*
X116300000Y-93909523D01*
X116395238Y-93814285D01*
X116585714Y-93766666D01*
X116919047Y-93766666D01*
X117109523Y-93814285D01*
X117204761Y-93909523D01*
X117252380Y-94004761D01*
X117252380Y-94195238D01*
X117204761Y-94290476D01*
X117109523Y-94385714D01*
X116919047Y-94433333D01*
X116585714Y-94433333D01*
X116395238Y-94385714D01*
X116300000Y-94290476D01*
X116252380Y-94195238D01*
X117252380Y-93338095D02*
X116252380Y-93338095D01*
X117252380Y-92766666D01*
X116252380Y-92766666D01*
X116585714Y-91861904D02*
X117252380Y-91861904D01*
X116204761Y-92100000D02*
X116919047Y-92338095D01*
X116919047Y-91719047D01*
X78957142Y-94714285D02*
X79004761Y-94761904D01*
X79052380Y-94904761D01*
X79052380Y-95000000D01*
X79004761Y-95142857D01*
X78909523Y-95238095D01*
X78814285Y-95285714D01*
X78623809Y-95333333D01*
X78480952Y-95333333D01*
X78290476Y-95285714D01*
X78195238Y-95238095D01*
X78100000Y-95142857D01*
X78052380Y-95000000D01*
X78052380Y-94904761D01*
X78100000Y-94761904D01*
X78147619Y-94714285D01*
X78052380Y-94095238D02*
X78052380Y-93904761D01*
X78100000Y-93809523D01*
X78195238Y-93714285D01*
X78385714Y-93666666D01*
X78719047Y-93666666D01*
X78909523Y-93714285D01*
X79004761Y-93809523D01*
X79052380Y-93904761D01*
X79052380Y-94095238D01*
X79004761Y-94190476D01*
X78909523Y-94285714D01*
X78719047Y-94333333D01*
X78385714Y-94333333D01*
X78195238Y-94285714D01*
X78100000Y-94190476D01*
X78052380Y-94095238D01*
X79052380Y-93238095D02*
X78052380Y-93238095D01*
X79052380Y-92666666D01*
X78052380Y-92666666D01*
X78147619Y-92238095D02*
X78100000Y-92190476D01*
X78052380Y-92095238D01*
X78052380Y-91857142D01*
X78100000Y-91761904D01*
X78147619Y-91714285D01*
X78242857Y-91666666D01*
X78338095Y-91666666D01*
X78480952Y-91714285D01*
X79052380Y-92285714D01*
X79052380Y-91666666D01*
X69548095Y-110122380D02*
X69548095Y-110931904D01*
X69595714Y-111027142D01*
X69643333Y-111074761D01*
X69738571Y-111122380D01*
X69929047Y-111122380D01*
X70024285Y-111074761D01*
X70071904Y-111027142D01*
X70119523Y-110931904D01*
X70119523Y-110122380D01*
X71119523Y-111122380D02*
X70548095Y-111122380D01*
X70833809Y-111122380D02*
X70833809Y-110122380D01*
X70738571Y-110265238D01*
X70643333Y-110360476D01*
X70548095Y-110408095D01*
X64582380Y-132086666D02*
X64106190Y-132420000D01*
X64582380Y-132658095D02*
X63582380Y-132658095D01*
X63582380Y-132277142D01*
X63630000Y-132181904D01*
X63677619Y-132134285D01*
X63772857Y-132086666D01*
X63915714Y-132086666D01*
X64010952Y-132134285D01*
X64058571Y-132181904D01*
X64106190Y-132277142D01*
X64106190Y-132658095D01*
X63677619Y-131705714D02*
X63630000Y-131658095D01*
X63582380Y-131562857D01*
X63582380Y-131324761D01*
X63630000Y-131229523D01*
X63677619Y-131181904D01*
X63772857Y-131134285D01*
X63868095Y-131134285D01*
X64010952Y-131181904D01*
X64582380Y-131753333D01*
X64582380Y-131134285D01*
X95666666Y-137372380D02*
X95666666Y-138086666D01*
X95619047Y-138229523D01*
X95523809Y-138324761D01*
X95380952Y-138372380D01*
X95285714Y-138372380D01*
X96666666Y-138372380D02*
X96095238Y-138372380D01*
X96380952Y-138372380D02*
X96380952Y-137372380D01*
X96285714Y-137515238D01*
X96190476Y-137610476D01*
X96095238Y-137658095D01*
X96757142Y-94714285D02*
X96804761Y-94761904D01*
X96852380Y-94904761D01*
X96852380Y-95000000D01*
X96804761Y-95142857D01*
X96709523Y-95238095D01*
X96614285Y-95285714D01*
X96423809Y-95333333D01*
X96280952Y-95333333D01*
X96090476Y-95285714D01*
X95995238Y-95238095D01*
X95900000Y-95142857D01*
X95852380Y-95000000D01*
X95852380Y-94904761D01*
X95900000Y-94761904D01*
X95947619Y-94714285D01*
X95852380Y-94095238D02*
X95852380Y-93904761D01*
X95900000Y-93809523D01*
X95995238Y-93714285D01*
X96185714Y-93666666D01*
X96519047Y-93666666D01*
X96709523Y-93714285D01*
X96804761Y-93809523D01*
X96852380Y-93904761D01*
X96852380Y-94095238D01*
X96804761Y-94190476D01*
X96709523Y-94285714D01*
X96519047Y-94333333D01*
X96185714Y-94333333D01*
X95995238Y-94285714D01*
X95900000Y-94190476D01*
X95852380Y-94095238D01*
X96852380Y-93238095D02*
X95852380Y-93238095D01*
X96852380Y-92666666D01*
X95852380Y-92666666D01*
X95852380Y-92285714D02*
X95852380Y-91666666D01*
X96233333Y-92000000D01*
X96233333Y-91857142D01*
X96280952Y-91761904D01*
X96328571Y-91714285D01*
X96423809Y-91666666D01*
X96661904Y-91666666D01*
X96757142Y-91714285D01*
X96804761Y-91761904D01*
X96852380Y-91857142D01*
X96852380Y-92142857D01*
X96804761Y-92238095D01*
X96757142Y-92285714D01*
X57957142Y-94714285D02*
X58004761Y-94761904D01*
X58052380Y-94904761D01*
X58052380Y-95000000D01*
X58004761Y-95142857D01*
X57909523Y-95238095D01*
X57814285Y-95285714D01*
X57623809Y-95333333D01*
X57480952Y-95333333D01*
X57290476Y-95285714D01*
X57195238Y-95238095D01*
X57100000Y-95142857D01*
X57052380Y-95000000D01*
X57052380Y-94904761D01*
X57100000Y-94761904D01*
X57147619Y-94714285D01*
X57052380Y-94095238D02*
X57052380Y-93904761D01*
X57100000Y-93809523D01*
X57195238Y-93714285D01*
X57385714Y-93666666D01*
X57719047Y-93666666D01*
X57909523Y-93714285D01*
X58004761Y-93809523D01*
X58052380Y-93904761D01*
X58052380Y-94095238D01*
X58004761Y-94190476D01*
X57909523Y-94285714D01*
X57719047Y-94333333D01*
X57385714Y-94333333D01*
X57195238Y-94285714D01*
X57100000Y-94190476D01*
X57052380Y-94095238D01*
X58052380Y-93238095D02*
X57052380Y-93238095D01*
X58052380Y-92666666D01*
X57052380Y-92666666D01*
X58052380Y-91666666D02*
X58052380Y-92238095D01*
X58052380Y-91952380D02*
X57052380Y-91952380D01*
X57195238Y-92047619D01*
X57290476Y-92142857D01*
X57338095Y-92238095D01*
X77357142Y-115666666D02*
X77404761Y-115714285D01*
X77452380Y-115857142D01*
X77452380Y-115952380D01*
X77404761Y-116095238D01*
X77309523Y-116190476D01*
X77214285Y-116238095D01*
X77023809Y-116285714D01*
X76880952Y-116285714D01*
X76690476Y-116238095D01*
X76595238Y-116190476D01*
X76500000Y-116095238D01*
X76452380Y-115952380D01*
X76452380Y-115857142D01*
X76500000Y-115714285D01*
X76547619Y-115666666D01*
X76547619Y-115285714D02*
X76500000Y-115238095D01*
X76452380Y-115142857D01*
X76452380Y-114904761D01*
X76500000Y-114809523D01*
X76547619Y-114761904D01*
X76642857Y-114714285D01*
X76738095Y-114714285D01*
X76880952Y-114761904D01*
X77452380Y-115333333D01*
X77452380Y-114714285D01*
X63357142Y-120666666D02*
X63404761Y-120714285D01*
X63452380Y-120857142D01*
X63452380Y-120952380D01*
X63404761Y-121095238D01*
X63309523Y-121190476D01*
X63214285Y-121238095D01*
X63023809Y-121285714D01*
X62880952Y-121285714D01*
X62690476Y-121238095D01*
X62595238Y-121190476D01*
X62500000Y-121095238D01*
X62452380Y-120952380D01*
X62452380Y-120857142D01*
X62500000Y-120714285D01*
X62547619Y-120666666D01*
X63452380Y-119714285D02*
X63452380Y-120285714D01*
X63452380Y-120000000D02*
X62452380Y-120000000D01*
X62595238Y-120095238D01*
X62690476Y-120190476D01*
X62738095Y-120285714D01*
M02*
