G04 #@! TF.GenerationSoftware,KiCad,Pcbnew,(5.1.5)-3*
G04 #@! TF.CreationDate,2020-07-31T11:24:53+01:00*
G04 #@! TF.ProjectId,SCART_to_GBS8200,53434152-545f-4746-9f5f-474253383230,rev?*
G04 #@! TF.SameCoordinates,Original*
G04 #@! TF.FileFunction,Copper,L1,Top*
G04 #@! TF.FilePolarity,Positive*
%FSLAX46Y46*%
G04 Gerber Fmt 4.6, Leading zero omitted, Abs format (unit mm)*
G04 Created by KiCad (PCBNEW (5.1.5)-3) date 2020-07-31 11:24:53*
%MOMM*%
%LPD*%
G04 APERTURE LIST*
%ADD10O,1.700000X1.700000*%
%ADD11R,1.700000X1.700000*%
%ADD12O,1.600000X1.600000*%
%ADD13C,1.600000*%
%ADD14R,1.600000X1.600000*%
%ADD15O,2.000000X2.500000*%
%ADD16C,0.250000*%
%ADD17C,0.254000*%
G04 APERTURE END LIST*
D10*
X130920000Y-104040000D03*
X125840000Y-104040000D03*
X153780000Y-104040000D03*
X123300000Y-104040000D03*
X138540000Y-104040000D03*
X133460000Y-104040000D03*
X143620000Y-104040000D03*
D11*
X118220000Y-104040000D03*
D10*
X148700000Y-104040000D03*
X136000000Y-104040000D03*
X128380000Y-104040000D03*
X120760000Y-104040000D03*
X141080000Y-104040000D03*
X146160000Y-104040000D03*
X151240000Y-104040000D03*
X153780000Y-126900000D03*
X151240000Y-126900000D03*
X148700000Y-126900000D03*
X146160000Y-126900000D03*
X143620000Y-126900000D03*
X141080000Y-126900000D03*
X138540000Y-126900000D03*
X136000000Y-126900000D03*
X133460000Y-126900000D03*
X130920000Y-126900000D03*
X128380000Y-126900000D03*
X125840000Y-126900000D03*
X123300000Y-126900000D03*
X120760000Y-126900000D03*
D11*
X118220000Y-126900000D03*
D12*
X60500000Y-102840000D03*
D13*
X60500000Y-113000000D03*
D10*
X127080000Y-93530000D03*
X124540000Y-93530000D03*
X122000000Y-93530000D03*
D11*
X119460000Y-93530000D03*
D10*
X81460000Y-93500000D03*
D11*
X84000000Y-93500000D03*
D12*
X74120000Y-113000000D03*
X66500000Y-120620000D03*
X74120000Y-115540000D03*
X66500000Y-118080000D03*
X74120000Y-118080000D03*
X66500000Y-115540000D03*
X74120000Y-120620000D03*
D14*
X66500000Y-113000000D03*
D12*
X66500000Y-126840000D03*
D13*
X66500000Y-137000000D03*
D15*
X126195000Y-146000000D03*
X122385000Y-146000000D03*
X118575000Y-146000000D03*
X114765000Y-146000000D03*
X110955000Y-146000000D03*
X107145000Y-146000000D03*
X103335000Y-146000000D03*
X99525000Y-146000000D03*
X95715000Y-146000000D03*
X91905000Y-146000000D03*
X90000000Y-140920000D03*
X93810000Y-140920000D03*
X97620000Y-140920000D03*
X101430000Y-140920000D03*
X105240000Y-140920000D03*
X109050000Y-140920000D03*
X112860000Y-140920000D03*
X116670000Y-140920000D03*
X120480000Y-140920000D03*
X124290000Y-140920000D03*
X128100000Y-140920000D03*
D10*
X104080000Y-93500000D03*
X101540000Y-93500000D03*
D11*
X99000000Y-93500000D03*
D10*
X70660000Y-93500000D03*
X68120000Y-93500000D03*
X65580000Y-93500000D03*
X63040000Y-93500000D03*
D11*
X60500000Y-93500000D03*
D13*
X79500000Y-113000000D03*
X79500000Y-118000000D03*
X60500000Y-123000000D03*
X60500000Y-118000000D03*
D16*
X84000000Y-108500000D02*
X79500000Y-113000000D01*
X84000000Y-93500000D02*
X84000000Y-108500000D01*
X79500000Y-113000000D02*
X74120000Y-113000000D01*
X153780000Y-126900000D02*
X139880000Y-113000000D01*
X84000000Y-94600000D02*
X84000000Y-93500000D01*
X102400000Y-113000000D02*
X84000000Y-94600000D01*
X139880000Y-113000000D02*
X102400000Y-113000000D01*
X118575000Y-146000000D02*
X118575000Y-146575000D01*
D17*
G36*
X59198815Y-92198815D02*
G01*
X59119463Y-92295506D01*
X59060498Y-92405820D01*
X59024188Y-92525518D01*
X59011928Y-92650000D01*
X59011928Y-94350000D01*
X59024188Y-94474482D01*
X59060498Y-94594180D01*
X59119463Y-94704494D01*
X59198815Y-94801185D01*
X59295506Y-94880537D01*
X59405820Y-94939502D01*
X59525518Y-94975812D01*
X59650000Y-94988072D01*
X61350000Y-94988072D01*
X61474482Y-94975812D01*
X61594180Y-94939502D01*
X61704494Y-94880537D01*
X61801185Y-94801185D01*
X61880537Y-94704494D01*
X61939502Y-94594180D01*
X61961513Y-94521620D01*
X62093368Y-94653475D01*
X62336589Y-94815990D01*
X62606842Y-94927932D01*
X62893740Y-94985000D01*
X63186260Y-94985000D01*
X63473158Y-94927932D01*
X63743411Y-94815990D01*
X63986632Y-94653475D01*
X64193475Y-94446632D01*
X64310000Y-94272240D01*
X64426525Y-94446632D01*
X64633368Y-94653475D01*
X64876589Y-94815990D01*
X65146842Y-94927932D01*
X65433740Y-94985000D01*
X65726260Y-94985000D01*
X66013158Y-94927932D01*
X66283411Y-94815990D01*
X66526632Y-94653475D01*
X66733475Y-94446632D01*
X66850000Y-94272240D01*
X66966525Y-94446632D01*
X67173368Y-94653475D01*
X67416589Y-94815990D01*
X67686842Y-94927932D01*
X67973740Y-94985000D01*
X68266260Y-94985000D01*
X68553158Y-94927932D01*
X68823411Y-94815990D01*
X69066632Y-94653475D01*
X69273475Y-94446632D01*
X69395195Y-94264466D01*
X69464822Y-94381355D01*
X69659731Y-94597588D01*
X69893080Y-94771641D01*
X70155901Y-94896825D01*
X70303110Y-94941476D01*
X70533000Y-94820155D01*
X70533000Y-93627000D01*
X70787000Y-93627000D01*
X70787000Y-94820155D01*
X71016890Y-94941476D01*
X71164099Y-94896825D01*
X71426920Y-94771641D01*
X71660269Y-94597588D01*
X71855178Y-94381355D01*
X72004157Y-94131252D01*
X72101481Y-93856891D01*
X80018519Y-93856891D01*
X80115843Y-94131252D01*
X80264822Y-94381355D01*
X80459731Y-94597588D01*
X80693080Y-94771641D01*
X80955901Y-94896825D01*
X81103110Y-94941476D01*
X81333000Y-94820155D01*
X81333000Y-93627000D01*
X80139186Y-93627000D01*
X80018519Y-93856891D01*
X72101481Y-93856891D01*
X71980814Y-93627000D01*
X70787000Y-93627000D01*
X70533000Y-93627000D01*
X70513000Y-93627000D01*
X70513000Y-93373000D01*
X70533000Y-93373000D01*
X70533000Y-93353000D01*
X70787000Y-93353000D01*
X70787000Y-93373000D01*
X71980814Y-93373000D01*
X72101481Y-93143109D01*
X72004157Y-92868748D01*
X71855178Y-92618645D01*
X71660269Y-92402412D01*
X71426920Y-92228359D01*
X71214119Y-92127000D01*
X80905881Y-92127000D01*
X80693080Y-92228359D01*
X80459731Y-92402412D01*
X80264822Y-92618645D01*
X80115843Y-92868748D01*
X80018519Y-93143109D01*
X80139186Y-93373000D01*
X81333000Y-93373000D01*
X81333000Y-93353000D01*
X81587000Y-93353000D01*
X81587000Y-93373000D01*
X81607000Y-93373000D01*
X81607000Y-93627000D01*
X81587000Y-93627000D01*
X81587000Y-94820155D01*
X81816890Y-94941476D01*
X81964099Y-94896825D01*
X82226920Y-94771641D01*
X82460269Y-94597588D01*
X82536034Y-94513534D01*
X82560498Y-94594180D01*
X82619463Y-94704494D01*
X82698815Y-94801185D01*
X82795506Y-94880537D01*
X82905820Y-94939502D01*
X83025518Y-94975812D01*
X83150000Y-94988072D01*
X83240000Y-94988072D01*
X83240001Y-108185197D01*
X79823887Y-111601312D01*
X79641335Y-111565000D01*
X79358665Y-111565000D01*
X79081426Y-111620147D01*
X78820273Y-111728320D01*
X78585241Y-111885363D01*
X78385363Y-112085241D01*
X78281957Y-112240000D01*
X75338043Y-112240000D01*
X75234637Y-112085241D01*
X75034759Y-111885363D01*
X74799727Y-111728320D01*
X74538574Y-111620147D01*
X74261335Y-111565000D01*
X73978665Y-111565000D01*
X73701426Y-111620147D01*
X73440273Y-111728320D01*
X73205241Y-111885363D01*
X73005363Y-112085241D01*
X72848320Y-112320273D01*
X72740147Y-112581426D01*
X72685000Y-112858665D01*
X72685000Y-113141335D01*
X72740147Y-113418574D01*
X72848320Y-113679727D01*
X73005363Y-113914759D01*
X73205241Y-114114637D01*
X73437759Y-114270000D01*
X73205241Y-114425363D01*
X73005363Y-114625241D01*
X72848320Y-114860273D01*
X72740147Y-115121426D01*
X72685000Y-115398665D01*
X72685000Y-115681335D01*
X72740147Y-115958574D01*
X72848320Y-116219727D01*
X73005363Y-116454759D01*
X73205241Y-116654637D01*
X73437759Y-116810000D01*
X73205241Y-116965363D01*
X73005363Y-117165241D01*
X72848320Y-117400273D01*
X72740147Y-117661426D01*
X72685000Y-117938665D01*
X72685000Y-118221335D01*
X72740147Y-118498574D01*
X72848320Y-118759727D01*
X73005363Y-118994759D01*
X73205241Y-119194637D01*
X73437759Y-119350000D01*
X73205241Y-119505363D01*
X73005363Y-119705241D01*
X72848320Y-119940273D01*
X72740147Y-120201426D01*
X72685000Y-120478665D01*
X72685000Y-120761335D01*
X72740147Y-121038574D01*
X72848320Y-121299727D01*
X73005363Y-121534759D01*
X73205241Y-121734637D01*
X73440273Y-121891680D01*
X73701426Y-121999853D01*
X73978665Y-122055000D01*
X74261335Y-122055000D01*
X74538574Y-121999853D01*
X74799727Y-121891680D01*
X75034759Y-121734637D01*
X75234637Y-121534759D01*
X75391680Y-121299727D01*
X75499853Y-121038574D01*
X75555000Y-120761335D01*
X75555000Y-120478665D01*
X75499853Y-120201426D01*
X75391680Y-119940273D01*
X75234637Y-119705241D01*
X75034759Y-119505363D01*
X74802241Y-119350000D01*
X75034759Y-119194637D01*
X75234637Y-118994759D01*
X75236011Y-118992702D01*
X78686903Y-118992702D01*
X78758486Y-119236671D01*
X79013996Y-119357571D01*
X79288184Y-119426300D01*
X79570512Y-119440217D01*
X79850130Y-119398787D01*
X80116292Y-119303603D01*
X80241514Y-119236671D01*
X80313097Y-118992702D01*
X79500000Y-118179605D01*
X78686903Y-118992702D01*
X75236011Y-118992702D01*
X75391680Y-118759727D01*
X75499853Y-118498574D01*
X75555000Y-118221335D01*
X75555000Y-118070512D01*
X78059783Y-118070512D01*
X78101213Y-118350130D01*
X78196397Y-118616292D01*
X78263329Y-118741514D01*
X78507298Y-118813097D01*
X79320395Y-118000000D01*
X79679605Y-118000000D01*
X80492702Y-118813097D01*
X80736671Y-118741514D01*
X80857571Y-118486004D01*
X80926300Y-118211816D01*
X80940217Y-117929488D01*
X80898787Y-117649870D01*
X80803603Y-117383708D01*
X80736671Y-117258486D01*
X80492702Y-117186903D01*
X79679605Y-118000000D01*
X79320395Y-118000000D01*
X78507298Y-117186903D01*
X78263329Y-117258486D01*
X78142429Y-117513996D01*
X78073700Y-117788184D01*
X78059783Y-118070512D01*
X75555000Y-118070512D01*
X75555000Y-117938665D01*
X75499853Y-117661426D01*
X75391680Y-117400273D01*
X75234637Y-117165241D01*
X75076694Y-117007298D01*
X78686903Y-117007298D01*
X79500000Y-117820395D01*
X80313097Y-117007298D01*
X80241514Y-116763329D01*
X79986004Y-116642429D01*
X79711816Y-116573700D01*
X79429488Y-116559783D01*
X79149870Y-116601213D01*
X78883708Y-116696397D01*
X78758486Y-116763329D01*
X78686903Y-117007298D01*
X75076694Y-117007298D01*
X75034759Y-116965363D01*
X74802241Y-116810000D01*
X75034759Y-116654637D01*
X75234637Y-116454759D01*
X75391680Y-116219727D01*
X75499853Y-115958574D01*
X75555000Y-115681335D01*
X75555000Y-115398665D01*
X75499853Y-115121426D01*
X75391680Y-114860273D01*
X75234637Y-114625241D01*
X75034759Y-114425363D01*
X74802241Y-114270000D01*
X75034759Y-114114637D01*
X75234637Y-113914759D01*
X75338043Y-113760000D01*
X78281957Y-113760000D01*
X78385363Y-113914759D01*
X78585241Y-114114637D01*
X78820273Y-114271680D01*
X79081426Y-114379853D01*
X79358665Y-114435000D01*
X79641335Y-114435000D01*
X79918574Y-114379853D01*
X80179727Y-114271680D01*
X80414759Y-114114637D01*
X80614637Y-113914759D01*
X80771680Y-113679727D01*
X80879853Y-113418574D01*
X80935000Y-113141335D01*
X80935000Y-112858665D01*
X80898688Y-112676113D01*
X84511003Y-109063799D01*
X84540001Y-109040001D01*
X84566332Y-109007917D01*
X84634974Y-108924277D01*
X84705546Y-108792247D01*
X84749003Y-108648986D01*
X84760000Y-108537333D01*
X84760000Y-108537324D01*
X84763676Y-108500001D01*
X84760000Y-108462678D01*
X84760000Y-96434801D01*
X101836200Y-113511002D01*
X101859999Y-113540001D01*
X101888997Y-113563799D01*
X101975724Y-113634974D01*
X102107753Y-113705546D01*
X102251014Y-113749003D01*
X102400000Y-113763677D01*
X102437333Y-113760000D01*
X139565199Y-113760000D01*
X151220198Y-125415000D01*
X151112998Y-125415000D01*
X151112998Y-125579844D01*
X150883110Y-125458524D01*
X150735901Y-125503175D01*
X150473080Y-125628359D01*
X150239731Y-125802412D01*
X150044822Y-126018645D01*
X149975195Y-126135534D01*
X149853475Y-125953368D01*
X149646632Y-125746525D01*
X149403411Y-125584010D01*
X149133158Y-125472068D01*
X148846260Y-125415000D01*
X148553740Y-125415000D01*
X148266842Y-125472068D01*
X147996589Y-125584010D01*
X147753368Y-125746525D01*
X147546525Y-125953368D01*
X147430000Y-126127760D01*
X147313475Y-125953368D01*
X147106632Y-125746525D01*
X146863411Y-125584010D01*
X146593158Y-125472068D01*
X146306260Y-125415000D01*
X146013740Y-125415000D01*
X145726842Y-125472068D01*
X145456589Y-125584010D01*
X145213368Y-125746525D01*
X145006525Y-125953368D01*
X144890000Y-126127760D01*
X144773475Y-125953368D01*
X144566632Y-125746525D01*
X144323411Y-125584010D01*
X144053158Y-125472068D01*
X143766260Y-125415000D01*
X143473740Y-125415000D01*
X143186842Y-125472068D01*
X142916589Y-125584010D01*
X142673368Y-125746525D01*
X142466525Y-125953368D01*
X142344805Y-126135534D01*
X142275178Y-126018645D01*
X142080269Y-125802412D01*
X141846920Y-125628359D01*
X141584099Y-125503175D01*
X141436890Y-125458524D01*
X141207000Y-125579845D01*
X141207000Y-126773000D01*
X141227000Y-126773000D01*
X141227000Y-127027000D01*
X141207000Y-127027000D01*
X141207000Y-128220155D01*
X141436890Y-128341476D01*
X141584099Y-128296825D01*
X141846920Y-128171641D01*
X142080269Y-127997588D01*
X142275178Y-127781355D01*
X142344805Y-127664466D01*
X142466525Y-127846632D01*
X142673368Y-128053475D01*
X142916589Y-128215990D01*
X143186842Y-128327932D01*
X143473740Y-128385000D01*
X143766260Y-128385000D01*
X144053158Y-128327932D01*
X144323411Y-128215990D01*
X144566632Y-128053475D01*
X144773475Y-127846632D01*
X144890000Y-127672240D01*
X145006525Y-127846632D01*
X145213368Y-128053475D01*
X145456589Y-128215990D01*
X145726842Y-128327932D01*
X146013740Y-128385000D01*
X146306260Y-128385000D01*
X146593158Y-128327932D01*
X146863411Y-128215990D01*
X147106632Y-128053475D01*
X147313475Y-127846632D01*
X147430000Y-127672240D01*
X147546525Y-127846632D01*
X147753368Y-128053475D01*
X147996589Y-128215990D01*
X148266842Y-128327932D01*
X148553740Y-128385000D01*
X148846260Y-128385000D01*
X149133158Y-128327932D01*
X149403411Y-128215990D01*
X149646632Y-128053475D01*
X149853475Y-127846632D01*
X149975195Y-127664466D01*
X150044822Y-127781355D01*
X150239731Y-127997588D01*
X150473080Y-128171641D01*
X150735901Y-128296825D01*
X150883110Y-128341476D01*
X151113000Y-128220155D01*
X151113000Y-127027000D01*
X151093000Y-127027000D01*
X151093000Y-126773000D01*
X151113000Y-126773000D01*
X151113000Y-126753000D01*
X151367000Y-126753000D01*
X151367000Y-126773000D01*
X151387000Y-126773000D01*
X151387000Y-127027000D01*
X151367000Y-127027000D01*
X151367000Y-128220155D01*
X151596890Y-128341476D01*
X151744099Y-128296825D01*
X152006920Y-128171641D01*
X152240269Y-127997588D01*
X152435178Y-127781355D01*
X152504805Y-127664466D01*
X152626525Y-127846632D01*
X152833368Y-128053475D01*
X153076589Y-128215990D01*
X153346842Y-128327932D01*
X153633740Y-128385000D01*
X153926260Y-128385000D01*
X154213158Y-128327932D01*
X154483411Y-128215990D01*
X154726632Y-128053475D01*
X154933475Y-127846632D01*
X155095990Y-127603411D01*
X155207932Y-127333158D01*
X155265000Y-127046260D01*
X155265000Y-126753740D01*
X155207932Y-126466842D01*
X155095990Y-126196589D01*
X154933475Y-125953368D01*
X154726632Y-125746525D01*
X154483411Y-125584010D01*
X154213158Y-125472068D01*
X153926260Y-125415000D01*
X153633740Y-125415000D01*
X153413592Y-125458790D01*
X140443804Y-112489003D01*
X140420001Y-112459999D01*
X140304276Y-112365026D01*
X140172247Y-112294454D01*
X140028986Y-112250997D01*
X139917333Y-112240000D01*
X139917322Y-112240000D01*
X139880000Y-112236324D01*
X139842678Y-112240000D01*
X102714802Y-112240000D01*
X93664802Y-103190000D01*
X116731928Y-103190000D01*
X116731928Y-104890000D01*
X116744188Y-105014482D01*
X116780498Y-105134180D01*
X116839463Y-105244494D01*
X116918815Y-105341185D01*
X117015506Y-105420537D01*
X117125820Y-105479502D01*
X117245518Y-105515812D01*
X117370000Y-105528072D01*
X119070000Y-105528072D01*
X119194482Y-105515812D01*
X119314180Y-105479502D01*
X119424494Y-105420537D01*
X119521185Y-105341185D01*
X119600537Y-105244494D01*
X119659502Y-105134180D01*
X119681513Y-105061620D01*
X119813368Y-105193475D01*
X120056589Y-105355990D01*
X120326842Y-105467932D01*
X120613740Y-105525000D01*
X120906260Y-105525000D01*
X121193158Y-105467932D01*
X121463411Y-105355990D01*
X121706632Y-105193475D01*
X121913475Y-104986632D01*
X122030000Y-104812240D01*
X122146525Y-104986632D01*
X122353368Y-105193475D01*
X122596589Y-105355990D01*
X122866842Y-105467932D01*
X123153740Y-105525000D01*
X123446260Y-105525000D01*
X123733158Y-105467932D01*
X124003411Y-105355990D01*
X124246632Y-105193475D01*
X124453475Y-104986632D01*
X124570000Y-104812240D01*
X124686525Y-104986632D01*
X124893368Y-105193475D01*
X125136589Y-105355990D01*
X125406842Y-105467932D01*
X125693740Y-105525000D01*
X125986260Y-105525000D01*
X126273158Y-105467932D01*
X126543411Y-105355990D01*
X126786632Y-105193475D01*
X126993475Y-104986632D01*
X127110000Y-104812240D01*
X127226525Y-104986632D01*
X127433368Y-105193475D01*
X127676589Y-105355990D01*
X127946842Y-105467932D01*
X128233740Y-105525000D01*
X128526260Y-105525000D01*
X128813158Y-105467932D01*
X129083411Y-105355990D01*
X129326632Y-105193475D01*
X129533475Y-104986632D01*
X129650000Y-104812240D01*
X129766525Y-104986632D01*
X129973368Y-105193475D01*
X130216589Y-105355990D01*
X130486842Y-105467932D01*
X130773740Y-105525000D01*
X131066260Y-105525000D01*
X131353158Y-105467932D01*
X131623411Y-105355990D01*
X131866632Y-105193475D01*
X132073475Y-104986632D01*
X132195195Y-104804466D01*
X132264822Y-104921355D01*
X132459731Y-105137588D01*
X132693080Y-105311641D01*
X132955901Y-105436825D01*
X133103110Y-105481476D01*
X133333000Y-105360155D01*
X133333000Y-104167000D01*
X133313000Y-104167000D01*
X133313000Y-103913000D01*
X133333000Y-103913000D01*
X133333000Y-102719845D01*
X133587000Y-102719845D01*
X133587000Y-103913000D01*
X133607000Y-103913000D01*
X133607000Y-104167000D01*
X133587000Y-104167000D01*
X133587000Y-105360155D01*
X133816890Y-105481476D01*
X133964099Y-105436825D01*
X134226920Y-105311641D01*
X134460269Y-105137588D01*
X134655178Y-104921355D01*
X134724805Y-104804466D01*
X134846525Y-104986632D01*
X135053368Y-105193475D01*
X135296589Y-105355990D01*
X135566842Y-105467932D01*
X135853740Y-105525000D01*
X136146260Y-105525000D01*
X136433158Y-105467932D01*
X136703411Y-105355990D01*
X136946632Y-105193475D01*
X137153475Y-104986632D01*
X137270000Y-104812240D01*
X137386525Y-104986632D01*
X137593368Y-105193475D01*
X137836589Y-105355990D01*
X138106842Y-105467932D01*
X138393740Y-105525000D01*
X138686260Y-105525000D01*
X138973158Y-105467932D01*
X139243411Y-105355990D01*
X139486632Y-105193475D01*
X139693475Y-104986632D01*
X139810000Y-104812240D01*
X139926525Y-104986632D01*
X140133368Y-105193475D01*
X140376589Y-105355990D01*
X140646842Y-105467932D01*
X140933740Y-105525000D01*
X141226260Y-105525000D01*
X141513158Y-105467932D01*
X141783411Y-105355990D01*
X142026632Y-105193475D01*
X142233475Y-104986632D01*
X142350000Y-104812240D01*
X142466525Y-104986632D01*
X142673368Y-105193475D01*
X142916589Y-105355990D01*
X143186842Y-105467932D01*
X143473740Y-105525000D01*
X143766260Y-105525000D01*
X144053158Y-105467932D01*
X144323411Y-105355990D01*
X144566632Y-105193475D01*
X144773475Y-104986632D01*
X144890000Y-104812240D01*
X145006525Y-104986632D01*
X145213368Y-105193475D01*
X145456589Y-105355990D01*
X145726842Y-105467932D01*
X146013740Y-105525000D01*
X146306260Y-105525000D01*
X146593158Y-105467932D01*
X146863411Y-105355990D01*
X147106632Y-105193475D01*
X147313475Y-104986632D01*
X147430000Y-104812240D01*
X147546525Y-104986632D01*
X147753368Y-105193475D01*
X147996589Y-105355990D01*
X148266842Y-105467932D01*
X148553740Y-105525000D01*
X148846260Y-105525000D01*
X149133158Y-105467932D01*
X149403411Y-105355990D01*
X149646632Y-105193475D01*
X149853475Y-104986632D01*
X149975195Y-104804466D01*
X150044822Y-104921355D01*
X150239731Y-105137588D01*
X150473080Y-105311641D01*
X150735901Y-105436825D01*
X150883110Y-105481476D01*
X151113000Y-105360155D01*
X151113000Y-104167000D01*
X151093000Y-104167000D01*
X151093000Y-103913000D01*
X151113000Y-103913000D01*
X151113000Y-102719845D01*
X151367000Y-102719845D01*
X151367000Y-103913000D01*
X151387000Y-103913000D01*
X151387000Y-104167000D01*
X151367000Y-104167000D01*
X151367000Y-105360155D01*
X151596890Y-105481476D01*
X151744099Y-105436825D01*
X152006920Y-105311641D01*
X152240269Y-105137588D01*
X152435178Y-104921355D01*
X152504805Y-104804466D01*
X152626525Y-104986632D01*
X152833368Y-105193475D01*
X153076589Y-105355990D01*
X153346842Y-105467932D01*
X153633740Y-105525000D01*
X153926260Y-105525000D01*
X154213158Y-105467932D01*
X154483411Y-105355990D01*
X154726632Y-105193475D01*
X154933475Y-104986632D01*
X155095990Y-104743411D01*
X155207932Y-104473158D01*
X155265000Y-104186260D01*
X155265000Y-103893740D01*
X155207932Y-103606842D01*
X155095990Y-103336589D01*
X154933475Y-103093368D01*
X154726632Y-102886525D01*
X154483411Y-102724010D01*
X154213158Y-102612068D01*
X153926260Y-102555000D01*
X153633740Y-102555000D01*
X153346842Y-102612068D01*
X153076589Y-102724010D01*
X152833368Y-102886525D01*
X152626525Y-103093368D01*
X152504805Y-103275534D01*
X152435178Y-103158645D01*
X152240269Y-102942412D01*
X152006920Y-102768359D01*
X151744099Y-102643175D01*
X151596890Y-102598524D01*
X151367000Y-102719845D01*
X151113000Y-102719845D01*
X150883110Y-102598524D01*
X150735901Y-102643175D01*
X150473080Y-102768359D01*
X150239731Y-102942412D01*
X150044822Y-103158645D01*
X149975195Y-103275534D01*
X149853475Y-103093368D01*
X149646632Y-102886525D01*
X149403411Y-102724010D01*
X149133158Y-102612068D01*
X148846260Y-102555000D01*
X148553740Y-102555000D01*
X148266842Y-102612068D01*
X147996589Y-102724010D01*
X147753368Y-102886525D01*
X147546525Y-103093368D01*
X147430000Y-103267760D01*
X147313475Y-103093368D01*
X147106632Y-102886525D01*
X146863411Y-102724010D01*
X146593158Y-102612068D01*
X146306260Y-102555000D01*
X146013740Y-102555000D01*
X145726842Y-102612068D01*
X145456589Y-102724010D01*
X145213368Y-102886525D01*
X145006525Y-103093368D01*
X144890000Y-103267760D01*
X144773475Y-103093368D01*
X144566632Y-102886525D01*
X144323411Y-102724010D01*
X144053158Y-102612068D01*
X143766260Y-102555000D01*
X143473740Y-102555000D01*
X143186842Y-102612068D01*
X142916589Y-102724010D01*
X142673368Y-102886525D01*
X142466525Y-103093368D01*
X142350000Y-103267760D01*
X142233475Y-103093368D01*
X142026632Y-102886525D01*
X141783411Y-102724010D01*
X141513158Y-102612068D01*
X141226260Y-102555000D01*
X140933740Y-102555000D01*
X140646842Y-102612068D01*
X140376589Y-102724010D01*
X140133368Y-102886525D01*
X139926525Y-103093368D01*
X139810000Y-103267760D01*
X139693475Y-103093368D01*
X139486632Y-102886525D01*
X139243411Y-102724010D01*
X138973158Y-102612068D01*
X138686260Y-102555000D01*
X138393740Y-102555000D01*
X138106842Y-102612068D01*
X137836589Y-102724010D01*
X137593368Y-102886525D01*
X137386525Y-103093368D01*
X137270000Y-103267760D01*
X137153475Y-103093368D01*
X136946632Y-102886525D01*
X136703411Y-102724010D01*
X136433158Y-102612068D01*
X136146260Y-102555000D01*
X135853740Y-102555000D01*
X135566842Y-102612068D01*
X135296589Y-102724010D01*
X135053368Y-102886525D01*
X134846525Y-103093368D01*
X134724805Y-103275534D01*
X134655178Y-103158645D01*
X134460269Y-102942412D01*
X134226920Y-102768359D01*
X133964099Y-102643175D01*
X133816890Y-102598524D01*
X133587000Y-102719845D01*
X133333000Y-102719845D01*
X133103110Y-102598524D01*
X132955901Y-102643175D01*
X132693080Y-102768359D01*
X132459731Y-102942412D01*
X132264822Y-103158645D01*
X132195195Y-103275534D01*
X132073475Y-103093368D01*
X131866632Y-102886525D01*
X131623411Y-102724010D01*
X131353158Y-102612068D01*
X131066260Y-102555000D01*
X130773740Y-102555000D01*
X130486842Y-102612068D01*
X130216589Y-102724010D01*
X129973368Y-102886525D01*
X129766525Y-103093368D01*
X129650000Y-103267760D01*
X129533475Y-103093368D01*
X129326632Y-102886525D01*
X129083411Y-102724010D01*
X128813158Y-102612068D01*
X128526260Y-102555000D01*
X128233740Y-102555000D01*
X127946842Y-102612068D01*
X127676589Y-102724010D01*
X127433368Y-102886525D01*
X127226525Y-103093368D01*
X127110000Y-103267760D01*
X126993475Y-103093368D01*
X126786632Y-102886525D01*
X126543411Y-102724010D01*
X126273158Y-102612068D01*
X125986260Y-102555000D01*
X125693740Y-102555000D01*
X125406842Y-102612068D01*
X125136589Y-102724010D01*
X124893368Y-102886525D01*
X124686525Y-103093368D01*
X124570000Y-103267760D01*
X124453475Y-103093368D01*
X124246632Y-102886525D01*
X124003411Y-102724010D01*
X123733158Y-102612068D01*
X123446260Y-102555000D01*
X123153740Y-102555000D01*
X122866842Y-102612068D01*
X122596589Y-102724010D01*
X122353368Y-102886525D01*
X122146525Y-103093368D01*
X122030000Y-103267760D01*
X121913475Y-103093368D01*
X121706632Y-102886525D01*
X121463411Y-102724010D01*
X121193158Y-102612068D01*
X120906260Y-102555000D01*
X120613740Y-102555000D01*
X120326842Y-102612068D01*
X120056589Y-102724010D01*
X119813368Y-102886525D01*
X119681513Y-103018380D01*
X119659502Y-102945820D01*
X119600537Y-102835506D01*
X119521185Y-102738815D01*
X119424494Y-102659463D01*
X119314180Y-102600498D01*
X119194482Y-102564188D01*
X119070000Y-102551928D01*
X117370000Y-102551928D01*
X117245518Y-102564188D01*
X117125820Y-102600498D01*
X117015506Y-102659463D01*
X116918815Y-102738815D01*
X116839463Y-102835506D01*
X116780498Y-102945820D01*
X116744188Y-103065518D01*
X116731928Y-103190000D01*
X93664802Y-103190000D01*
X85287345Y-94812544D01*
X85301185Y-94801185D01*
X85380537Y-94704494D01*
X85439502Y-94594180D01*
X85475812Y-94474482D01*
X85488072Y-94350000D01*
X85488072Y-92650000D01*
X85475812Y-92525518D01*
X85439502Y-92405820D01*
X85380537Y-92295506D01*
X85301185Y-92198815D01*
X85213678Y-92127000D01*
X97786322Y-92127000D01*
X97698815Y-92198815D01*
X97619463Y-92295506D01*
X97560498Y-92405820D01*
X97524188Y-92525518D01*
X97511928Y-92650000D01*
X97511928Y-94350000D01*
X97524188Y-94474482D01*
X97560498Y-94594180D01*
X97619463Y-94704494D01*
X97698815Y-94801185D01*
X97795506Y-94880537D01*
X97905820Y-94939502D01*
X98025518Y-94975812D01*
X98150000Y-94988072D01*
X99850000Y-94988072D01*
X99974482Y-94975812D01*
X100094180Y-94939502D01*
X100204494Y-94880537D01*
X100301185Y-94801185D01*
X100380537Y-94704494D01*
X100439502Y-94594180D01*
X100461513Y-94521620D01*
X100593368Y-94653475D01*
X100836589Y-94815990D01*
X101106842Y-94927932D01*
X101393740Y-94985000D01*
X101686260Y-94985000D01*
X101973158Y-94927932D01*
X102243411Y-94815990D01*
X102486632Y-94653475D01*
X102693475Y-94446632D01*
X102815195Y-94264466D01*
X102884822Y-94381355D01*
X103079731Y-94597588D01*
X103313080Y-94771641D01*
X103575901Y-94896825D01*
X103723110Y-94941476D01*
X103953000Y-94820155D01*
X103953000Y-93627000D01*
X104207000Y-93627000D01*
X104207000Y-94820155D01*
X104436890Y-94941476D01*
X104584099Y-94896825D01*
X104846920Y-94771641D01*
X105080269Y-94597588D01*
X105275178Y-94381355D01*
X105424157Y-94131252D01*
X105521481Y-93856891D01*
X105400814Y-93627000D01*
X104207000Y-93627000D01*
X103953000Y-93627000D01*
X103933000Y-93627000D01*
X103933000Y-93373000D01*
X103953000Y-93373000D01*
X103953000Y-93353000D01*
X104207000Y-93353000D01*
X104207000Y-93373000D01*
X105400814Y-93373000D01*
X105521481Y-93143109D01*
X105424157Y-92868748D01*
X105275178Y-92618645D01*
X105080269Y-92402412D01*
X104846920Y-92228359D01*
X104634119Y-92127000D01*
X118297531Y-92127000D01*
X118255506Y-92149463D01*
X118158815Y-92228815D01*
X118079463Y-92325506D01*
X118020498Y-92435820D01*
X117984188Y-92555518D01*
X117971928Y-92680000D01*
X117971928Y-94380000D01*
X117984188Y-94504482D01*
X118020498Y-94624180D01*
X118079463Y-94734494D01*
X118158815Y-94831185D01*
X118255506Y-94910537D01*
X118365820Y-94969502D01*
X118485518Y-95005812D01*
X118610000Y-95018072D01*
X120310000Y-95018072D01*
X120434482Y-95005812D01*
X120554180Y-94969502D01*
X120664494Y-94910537D01*
X120761185Y-94831185D01*
X120840537Y-94734494D01*
X120899502Y-94624180D01*
X120921513Y-94551620D01*
X121053368Y-94683475D01*
X121296589Y-94845990D01*
X121566842Y-94957932D01*
X121853740Y-95015000D01*
X122146260Y-95015000D01*
X122433158Y-94957932D01*
X122703411Y-94845990D01*
X122946632Y-94683475D01*
X123153475Y-94476632D01*
X123275195Y-94294466D01*
X123344822Y-94411355D01*
X123539731Y-94627588D01*
X123773080Y-94801641D01*
X124035901Y-94926825D01*
X124183110Y-94971476D01*
X124413000Y-94850155D01*
X124413000Y-93657000D01*
X124393000Y-93657000D01*
X124393000Y-93403000D01*
X124413000Y-93403000D01*
X124413000Y-93383000D01*
X124667000Y-93383000D01*
X124667000Y-93403000D01*
X124687000Y-93403000D01*
X124687000Y-93657000D01*
X124667000Y-93657000D01*
X124667000Y-94850155D01*
X124896890Y-94971476D01*
X125044099Y-94926825D01*
X125306920Y-94801641D01*
X125540269Y-94627588D01*
X125735178Y-94411355D01*
X125804805Y-94294466D01*
X125926525Y-94476632D01*
X126133368Y-94683475D01*
X126376589Y-94845990D01*
X126646842Y-94957932D01*
X126933740Y-95015000D01*
X127226260Y-95015000D01*
X127513158Y-94957932D01*
X127783411Y-94845990D01*
X128026632Y-94683475D01*
X128233475Y-94476632D01*
X128395990Y-94233411D01*
X128507932Y-93963158D01*
X128565000Y-93676260D01*
X128565000Y-93383740D01*
X128507932Y-93096842D01*
X128395990Y-92826589D01*
X128233475Y-92583368D01*
X128026632Y-92376525D01*
X127783411Y-92214010D01*
X127573349Y-92127000D01*
X167873000Y-92127000D01*
X167873000Y-147873000D01*
X126397160Y-147873000D01*
X126515516Y-147861343D01*
X126823715Y-147767852D01*
X127107752Y-147616031D01*
X127356714Y-147411714D01*
X127561031Y-147162752D01*
X127712852Y-146878715D01*
X127806343Y-146570515D01*
X127830000Y-146330321D01*
X127830000Y-145669678D01*
X127806343Y-145429484D01*
X127712852Y-145121285D01*
X127561031Y-144837248D01*
X127356714Y-144588286D01*
X127107751Y-144383969D01*
X126823714Y-144232148D01*
X126515515Y-144138657D01*
X126195000Y-144107089D01*
X125874484Y-144138657D01*
X125566285Y-144232148D01*
X125282248Y-144383969D01*
X125033286Y-144588286D01*
X124828969Y-144837249D01*
X124677148Y-145121286D01*
X124583657Y-145429485D01*
X124560000Y-145669679D01*
X124560000Y-146330322D01*
X124583657Y-146570516D01*
X124677148Y-146878715D01*
X124828969Y-147162752D01*
X125033286Y-147411714D01*
X125282249Y-147616031D01*
X125566286Y-147767852D01*
X125874485Y-147861343D01*
X125992840Y-147873000D01*
X122512002Y-147873000D01*
X122512002Y-147720778D01*
X122765434Y-147840124D01*
X122887398Y-147815744D01*
X123183206Y-147687646D01*
X123448340Y-147504300D01*
X123672610Y-147272752D01*
X123847398Y-147001900D01*
X123965987Y-146702153D01*
X124023819Y-146385030D01*
X123866016Y-146127000D01*
X122512000Y-146127000D01*
X122512000Y-146147000D01*
X122258000Y-146147000D01*
X122258000Y-146127000D01*
X120903984Y-146127000D01*
X120746181Y-146385030D01*
X120804013Y-146702153D01*
X120922602Y-147001900D01*
X121097390Y-147272752D01*
X121321660Y-147504300D01*
X121586794Y-147687646D01*
X121882602Y-147815744D01*
X122004566Y-147840124D01*
X122257998Y-147720778D01*
X122257998Y-147873000D01*
X118777160Y-147873000D01*
X118895516Y-147861343D01*
X119203715Y-147767852D01*
X119487752Y-147616031D01*
X119736714Y-147411714D01*
X119941031Y-147162752D01*
X120092852Y-146878715D01*
X120186343Y-146570515D01*
X120210000Y-146330321D01*
X120210000Y-145669678D01*
X120204612Y-145614970D01*
X120746181Y-145614970D01*
X120903984Y-145873000D01*
X122258000Y-145873000D01*
X122258000Y-144279223D01*
X122512000Y-144279223D01*
X122512000Y-145873000D01*
X123866016Y-145873000D01*
X124023819Y-145614970D01*
X123965987Y-145297847D01*
X123847398Y-144998100D01*
X123672610Y-144727248D01*
X123448340Y-144495700D01*
X123183206Y-144312354D01*
X122887398Y-144184256D01*
X122765434Y-144159876D01*
X122512000Y-144279223D01*
X122258000Y-144279223D01*
X122004566Y-144159876D01*
X121882602Y-144184256D01*
X121586794Y-144312354D01*
X121321660Y-144495700D01*
X121097390Y-144727248D01*
X120922602Y-144998100D01*
X120804013Y-145297847D01*
X120746181Y-145614970D01*
X120204612Y-145614970D01*
X120186343Y-145429484D01*
X120092852Y-145121285D01*
X119941031Y-144837248D01*
X119736714Y-144588286D01*
X119487751Y-144383969D01*
X119203714Y-144232148D01*
X118895515Y-144138657D01*
X118575000Y-144107089D01*
X118254484Y-144138657D01*
X117946285Y-144232148D01*
X117662248Y-144383969D01*
X117413286Y-144588286D01*
X117208969Y-144837249D01*
X117057148Y-145121286D01*
X116963657Y-145429485D01*
X116940000Y-145669679D01*
X116940000Y-146330322D01*
X116963657Y-146570516D01*
X117057148Y-146878715D01*
X117208969Y-147162752D01*
X117413286Y-147411714D01*
X117662249Y-147616031D01*
X117946286Y-147767852D01*
X118254485Y-147861343D01*
X118372840Y-147873000D01*
X114967160Y-147873000D01*
X115085516Y-147861343D01*
X115393715Y-147767852D01*
X115677752Y-147616031D01*
X115926714Y-147411714D01*
X116131031Y-147162752D01*
X116282852Y-146878715D01*
X116376343Y-146570515D01*
X116400000Y-146330321D01*
X116400000Y-145669678D01*
X116376343Y-145429484D01*
X116282852Y-145121285D01*
X116131031Y-144837248D01*
X115926714Y-144588286D01*
X115677751Y-144383969D01*
X115393714Y-144232148D01*
X115085515Y-144138657D01*
X114765000Y-144107089D01*
X114444484Y-144138657D01*
X114136285Y-144232148D01*
X113852248Y-144383969D01*
X113603286Y-144588286D01*
X113398969Y-144837249D01*
X113247148Y-145121286D01*
X113153657Y-145429485D01*
X113130000Y-145669679D01*
X113130000Y-146330322D01*
X113153657Y-146570516D01*
X113247148Y-146878715D01*
X113398969Y-147162752D01*
X113603286Y-147411714D01*
X113852249Y-147616031D01*
X114136286Y-147767852D01*
X114444485Y-147861343D01*
X114562840Y-147873000D01*
X111157160Y-147873000D01*
X111275516Y-147861343D01*
X111583715Y-147767852D01*
X111867752Y-147616031D01*
X112116714Y-147411714D01*
X112321031Y-147162752D01*
X112472852Y-146878715D01*
X112566343Y-146570515D01*
X112590000Y-146330321D01*
X112590000Y-145669678D01*
X112566343Y-145429484D01*
X112472852Y-145121285D01*
X112321031Y-144837248D01*
X112116714Y-144588286D01*
X111867751Y-144383969D01*
X111583714Y-144232148D01*
X111275515Y-144138657D01*
X110955000Y-144107089D01*
X110634484Y-144138657D01*
X110326285Y-144232148D01*
X110042248Y-144383969D01*
X109793286Y-144588286D01*
X109588969Y-144837249D01*
X109437148Y-145121286D01*
X109343657Y-145429485D01*
X109320000Y-145669679D01*
X109320000Y-146330322D01*
X109343657Y-146570516D01*
X109437148Y-146878715D01*
X109588969Y-147162752D01*
X109793286Y-147411714D01*
X110042249Y-147616031D01*
X110326286Y-147767852D01*
X110634485Y-147861343D01*
X110752840Y-147873000D01*
X107347160Y-147873000D01*
X107465516Y-147861343D01*
X107773715Y-147767852D01*
X108057752Y-147616031D01*
X108306714Y-147411714D01*
X108511031Y-147162752D01*
X108662852Y-146878715D01*
X108756343Y-146570515D01*
X108780000Y-146330321D01*
X108780000Y-145669678D01*
X108756343Y-145429484D01*
X108662852Y-145121285D01*
X108511031Y-144837248D01*
X108306714Y-144588286D01*
X108057751Y-144383969D01*
X107773714Y-144232148D01*
X107465515Y-144138657D01*
X107145000Y-144107089D01*
X106824484Y-144138657D01*
X106516285Y-144232148D01*
X106232248Y-144383969D01*
X105983286Y-144588286D01*
X105778969Y-144837249D01*
X105627148Y-145121286D01*
X105533657Y-145429485D01*
X105510000Y-145669679D01*
X105510000Y-146330322D01*
X105533657Y-146570516D01*
X105627148Y-146878715D01*
X105778969Y-147162752D01*
X105983286Y-147411714D01*
X106232249Y-147616031D01*
X106516286Y-147767852D01*
X106824485Y-147861343D01*
X106942840Y-147873000D01*
X103537160Y-147873000D01*
X103655516Y-147861343D01*
X103963715Y-147767852D01*
X104247752Y-147616031D01*
X104496714Y-147411714D01*
X104701031Y-147162752D01*
X104852852Y-146878715D01*
X104946343Y-146570515D01*
X104970000Y-146330321D01*
X104970000Y-145669678D01*
X104946343Y-145429484D01*
X104852852Y-145121285D01*
X104701031Y-144837248D01*
X104496714Y-144588286D01*
X104247751Y-144383969D01*
X103963714Y-144232148D01*
X103655515Y-144138657D01*
X103335000Y-144107089D01*
X103014484Y-144138657D01*
X102706285Y-144232148D01*
X102422248Y-144383969D01*
X102173286Y-144588286D01*
X101968969Y-144837249D01*
X101817148Y-145121286D01*
X101723657Y-145429485D01*
X101700000Y-145669679D01*
X101700000Y-146330322D01*
X101723657Y-146570516D01*
X101817148Y-146878715D01*
X101968969Y-147162752D01*
X102173286Y-147411714D01*
X102422249Y-147616031D01*
X102706286Y-147767852D01*
X103014485Y-147861343D01*
X103132840Y-147873000D01*
X99727160Y-147873000D01*
X99845516Y-147861343D01*
X100153715Y-147767852D01*
X100437752Y-147616031D01*
X100686714Y-147411714D01*
X100891031Y-147162752D01*
X101042852Y-146878715D01*
X101136343Y-146570515D01*
X101160000Y-146330321D01*
X101160000Y-145669678D01*
X101136343Y-145429484D01*
X101042852Y-145121285D01*
X100891031Y-144837248D01*
X100686714Y-144588286D01*
X100437751Y-144383969D01*
X100153714Y-144232148D01*
X99845515Y-144138657D01*
X99525000Y-144107089D01*
X99204484Y-144138657D01*
X98896285Y-144232148D01*
X98612248Y-144383969D01*
X98363286Y-144588286D01*
X98158969Y-144837249D01*
X98007148Y-145121286D01*
X97913657Y-145429485D01*
X97890000Y-145669679D01*
X97890000Y-146330322D01*
X97913657Y-146570516D01*
X98007148Y-146878715D01*
X98158969Y-147162752D01*
X98363286Y-147411714D01*
X98612249Y-147616031D01*
X98896286Y-147767852D01*
X99204485Y-147861343D01*
X99322840Y-147873000D01*
X95917160Y-147873000D01*
X96035516Y-147861343D01*
X96343715Y-147767852D01*
X96627752Y-147616031D01*
X96876714Y-147411714D01*
X97081031Y-147162752D01*
X97232852Y-146878715D01*
X97326343Y-146570515D01*
X97350000Y-146330321D01*
X97350000Y-145669678D01*
X97326343Y-145429484D01*
X97232852Y-145121285D01*
X97081031Y-144837248D01*
X96876714Y-144588286D01*
X96627751Y-144383969D01*
X96343714Y-144232148D01*
X96035515Y-144138657D01*
X95715000Y-144107089D01*
X95394484Y-144138657D01*
X95086285Y-144232148D01*
X94802248Y-144383969D01*
X94553286Y-144588286D01*
X94348969Y-144837249D01*
X94197148Y-145121286D01*
X94103657Y-145429485D01*
X94080000Y-145669679D01*
X94080000Y-146330322D01*
X94103657Y-146570516D01*
X94197148Y-146878715D01*
X94348969Y-147162752D01*
X94553286Y-147411714D01*
X94802249Y-147616031D01*
X95086286Y-147767852D01*
X95394485Y-147861343D01*
X95512840Y-147873000D01*
X92107160Y-147873000D01*
X92225516Y-147861343D01*
X92533715Y-147767852D01*
X92817752Y-147616031D01*
X93066714Y-147411714D01*
X93271031Y-147162752D01*
X93422852Y-146878715D01*
X93516343Y-146570515D01*
X93540000Y-146330321D01*
X93540000Y-145669678D01*
X93516343Y-145429484D01*
X93422852Y-145121285D01*
X93271031Y-144837248D01*
X93066714Y-144588286D01*
X92817751Y-144383969D01*
X92533714Y-144232148D01*
X92225515Y-144138657D01*
X91905000Y-144107089D01*
X91584484Y-144138657D01*
X91276285Y-144232148D01*
X90992248Y-144383969D01*
X90743286Y-144588286D01*
X90538969Y-144837249D01*
X90387148Y-145121286D01*
X90293657Y-145429485D01*
X90270000Y-145669679D01*
X90270000Y-146330322D01*
X90293657Y-146570516D01*
X90387148Y-146878715D01*
X90538969Y-147162752D01*
X90743286Y-147411714D01*
X90992249Y-147616031D01*
X91276286Y-147767852D01*
X91584485Y-147861343D01*
X91702840Y-147873000D01*
X52127000Y-147873000D01*
X52127000Y-141305030D01*
X88361181Y-141305030D01*
X88419013Y-141622153D01*
X88537602Y-141921900D01*
X88712390Y-142192752D01*
X88936660Y-142424300D01*
X89201794Y-142607646D01*
X89497602Y-142735744D01*
X89619566Y-142760124D01*
X89873000Y-142640777D01*
X89873000Y-141047000D01*
X90127000Y-141047000D01*
X90127000Y-142640777D01*
X90380434Y-142760124D01*
X90502398Y-142735744D01*
X90798206Y-142607646D01*
X91063340Y-142424300D01*
X91287610Y-142192752D01*
X91462398Y-141921900D01*
X91580987Y-141622153D01*
X91638819Y-141305030D01*
X91481016Y-141047000D01*
X90127000Y-141047000D01*
X89873000Y-141047000D01*
X88518984Y-141047000D01*
X88361181Y-141305030D01*
X52127000Y-141305030D01*
X52127000Y-140534970D01*
X88361181Y-140534970D01*
X88518984Y-140793000D01*
X89873000Y-140793000D01*
X89873000Y-139199223D01*
X90127000Y-139199223D01*
X90127000Y-140793000D01*
X91481016Y-140793000D01*
X91605360Y-140589679D01*
X92175000Y-140589679D01*
X92175000Y-141250322D01*
X92198657Y-141490516D01*
X92292148Y-141798715D01*
X92443969Y-142082752D01*
X92648286Y-142331714D01*
X92897249Y-142536031D01*
X93181286Y-142687852D01*
X93489485Y-142781343D01*
X93810000Y-142812911D01*
X94130516Y-142781343D01*
X94438715Y-142687852D01*
X94722752Y-142536031D01*
X94971714Y-142331714D01*
X95176031Y-142082752D01*
X95327852Y-141798715D01*
X95421343Y-141490515D01*
X95439611Y-141305030D01*
X95981181Y-141305030D01*
X96039013Y-141622153D01*
X96157602Y-141921900D01*
X96332390Y-142192752D01*
X96556660Y-142424300D01*
X96821794Y-142607646D01*
X97117602Y-142735744D01*
X97239566Y-142760124D01*
X97493000Y-142640777D01*
X97493000Y-141047000D01*
X97747000Y-141047000D01*
X97747000Y-142640777D01*
X98000434Y-142760124D01*
X98122398Y-142735744D01*
X98418206Y-142607646D01*
X98683340Y-142424300D01*
X98907610Y-142192752D01*
X99082398Y-141921900D01*
X99200987Y-141622153D01*
X99258819Y-141305030D01*
X99101016Y-141047000D01*
X97747000Y-141047000D01*
X97493000Y-141047000D01*
X96138984Y-141047000D01*
X95981181Y-141305030D01*
X95439611Y-141305030D01*
X95445000Y-141250321D01*
X95445000Y-140589678D01*
X95439612Y-140534970D01*
X95981181Y-140534970D01*
X96138984Y-140793000D01*
X97493000Y-140793000D01*
X97493000Y-139199223D01*
X97747000Y-139199223D01*
X97747000Y-140793000D01*
X99101016Y-140793000D01*
X99225360Y-140589679D01*
X99795000Y-140589679D01*
X99795000Y-141250322D01*
X99818657Y-141490516D01*
X99912148Y-141798715D01*
X100063969Y-142082752D01*
X100268286Y-142331714D01*
X100517249Y-142536031D01*
X100801286Y-142687852D01*
X101109485Y-142781343D01*
X101430000Y-142812911D01*
X101750516Y-142781343D01*
X102058715Y-142687852D01*
X102342752Y-142536031D01*
X102591714Y-142331714D01*
X102796031Y-142082752D01*
X102947852Y-141798715D01*
X103041343Y-141490515D01*
X103059611Y-141305030D01*
X103601181Y-141305030D01*
X103659013Y-141622153D01*
X103777602Y-141921900D01*
X103952390Y-142192752D01*
X104176660Y-142424300D01*
X104441794Y-142607646D01*
X104737602Y-142735744D01*
X104859566Y-142760124D01*
X105113000Y-142640777D01*
X105113000Y-141047000D01*
X105367000Y-141047000D01*
X105367000Y-142640777D01*
X105620434Y-142760124D01*
X105742398Y-142735744D01*
X106038206Y-142607646D01*
X106303340Y-142424300D01*
X106527610Y-142192752D01*
X106702398Y-141921900D01*
X106820987Y-141622153D01*
X106878819Y-141305030D01*
X106721016Y-141047000D01*
X105367000Y-141047000D01*
X105113000Y-141047000D01*
X103758984Y-141047000D01*
X103601181Y-141305030D01*
X103059611Y-141305030D01*
X103065000Y-141250321D01*
X103065000Y-140589678D01*
X103059612Y-140534970D01*
X103601181Y-140534970D01*
X103758984Y-140793000D01*
X105113000Y-140793000D01*
X105113000Y-139199223D01*
X105367000Y-139199223D01*
X105367000Y-140793000D01*
X106721016Y-140793000D01*
X106845360Y-140589679D01*
X107415000Y-140589679D01*
X107415000Y-141250322D01*
X107438657Y-141490516D01*
X107532148Y-141798715D01*
X107683969Y-142082752D01*
X107888286Y-142331714D01*
X108137249Y-142536031D01*
X108421286Y-142687852D01*
X108729485Y-142781343D01*
X109050000Y-142812911D01*
X109370516Y-142781343D01*
X109678715Y-142687852D01*
X109962752Y-142536031D01*
X110211714Y-142331714D01*
X110416031Y-142082752D01*
X110567852Y-141798715D01*
X110661343Y-141490515D01*
X110679611Y-141305030D01*
X111221181Y-141305030D01*
X111279013Y-141622153D01*
X111397602Y-141921900D01*
X111572390Y-142192752D01*
X111796660Y-142424300D01*
X112061794Y-142607646D01*
X112357602Y-142735744D01*
X112479566Y-142760124D01*
X112733000Y-142640777D01*
X112733000Y-141047000D01*
X112987000Y-141047000D01*
X112987000Y-142640777D01*
X113240434Y-142760124D01*
X113362398Y-142735744D01*
X113658206Y-142607646D01*
X113923340Y-142424300D01*
X114147610Y-142192752D01*
X114322398Y-141921900D01*
X114440987Y-141622153D01*
X114498819Y-141305030D01*
X114341016Y-141047000D01*
X112987000Y-141047000D01*
X112733000Y-141047000D01*
X111378984Y-141047000D01*
X111221181Y-141305030D01*
X110679611Y-141305030D01*
X110685000Y-141250321D01*
X110685000Y-140589678D01*
X110679612Y-140534970D01*
X111221181Y-140534970D01*
X111378984Y-140793000D01*
X112733000Y-140793000D01*
X112733000Y-139199223D01*
X112987000Y-139199223D01*
X112987000Y-140793000D01*
X114341016Y-140793000D01*
X114465360Y-140589679D01*
X115035000Y-140589679D01*
X115035000Y-141250322D01*
X115058657Y-141490516D01*
X115152148Y-141798715D01*
X115303969Y-142082752D01*
X115508286Y-142331714D01*
X115757249Y-142536031D01*
X116041286Y-142687852D01*
X116349485Y-142781343D01*
X116670000Y-142812911D01*
X116990516Y-142781343D01*
X117298715Y-142687852D01*
X117582752Y-142536031D01*
X117831714Y-142331714D01*
X118036031Y-142082752D01*
X118187852Y-141798715D01*
X118281343Y-141490515D01*
X118299611Y-141305030D01*
X118841181Y-141305030D01*
X118899013Y-141622153D01*
X119017602Y-141921900D01*
X119192390Y-142192752D01*
X119416660Y-142424300D01*
X119681794Y-142607646D01*
X119977602Y-142735744D01*
X120099566Y-142760124D01*
X120353000Y-142640777D01*
X120353000Y-141047000D01*
X120607000Y-141047000D01*
X120607000Y-142640777D01*
X120860434Y-142760124D01*
X120982398Y-142735744D01*
X121278206Y-142607646D01*
X121543340Y-142424300D01*
X121767610Y-142192752D01*
X121942398Y-141921900D01*
X122060987Y-141622153D01*
X122118819Y-141305030D01*
X121961016Y-141047000D01*
X120607000Y-141047000D01*
X120353000Y-141047000D01*
X118998984Y-141047000D01*
X118841181Y-141305030D01*
X118299611Y-141305030D01*
X118305000Y-141250321D01*
X118305000Y-140589678D01*
X118299612Y-140534970D01*
X118841181Y-140534970D01*
X118998984Y-140793000D01*
X120353000Y-140793000D01*
X120353000Y-139199223D01*
X120607000Y-139199223D01*
X120607000Y-140793000D01*
X121961016Y-140793000D01*
X122085360Y-140589679D01*
X122655000Y-140589679D01*
X122655000Y-141250322D01*
X122678657Y-141490516D01*
X122772148Y-141798715D01*
X122923969Y-142082752D01*
X123128286Y-142331714D01*
X123377249Y-142536031D01*
X123661286Y-142687852D01*
X123969485Y-142781343D01*
X124290000Y-142812911D01*
X124610516Y-142781343D01*
X124918715Y-142687852D01*
X125202752Y-142536031D01*
X125451714Y-142331714D01*
X125656031Y-142082752D01*
X125807852Y-141798715D01*
X125901343Y-141490515D01*
X125925000Y-141250321D01*
X125925000Y-140589679D01*
X126465000Y-140589679D01*
X126465000Y-141250322D01*
X126488657Y-141490516D01*
X126582148Y-141798715D01*
X126733969Y-142082752D01*
X126938286Y-142331714D01*
X127187249Y-142536031D01*
X127471286Y-142687852D01*
X127779485Y-142781343D01*
X128100000Y-142812911D01*
X128420516Y-142781343D01*
X128728715Y-142687852D01*
X129012752Y-142536031D01*
X129261714Y-142331714D01*
X129466031Y-142082752D01*
X129617852Y-141798715D01*
X129711343Y-141490515D01*
X129735000Y-141250321D01*
X129735000Y-140589678D01*
X129711343Y-140349484D01*
X129617852Y-140041285D01*
X129466031Y-139757248D01*
X129261714Y-139508286D01*
X129012751Y-139303969D01*
X128728714Y-139152148D01*
X128420515Y-139058657D01*
X128100000Y-139027089D01*
X127779484Y-139058657D01*
X127471285Y-139152148D01*
X127187248Y-139303969D01*
X126938286Y-139508286D01*
X126733969Y-139757249D01*
X126582148Y-140041286D01*
X126488657Y-140349485D01*
X126465000Y-140589679D01*
X125925000Y-140589679D01*
X125925000Y-140589678D01*
X125901343Y-140349484D01*
X125807852Y-140041285D01*
X125656031Y-139757248D01*
X125451714Y-139508286D01*
X125202751Y-139303969D01*
X124918714Y-139152148D01*
X124610515Y-139058657D01*
X124290000Y-139027089D01*
X123969484Y-139058657D01*
X123661285Y-139152148D01*
X123377248Y-139303969D01*
X123128286Y-139508286D01*
X122923969Y-139757249D01*
X122772148Y-140041286D01*
X122678657Y-140349485D01*
X122655000Y-140589679D01*
X122085360Y-140589679D01*
X122118819Y-140534970D01*
X122060987Y-140217847D01*
X121942398Y-139918100D01*
X121767610Y-139647248D01*
X121543340Y-139415700D01*
X121278206Y-139232354D01*
X120982398Y-139104256D01*
X120860434Y-139079876D01*
X120607000Y-139199223D01*
X120353000Y-139199223D01*
X120099566Y-139079876D01*
X119977602Y-139104256D01*
X119681794Y-139232354D01*
X119416660Y-139415700D01*
X119192390Y-139647248D01*
X119017602Y-139918100D01*
X118899013Y-140217847D01*
X118841181Y-140534970D01*
X118299612Y-140534970D01*
X118281343Y-140349484D01*
X118187852Y-140041285D01*
X118036031Y-139757248D01*
X117831714Y-139508286D01*
X117582751Y-139303969D01*
X117298714Y-139152148D01*
X116990515Y-139058657D01*
X116670000Y-139027089D01*
X116349484Y-139058657D01*
X116041285Y-139152148D01*
X115757248Y-139303969D01*
X115508286Y-139508286D01*
X115303969Y-139757249D01*
X115152148Y-140041286D01*
X115058657Y-140349485D01*
X115035000Y-140589679D01*
X114465360Y-140589679D01*
X114498819Y-140534970D01*
X114440987Y-140217847D01*
X114322398Y-139918100D01*
X114147610Y-139647248D01*
X113923340Y-139415700D01*
X113658206Y-139232354D01*
X113362398Y-139104256D01*
X113240434Y-139079876D01*
X112987000Y-139199223D01*
X112733000Y-139199223D01*
X112479566Y-139079876D01*
X112357602Y-139104256D01*
X112061794Y-139232354D01*
X111796660Y-139415700D01*
X111572390Y-139647248D01*
X111397602Y-139918100D01*
X111279013Y-140217847D01*
X111221181Y-140534970D01*
X110679612Y-140534970D01*
X110661343Y-140349484D01*
X110567852Y-140041285D01*
X110416031Y-139757248D01*
X110211714Y-139508286D01*
X109962751Y-139303969D01*
X109678714Y-139152148D01*
X109370515Y-139058657D01*
X109050000Y-139027089D01*
X108729484Y-139058657D01*
X108421285Y-139152148D01*
X108137248Y-139303969D01*
X107888286Y-139508286D01*
X107683969Y-139757249D01*
X107532148Y-140041286D01*
X107438657Y-140349485D01*
X107415000Y-140589679D01*
X106845360Y-140589679D01*
X106878819Y-140534970D01*
X106820987Y-140217847D01*
X106702398Y-139918100D01*
X106527610Y-139647248D01*
X106303340Y-139415700D01*
X106038206Y-139232354D01*
X105742398Y-139104256D01*
X105620434Y-139079876D01*
X105367000Y-139199223D01*
X105113000Y-139199223D01*
X104859566Y-139079876D01*
X104737602Y-139104256D01*
X104441794Y-139232354D01*
X104176660Y-139415700D01*
X103952390Y-139647248D01*
X103777602Y-139918100D01*
X103659013Y-140217847D01*
X103601181Y-140534970D01*
X103059612Y-140534970D01*
X103041343Y-140349484D01*
X102947852Y-140041285D01*
X102796031Y-139757248D01*
X102591714Y-139508286D01*
X102342751Y-139303969D01*
X102058714Y-139152148D01*
X101750515Y-139058657D01*
X101430000Y-139027089D01*
X101109484Y-139058657D01*
X100801285Y-139152148D01*
X100517248Y-139303969D01*
X100268286Y-139508286D01*
X100063969Y-139757249D01*
X99912148Y-140041286D01*
X99818657Y-140349485D01*
X99795000Y-140589679D01*
X99225360Y-140589679D01*
X99258819Y-140534970D01*
X99200987Y-140217847D01*
X99082398Y-139918100D01*
X98907610Y-139647248D01*
X98683340Y-139415700D01*
X98418206Y-139232354D01*
X98122398Y-139104256D01*
X98000434Y-139079876D01*
X97747000Y-139199223D01*
X97493000Y-139199223D01*
X97239566Y-139079876D01*
X97117602Y-139104256D01*
X96821794Y-139232354D01*
X96556660Y-139415700D01*
X96332390Y-139647248D01*
X96157602Y-139918100D01*
X96039013Y-140217847D01*
X95981181Y-140534970D01*
X95439612Y-140534970D01*
X95421343Y-140349484D01*
X95327852Y-140041285D01*
X95176031Y-139757248D01*
X94971714Y-139508286D01*
X94722751Y-139303969D01*
X94438714Y-139152148D01*
X94130515Y-139058657D01*
X93810000Y-139027089D01*
X93489484Y-139058657D01*
X93181285Y-139152148D01*
X92897248Y-139303969D01*
X92648286Y-139508286D01*
X92443969Y-139757249D01*
X92292148Y-140041286D01*
X92198657Y-140349485D01*
X92175000Y-140589679D01*
X91605360Y-140589679D01*
X91638819Y-140534970D01*
X91580987Y-140217847D01*
X91462398Y-139918100D01*
X91287610Y-139647248D01*
X91063340Y-139415700D01*
X90798206Y-139232354D01*
X90502398Y-139104256D01*
X90380434Y-139079876D01*
X90127000Y-139199223D01*
X89873000Y-139199223D01*
X89619566Y-139079876D01*
X89497602Y-139104256D01*
X89201794Y-139232354D01*
X88936660Y-139415700D01*
X88712390Y-139647248D01*
X88537602Y-139918100D01*
X88419013Y-140217847D01*
X88361181Y-140534970D01*
X52127000Y-140534970D01*
X52127000Y-137992702D01*
X65686903Y-137992702D01*
X65758486Y-138236671D01*
X66013996Y-138357571D01*
X66288184Y-138426300D01*
X66570512Y-138440217D01*
X66850130Y-138398787D01*
X67116292Y-138303603D01*
X67241514Y-138236671D01*
X67313097Y-137992702D01*
X66500000Y-137179605D01*
X65686903Y-137992702D01*
X52127000Y-137992702D01*
X52127000Y-137070512D01*
X65059783Y-137070512D01*
X65101213Y-137350130D01*
X65196397Y-137616292D01*
X65263329Y-137741514D01*
X65507298Y-137813097D01*
X66320395Y-137000000D01*
X66679605Y-137000000D01*
X67492702Y-137813097D01*
X67736671Y-137741514D01*
X67857571Y-137486004D01*
X67926300Y-137211816D01*
X67940217Y-136929488D01*
X67898787Y-136649870D01*
X67803603Y-136383708D01*
X67736671Y-136258486D01*
X67492702Y-136186903D01*
X66679605Y-137000000D01*
X66320395Y-137000000D01*
X65507298Y-136186903D01*
X65263329Y-136258486D01*
X65142429Y-136513996D01*
X65073700Y-136788184D01*
X65059783Y-137070512D01*
X52127000Y-137070512D01*
X52127000Y-136007298D01*
X65686903Y-136007298D01*
X66500000Y-136820395D01*
X67313097Y-136007298D01*
X67241514Y-135763329D01*
X66986004Y-135642429D01*
X66711816Y-135573700D01*
X66429488Y-135559783D01*
X66149870Y-135601213D01*
X65883708Y-135696397D01*
X65758486Y-135763329D01*
X65686903Y-136007298D01*
X52127000Y-136007298D01*
X52127000Y-126698665D01*
X65065000Y-126698665D01*
X65065000Y-126981335D01*
X65120147Y-127258574D01*
X65228320Y-127519727D01*
X65385363Y-127754759D01*
X65585241Y-127954637D01*
X65820273Y-128111680D01*
X66081426Y-128219853D01*
X66358665Y-128275000D01*
X66641335Y-128275000D01*
X66918574Y-128219853D01*
X67179727Y-128111680D01*
X67414759Y-127954637D01*
X67614637Y-127754759D01*
X67771680Y-127519727D01*
X67879853Y-127258574D01*
X67935000Y-126981335D01*
X67935000Y-126698665D01*
X67879853Y-126421426D01*
X67771680Y-126160273D01*
X67697999Y-126050000D01*
X116731928Y-126050000D01*
X116731928Y-127750000D01*
X116744188Y-127874482D01*
X116780498Y-127994180D01*
X116839463Y-128104494D01*
X116918815Y-128201185D01*
X117015506Y-128280537D01*
X117125820Y-128339502D01*
X117245518Y-128375812D01*
X117370000Y-128388072D01*
X119070000Y-128388072D01*
X119194482Y-128375812D01*
X119314180Y-128339502D01*
X119424494Y-128280537D01*
X119521185Y-128201185D01*
X119600537Y-128104494D01*
X119659502Y-127994180D01*
X119681513Y-127921620D01*
X119813368Y-128053475D01*
X120056589Y-128215990D01*
X120326842Y-128327932D01*
X120613740Y-128385000D01*
X120906260Y-128385000D01*
X121193158Y-128327932D01*
X121463411Y-128215990D01*
X121706632Y-128053475D01*
X121913475Y-127846632D01*
X122030000Y-127672240D01*
X122146525Y-127846632D01*
X122353368Y-128053475D01*
X122596589Y-128215990D01*
X122866842Y-128327932D01*
X123153740Y-128385000D01*
X123446260Y-128385000D01*
X123733158Y-128327932D01*
X124003411Y-128215990D01*
X124246632Y-128053475D01*
X124453475Y-127846632D01*
X124570000Y-127672240D01*
X124686525Y-127846632D01*
X124893368Y-128053475D01*
X125136589Y-128215990D01*
X125406842Y-128327932D01*
X125693740Y-128385000D01*
X125986260Y-128385000D01*
X126273158Y-128327932D01*
X126543411Y-128215990D01*
X126786632Y-128053475D01*
X126993475Y-127846632D01*
X127110000Y-127672240D01*
X127226525Y-127846632D01*
X127433368Y-128053475D01*
X127676589Y-128215990D01*
X127946842Y-128327932D01*
X128233740Y-128385000D01*
X128526260Y-128385000D01*
X128813158Y-128327932D01*
X129083411Y-128215990D01*
X129326632Y-128053475D01*
X129533475Y-127846632D01*
X129650000Y-127672240D01*
X129766525Y-127846632D01*
X129973368Y-128053475D01*
X130216589Y-128215990D01*
X130486842Y-128327932D01*
X130773740Y-128385000D01*
X131066260Y-128385000D01*
X131353158Y-128327932D01*
X131623411Y-128215990D01*
X131866632Y-128053475D01*
X132073475Y-127846632D01*
X132190000Y-127672240D01*
X132306525Y-127846632D01*
X132513368Y-128053475D01*
X132756589Y-128215990D01*
X133026842Y-128327932D01*
X133313740Y-128385000D01*
X133606260Y-128385000D01*
X133893158Y-128327932D01*
X134163411Y-128215990D01*
X134406632Y-128053475D01*
X134613475Y-127846632D01*
X134730000Y-127672240D01*
X134846525Y-127846632D01*
X135053368Y-128053475D01*
X135296589Y-128215990D01*
X135566842Y-128327932D01*
X135853740Y-128385000D01*
X136146260Y-128385000D01*
X136433158Y-128327932D01*
X136703411Y-128215990D01*
X136946632Y-128053475D01*
X137153475Y-127846632D01*
X137270000Y-127672240D01*
X137386525Y-127846632D01*
X137593368Y-128053475D01*
X137836589Y-128215990D01*
X138106842Y-128327932D01*
X138393740Y-128385000D01*
X138686260Y-128385000D01*
X138973158Y-128327932D01*
X139243411Y-128215990D01*
X139486632Y-128053475D01*
X139693475Y-127846632D01*
X139815195Y-127664466D01*
X139884822Y-127781355D01*
X140079731Y-127997588D01*
X140313080Y-128171641D01*
X140575901Y-128296825D01*
X140723110Y-128341476D01*
X140953000Y-128220155D01*
X140953000Y-127027000D01*
X140933000Y-127027000D01*
X140933000Y-126773000D01*
X140953000Y-126773000D01*
X140953000Y-125579845D01*
X140723110Y-125458524D01*
X140575901Y-125503175D01*
X140313080Y-125628359D01*
X140079731Y-125802412D01*
X139884822Y-126018645D01*
X139815195Y-126135534D01*
X139693475Y-125953368D01*
X139486632Y-125746525D01*
X139243411Y-125584010D01*
X138973158Y-125472068D01*
X138686260Y-125415000D01*
X138393740Y-125415000D01*
X138106842Y-125472068D01*
X137836589Y-125584010D01*
X137593368Y-125746525D01*
X137386525Y-125953368D01*
X137270000Y-126127760D01*
X137153475Y-125953368D01*
X136946632Y-125746525D01*
X136703411Y-125584010D01*
X136433158Y-125472068D01*
X136146260Y-125415000D01*
X135853740Y-125415000D01*
X135566842Y-125472068D01*
X135296589Y-125584010D01*
X135053368Y-125746525D01*
X134846525Y-125953368D01*
X134730000Y-126127760D01*
X134613475Y-125953368D01*
X134406632Y-125746525D01*
X134163411Y-125584010D01*
X133893158Y-125472068D01*
X133606260Y-125415000D01*
X133313740Y-125415000D01*
X133026842Y-125472068D01*
X132756589Y-125584010D01*
X132513368Y-125746525D01*
X132306525Y-125953368D01*
X132190000Y-126127760D01*
X132073475Y-125953368D01*
X131866632Y-125746525D01*
X131623411Y-125584010D01*
X131353158Y-125472068D01*
X131066260Y-125415000D01*
X130773740Y-125415000D01*
X130486842Y-125472068D01*
X130216589Y-125584010D01*
X129973368Y-125746525D01*
X129766525Y-125953368D01*
X129650000Y-126127760D01*
X129533475Y-125953368D01*
X129326632Y-125746525D01*
X129083411Y-125584010D01*
X128813158Y-125472068D01*
X128526260Y-125415000D01*
X128233740Y-125415000D01*
X127946842Y-125472068D01*
X127676589Y-125584010D01*
X127433368Y-125746525D01*
X127226525Y-125953368D01*
X127110000Y-126127760D01*
X126993475Y-125953368D01*
X126786632Y-125746525D01*
X126543411Y-125584010D01*
X126273158Y-125472068D01*
X125986260Y-125415000D01*
X125693740Y-125415000D01*
X125406842Y-125472068D01*
X125136589Y-125584010D01*
X124893368Y-125746525D01*
X124686525Y-125953368D01*
X124570000Y-126127760D01*
X124453475Y-125953368D01*
X124246632Y-125746525D01*
X124003411Y-125584010D01*
X123733158Y-125472068D01*
X123446260Y-125415000D01*
X123153740Y-125415000D01*
X122866842Y-125472068D01*
X122596589Y-125584010D01*
X122353368Y-125746525D01*
X122146525Y-125953368D01*
X122030000Y-126127760D01*
X121913475Y-125953368D01*
X121706632Y-125746525D01*
X121463411Y-125584010D01*
X121193158Y-125472068D01*
X120906260Y-125415000D01*
X120613740Y-125415000D01*
X120326842Y-125472068D01*
X120056589Y-125584010D01*
X119813368Y-125746525D01*
X119681513Y-125878380D01*
X119659502Y-125805820D01*
X119600537Y-125695506D01*
X119521185Y-125598815D01*
X119424494Y-125519463D01*
X119314180Y-125460498D01*
X119194482Y-125424188D01*
X119070000Y-125411928D01*
X117370000Y-125411928D01*
X117245518Y-125424188D01*
X117125820Y-125460498D01*
X117015506Y-125519463D01*
X116918815Y-125598815D01*
X116839463Y-125695506D01*
X116780498Y-125805820D01*
X116744188Y-125925518D01*
X116731928Y-126050000D01*
X67697999Y-126050000D01*
X67614637Y-125925241D01*
X67414759Y-125725363D01*
X67179727Y-125568320D01*
X66918574Y-125460147D01*
X66641335Y-125405000D01*
X66358665Y-125405000D01*
X66081426Y-125460147D01*
X65820273Y-125568320D01*
X65585241Y-125725363D01*
X65385363Y-125925241D01*
X65228320Y-126160273D01*
X65120147Y-126421426D01*
X65065000Y-126698665D01*
X52127000Y-126698665D01*
X52127000Y-122858665D01*
X59065000Y-122858665D01*
X59065000Y-123141335D01*
X59120147Y-123418574D01*
X59228320Y-123679727D01*
X59385363Y-123914759D01*
X59585241Y-124114637D01*
X59820273Y-124271680D01*
X60081426Y-124379853D01*
X60358665Y-124435000D01*
X60641335Y-124435000D01*
X60918574Y-124379853D01*
X61179727Y-124271680D01*
X61414759Y-124114637D01*
X61614637Y-123914759D01*
X61771680Y-123679727D01*
X61879853Y-123418574D01*
X61935000Y-123141335D01*
X61935000Y-122858665D01*
X61879853Y-122581426D01*
X61771680Y-122320273D01*
X61614637Y-122085241D01*
X61414759Y-121885363D01*
X61179727Y-121728320D01*
X60918574Y-121620147D01*
X60641335Y-121565000D01*
X60358665Y-121565000D01*
X60081426Y-121620147D01*
X59820273Y-121728320D01*
X59585241Y-121885363D01*
X59385363Y-122085241D01*
X59228320Y-122320273D01*
X59120147Y-122581426D01*
X59065000Y-122858665D01*
X52127000Y-122858665D01*
X52127000Y-120969039D01*
X65108096Y-120969039D01*
X65148754Y-121103087D01*
X65268963Y-121357420D01*
X65436481Y-121583414D01*
X65644869Y-121772385D01*
X65886119Y-121917070D01*
X66150960Y-122011909D01*
X66373000Y-121890624D01*
X66373000Y-120747000D01*
X66627000Y-120747000D01*
X66627000Y-121890624D01*
X66849040Y-122011909D01*
X67113881Y-121917070D01*
X67355131Y-121772385D01*
X67563519Y-121583414D01*
X67731037Y-121357420D01*
X67851246Y-121103087D01*
X67891904Y-120969039D01*
X67769915Y-120747000D01*
X66627000Y-120747000D01*
X66373000Y-120747000D01*
X65230085Y-120747000D01*
X65108096Y-120969039D01*
X52127000Y-120969039D01*
X52127000Y-117858665D01*
X59065000Y-117858665D01*
X59065000Y-118141335D01*
X59120147Y-118418574D01*
X59228320Y-118679727D01*
X59385363Y-118914759D01*
X59585241Y-119114637D01*
X59820273Y-119271680D01*
X60081426Y-119379853D01*
X60358665Y-119435000D01*
X60641335Y-119435000D01*
X60918574Y-119379853D01*
X61179727Y-119271680D01*
X61414759Y-119114637D01*
X61614637Y-118914759D01*
X61771680Y-118679727D01*
X61879853Y-118418574D01*
X61935000Y-118141335D01*
X61935000Y-117858665D01*
X61879853Y-117581426D01*
X61771680Y-117320273D01*
X61614637Y-117085241D01*
X61414759Y-116885363D01*
X61179727Y-116728320D01*
X60918574Y-116620147D01*
X60641335Y-116565000D01*
X60358665Y-116565000D01*
X60081426Y-116620147D01*
X59820273Y-116728320D01*
X59585241Y-116885363D01*
X59385363Y-117085241D01*
X59228320Y-117320273D01*
X59120147Y-117581426D01*
X59065000Y-117858665D01*
X52127000Y-117858665D01*
X52127000Y-112858665D01*
X59065000Y-112858665D01*
X59065000Y-113141335D01*
X59120147Y-113418574D01*
X59228320Y-113679727D01*
X59385363Y-113914759D01*
X59585241Y-114114637D01*
X59820273Y-114271680D01*
X60081426Y-114379853D01*
X60358665Y-114435000D01*
X60641335Y-114435000D01*
X60918574Y-114379853D01*
X61179727Y-114271680D01*
X61414759Y-114114637D01*
X61614637Y-113914759D01*
X61771680Y-113679727D01*
X61879853Y-113418574D01*
X61935000Y-113141335D01*
X61935000Y-112858665D01*
X61879853Y-112581426D01*
X61771680Y-112320273D01*
X61691317Y-112200000D01*
X65061928Y-112200000D01*
X65061928Y-113800000D01*
X65074188Y-113924482D01*
X65110498Y-114044180D01*
X65169463Y-114154494D01*
X65248815Y-114251185D01*
X65345506Y-114330537D01*
X65455820Y-114389502D01*
X65575518Y-114425812D01*
X65583961Y-114426643D01*
X65385363Y-114625241D01*
X65228320Y-114860273D01*
X65120147Y-115121426D01*
X65065000Y-115398665D01*
X65065000Y-115681335D01*
X65120147Y-115958574D01*
X65228320Y-116219727D01*
X65385363Y-116454759D01*
X65585241Y-116654637D01*
X65817759Y-116810000D01*
X65585241Y-116965363D01*
X65385363Y-117165241D01*
X65228320Y-117400273D01*
X65120147Y-117661426D01*
X65065000Y-117938665D01*
X65065000Y-118221335D01*
X65120147Y-118498574D01*
X65228320Y-118759727D01*
X65385363Y-118994759D01*
X65585241Y-119194637D01*
X65820273Y-119351680D01*
X65830865Y-119356067D01*
X65644869Y-119467615D01*
X65436481Y-119656586D01*
X65268963Y-119882580D01*
X65148754Y-120136913D01*
X65108096Y-120270961D01*
X65230085Y-120493000D01*
X66373000Y-120493000D01*
X66373000Y-120473000D01*
X66627000Y-120473000D01*
X66627000Y-120493000D01*
X67769915Y-120493000D01*
X67891904Y-120270961D01*
X67851246Y-120136913D01*
X67731037Y-119882580D01*
X67563519Y-119656586D01*
X67355131Y-119467615D01*
X67169135Y-119356067D01*
X67179727Y-119351680D01*
X67414759Y-119194637D01*
X67614637Y-118994759D01*
X67771680Y-118759727D01*
X67879853Y-118498574D01*
X67935000Y-118221335D01*
X67935000Y-117938665D01*
X67879853Y-117661426D01*
X67771680Y-117400273D01*
X67614637Y-117165241D01*
X67414759Y-116965363D01*
X67182241Y-116810000D01*
X67414759Y-116654637D01*
X67614637Y-116454759D01*
X67771680Y-116219727D01*
X67879853Y-115958574D01*
X67935000Y-115681335D01*
X67935000Y-115398665D01*
X67879853Y-115121426D01*
X67771680Y-114860273D01*
X67614637Y-114625241D01*
X67416039Y-114426643D01*
X67424482Y-114425812D01*
X67544180Y-114389502D01*
X67654494Y-114330537D01*
X67751185Y-114251185D01*
X67830537Y-114154494D01*
X67889502Y-114044180D01*
X67925812Y-113924482D01*
X67938072Y-113800000D01*
X67938072Y-112200000D01*
X67925812Y-112075518D01*
X67889502Y-111955820D01*
X67830537Y-111845506D01*
X67751185Y-111748815D01*
X67654494Y-111669463D01*
X67544180Y-111610498D01*
X67424482Y-111574188D01*
X67300000Y-111561928D01*
X65700000Y-111561928D01*
X65575518Y-111574188D01*
X65455820Y-111610498D01*
X65345506Y-111669463D01*
X65248815Y-111748815D01*
X65169463Y-111845506D01*
X65110498Y-111955820D01*
X65074188Y-112075518D01*
X65061928Y-112200000D01*
X61691317Y-112200000D01*
X61614637Y-112085241D01*
X61414759Y-111885363D01*
X61179727Y-111728320D01*
X60918574Y-111620147D01*
X60641335Y-111565000D01*
X60358665Y-111565000D01*
X60081426Y-111620147D01*
X59820273Y-111728320D01*
X59585241Y-111885363D01*
X59385363Y-112085241D01*
X59228320Y-112320273D01*
X59120147Y-112581426D01*
X59065000Y-112858665D01*
X52127000Y-112858665D01*
X52127000Y-102698665D01*
X59065000Y-102698665D01*
X59065000Y-102981335D01*
X59120147Y-103258574D01*
X59228320Y-103519727D01*
X59385363Y-103754759D01*
X59585241Y-103954637D01*
X59820273Y-104111680D01*
X60081426Y-104219853D01*
X60358665Y-104275000D01*
X60641335Y-104275000D01*
X60918574Y-104219853D01*
X61179727Y-104111680D01*
X61414759Y-103954637D01*
X61614637Y-103754759D01*
X61771680Y-103519727D01*
X61879853Y-103258574D01*
X61935000Y-102981335D01*
X61935000Y-102698665D01*
X61879853Y-102421426D01*
X61771680Y-102160273D01*
X61614637Y-101925241D01*
X61414759Y-101725363D01*
X61179727Y-101568320D01*
X60918574Y-101460147D01*
X60641335Y-101405000D01*
X60358665Y-101405000D01*
X60081426Y-101460147D01*
X59820273Y-101568320D01*
X59585241Y-101725363D01*
X59385363Y-101925241D01*
X59228320Y-102160273D01*
X59120147Y-102421426D01*
X59065000Y-102698665D01*
X52127000Y-102698665D01*
X52127000Y-92127000D01*
X59286322Y-92127000D01*
X59198815Y-92198815D01*
G37*
X59198815Y-92198815D02*
X59119463Y-92295506D01*
X59060498Y-92405820D01*
X59024188Y-92525518D01*
X59011928Y-92650000D01*
X59011928Y-94350000D01*
X59024188Y-94474482D01*
X59060498Y-94594180D01*
X59119463Y-94704494D01*
X59198815Y-94801185D01*
X59295506Y-94880537D01*
X59405820Y-94939502D01*
X59525518Y-94975812D01*
X59650000Y-94988072D01*
X61350000Y-94988072D01*
X61474482Y-94975812D01*
X61594180Y-94939502D01*
X61704494Y-94880537D01*
X61801185Y-94801185D01*
X61880537Y-94704494D01*
X61939502Y-94594180D01*
X61961513Y-94521620D01*
X62093368Y-94653475D01*
X62336589Y-94815990D01*
X62606842Y-94927932D01*
X62893740Y-94985000D01*
X63186260Y-94985000D01*
X63473158Y-94927932D01*
X63743411Y-94815990D01*
X63986632Y-94653475D01*
X64193475Y-94446632D01*
X64310000Y-94272240D01*
X64426525Y-94446632D01*
X64633368Y-94653475D01*
X64876589Y-94815990D01*
X65146842Y-94927932D01*
X65433740Y-94985000D01*
X65726260Y-94985000D01*
X66013158Y-94927932D01*
X66283411Y-94815990D01*
X66526632Y-94653475D01*
X66733475Y-94446632D01*
X66850000Y-94272240D01*
X66966525Y-94446632D01*
X67173368Y-94653475D01*
X67416589Y-94815990D01*
X67686842Y-94927932D01*
X67973740Y-94985000D01*
X68266260Y-94985000D01*
X68553158Y-94927932D01*
X68823411Y-94815990D01*
X69066632Y-94653475D01*
X69273475Y-94446632D01*
X69395195Y-94264466D01*
X69464822Y-94381355D01*
X69659731Y-94597588D01*
X69893080Y-94771641D01*
X70155901Y-94896825D01*
X70303110Y-94941476D01*
X70533000Y-94820155D01*
X70533000Y-93627000D01*
X70787000Y-93627000D01*
X70787000Y-94820155D01*
X71016890Y-94941476D01*
X71164099Y-94896825D01*
X71426920Y-94771641D01*
X71660269Y-94597588D01*
X71855178Y-94381355D01*
X72004157Y-94131252D01*
X72101481Y-93856891D01*
X80018519Y-93856891D01*
X80115843Y-94131252D01*
X80264822Y-94381355D01*
X80459731Y-94597588D01*
X80693080Y-94771641D01*
X80955901Y-94896825D01*
X81103110Y-94941476D01*
X81333000Y-94820155D01*
X81333000Y-93627000D01*
X80139186Y-93627000D01*
X80018519Y-93856891D01*
X72101481Y-93856891D01*
X71980814Y-93627000D01*
X70787000Y-93627000D01*
X70533000Y-93627000D01*
X70513000Y-93627000D01*
X70513000Y-93373000D01*
X70533000Y-93373000D01*
X70533000Y-93353000D01*
X70787000Y-93353000D01*
X70787000Y-93373000D01*
X71980814Y-93373000D01*
X72101481Y-93143109D01*
X72004157Y-92868748D01*
X71855178Y-92618645D01*
X71660269Y-92402412D01*
X71426920Y-92228359D01*
X71214119Y-92127000D01*
X80905881Y-92127000D01*
X80693080Y-92228359D01*
X80459731Y-92402412D01*
X80264822Y-92618645D01*
X80115843Y-92868748D01*
X80018519Y-93143109D01*
X80139186Y-93373000D01*
X81333000Y-93373000D01*
X81333000Y-93353000D01*
X81587000Y-93353000D01*
X81587000Y-93373000D01*
X81607000Y-93373000D01*
X81607000Y-93627000D01*
X81587000Y-93627000D01*
X81587000Y-94820155D01*
X81816890Y-94941476D01*
X81964099Y-94896825D01*
X82226920Y-94771641D01*
X82460269Y-94597588D01*
X82536034Y-94513534D01*
X82560498Y-94594180D01*
X82619463Y-94704494D01*
X82698815Y-94801185D01*
X82795506Y-94880537D01*
X82905820Y-94939502D01*
X83025518Y-94975812D01*
X83150000Y-94988072D01*
X83240000Y-94988072D01*
X83240001Y-108185197D01*
X79823887Y-111601312D01*
X79641335Y-111565000D01*
X79358665Y-111565000D01*
X79081426Y-111620147D01*
X78820273Y-111728320D01*
X78585241Y-111885363D01*
X78385363Y-112085241D01*
X78281957Y-112240000D01*
X75338043Y-112240000D01*
X75234637Y-112085241D01*
X75034759Y-111885363D01*
X74799727Y-111728320D01*
X74538574Y-111620147D01*
X74261335Y-111565000D01*
X73978665Y-111565000D01*
X73701426Y-111620147D01*
X73440273Y-111728320D01*
X73205241Y-111885363D01*
X73005363Y-112085241D01*
X72848320Y-112320273D01*
X72740147Y-112581426D01*
X72685000Y-112858665D01*
X72685000Y-113141335D01*
X72740147Y-113418574D01*
X72848320Y-113679727D01*
X73005363Y-113914759D01*
X73205241Y-114114637D01*
X73437759Y-114270000D01*
X73205241Y-114425363D01*
X73005363Y-114625241D01*
X72848320Y-114860273D01*
X72740147Y-115121426D01*
X72685000Y-115398665D01*
X72685000Y-115681335D01*
X72740147Y-115958574D01*
X72848320Y-116219727D01*
X73005363Y-116454759D01*
X73205241Y-116654637D01*
X73437759Y-116810000D01*
X73205241Y-116965363D01*
X73005363Y-117165241D01*
X72848320Y-117400273D01*
X72740147Y-117661426D01*
X72685000Y-117938665D01*
X72685000Y-118221335D01*
X72740147Y-118498574D01*
X72848320Y-118759727D01*
X73005363Y-118994759D01*
X73205241Y-119194637D01*
X73437759Y-119350000D01*
X73205241Y-119505363D01*
X73005363Y-119705241D01*
X72848320Y-119940273D01*
X72740147Y-120201426D01*
X72685000Y-120478665D01*
X72685000Y-120761335D01*
X72740147Y-121038574D01*
X72848320Y-121299727D01*
X73005363Y-121534759D01*
X73205241Y-121734637D01*
X73440273Y-121891680D01*
X73701426Y-121999853D01*
X73978665Y-122055000D01*
X74261335Y-122055000D01*
X74538574Y-121999853D01*
X74799727Y-121891680D01*
X75034759Y-121734637D01*
X75234637Y-121534759D01*
X75391680Y-121299727D01*
X75499853Y-121038574D01*
X75555000Y-120761335D01*
X75555000Y-120478665D01*
X75499853Y-120201426D01*
X75391680Y-119940273D01*
X75234637Y-119705241D01*
X75034759Y-119505363D01*
X74802241Y-119350000D01*
X75034759Y-119194637D01*
X75234637Y-118994759D01*
X75236011Y-118992702D01*
X78686903Y-118992702D01*
X78758486Y-119236671D01*
X79013996Y-119357571D01*
X79288184Y-119426300D01*
X79570512Y-119440217D01*
X79850130Y-119398787D01*
X80116292Y-119303603D01*
X80241514Y-119236671D01*
X80313097Y-118992702D01*
X79500000Y-118179605D01*
X78686903Y-118992702D01*
X75236011Y-118992702D01*
X75391680Y-118759727D01*
X75499853Y-118498574D01*
X75555000Y-118221335D01*
X75555000Y-118070512D01*
X78059783Y-118070512D01*
X78101213Y-118350130D01*
X78196397Y-118616292D01*
X78263329Y-118741514D01*
X78507298Y-118813097D01*
X79320395Y-118000000D01*
X79679605Y-118000000D01*
X80492702Y-118813097D01*
X80736671Y-118741514D01*
X80857571Y-118486004D01*
X80926300Y-118211816D01*
X80940217Y-117929488D01*
X80898787Y-117649870D01*
X80803603Y-117383708D01*
X80736671Y-117258486D01*
X80492702Y-117186903D01*
X79679605Y-118000000D01*
X79320395Y-118000000D01*
X78507298Y-117186903D01*
X78263329Y-117258486D01*
X78142429Y-117513996D01*
X78073700Y-117788184D01*
X78059783Y-118070512D01*
X75555000Y-118070512D01*
X75555000Y-117938665D01*
X75499853Y-117661426D01*
X75391680Y-117400273D01*
X75234637Y-117165241D01*
X75076694Y-117007298D01*
X78686903Y-117007298D01*
X79500000Y-117820395D01*
X80313097Y-117007298D01*
X80241514Y-116763329D01*
X79986004Y-116642429D01*
X79711816Y-116573700D01*
X79429488Y-116559783D01*
X79149870Y-116601213D01*
X78883708Y-116696397D01*
X78758486Y-116763329D01*
X78686903Y-117007298D01*
X75076694Y-117007298D01*
X75034759Y-116965363D01*
X74802241Y-116810000D01*
X75034759Y-116654637D01*
X75234637Y-116454759D01*
X75391680Y-116219727D01*
X75499853Y-115958574D01*
X75555000Y-115681335D01*
X75555000Y-115398665D01*
X75499853Y-115121426D01*
X75391680Y-114860273D01*
X75234637Y-114625241D01*
X75034759Y-114425363D01*
X74802241Y-114270000D01*
X75034759Y-114114637D01*
X75234637Y-113914759D01*
X75338043Y-113760000D01*
X78281957Y-113760000D01*
X78385363Y-113914759D01*
X78585241Y-114114637D01*
X78820273Y-114271680D01*
X79081426Y-114379853D01*
X79358665Y-114435000D01*
X79641335Y-114435000D01*
X79918574Y-114379853D01*
X80179727Y-114271680D01*
X80414759Y-114114637D01*
X80614637Y-113914759D01*
X80771680Y-113679727D01*
X80879853Y-113418574D01*
X80935000Y-113141335D01*
X80935000Y-112858665D01*
X80898688Y-112676113D01*
X84511003Y-109063799D01*
X84540001Y-109040001D01*
X84566332Y-109007917D01*
X84634974Y-108924277D01*
X84705546Y-108792247D01*
X84749003Y-108648986D01*
X84760000Y-108537333D01*
X84760000Y-108537324D01*
X84763676Y-108500001D01*
X84760000Y-108462678D01*
X84760000Y-96434801D01*
X101836200Y-113511002D01*
X101859999Y-113540001D01*
X101888997Y-113563799D01*
X101975724Y-113634974D01*
X102107753Y-113705546D01*
X102251014Y-113749003D01*
X102400000Y-113763677D01*
X102437333Y-113760000D01*
X139565199Y-113760000D01*
X151220198Y-125415000D01*
X151112998Y-125415000D01*
X151112998Y-125579844D01*
X150883110Y-125458524D01*
X150735901Y-125503175D01*
X150473080Y-125628359D01*
X150239731Y-125802412D01*
X150044822Y-126018645D01*
X149975195Y-126135534D01*
X149853475Y-125953368D01*
X149646632Y-125746525D01*
X149403411Y-125584010D01*
X149133158Y-125472068D01*
X148846260Y-125415000D01*
X148553740Y-125415000D01*
X148266842Y-125472068D01*
X147996589Y-125584010D01*
X147753368Y-125746525D01*
X147546525Y-125953368D01*
X147430000Y-126127760D01*
X147313475Y-125953368D01*
X147106632Y-125746525D01*
X146863411Y-125584010D01*
X146593158Y-125472068D01*
X146306260Y-125415000D01*
X146013740Y-125415000D01*
X145726842Y-125472068D01*
X145456589Y-125584010D01*
X145213368Y-125746525D01*
X145006525Y-125953368D01*
X144890000Y-126127760D01*
X144773475Y-125953368D01*
X144566632Y-125746525D01*
X144323411Y-125584010D01*
X144053158Y-125472068D01*
X143766260Y-125415000D01*
X143473740Y-125415000D01*
X143186842Y-125472068D01*
X142916589Y-125584010D01*
X142673368Y-125746525D01*
X142466525Y-125953368D01*
X142344805Y-126135534D01*
X142275178Y-126018645D01*
X142080269Y-125802412D01*
X141846920Y-125628359D01*
X141584099Y-125503175D01*
X141436890Y-125458524D01*
X141207000Y-125579845D01*
X141207000Y-126773000D01*
X141227000Y-126773000D01*
X141227000Y-127027000D01*
X141207000Y-127027000D01*
X141207000Y-128220155D01*
X141436890Y-128341476D01*
X141584099Y-128296825D01*
X141846920Y-128171641D01*
X142080269Y-127997588D01*
X142275178Y-127781355D01*
X142344805Y-127664466D01*
X142466525Y-127846632D01*
X142673368Y-128053475D01*
X142916589Y-128215990D01*
X143186842Y-128327932D01*
X143473740Y-128385000D01*
X143766260Y-128385000D01*
X144053158Y-128327932D01*
X144323411Y-128215990D01*
X144566632Y-128053475D01*
X144773475Y-127846632D01*
X144890000Y-127672240D01*
X145006525Y-127846632D01*
X145213368Y-128053475D01*
X145456589Y-128215990D01*
X145726842Y-128327932D01*
X146013740Y-128385000D01*
X146306260Y-128385000D01*
X146593158Y-128327932D01*
X146863411Y-128215990D01*
X147106632Y-128053475D01*
X147313475Y-127846632D01*
X147430000Y-127672240D01*
X147546525Y-127846632D01*
X147753368Y-128053475D01*
X147996589Y-128215990D01*
X148266842Y-128327932D01*
X148553740Y-128385000D01*
X148846260Y-128385000D01*
X149133158Y-128327932D01*
X149403411Y-128215990D01*
X149646632Y-128053475D01*
X149853475Y-127846632D01*
X149975195Y-127664466D01*
X150044822Y-127781355D01*
X150239731Y-127997588D01*
X150473080Y-128171641D01*
X150735901Y-128296825D01*
X150883110Y-128341476D01*
X151113000Y-128220155D01*
X151113000Y-127027000D01*
X151093000Y-127027000D01*
X151093000Y-126773000D01*
X151113000Y-126773000D01*
X151113000Y-126753000D01*
X151367000Y-126753000D01*
X151367000Y-126773000D01*
X151387000Y-126773000D01*
X151387000Y-127027000D01*
X151367000Y-127027000D01*
X151367000Y-128220155D01*
X151596890Y-128341476D01*
X151744099Y-128296825D01*
X152006920Y-128171641D01*
X152240269Y-127997588D01*
X152435178Y-127781355D01*
X152504805Y-127664466D01*
X152626525Y-127846632D01*
X152833368Y-128053475D01*
X153076589Y-128215990D01*
X153346842Y-128327932D01*
X153633740Y-128385000D01*
X153926260Y-128385000D01*
X154213158Y-128327932D01*
X154483411Y-128215990D01*
X154726632Y-128053475D01*
X154933475Y-127846632D01*
X155095990Y-127603411D01*
X155207932Y-127333158D01*
X155265000Y-127046260D01*
X155265000Y-126753740D01*
X155207932Y-126466842D01*
X155095990Y-126196589D01*
X154933475Y-125953368D01*
X154726632Y-125746525D01*
X154483411Y-125584010D01*
X154213158Y-125472068D01*
X153926260Y-125415000D01*
X153633740Y-125415000D01*
X153413592Y-125458790D01*
X140443804Y-112489003D01*
X140420001Y-112459999D01*
X140304276Y-112365026D01*
X140172247Y-112294454D01*
X140028986Y-112250997D01*
X139917333Y-112240000D01*
X139917322Y-112240000D01*
X139880000Y-112236324D01*
X139842678Y-112240000D01*
X102714802Y-112240000D01*
X93664802Y-103190000D01*
X116731928Y-103190000D01*
X116731928Y-104890000D01*
X116744188Y-105014482D01*
X116780498Y-105134180D01*
X116839463Y-105244494D01*
X116918815Y-105341185D01*
X117015506Y-105420537D01*
X117125820Y-105479502D01*
X117245518Y-105515812D01*
X117370000Y-105528072D01*
X119070000Y-105528072D01*
X119194482Y-105515812D01*
X119314180Y-105479502D01*
X119424494Y-105420537D01*
X119521185Y-105341185D01*
X119600537Y-105244494D01*
X119659502Y-105134180D01*
X119681513Y-105061620D01*
X119813368Y-105193475D01*
X120056589Y-105355990D01*
X120326842Y-105467932D01*
X120613740Y-105525000D01*
X120906260Y-105525000D01*
X121193158Y-105467932D01*
X121463411Y-105355990D01*
X121706632Y-105193475D01*
X121913475Y-104986632D01*
X122030000Y-104812240D01*
X122146525Y-104986632D01*
X122353368Y-105193475D01*
X122596589Y-105355990D01*
X122866842Y-105467932D01*
X123153740Y-105525000D01*
X123446260Y-105525000D01*
X123733158Y-105467932D01*
X124003411Y-105355990D01*
X124246632Y-105193475D01*
X124453475Y-104986632D01*
X124570000Y-104812240D01*
X124686525Y-104986632D01*
X124893368Y-105193475D01*
X125136589Y-105355990D01*
X125406842Y-105467932D01*
X125693740Y-105525000D01*
X125986260Y-105525000D01*
X126273158Y-105467932D01*
X126543411Y-105355990D01*
X126786632Y-105193475D01*
X126993475Y-104986632D01*
X127110000Y-104812240D01*
X127226525Y-104986632D01*
X127433368Y-105193475D01*
X127676589Y-105355990D01*
X127946842Y-105467932D01*
X128233740Y-105525000D01*
X128526260Y-105525000D01*
X128813158Y-105467932D01*
X129083411Y-105355990D01*
X129326632Y-105193475D01*
X129533475Y-104986632D01*
X129650000Y-104812240D01*
X129766525Y-104986632D01*
X129973368Y-105193475D01*
X130216589Y-105355990D01*
X130486842Y-105467932D01*
X130773740Y-105525000D01*
X131066260Y-105525000D01*
X131353158Y-105467932D01*
X131623411Y-105355990D01*
X131866632Y-105193475D01*
X132073475Y-104986632D01*
X132195195Y-104804466D01*
X132264822Y-104921355D01*
X132459731Y-105137588D01*
X132693080Y-105311641D01*
X132955901Y-105436825D01*
X133103110Y-105481476D01*
X133333000Y-105360155D01*
X133333000Y-104167000D01*
X133313000Y-104167000D01*
X133313000Y-103913000D01*
X133333000Y-103913000D01*
X133333000Y-102719845D01*
X133587000Y-102719845D01*
X133587000Y-103913000D01*
X133607000Y-103913000D01*
X133607000Y-104167000D01*
X133587000Y-104167000D01*
X133587000Y-105360155D01*
X133816890Y-105481476D01*
X133964099Y-105436825D01*
X134226920Y-105311641D01*
X134460269Y-105137588D01*
X134655178Y-104921355D01*
X134724805Y-104804466D01*
X134846525Y-104986632D01*
X135053368Y-105193475D01*
X135296589Y-105355990D01*
X135566842Y-105467932D01*
X135853740Y-105525000D01*
X136146260Y-105525000D01*
X136433158Y-105467932D01*
X136703411Y-105355990D01*
X136946632Y-105193475D01*
X137153475Y-104986632D01*
X137270000Y-104812240D01*
X137386525Y-104986632D01*
X137593368Y-105193475D01*
X137836589Y-105355990D01*
X138106842Y-105467932D01*
X138393740Y-105525000D01*
X138686260Y-105525000D01*
X138973158Y-105467932D01*
X139243411Y-105355990D01*
X139486632Y-105193475D01*
X139693475Y-104986632D01*
X139810000Y-104812240D01*
X139926525Y-104986632D01*
X140133368Y-105193475D01*
X140376589Y-105355990D01*
X140646842Y-105467932D01*
X140933740Y-105525000D01*
X141226260Y-105525000D01*
X141513158Y-105467932D01*
X141783411Y-105355990D01*
X142026632Y-105193475D01*
X142233475Y-104986632D01*
X142350000Y-104812240D01*
X142466525Y-104986632D01*
X142673368Y-105193475D01*
X142916589Y-105355990D01*
X143186842Y-105467932D01*
X143473740Y-105525000D01*
X143766260Y-105525000D01*
X144053158Y-105467932D01*
X144323411Y-105355990D01*
X144566632Y-105193475D01*
X144773475Y-104986632D01*
X144890000Y-104812240D01*
X145006525Y-104986632D01*
X145213368Y-105193475D01*
X145456589Y-105355990D01*
X145726842Y-105467932D01*
X146013740Y-105525000D01*
X146306260Y-105525000D01*
X146593158Y-105467932D01*
X146863411Y-105355990D01*
X147106632Y-105193475D01*
X147313475Y-104986632D01*
X147430000Y-104812240D01*
X147546525Y-104986632D01*
X147753368Y-105193475D01*
X147996589Y-105355990D01*
X148266842Y-105467932D01*
X148553740Y-105525000D01*
X148846260Y-105525000D01*
X149133158Y-105467932D01*
X149403411Y-105355990D01*
X149646632Y-105193475D01*
X149853475Y-104986632D01*
X149975195Y-104804466D01*
X150044822Y-104921355D01*
X150239731Y-105137588D01*
X150473080Y-105311641D01*
X150735901Y-105436825D01*
X150883110Y-105481476D01*
X151113000Y-105360155D01*
X151113000Y-104167000D01*
X151093000Y-104167000D01*
X151093000Y-103913000D01*
X151113000Y-103913000D01*
X151113000Y-102719845D01*
X151367000Y-102719845D01*
X151367000Y-103913000D01*
X151387000Y-103913000D01*
X151387000Y-104167000D01*
X151367000Y-104167000D01*
X151367000Y-105360155D01*
X151596890Y-105481476D01*
X151744099Y-105436825D01*
X152006920Y-105311641D01*
X152240269Y-105137588D01*
X152435178Y-104921355D01*
X152504805Y-104804466D01*
X152626525Y-104986632D01*
X152833368Y-105193475D01*
X153076589Y-105355990D01*
X153346842Y-105467932D01*
X153633740Y-105525000D01*
X153926260Y-105525000D01*
X154213158Y-105467932D01*
X154483411Y-105355990D01*
X154726632Y-105193475D01*
X154933475Y-104986632D01*
X155095990Y-104743411D01*
X155207932Y-104473158D01*
X155265000Y-104186260D01*
X155265000Y-103893740D01*
X155207932Y-103606842D01*
X155095990Y-103336589D01*
X154933475Y-103093368D01*
X154726632Y-102886525D01*
X154483411Y-102724010D01*
X154213158Y-102612068D01*
X153926260Y-102555000D01*
X153633740Y-102555000D01*
X153346842Y-102612068D01*
X153076589Y-102724010D01*
X152833368Y-102886525D01*
X152626525Y-103093368D01*
X152504805Y-103275534D01*
X152435178Y-103158645D01*
X152240269Y-102942412D01*
X152006920Y-102768359D01*
X151744099Y-102643175D01*
X151596890Y-102598524D01*
X151367000Y-102719845D01*
X151113000Y-102719845D01*
X150883110Y-102598524D01*
X150735901Y-102643175D01*
X150473080Y-102768359D01*
X150239731Y-102942412D01*
X150044822Y-103158645D01*
X149975195Y-103275534D01*
X149853475Y-103093368D01*
X149646632Y-102886525D01*
X149403411Y-102724010D01*
X149133158Y-102612068D01*
X148846260Y-102555000D01*
X148553740Y-102555000D01*
X148266842Y-102612068D01*
X147996589Y-102724010D01*
X147753368Y-102886525D01*
X147546525Y-103093368D01*
X147430000Y-103267760D01*
X147313475Y-103093368D01*
X147106632Y-102886525D01*
X146863411Y-102724010D01*
X146593158Y-102612068D01*
X146306260Y-102555000D01*
X146013740Y-102555000D01*
X145726842Y-102612068D01*
X145456589Y-102724010D01*
X145213368Y-102886525D01*
X145006525Y-103093368D01*
X144890000Y-103267760D01*
X144773475Y-103093368D01*
X144566632Y-102886525D01*
X144323411Y-102724010D01*
X144053158Y-102612068D01*
X143766260Y-102555000D01*
X143473740Y-102555000D01*
X143186842Y-102612068D01*
X142916589Y-102724010D01*
X142673368Y-102886525D01*
X142466525Y-103093368D01*
X142350000Y-103267760D01*
X142233475Y-103093368D01*
X142026632Y-102886525D01*
X141783411Y-102724010D01*
X141513158Y-102612068D01*
X141226260Y-102555000D01*
X140933740Y-102555000D01*
X140646842Y-102612068D01*
X140376589Y-102724010D01*
X140133368Y-102886525D01*
X139926525Y-103093368D01*
X139810000Y-103267760D01*
X139693475Y-103093368D01*
X139486632Y-102886525D01*
X139243411Y-102724010D01*
X138973158Y-102612068D01*
X138686260Y-102555000D01*
X138393740Y-102555000D01*
X138106842Y-102612068D01*
X137836589Y-102724010D01*
X137593368Y-102886525D01*
X137386525Y-103093368D01*
X137270000Y-103267760D01*
X137153475Y-103093368D01*
X136946632Y-102886525D01*
X136703411Y-102724010D01*
X136433158Y-102612068D01*
X136146260Y-102555000D01*
X135853740Y-102555000D01*
X135566842Y-102612068D01*
X135296589Y-102724010D01*
X135053368Y-102886525D01*
X134846525Y-103093368D01*
X134724805Y-103275534D01*
X134655178Y-103158645D01*
X134460269Y-102942412D01*
X134226920Y-102768359D01*
X133964099Y-102643175D01*
X133816890Y-102598524D01*
X133587000Y-102719845D01*
X133333000Y-102719845D01*
X133103110Y-102598524D01*
X132955901Y-102643175D01*
X132693080Y-102768359D01*
X132459731Y-102942412D01*
X132264822Y-103158645D01*
X132195195Y-103275534D01*
X132073475Y-103093368D01*
X131866632Y-102886525D01*
X131623411Y-102724010D01*
X131353158Y-102612068D01*
X131066260Y-102555000D01*
X130773740Y-102555000D01*
X130486842Y-102612068D01*
X130216589Y-102724010D01*
X129973368Y-102886525D01*
X129766525Y-103093368D01*
X129650000Y-103267760D01*
X129533475Y-103093368D01*
X129326632Y-102886525D01*
X129083411Y-102724010D01*
X128813158Y-102612068D01*
X128526260Y-102555000D01*
X128233740Y-102555000D01*
X127946842Y-102612068D01*
X127676589Y-102724010D01*
X127433368Y-102886525D01*
X127226525Y-103093368D01*
X127110000Y-103267760D01*
X126993475Y-103093368D01*
X126786632Y-102886525D01*
X126543411Y-102724010D01*
X126273158Y-102612068D01*
X125986260Y-102555000D01*
X125693740Y-102555000D01*
X125406842Y-102612068D01*
X125136589Y-102724010D01*
X124893368Y-102886525D01*
X124686525Y-103093368D01*
X124570000Y-103267760D01*
X124453475Y-103093368D01*
X124246632Y-102886525D01*
X124003411Y-102724010D01*
X123733158Y-102612068D01*
X123446260Y-102555000D01*
X123153740Y-102555000D01*
X122866842Y-102612068D01*
X122596589Y-102724010D01*
X122353368Y-102886525D01*
X122146525Y-103093368D01*
X122030000Y-103267760D01*
X121913475Y-103093368D01*
X121706632Y-102886525D01*
X121463411Y-102724010D01*
X121193158Y-102612068D01*
X120906260Y-102555000D01*
X120613740Y-102555000D01*
X120326842Y-102612068D01*
X120056589Y-102724010D01*
X119813368Y-102886525D01*
X119681513Y-103018380D01*
X119659502Y-102945820D01*
X119600537Y-102835506D01*
X119521185Y-102738815D01*
X119424494Y-102659463D01*
X119314180Y-102600498D01*
X119194482Y-102564188D01*
X119070000Y-102551928D01*
X117370000Y-102551928D01*
X117245518Y-102564188D01*
X117125820Y-102600498D01*
X117015506Y-102659463D01*
X116918815Y-102738815D01*
X116839463Y-102835506D01*
X116780498Y-102945820D01*
X116744188Y-103065518D01*
X116731928Y-103190000D01*
X93664802Y-103190000D01*
X85287345Y-94812544D01*
X85301185Y-94801185D01*
X85380537Y-94704494D01*
X85439502Y-94594180D01*
X85475812Y-94474482D01*
X85488072Y-94350000D01*
X85488072Y-92650000D01*
X85475812Y-92525518D01*
X85439502Y-92405820D01*
X85380537Y-92295506D01*
X85301185Y-92198815D01*
X85213678Y-92127000D01*
X97786322Y-92127000D01*
X97698815Y-92198815D01*
X97619463Y-92295506D01*
X97560498Y-92405820D01*
X97524188Y-92525518D01*
X97511928Y-92650000D01*
X97511928Y-94350000D01*
X97524188Y-94474482D01*
X97560498Y-94594180D01*
X97619463Y-94704494D01*
X97698815Y-94801185D01*
X97795506Y-94880537D01*
X97905820Y-94939502D01*
X98025518Y-94975812D01*
X98150000Y-94988072D01*
X99850000Y-94988072D01*
X99974482Y-94975812D01*
X100094180Y-94939502D01*
X100204494Y-94880537D01*
X100301185Y-94801185D01*
X100380537Y-94704494D01*
X100439502Y-94594180D01*
X100461513Y-94521620D01*
X100593368Y-94653475D01*
X100836589Y-94815990D01*
X101106842Y-94927932D01*
X101393740Y-94985000D01*
X101686260Y-94985000D01*
X101973158Y-94927932D01*
X102243411Y-94815990D01*
X102486632Y-94653475D01*
X102693475Y-94446632D01*
X102815195Y-94264466D01*
X102884822Y-94381355D01*
X103079731Y-94597588D01*
X103313080Y-94771641D01*
X103575901Y-94896825D01*
X103723110Y-94941476D01*
X103953000Y-94820155D01*
X103953000Y-93627000D01*
X104207000Y-93627000D01*
X104207000Y-94820155D01*
X104436890Y-94941476D01*
X104584099Y-94896825D01*
X104846920Y-94771641D01*
X105080269Y-94597588D01*
X105275178Y-94381355D01*
X105424157Y-94131252D01*
X105521481Y-93856891D01*
X105400814Y-93627000D01*
X104207000Y-93627000D01*
X103953000Y-93627000D01*
X103933000Y-93627000D01*
X103933000Y-93373000D01*
X103953000Y-93373000D01*
X103953000Y-93353000D01*
X104207000Y-93353000D01*
X104207000Y-93373000D01*
X105400814Y-93373000D01*
X105521481Y-93143109D01*
X105424157Y-92868748D01*
X105275178Y-92618645D01*
X105080269Y-92402412D01*
X104846920Y-92228359D01*
X104634119Y-92127000D01*
X118297531Y-92127000D01*
X118255506Y-92149463D01*
X118158815Y-92228815D01*
X118079463Y-92325506D01*
X118020498Y-92435820D01*
X117984188Y-92555518D01*
X117971928Y-92680000D01*
X117971928Y-94380000D01*
X117984188Y-94504482D01*
X118020498Y-94624180D01*
X118079463Y-94734494D01*
X118158815Y-94831185D01*
X118255506Y-94910537D01*
X118365820Y-94969502D01*
X118485518Y-95005812D01*
X118610000Y-95018072D01*
X120310000Y-95018072D01*
X120434482Y-95005812D01*
X120554180Y-94969502D01*
X120664494Y-94910537D01*
X120761185Y-94831185D01*
X120840537Y-94734494D01*
X120899502Y-94624180D01*
X120921513Y-94551620D01*
X121053368Y-94683475D01*
X121296589Y-94845990D01*
X121566842Y-94957932D01*
X121853740Y-95015000D01*
X122146260Y-95015000D01*
X122433158Y-94957932D01*
X122703411Y-94845990D01*
X122946632Y-94683475D01*
X123153475Y-94476632D01*
X123275195Y-94294466D01*
X123344822Y-94411355D01*
X123539731Y-94627588D01*
X123773080Y-94801641D01*
X124035901Y-94926825D01*
X124183110Y-94971476D01*
X124413000Y-94850155D01*
X124413000Y-93657000D01*
X124393000Y-93657000D01*
X124393000Y-93403000D01*
X124413000Y-93403000D01*
X124413000Y-93383000D01*
X124667000Y-93383000D01*
X124667000Y-93403000D01*
X124687000Y-93403000D01*
X124687000Y-93657000D01*
X124667000Y-93657000D01*
X124667000Y-94850155D01*
X124896890Y-94971476D01*
X125044099Y-94926825D01*
X125306920Y-94801641D01*
X125540269Y-94627588D01*
X125735178Y-94411355D01*
X125804805Y-94294466D01*
X125926525Y-94476632D01*
X126133368Y-94683475D01*
X126376589Y-94845990D01*
X126646842Y-94957932D01*
X126933740Y-95015000D01*
X127226260Y-95015000D01*
X127513158Y-94957932D01*
X127783411Y-94845990D01*
X128026632Y-94683475D01*
X128233475Y-94476632D01*
X128395990Y-94233411D01*
X128507932Y-93963158D01*
X128565000Y-93676260D01*
X128565000Y-93383740D01*
X128507932Y-93096842D01*
X128395990Y-92826589D01*
X128233475Y-92583368D01*
X128026632Y-92376525D01*
X127783411Y-92214010D01*
X127573349Y-92127000D01*
X167873000Y-92127000D01*
X167873000Y-147873000D01*
X126397160Y-147873000D01*
X126515516Y-147861343D01*
X126823715Y-147767852D01*
X127107752Y-147616031D01*
X127356714Y-147411714D01*
X127561031Y-147162752D01*
X127712852Y-146878715D01*
X127806343Y-146570515D01*
X127830000Y-146330321D01*
X127830000Y-145669678D01*
X127806343Y-145429484D01*
X127712852Y-145121285D01*
X127561031Y-144837248D01*
X127356714Y-144588286D01*
X127107751Y-144383969D01*
X126823714Y-144232148D01*
X126515515Y-144138657D01*
X126195000Y-144107089D01*
X125874484Y-144138657D01*
X125566285Y-144232148D01*
X125282248Y-144383969D01*
X125033286Y-144588286D01*
X124828969Y-144837249D01*
X124677148Y-145121286D01*
X124583657Y-145429485D01*
X124560000Y-145669679D01*
X124560000Y-146330322D01*
X124583657Y-146570516D01*
X124677148Y-146878715D01*
X124828969Y-147162752D01*
X125033286Y-147411714D01*
X125282249Y-147616031D01*
X125566286Y-147767852D01*
X125874485Y-147861343D01*
X125992840Y-147873000D01*
X122512002Y-147873000D01*
X122512002Y-147720778D01*
X122765434Y-147840124D01*
X122887398Y-147815744D01*
X123183206Y-147687646D01*
X123448340Y-147504300D01*
X123672610Y-147272752D01*
X123847398Y-147001900D01*
X123965987Y-146702153D01*
X124023819Y-146385030D01*
X123866016Y-146127000D01*
X122512000Y-146127000D01*
X122512000Y-146147000D01*
X122258000Y-146147000D01*
X122258000Y-146127000D01*
X120903984Y-146127000D01*
X120746181Y-146385030D01*
X120804013Y-146702153D01*
X120922602Y-147001900D01*
X121097390Y-147272752D01*
X121321660Y-147504300D01*
X121586794Y-147687646D01*
X121882602Y-147815744D01*
X122004566Y-147840124D01*
X122257998Y-147720778D01*
X122257998Y-147873000D01*
X118777160Y-147873000D01*
X118895516Y-147861343D01*
X119203715Y-147767852D01*
X119487752Y-147616031D01*
X119736714Y-147411714D01*
X119941031Y-147162752D01*
X120092852Y-146878715D01*
X120186343Y-146570515D01*
X120210000Y-146330321D01*
X120210000Y-145669678D01*
X120204612Y-145614970D01*
X120746181Y-145614970D01*
X120903984Y-145873000D01*
X122258000Y-145873000D01*
X122258000Y-144279223D01*
X122512000Y-144279223D01*
X122512000Y-145873000D01*
X123866016Y-145873000D01*
X124023819Y-145614970D01*
X123965987Y-145297847D01*
X123847398Y-144998100D01*
X123672610Y-144727248D01*
X123448340Y-144495700D01*
X123183206Y-144312354D01*
X122887398Y-144184256D01*
X122765434Y-144159876D01*
X122512000Y-144279223D01*
X122258000Y-144279223D01*
X122004566Y-144159876D01*
X121882602Y-144184256D01*
X121586794Y-144312354D01*
X121321660Y-144495700D01*
X121097390Y-144727248D01*
X120922602Y-144998100D01*
X120804013Y-145297847D01*
X120746181Y-145614970D01*
X120204612Y-145614970D01*
X120186343Y-145429484D01*
X120092852Y-145121285D01*
X119941031Y-144837248D01*
X119736714Y-144588286D01*
X119487751Y-144383969D01*
X119203714Y-144232148D01*
X118895515Y-144138657D01*
X118575000Y-144107089D01*
X118254484Y-144138657D01*
X117946285Y-144232148D01*
X117662248Y-144383969D01*
X117413286Y-144588286D01*
X117208969Y-144837249D01*
X117057148Y-145121286D01*
X116963657Y-145429485D01*
X116940000Y-145669679D01*
X116940000Y-146330322D01*
X116963657Y-146570516D01*
X117057148Y-146878715D01*
X117208969Y-147162752D01*
X117413286Y-147411714D01*
X117662249Y-147616031D01*
X117946286Y-147767852D01*
X118254485Y-147861343D01*
X118372840Y-147873000D01*
X114967160Y-147873000D01*
X115085516Y-147861343D01*
X115393715Y-147767852D01*
X115677752Y-147616031D01*
X115926714Y-147411714D01*
X116131031Y-147162752D01*
X116282852Y-146878715D01*
X116376343Y-146570515D01*
X116400000Y-146330321D01*
X116400000Y-145669678D01*
X116376343Y-145429484D01*
X116282852Y-145121285D01*
X116131031Y-144837248D01*
X115926714Y-144588286D01*
X115677751Y-144383969D01*
X115393714Y-144232148D01*
X115085515Y-144138657D01*
X114765000Y-144107089D01*
X114444484Y-144138657D01*
X114136285Y-144232148D01*
X113852248Y-144383969D01*
X113603286Y-144588286D01*
X113398969Y-144837249D01*
X113247148Y-145121286D01*
X113153657Y-145429485D01*
X113130000Y-145669679D01*
X113130000Y-146330322D01*
X113153657Y-146570516D01*
X113247148Y-146878715D01*
X113398969Y-147162752D01*
X113603286Y-147411714D01*
X113852249Y-147616031D01*
X114136286Y-147767852D01*
X114444485Y-147861343D01*
X114562840Y-147873000D01*
X111157160Y-147873000D01*
X111275516Y-147861343D01*
X111583715Y-147767852D01*
X111867752Y-147616031D01*
X112116714Y-147411714D01*
X112321031Y-147162752D01*
X112472852Y-146878715D01*
X112566343Y-146570515D01*
X112590000Y-146330321D01*
X112590000Y-145669678D01*
X112566343Y-145429484D01*
X112472852Y-145121285D01*
X112321031Y-144837248D01*
X112116714Y-144588286D01*
X111867751Y-144383969D01*
X111583714Y-144232148D01*
X111275515Y-144138657D01*
X110955000Y-144107089D01*
X110634484Y-144138657D01*
X110326285Y-144232148D01*
X110042248Y-144383969D01*
X109793286Y-144588286D01*
X109588969Y-144837249D01*
X109437148Y-145121286D01*
X109343657Y-145429485D01*
X109320000Y-145669679D01*
X109320000Y-146330322D01*
X109343657Y-146570516D01*
X109437148Y-146878715D01*
X109588969Y-147162752D01*
X109793286Y-147411714D01*
X110042249Y-147616031D01*
X110326286Y-147767852D01*
X110634485Y-147861343D01*
X110752840Y-147873000D01*
X107347160Y-147873000D01*
X107465516Y-147861343D01*
X107773715Y-147767852D01*
X108057752Y-147616031D01*
X108306714Y-147411714D01*
X108511031Y-147162752D01*
X108662852Y-146878715D01*
X108756343Y-146570515D01*
X108780000Y-146330321D01*
X108780000Y-145669678D01*
X108756343Y-145429484D01*
X108662852Y-145121285D01*
X108511031Y-144837248D01*
X108306714Y-144588286D01*
X108057751Y-144383969D01*
X107773714Y-144232148D01*
X107465515Y-144138657D01*
X107145000Y-144107089D01*
X106824484Y-144138657D01*
X106516285Y-144232148D01*
X106232248Y-144383969D01*
X105983286Y-144588286D01*
X105778969Y-144837249D01*
X105627148Y-145121286D01*
X105533657Y-145429485D01*
X105510000Y-145669679D01*
X105510000Y-146330322D01*
X105533657Y-146570516D01*
X105627148Y-146878715D01*
X105778969Y-147162752D01*
X105983286Y-147411714D01*
X106232249Y-147616031D01*
X106516286Y-147767852D01*
X106824485Y-147861343D01*
X106942840Y-147873000D01*
X103537160Y-147873000D01*
X103655516Y-147861343D01*
X103963715Y-147767852D01*
X104247752Y-147616031D01*
X104496714Y-147411714D01*
X104701031Y-147162752D01*
X104852852Y-146878715D01*
X104946343Y-146570515D01*
X104970000Y-146330321D01*
X104970000Y-145669678D01*
X104946343Y-145429484D01*
X104852852Y-145121285D01*
X104701031Y-144837248D01*
X104496714Y-144588286D01*
X104247751Y-144383969D01*
X103963714Y-144232148D01*
X103655515Y-144138657D01*
X103335000Y-144107089D01*
X103014484Y-144138657D01*
X102706285Y-144232148D01*
X102422248Y-144383969D01*
X102173286Y-144588286D01*
X101968969Y-144837249D01*
X101817148Y-145121286D01*
X101723657Y-145429485D01*
X101700000Y-145669679D01*
X101700000Y-146330322D01*
X101723657Y-146570516D01*
X101817148Y-146878715D01*
X101968969Y-147162752D01*
X102173286Y-147411714D01*
X102422249Y-147616031D01*
X102706286Y-147767852D01*
X103014485Y-147861343D01*
X103132840Y-147873000D01*
X99727160Y-147873000D01*
X99845516Y-147861343D01*
X100153715Y-147767852D01*
X100437752Y-147616031D01*
X100686714Y-147411714D01*
X100891031Y-147162752D01*
X101042852Y-146878715D01*
X101136343Y-146570515D01*
X101160000Y-146330321D01*
X101160000Y-145669678D01*
X101136343Y-145429484D01*
X101042852Y-145121285D01*
X100891031Y-144837248D01*
X100686714Y-144588286D01*
X100437751Y-144383969D01*
X100153714Y-144232148D01*
X99845515Y-144138657D01*
X99525000Y-144107089D01*
X99204484Y-144138657D01*
X98896285Y-144232148D01*
X98612248Y-144383969D01*
X98363286Y-144588286D01*
X98158969Y-144837249D01*
X98007148Y-145121286D01*
X97913657Y-145429485D01*
X97890000Y-145669679D01*
X97890000Y-146330322D01*
X97913657Y-146570516D01*
X98007148Y-146878715D01*
X98158969Y-147162752D01*
X98363286Y-147411714D01*
X98612249Y-147616031D01*
X98896286Y-147767852D01*
X99204485Y-147861343D01*
X99322840Y-147873000D01*
X95917160Y-147873000D01*
X96035516Y-147861343D01*
X96343715Y-147767852D01*
X96627752Y-147616031D01*
X96876714Y-147411714D01*
X97081031Y-147162752D01*
X97232852Y-146878715D01*
X97326343Y-146570515D01*
X97350000Y-146330321D01*
X97350000Y-145669678D01*
X97326343Y-145429484D01*
X97232852Y-145121285D01*
X97081031Y-144837248D01*
X96876714Y-144588286D01*
X96627751Y-144383969D01*
X96343714Y-144232148D01*
X96035515Y-144138657D01*
X95715000Y-144107089D01*
X95394484Y-144138657D01*
X95086285Y-144232148D01*
X94802248Y-144383969D01*
X94553286Y-144588286D01*
X94348969Y-144837249D01*
X94197148Y-145121286D01*
X94103657Y-145429485D01*
X94080000Y-145669679D01*
X94080000Y-146330322D01*
X94103657Y-146570516D01*
X94197148Y-146878715D01*
X94348969Y-147162752D01*
X94553286Y-147411714D01*
X94802249Y-147616031D01*
X95086286Y-147767852D01*
X95394485Y-147861343D01*
X95512840Y-147873000D01*
X92107160Y-147873000D01*
X92225516Y-147861343D01*
X92533715Y-147767852D01*
X92817752Y-147616031D01*
X93066714Y-147411714D01*
X93271031Y-147162752D01*
X93422852Y-146878715D01*
X93516343Y-146570515D01*
X93540000Y-146330321D01*
X93540000Y-145669678D01*
X93516343Y-145429484D01*
X93422852Y-145121285D01*
X93271031Y-144837248D01*
X93066714Y-144588286D01*
X92817751Y-144383969D01*
X92533714Y-144232148D01*
X92225515Y-144138657D01*
X91905000Y-144107089D01*
X91584484Y-144138657D01*
X91276285Y-144232148D01*
X90992248Y-144383969D01*
X90743286Y-144588286D01*
X90538969Y-144837249D01*
X90387148Y-145121286D01*
X90293657Y-145429485D01*
X90270000Y-145669679D01*
X90270000Y-146330322D01*
X90293657Y-146570516D01*
X90387148Y-146878715D01*
X90538969Y-147162752D01*
X90743286Y-147411714D01*
X90992249Y-147616031D01*
X91276286Y-147767852D01*
X91584485Y-147861343D01*
X91702840Y-147873000D01*
X52127000Y-147873000D01*
X52127000Y-141305030D01*
X88361181Y-141305030D01*
X88419013Y-141622153D01*
X88537602Y-141921900D01*
X88712390Y-142192752D01*
X88936660Y-142424300D01*
X89201794Y-142607646D01*
X89497602Y-142735744D01*
X89619566Y-142760124D01*
X89873000Y-142640777D01*
X89873000Y-141047000D01*
X90127000Y-141047000D01*
X90127000Y-142640777D01*
X90380434Y-142760124D01*
X90502398Y-142735744D01*
X90798206Y-142607646D01*
X91063340Y-142424300D01*
X91287610Y-142192752D01*
X91462398Y-141921900D01*
X91580987Y-141622153D01*
X91638819Y-141305030D01*
X91481016Y-141047000D01*
X90127000Y-141047000D01*
X89873000Y-141047000D01*
X88518984Y-141047000D01*
X88361181Y-141305030D01*
X52127000Y-141305030D01*
X52127000Y-140534970D01*
X88361181Y-140534970D01*
X88518984Y-140793000D01*
X89873000Y-140793000D01*
X89873000Y-139199223D01*
X90127000Y-139199223D01*
X90127000Y-140793000D01*
X91481016Y-140793000D01*
X91605360Y-140589679D01*
X92175000Y-140589679D01*
X92175000Y-141250322D01*
X92198657Y-141490516D01*
X92292148Y-141798715D01*
X92443969Y-142082752D01*
X92648286Y-142331714D01*
X92897249Y-142536031D01*
X93181286Y-142687852D01*
X93489485Y-142781343D01*
X93810000Y-142812911D01*
X94130516Y-142781343D01*
X94438715Y-142687852D01*
X94722752Y-142536031D01*
X94971714Y-142331714D01*
X95176031Y-142082752D01*
X95327852Y-141798715D01*
X95421343Y-141490515D01*
X95439611Y-141305030D01*
X95981181Y-141305030D01*
X96039013Y-141622153D01*
X96157602Y-141921900D01*
X96332390Y-142192752D01*
X96556660Y-142424300D01*
X96821794Y-142607646D01*
X97117602Y-142735744D01*
X97239566Y-142760124D01*
X97493000Y-142640777D01*
X97493000Y-141047000D01*
X97747000Y-141047000D01*
X97747000Y-142640777D01*
X98000434Y-142760124D01*
X98122398Y-142735744D01*
X98418206Y-142607646D01*
X98683340Y-142424300D01*
X98907610Y-142192752D01*
X99082398Y-141921900D01*
X99200987Y-141622153D01*
X99258819Y-141305030D01*
X99101016Y-141047000D01*
X97747000Y-141047000D01*
X97493000Y-141047000D01*
X96138984Y-141047000D01*
X95981181Y-141305030D01*
X95439611Y-141305030D01*
X95445000Y-141250321D01*
X95445000Y-140589678D01*
X95439612Y-140534970D01*
X95981181Y-140534970D01*
X96138984Y-140793000D01*
X97493000Y-140793000D01*
X97493000Y-139199223D01*
X97747000Y-139199223D01*
X97747000Y-140793000D01*
X99101016Y-140793000D01*
X99225360Y-140589679D01*
X99795000Y-140589679D01*
X99795000Y-141250322D01*
X99818657Y-141490516D01*
X99912148Y-141798715D01*
X100063969Y-142082752D01*
X100268286Y-142331714D01*
X100517249Y-142536031D01*
X100801286Y-142687852D01*
X101109485Y-142781343D01*
X101430000Y-142812911D01*
X101750516Y-142781343D01*
X102058715Y-142687852D01*
X102342752Y-142536031D01*
X102591714Y-142331714D01*
X102796031Y-142082752D01*
X102947852Y-141798715D01*
X103041343Y-141490515D01*
X103059611Y-141305030D01*
X103601181Y-141305030D01*
X103659013Y-141622153D01*
X103777602Y-141921900D01*
X103952390Y-142192752D01*
X104176660Y-142424300D01*
X104441794Y-142607646D01*
X104737602Y-142735744D01*
X104859566Y-142760124D01*
X105113000Y-142640777D01*
X105113000Y-141047000D01*
X105367000Y-141047000D01*
X105367000Y-142640777D01*
X105620434Y-142760124D01*
X105742398Y-142735744D01*
X106038206Y-142607646D01*
X106303340Y-142424300D01*
X106527610Y-142192752D01*
X106702398Y-141921900D01*
X106820987Y-141622153D01*
X106878819Y-141305030D01*
X106721016Y-141047000D01*
X105367000Y-141047000D01*
X105113000Y-141047000D01*
X103758984Y-141047000D01*
X103601181Y-141305030D01*
X103059611Y-141305030D01*
X103065000Y-141250321D01*
X103065000Y-140589678D01*
X103059612Y-140534970D01*
X103601181Y-140534970D01*
X103758984Y-140793000D01*
X105113000Y-140793000D01*
X105113000Y-139199223D01*
X105367000Y-139199223D01*
X105367000Y-140793000D01*
X106721016Y-140793000D01*
X106845360Y-140589679D01*
X107415000Y-140589679D01*
X107415000Y-141250322D01*
X107438657Y-141490516D01*
X107532148Y-141798715D01*
X107683969Y-142082752D01*
X107888286Y-142331714D01*
X108137249Y-142536031D01*
X108421286Y-142687852D01*
X108729485Y-142781343D01*
X109050000Y-142812911D01*
X109370516Y-142781343D01*
X109678715Y-142687852D01*
X109962752Y-142536031D01*
X110211714Y-142331714D01*
X110416031Y-142082752D01*
X110567852Y-141798715D01*
X110661343Y-141490515D01*
X110679611Y-141305030D01*
X111221181Y-141305030D01*
X111279013Y-141622153D01*
X111397602Y-141921900D01*
X111572390Y-142192752D01*
X111796660Y-142424300D01*
X112061794Y-142607646D01*
X112357602Y-142735744D01*
X112479566Y-142760124D01*
X112733000Y-142640777D01*
X112733000Y-141047000D01*
X112987000Y-141047000D01*
X112987000Y-142640777D01*
X113240434Y-142760124D01*
X113362398Y-142735744D01*
X113658206Y-142607646D01*
X113923340Y-142424300D01*
X114147610Y-142192752D01*
X114322398Y-141921900D01*
X114440987Y-141622153D01*
X114498819Y-141305030D01*
X114341016Y-141047000D01*
X112987000Y-141047000D01*
X112733000Y-141047000D01*
X111378984Y-141047000D01*
X111221181Y-141305030D01*
X110679611Y-141305030D01*
X110685000Y-141250321D01*
X110685000Y-140589678D01*
X110679612Y-140534970D01*
X111221181Y-140534970D01*
X111378984Y-140793000D01*
X112733000Y-140793000D01*
X112733000Y-139199223D01*
X112987000Y-139199223D01*
X112987000Y-140793000D01*
X114341016Y-140793000D01*
X114465360Y-140589679D01*
X115035000Y-140589679D01*
X115035000Y-141250322D01*
X115058657Y-141490516D01*
X115152148Y-141798715D01*
X115303969Y-142082752D01*
X115508286Y-142331714D01*
X115757249Y-142536031D01*
X116041286Y-142687852D01*
X116349485Y-142781343D01*
X116670000Y-142812911D01*
X116990516Y-142781343D01*
X117298715Y-142687852D01*
X117582752Y-142536031D01*
X117831714Y-142331714D01*
X118036031Y-142082752D01*
X118187852Y-141798715D01*
X118281343Y-141490515D01*
X118299611Y-141305030D01*
X118841181Y-141305030D01*
X118899013Y-141622153D01*
X119017602Y-141921900D01*
X119192390Y-142192752D01*
X119416660Y-142424300D01*
X119681794Y-142607646D01*
X119977602Y-142735744D01*
X120099566Y-142760124D01*
X120353000Y-142640777D01*
X120353000Y-141047000D01*
X120607000Y-141047000D01*
X120607000Y-142640777D01*
X120860434Y-142760124D01*
X120982398Y-142735744D01*
X121278206Y-142607646D01*
X121543340Y-142424300D01*
X121767610Y-142192752D01*
X121942398Y-141921900D01*
X122060987Y-141622153D01*
X122118819Y-141305030D01*
X121961016Y-141047000D01*
X120607000Y-141047000D01*
X120353000Y-141047000D01*
X118998984Y-141047000D01*
X118841181Y-141305030D01*
X118299611Y-141305030D01*
X118305000Y-141250321D01*
X118305000Y-140589678D01*
X118299612Y-140534970D01*
X118841181Y-140534970D01*
X118998984Y-140793000D01*
X120353000Y-140793000D01*
X120353000Y-139199223D01*
X120607000Y-139199223D01*
X120607000Y-140793000D01*
X121961016Y-140793000D01*
X122085360Y-140589679D01*
X122655000Y-140589679D01*
X122655000Y-141250322D01*
X122678657Y-141490516D01*
X122772148Y-141798715D01*
X122923969Y-142082752D01*
X123128286Y-142331714D01*
X123377249Y-142536031D01*
X123661286Y-142687852D01*
X123969485Y-142781343D01*
X124290000Y-142812911D01*
X124610516Y-142781343D01*
X124918715Y-142687852D01*
X125202752Y-142536031D01*
X125451714Y-142331714D01*
X125656031Y-142082752D01*
X125807852Y-141798715D01*
X125901343Y-141490515D01*
X125925000Y-141250321D01*
X125925000Y-140589679D01*
X126465000Y-140589679D01*
X126465000Y-141250322D01*
X126488657Y-141490516D01*
X126582148Y-141798715D01*
X126733969Y-142082752D01*
X126938286Y-142331714D01*
X127187249Y-142536031D01*
X127471286Y-142687852D01*
X127779485Y-142781343D01*
X128100000Y-142812911D01*
X128420516Y-142781343D01*
X128728715Y-142687852D01*
X129012752Y-142536031D01*
X129261714Y-142331714D01*
X129466031Y-142082752D01*
X129617852Y-141798715D01*
X129711343Y-141490515D01*
X129735000Y-141250321D01*
X129735000Y-140589678D01*
X129711343Y-140349484D01*
X129617852Y-140041285D01*
X129466031Y-139757248D01*
X129261714Y-139508286D01*
X129012751Y-139303969D01*
X128728714Y-139152148D01*
X128420515Y-139058657D01*
X128100000Y-139027089D01*
X127779484Y-139058657D01*
X127471285Y-139152148D01*
X127187248Y-139303969D01*
X126938286Y-139508286D01*
X126733969Y-139757249D01*
X126582148Y-140041286D01*
X126488657Y-140349485D01*
X126465000Y-140589679D01*
X125925000Y-140589679D01*
X125925000Y-140589678D01*
X125901343Y-140349484D01*
X125807852Y-140041285D01*
X125656031Y-139757248D01*
X125451714Y-139508286D01*
X125202751Y-139303969D01*
X124918714Y-139152148D01*
X124610515Y-139058657D01*
X124290000Y-139027089D01*
X123969484Y-139058657D01*
X123661285Y-139152148D01*
X123377248Y-139303969D01*
X123128286Y-139508286D01*
X122923969Y-139757249D01*
X122772148Y-140041286D01*
X122678657Y-140349485D01*
X122655000Y-140589679D01*
X122085360Y-140589679D01*
X122118819Y-140534970D01*
X122060987Y-140217847D01*
X121942398Y-139918100D01*
X121767610Y-139647248D01*
X121543340Y-139415700D01*
X121278206Y-139232354D01*
X120982398Y-139104256D01*
X120860434Y-139079876D01*
X120607000Y-139199223D01*
X120353000Y-139199223D01*
X120099566Y-139079876D01*
X119977602Y-139104256D01*
X119681794Y-139232354D01*
X119416660Y-139415700D01*
X119192390Y-139647248D01*
X119017602Y-139918100D01*
X118899013Y-140217847D01*
X118841181Y-140534970D01*
X118299612Y-140534970D01*
X118281343Y-140349484D01*
X118187852Y-140041285D01*
X118036031Y-139757248D01*
X117831714Y-139508286D01*
X117582751Y-139303969D01*
X117298714Y-139152148D01*
X116990515Y-139058657D01*
X116670000Y-139027089D01*
X116349484Y-139058657D01*
X116041285Y-139152148D01*
X115757248Y-139303969D01*
X115508286Y-139508286D01*
X115303969Y-139757249D01*
X115152148Y-140041286D01*
X115058657Y-140349485D01*
X115035000Y-140589679D01*
X114465360Y-140589679D01*
X114498819Y-140534970D01*
X114440987Y-140217847D01*
X114322398Y-139918100D01*
X114147610Y-139647248D01*
X113923340Y-139415700D01*
X113658206Y-139232354D01*
X113362398Y-139104256D01*
X113240434Y-139079876D01*
X112987000Y-139199223D01*
X112733000Y-139199223D01*
X112479566Y-139079876D01*
X112357602Y-139104256D01*
X112061794Y-139232354D01*
X111796660Y-139415700D01*
X111572390Y-139647248D01*
X111397602Y-139918100D01*
X111279013Y-140217847D01*
X111221181Y-140534970D01*
X110679612Y-140534970D01*
X110661343Y-140349484D01*
X110567852Y-140041285D01*
X110416031Y-139757248D01*
X110211714Y-139508286D01*
X109962751Y-139303969D01*
X109678714Y-139152148D01*
X109370515Y-139058657D01*
X109050000Y-139027089D01*
X108729484Y-139058657D01*
X108421285Y-139152148D01*
X108137248Y-139303969D01*
X107888286Y-139508286D01*
X107683969Y-139757249D01*
X107532148Y-140041286D01*
X107438657Y-140349485D01*
X107415000Y-140589679D01*
X106845360Y-140589679D01*
X106878819Y-140534970D01*
X106820987Y-140217847D01*
X106702398Y-139918100D01*
X106527610Y-139647248D01*
X106303340Y-139415700D01*
X106038206Y-139232354D01*
X105742398Y-139104256D01*
X105620434Y-139079876D01*
X105367000Y-139199223D01*
X105113000Y-139199223D01*
X104859566Y-139079876D01*
X104737602Y-139104256D01*
X104441794Y-139232354D01*
X104176660Y-139415700D01*
X103952390Y-139647248D01*
X103777602Y-139918100D01*
X103659013Y-140217847D01*
X103601181Y-140534970D01*
X103059612Y-140534970D01*
X103041343Y-140349484D01*
X102947852Y-140041285D01*
X102796031Y-139757248D01*
X102591714Y-139508286D01*
X102342751Y-139303969D01*
X102058714Y-139152148D01*
X101750515Y-139058657D01*
X101430000Y-139027089D01*
X101109484Y-139058657D01*
X100801285Y-139152148D01*
X100517248Y-139303969D01*
X100268286Y-139508286D01*
X100063969Y-139757249D01*
X99912148Y-140041286D01*
X99818657Y-140349485D01*
X99795000Y-140589679D01*
X99225360Y-140589679D01*
X99258819Y-140534970D01*
X99200987Y-140217847D01*
X99082398Y-139918100D01*
X98907610Y-139647248D01*
X98683340Y-139415700D01*
X98418206Y-139232354D01*
X98122398Y-139104256D01*
X98000434Y-139079876D01*
X97747000Y-139199223D01*
X97493000Y-139199223D01*
X97239566Y-139079876D01*
X97117602Y-139104256D01*
X96821794Y-139232354D01*
X96556660Y-139415700D01*
X96332390Y-139647248D01*
X96157602Y-139918100D01*
X96039013Y-140217847D01*
X95981181Y-140534970D01*
X95439612Y-140534970D01*
X95421343Y-140349484D01*
X95327852Y-140041285D01*
X95176031Y-139757248D01*
X94971714Y-139508286D01*
X94722751Y-139303969D01*
X94438714Y-139152148D01*
X94130515Y-139058657D01*
X93810000Y-139027089D01*
X93489484Y-139058657D01*
X93181285Y-139152148D01*
X92897248Y-139303969D01*
X92648286Y-139508286D01*
X92443969Y-139757249D01*
X92292148Y-140041286D01*
X92198657Y-140349485D01*
X92175000Y-140589679D01*
X91605360Y-140589679D01*
X91638819Y-140534970D01*
X91580987Y-140217847D01*
X91462398Y-139918100D01*
X91287610Y-139647248D01*
X91063340Y-139415700D01*
X90798206Y-139232354D01*
X90502398Y-139104256D01*
X90380434Y-139079876D01*
X90127000Y-139199223D01*
X89873000Y-139199223D01*
X89619566Y-139079876D01*
X89497602Y-139104256D01*
X89201794Y-139232354D01*
X88936660Y-139415700D01*
X88712390Y-139647248D01*
X88537602Y-139918100D01*
X88419013Y-140217847D01*
X88361181Y-140534970D01*
X52127000Y-140534970D01*
X52127000Y-137992702D01*
X65686903Y-137992702D01*
X65758486Y-138236671D01*
X66013996Y-138357571D01*
X66288184Y-138426300D01*
X66570512Y-138440217D01*
X66850130Y-138398787D01*
X67116292Y-138303603D01*
X67241514Y-138236671D01*
X67313097Y-137992702D01*
X66500000Y-137179605D01*
X65686903Y-137992702D01*
X52127000Y-137992702D01*
X52127000Y-137070512D01*
X65059783Y-137070512D01*
X65101213Y-137350130D01*
X65196397Y-137616292D01*
X65263329Y-137741514D01*
X65507298Y-137813097D01*
X66320395Y-137000000D01*
X66679605Y-137000000D01*
X67492702Y-137813097D01*
X67736671Y-137741514D01*
X67857571Y-137486004D01*
X67926300Y-137211816D01*
X67940217Y-136929488D01*
X67898787Y-136649870D01*
X67803603Y-136383708D01*
X67736671Y-136258486D01*
X67492702Y-136186903D01*
X66679605Y-137000000D01*
X66320395Y-137000000D01*
X65507298Y-136186903D01*
X65263329Y-136258486D01*
X65142429Y-136513996D01*
X65073700Y-136788184D01*
X65059783Y-137070512D01*
X52127000Y-137070512D01*
X52127000Y-136007298D01*
X65686903Y-136007298D01*
X66500000Y-136820395D01*
X67313097Y-136007298D01*
X67241514Y-135763329D01*
X66986004Y-135642429D01*
X66711816Y-135573700D01*
X66429488Y-135559783D01*
X66149870Y-135601213D01*
X65883708Y-135696397D01*
X65758486Y-135763329D01*
X65686903Y-136007298D01*
X52127000Y-136007298D01*
X52127000Y-126698665D01*
X65065000Y-126698665D01*
X65065000Y-126981335D01*
X65120147Y-127258574D01*
X65228320Y-127519727D01*
X65385363Y-127754759D01*
X65585241Y-127954637D01*
X65820273Y-128111680D01*
X66081426Y-128219853D01*
X66358665Y-128275000D01*
X66641335Y-128275000D01*
X66918574Y-128219853D01*
X67179727Y-128111680D01*
X67414759Y-127954637D01*
X67614637Y-127754759D01*
X67771680Y-127519727D01*
X67879853Y-127258574D01*
X67935000Y-126981335D01*
X67935000Y-126698665D01*
X67879853Y-126421426D01*
X67771680Y-126160273D01*
X67697999Y-126050000D01*
X116731928Y-126050000D01*
X116731928Y-127750000D01*
X116744188Y-127874482D01*
X116780498Y-127994180D01*
X116839463Y-128104494D01*
X116918815Y-128201185D01*
X117015506Y-128280537D01*
X117125820Y-128339502D01*
X117245518Y-128375812D01*
X117370000Y-128388072D01*
X119070000Y-128388072D01*
X119194482Y-128375812D01*
X119314180Y-128339502D01*
X119424494Y-128280537D01*
X119521185Y-128201185D01*
X119600537Y-128104494D01*
X119659502Y-127994180D01*
X119681513Y-127921620D01*
X119813368Y-128053475D01*
X120056589Y-128215990D01*
X120326842Y-128327932D01*
X120613740Y-128385000D01*
X120906260Y-128385000D01*
X121193158Y-128327932D01*
X121463411Y-128215990D01*
X121706632Y-128053475D01*
X121913475Y-127846632D01*
X122030000Y-127672240D01*
X122146525Y-127846632D01*
X122353368Y-128053475D01*
X122596589Y-128215990D01*
X122866842Y-128327932D01*
X123153740Y-128385000D01*
X123446260Y-128385000D01*
X123733158Y-128327932D01*
X124003411Y-128215990D01*
X124246632Y-128053475D01*
X124453475Y-127846632D01*
X124570000Y-127672240D01*
X124686525Y-127846632D01*
X124893368Y-128053475D01*
X125136589Y-128215990D01*
X125406842Y-128327932D01*
X125693740Y-128385000D01*
X125986260Y-128385000D01*
X126273158Y-128327932D01*
X126543411Y-128215990D01*
X126786632Y-128053475D01*
X126993475Y-127846632D01*
X127110000Y-127672240D01*
X127226525Y-127846632D01*
X127433368Y-128053475D01*
X127676589Y-128215990D01*
X127946842Y-128327932D01*
X128233740Y-128385000D01*
X128526260Y-128385000D01*
X128813158Y-128327932D01*
X129083411Y-128215990D01*
X129326632Y-128053475D01*
X129533475Y-127846632D01*
X129650000Y-127672240D01*
X129766525Y-127846632D01*
X129973368Y-128053475D01*
X130216589Y-128215990D01*
X130486842Y-128327932D01*
X130773740Y-128385000D01*
X131066260Y-128385000D01*
X131353158Y-128327932D01*
X131623411Y-128215990D01*
X131866632Y-128053475D01*
X132073475Y-127846632D01*
X132190000Y-127672240D01*
X132306525Y-127846632D01*
X132513368Y-128053475D01*
X132756589Y-128215990D01*
X133026842Y-128327932D01*
X133313740Y-128385000D01*
X133606260Y-128385000D01*
X133893158Y-128327932D01*
X134163411Y-128215990D01*
X134406632Y-128053475D01*
X134613475Y-127846632D01*
X134730000Y-127672240D01*
X134846525Y-127846632D01*
X135053368Y-128053475D01*
X135296589Y-128215990D01*
X135566842Y-128327932D01*
X135853740Y-128385000D01*
X136146260Y-128385000D01*
X136433158Y-128327932D01*
X136703411Y-128215990D01*
X136946632Y-128053475D01*
X137153475Y-127846632D01*
X137270000Y-127672240D01*
X137386525Y-127846632D01*
X137593368Y-128053475D01*
X137836589Y-128215990D01*
X138106842Y-128327932D01*
X138393740Y-128385000D01*
X138686260Y-128385000D01*
X138973158Y-128327932D01*
X139243411Y-128215990D01*
X139486632Y-128053475D01*
X139693475Y-127846632D01*
X139815195Y-127664466D01*
X139884822Y-127781355D01*
X140079731Y-127997588D01*
X140313080Y-128171641D01*
X140575901Y-128296825D01*
X140723110Y-128341476D01*
X140953000Y-128220155D01*
X140953000Y-127027000D01*
X140933000Y-127027000D01*
X140933000Y-126773000D01*
X140953000Y-126773000D01*
X140953000Y-125579845D01*
X140723110Y-125458524D01*
X140575901Y-125503175D01*
X140313080Y-125628359D01*
X140079731Y-125802412D01*
X139884822Y-126018645D01*
X139815195Y-126135534D01*
X139693475Y-125953368D01*
X139486632Y-125746525D01*
X139243411Y-125584010D01*
X138973158Y-125472068D01*
X138686260Y-125415000D01*
X138393740Y-125415000D01*
X138106842Y-125472068D01*
X137836589Y-125584010D01*
X137593368Y-125746525D01*
X137386525Y-125953368D01*
X137270000Y-126127760D01*
X137153475Y-125953368D01*
X136946632Y-125746525D01*
X136703411Y-125584010D01*
X136433158Y-125472068D01*
X136146260Y-125415000D01*
X135853740Y-125415000D01*
X135566842Y-125472068D01*
X135296589Y-125584010D01*
X135053368Y-125746525D01*
X134846525Y-125953368D01*
X134730000Y-126127760D01*
X134613475Y-125953368D01*
X134406632Y-125746525D01*
X134163411Y-125584010D01*
X133893158Y-125472068D01*
X133606260Y-125415000D01*
X133313740Y-125415000D01*
X133026842Y-125472068D01*
X132756589Y-125584010D01*
X132513368Y-125746525D01*
X132306525Y-125953368D01*
X132190000Y-126127760D01*
X132073475Y-125953368D01*
X131866632Y-125746525D01*
X131623411Y-125584010D01*
X131353158Y-125472068D01*
X131066260Y-125415000D01*
X130773740Y-125415000D01*
X130486842Y-125472068D01*
X130216589Y-125584010D01*
X129973368Y-125746525D01*
X129766525Y-125953368D01*
X129650000Y-126127760D01*
X129533475Y-125953368D01*
X129326632Y-125746525D01*
X129083411Y-125584010D01*
X128813158Y-125472068D01*
X128526260Y-125415000D01*
X128233740Y-125415000D01*
X127946842Y-125472068D01*
X127676589Y-125584010D01*
X127433368Y-125746525D01*
X127226525Y-125953368D01*
X127110000Y-126127760D01*
X126993475Y-125953368D01*
X126786632Y-125746525D01*
X126543411Y-125584010D01*
X126273158Y-125472068D01*
X125986260Y-125415000D01*
X125693740Y-125415000D01*
X125406842Y-125472068D01*
X125136589Y-125584010D01*
X124893368Y-125746525D01*
X124686525Y-125953368D01*
X124570000Y-126127760D01*
X124453475Y-125953368D01*
X124246632Y-125746525D01*
X124003411Y-125584010D01*
X123733158Y-125472068D01*
X123446260Y-125415000D01*
X123153740Y-125415000D01*
X122866842Y-125472068D01*
X122596589Y-125584010D01*
X122353368Y-125746525D01*
X122146525Y-125953368D01*
X122030000Y-126127760D01*
X121913475Y-125953368D01*
X121706632Y-125746525D01*
X121463411Y-125584010D01*
X121193158Y-125472068D01*
X120906260Y-125415000D01*
X120613740Y-125415000D01*
X120326842Y-125472068D01*
X120056589Y-125584010D01*
X119813368Y-125746525D01*
X119681513Y-125878380D01*
X119659502Y-125805820D01*
X119600537Y-125695506D01*
X119521185Y-125598815D01*
X119424494Y-125519463D01*
X119314180Y-125460498D01*
X119194482Y-125424188D01*
X119070000Y-125411928D01*
X117370000Y-125411928D01*
X117245518Y-125424188D01*
X117125820Y-125460498D01*
X117015506Y-125519463D01*
X116918815Y-125598815D01*
X116839463Y-125695506D01*
X116780498Y-125805820D01*
X116744188Y-125925518D01*
X116731928Y-126050000D01*
X67697999Y-126050000D01*
X67614637Y-125925241D01*
X67414759Y-125725363D01*
X67179727Y-125568320D01*
X66918574Y-125460147D01*
X66641335Y-125405000D01*
X66358665Y-125405000D01*
X66081426Y-125460147D01*
X65820273Y-125568320D01*
X65585241Y-125725363D01*
X65385363Y-125925241D01*
X65228320Y-126160273D01*
X65120147Y-126421426D01*
X65065000Y-126698665D01*
X52127000Y-126698665D01*
X52127000Y-122858665D01*
X59065000Y-122858665D01*
X59065000Y-123141335D01*
X59120147Y-123418574D01*
X59228320Y-123679727D01*
X59385363Y-123914759D01*
X59585241Y-124114637D01*
X59820273Y-124271680D01*
X60081426Y-124379853D01*
X60358665Y-124435000D01*
X60641335Y-124435000D01*
X60918574Y-124379853D01*
X61179727Y-124271680D01*
X61414759Y-124114637D01*
X61614637Y-123914759D01*
X61771680Y-123679727D01*
X61879853Y-123418574D01*
X61935000Y-123141335D01*
X61935000Y-122858665D01*
X61879853Y-122581426D01*
X61771680Y-122320273D01*
X61614637Y-122085241D01*
X61414759Y-121885363D01*
X61179727Y-121728320D01*
X60918574Y-121620147D01*
X60641335Y-121565000D01*
X60358665Y-121565000D01*
X60081426Y-121620147D01*
X59820273Y-121728320D01*
X59585241Y-121885363D01*
X59385363Y-122085241D01*
X59228320Y-122320273D01*
X59120147Y-122581426D01*
X59065000Y-122858665D01*
X52127000Y-122858665D01*
X52127000Y-120969039D01*
X65108096Y-120969039D01*
X65148754Y-121103087D01*
X65268963Y-121357420D01*
X65436481Y-121583414D01*
X65644869Y-121772385D01*
X65886119Y-121917070D01*
X66150960Y-122011909D01*
X66373000Y-121890624D01*
X66373000Y-120747000D01*
X66627000Y-120747000D01*
X66627000Y-121890624D01*
X66849040Y-122011909D01*
X67113881Y-121917070D01*
X67355131Y-121772385D01*
X67563519Y-121583414D01*
X67731037Y-121357420D01*
X67851246Y-121103087D01*
X67891904Y-120969039D01*
X67769915Y-120747000D01*
X66627000Y-120747000D01*
X66373000Y-120747000D01*
X65230085Y-120747000D01*
X65108096Y-120969039D01*
X52127000Y-120969039D01*
X52127000Y-117858665D01*
X59065000Y-117858665D01*
X59065000Y-118141335D01*
X59120147Y-118418574D01*
X59228320Y-118679727D01*
X59385363Y-118914759D01*
X59585241Y-119114637D01*
X59820273Y-119271680D01*
X60081426Y-119379853D01*
X60358665Y-119435000D01*
X60641335Y-119435000D01*
X60918574Y-119379853D01*
X61179727Y-119271680D01*
X61414759Y-119114637D01*
X61614637Y-118914759D01*
X61771680Y-118679727D01*
X61879853Y-118418574D01*
X61935000Y-118141335D01*
X61935000Y-117858665D01*
X61879853Y-117581426D01*
X61771680Y-117320273D01*
X61614637Y-117085241D01*
X61414759Y-116885363D01*
X61179727Y-116728320D01*
X60918574Y-116620147D01*
X60641335Y-116565000D01*
X60358665Y-116565000D01*
X60081426Y-116620147D01*
X59820273Y-116728320D01*
X59585241Y-116885363D01*
X59385363Y-117085241D01*
X59228320Y-117320273D01*
X59120147Y-117581426D01*
X59065000Y-117858665D01*
X52127000Y-117858665D01*
X52127000Y-112858665D01*
X59065000Y-112858665D01*
X59065000Y-113141335D01*
X59120147Y-113418574D01*
X59228320Y-113679727D01*
X59385363Y-113914759D01*
X59585241Y-114114637D01*
X59820273Y-114271680D01*
X60081426Y-114379853D01*
X60358665Y-114435000D01*
X60641335Y-114435000D01*
X60918574Y-114379853D01*
X61179727Y-114271680D01*
X61414759Y-114114637D01*
X61614637Y-113914759D01*
X61771680Y-113679727D01*
X61879853Y-113418574D01*
X61935000Y-113141335D01*
X61935000Y-112858665D01*
X61879853Y-112581426D01*
X61771680Y-112320273D01*
X61691317Y-112200000D01*
X65061928Y-112200000D01*
X65061928Y-113800000D01*
X65074188Y-113924482D01*
X65110498Y-114044180D01*
X65169463Y-114154494D01*
X65248815Y-114251185D01*
X65345506Y-114330537D01*
X65455820Y-114389502D01*
X65575518Y-114425812D01*
X65583961Y-114426643D01*
X65385363Y-114625241D01*
X65228320Y-114860273D01*
X65120147Y-115121426D01*
X65065000Y-115398665D01*
X65065000Y-115681335D01*
X65120147Y-115958574D01*
X65228320Y-116219727D01*
X65385363Y-116454759D01*
X65585241Y-116654637D01*
X65817759Y-116810000D01*
X65585241Y-116965363D01*
X65385363Y-117165241D01*
X65228320Y-117400273D01*
X65120147Y-117661426D01*
X65065000Y-117938665D01*
X65065000Y-118221335D01*
X65120147Y-118498574D01*
X65228320Y-118759727D01*
X65385363Y-118994759D01*
X65585241Y-119194637D01*
X65820273Y-119351680D01*
X65830865Y-119356067D01*
X65644869Y-119467615D01*
X65436481Y-119656586D01*
X65268963Y-119882580D01*
X65148754Y-120136913D01*
X65108096Y-120270961D01*
X65230085Y-120493000D01*
X66373000Y-120493000D01*
X66373000Y-120473000D01*
X66627000Y-120473000D01*
X66627000Y-120493000D01*
X67769915Y-120493000D01*
X67891904Y-120270961D01*
X67851246Y-120136913D01*
X67731037Y-119882580D01*
X67563519Y-119656586D01*
X67355131Y-119467615D01*
X67169135Y-119356067D01*
X67179727Y-119351680D01*
X67414759Y-119194637D01*
X67614637Y-118994759D01*
X67771680Y-118759727D01*
X67879853Y-118498574D01*
X67935000Y-118221335D01*
X67935000Y-117938665D01*
X67879853Y-117661426D01*
X67771680Y-117400273D01*
X67614637Y-117165241D01*
X67414759Y-116965363D01*
X67182241Y-116810000D01*
X67414759Y-116654637D01*
X67614637Y-116454759D01*
X67771680Y-116219727D01*
X67879853Y-115958574D01*
X67935000Y-115681335D01*
X67935000Y-115398665D01*
X67879853Y-115121426D01*
X67771680Y-114860273D01*
X67614637Y-114625241D01*
X67416039Y-114426643D01*
X67424482Y-114425812D01*
X67544180Y-114389502D01*
X67654494Y-114330537D01*
X67751185Y-114251185D01*
X67830537Y-114154494D01*
X67889502Y-114044180D01*
X67925812Y-113924482D01*
X67938072Y-113800000D01*
X67938072Y-112200000D01*
X67925812Y-112075518D01*
X67889502Y-111955820D01*
X67830537Y-111845506D01*
X67751185Y-111748815D01*
X67654494Y-111669463D01*
X67544180Y-111610498D01*
X67424482Y-111574188D01*
X67300000Y-111561928D01*
X65700000Y-111561928D01*
X65575518Y-111574188D01*
X65455820Y-111610498D01*
X65345506Y-111669463D01*
X65248815Y-111748815D01*
X65169463Y-111845506D01*
X65110498Y-111955820D01*
X65074188Y-112075518D01*
X65061928Y-112200000D01*
X61691317Y-112200000D01*
X61614637Y-112085241D01*
X61414759Y-111885363D01*
X61179727Y-111728320D01*
X60918574Y-111620147D01*
X60641335Y-111565000D01*
X60358665Y-111565000D01*
X60081426Y-111620147D01*
X59820273Y-111728320D01*
X59585241Y-111885363D01*
X59385363Y-112085241D01*
X59228320Y-112320273D01*
X59120147Y-112581426D01*
X59065000Y-112858665D01*
X52127000Y-112858665D01*
X52127000Y-102698665D01*
X59065000Y-102698665D01*
X59065000Y-102981335D01*
X59120147Y-103258574D01*
X59228320Y-103519727D01*
X59385363Y-103754759D01*
X59585241Y-103954637D01*
X59820273Y-104111680D01*
X60081426Y-104219853D01*
X60358665Y-104275000D01*
X60641335Y-104275000D01*
X60918574Y-104219853D01*
X61179727Y-104111680D01*
X61414759Y-103954637D01*
X61614637Y-103754759D01*
X61771680Y-103519727D01*
X61879853Y-103258574D01*
X61935000Y-102981335D01*
X61935000Y-102698665D01*
X61879853Y-102421426D01*
X61771680Y-102160273D01*
X61614637Y-101925241D01*
X61414759Y-101725363D01*
X61179727Y-101568320D01*
X60918574Y-101460147D01*
X60641335Y-101405000D01*
X60358665Y-101405000D01*
X60081426Y-101460147D01*
X59820273Y-101568320D01*
X59585241Y-101725363D01*
X59385363Y-101925241D01*
X59228320Y-102160273D01*
X59120147Y-102421426D01*
X59065000Y-102698665D01*
X52127000Y-102698665D01*
X52127000Y-92127000D01*
X59286322Y-92127000D01*
X59198815Y-92198815D01*
M02*
