G04 #@! TF.GenerationSoftware,KiCad,Pcbnew,(5.1.5)-3*
G04 #@! TF.CreationDate,2020-07-31T11:24:54+01:00*
G04 #@! TF.ProjectId,SCART_to_GBS8200,53434152-545f-4746-9f5f-474253383230,rev?*
G04 #@! TF.SameCoordinates,Original*
G04 #@! TF.FileFunction,Soldermask,Bot*
G04 #@! TF.FilePolarity,Negative*
%FSLAX46Y46*%
G04 Gerber Fmt 4.6, Leading zero omitted, Abs format (unit mm)*
G04 Created by KiCad (PCBNEW (5.1.5)-3) date 2020-07-31 11:24:54*
%MOMM*%
%LPD*%
G04 APERTURE LIST*
%ADD10C,0.150000*%
G04 APERTURE END LIST*
D10*
G36*
X92111031Y-144714207D02*
G01*
X92309145Y-144774305D01*
X92309148Y-144774306D01*
X92375030Y-144809521D01*
X92491729Y-144871897D01*
X92651765Y-145003235D01*
X92783103Y-145163271D01*
X92783104Y-145163273D01*
X92880694Y-145345851D01*
X92880694Y-145345852D01*
X92880695Y-145345854D01*
X92940793Y-145543968D01*
X92956000Y-145698370D01*
X92956000Y-146301629D01*
X92940793Y-146456031D01*
X92880695Y-146654145D01*
X92880694Y-146654148D01*
X92828940Y-146750974D01*
X92783103Y-146836729D01*
X92651765Y-146996765D01*
X92491729Y-147128103D01*
X92405975Y-147173939D01*
X92309149Y-147225694D01*
X92309146Y-147225695D01*
X92111032Y-147285793D01*
X91905000Y-147306085D01*
X91698969Y-147285793D01*
X91500855Y-147225695D01*
X91500852Y-147225694D01*
X91404026Y-147173939D01*
X91318272Y-147128103D01*
X91158236Y-146996765D01*
X91026898Y-146836729D01*
X90929306Y-146654148D01*
X90929305Y-146654147D01*
X90909272Y-146588108D01*
X90869207Y-146456032D01*
X90854000Y-146301630D01*
X90854000Y-145698371D01*
X90869207Y-145543969D01*
X90929305Y-145345855D01*
X90929306Y-145345852D01*
X90964521Y-145279970D01*
X91026897Y-145163271D01*
X91158235Y-145003235D01*
X91318271Y-144871897D01*
X91404025Y-144826061D01*
X91500851Y-144774306D01*
X91500854Y-144774305D01*
X91698968Y-144714207D01*
X91905000Y-144693915D01*
X92111031Y-144714207D01*
G37*
G36*
X95921031Y-144714207D02*
G01*
X96119145Y-144774305D01*
X96119148Y-144774306D01*
X96185030Y-144809521D01*
X96301729Y-144871897D01*
X96461765Y-145003235D01*
X96593103Y-145163271D01*
X96593104Y-145163273D01*
X96690694Y-145345851D01*
X96690694Y-145345852D01*
X96690695Y-145345854D01*
X96750793Y-145543968D01*
X96766000Y-145698370D01*
X96766000Y-146301629D01*
X96750793Y-146456031D01*
X96690695Y-146654145D01*
X96690694Y-146654148D01*
X96638940Y-146750974D01*
X96593103Y-146836729D01*
X96461765Y-146996765D01*
X96301729Y-147128103D01*
X96215975Y-147173939D01*
X96119149Y-147225694D01*
X96119146Y-147225695D01*
X95921032Y-147285793D01*
X95715000Y-147306085D01*
X95508969Y-147285793D01*
X95310855Y-147225695D01*
X95310852Y-147225694D01*
X95214026Y-147173939D01*
X95128272Y-147128103D01*
X94968236Y-146996765D01*
X94836898Y-146836729D01*
X94739306Y-146654148D01*
X94739305Y-146654147D01*
X94719272Y-146588108D01*
X94679207Y-146456032D01*
X94664000Y-146301630D01*
X94664000Y-145698371D01*
X94679207Y-145543969D01*
X94739305Y-145345855D01*
X94739306Y-145345852D01*
X94774521Y-145279970D01*
X94836897Y-145163271D01*
X94968235Y-145003235D01*
X95128271Y-144871897D01*
X95214025Y-144826061D01*
X95310851Y-144774306D01*
X95310854Y-144774305D01*
X95508968Y-144714207D01*
X95715000Y-144693915D01*
X95921031Y-144714207D01*
G37*
G36*
X126401031Y-144714207D02*
G01*
X126599145Y-144774305D01*
X126599148Y-144774306D01*
X126665030Y-144809521D01*
X126781729Y-144871897D01*
X126941765Y-145003235D01*
X127073103Y-145163271D01*
X127073104Y-145163273D01*
X127170694Y-145345851D01*
X127170694Y-145345852D01*
X127170695Y-145345854D01*
X127230793Y-145543968D01*
X127246000Y-145698370D01*
X127246000Y-146301629D01*
X127230793Y-146456031D01*
X127170695Y-146654145D01*
X127170694Y-146654148D01*
X127118940Y-146750974D01*
X127073103Y-146836729D01*
X126941765Y-146996765D01*
X126781729Y-147128103D01*
X126695975Y-147173939D01*
X126599149Y-147225694D01*
X126599146Y-147225695D01*
X126401032Y-147285793D01*
X126195000Y-147306085D01*
X125988969Y-147285793D01*
X125790855Y-147225695D01*
X125790852Y-147225694D01*
X125694026Y-147173939D01*
X125608272Y-147128103D01*
X125448236Y-146996765D01*
X125316898Y-146836729D01*
X125219306Y-146654148D01*
X125219305Y-146654147D01*
X125199272Y-146588108D01*
X125159207Y-146456032D01*
X125144000Y-146301630D01*
X125144000Y-145698371D01*
X125159207Y-145543969D01*
X125219305Y-145345855D01*
X125219306Y-145345852D01*
X125254521Y-145279970D01*
X125316897Y-145163271D01*
X125448235Y-145003235D01*
X125608271Y-144871897D01*
X125694025Y-144826061D01*
X125790851Y-144774306D01*
X125790854Y-144774305D01*
X125988968Y-144714207D01*
X126195000Y-144693915D01*
X126401031Y-144714207D01*
G37*
G36*
X122591031Y-144714207D02*
G01*
X122789145Y-144774305D01*
X122789148Y-144774306D01*
X122855030Y-144809521D01*
X122971729Y-144871897D01*
X123131765Y-145003235D01*
X123263103Y-145163271D01*
X123263104Y-145163273D01*
X123360694Y-145345851D01*
X123360694Y-145345852D01*
X123360695Y-145345854D01*
X123420793Y-145543968D01*
X123436000Y-145698370D01*
X123436000Y-146301629D01*
X123420793Y-146456031D01*
X123360695Y-146654145D01*
X123360694Y-146654148D01*
X123308940Y-146750974D01*
X123263103Y-146836729D01*
X123131765Y-146996765D01*
X122971729Y-147128103D01*
X122885975Y-147173939D01*
X122789149Y-147225694D01*
X122789146Y-147225695D01*
X122591032Y-147285793D01*
X122385000Y-147306085D01*
X122178969Y-147285793D01*
X121980855Y-147225695D01*
X121980852Y-147225694D01*
X121884026Y-147173939D01*
X121798272Y-147128103D01*
X121638236Y-146996765D01*
X121506898Y-146836729D01*
X121409306Y-146654148D01*
X121409305Y-146654147D01*
X121389272Y-146588108D01*
X121349207Y-146456032D01*
X121334000Y-146301630D01*
X121334000Y-145698371D01*
X121349207Y-145543969D01*
X121409305Y-145345855D01*
X121409306Y-145345852D01*
X121444521Y-145279970D01*
X121506897Y-145163271D01*
X121638235Y-145003235D01*
X121798271Y-144871897D01*
X121884025Y-144826061D01*
X121980851Y-144774306D01*
X121980854Y-144774305D01*
X122178968Y-144714207D01*
X122385000Y-144693915D01*
X122591031Y-144714207D01*
G37*
G36*
X118781031Y-144714207D02*
G01*
X118979145Y-144774305D01*
X118979148Y-144774306D01*
X119045030Y-144809521D01*
X119161729Y-144871897D01*
X119321765Y-145003235D01*
X119453103Y-145163271D01*
X119453104Y-145163273D01*
X119550694Y-145345851D01*
X119550694Y-145345852D01*
X119550695Y-145345854D01*
X119610793Y-145543968D01*
X119626000Y-145698370D01*
X119626000Y-146301629D01*
X119610793Y-146456031D01*
X119550695Y-146654145D01*
X119550694Y-146654148D01*
X119498940Y-146750974D01*
X119453103Y-146836729D01*
X119321765Y-146996765D01*
X119161729Y-147128103D01*
X119075975Y-147173939D01*
X118979149Y-147225694D01*
X118979146Y-147225695D01*
X118781032Y-147285793D01*
X118575000Y-147306085D01*
X118368969Y-147285793D01*
X118170855Y-147225695D01*
X118170852Y-147225694D01*
X118074026Y-147173939D01*
X117988272Y-147128103D01*
X117828236Y-146996765D01*
X117696898Y-146836729D01*
X117599306Y-146654148D01*
X117599305Y-146654147D01*
X117579272Y-146588108D01*
X117539207Y-146456032D01*
X117524000Y-146301630D01*
X117524000Y-145698371D01*
X117539207Y-145543969D01*
X117599305Y-145345855D01*
X117599306Y-145345852D01*
X117634521Y-145279970D01*
X117696897Y-145163271D01*
X117828235Y-145003235D01*
X117988271Y-144871897D01*
X118074025Y-144826061D01*
X118170851Y-144774306D01*
X118170854Y-144774305D01*
X118368968Y-144714207D01*
X118575000Y-144693915D01*
X118781031Y-144714207D01*
G37*
G36*
X114971031Y-144714207D02*
G01*
X115169145Y-144774305D01*
X115169148Y-144774306D01*
X115235030Y-144809521D01*
X115351729Y-144871897D01*
X115511765Y-145003235D01*
X115643103Y-145163271D01*
X115643104Y-145163273D01*
X115740694Y-145345851D01*
X115740694Y-145345852D01*
X115740695Y-145345854D01*
X115800793Y-145543968D01*
X115816000Y-145698370D01*
X115816000Y-146301629D01*
X115800793Y-146456031D01*
X115740695Y-146654145D01*
X115740694Y-146654148D01*
X115688940Y-146750974D01*
X115643103Y-146836729D01*
X115511765Y-146996765D01*
X115351729Y-147128103D01*
X115265975Y-147173939D01*
X115169149Y-147225694D01*
X115169146Y-147225695D01*
X114971032Y-147285793D01*
X114765000Y-147306085D01*
X114558969Y-147285793D01*
X114360855Y-147225695D01*
X114360852Y-147225694D01*
X114264026Y-147173939D01*
X114178272Y-147128103D01*
X114018236Y-146996765D01*
X113886898Y-146836729D01*
X113789306Y-146654148D01*
X113789305Y-146654147D01*
X113769272Y-146588108D01*
X113729207Y-146456032D01*
X113714000Y-146301630D01*
X113714000Y-145698371D01*
X113729207Y-145543969D01*
X113789305Y-145345855D01*
X113789306Y-145345852D01*
X113824521Y-145279970D01*
X113886897Y-145163271D01*
X114018235Y-145003235D01*
X114178271Y-144871897D01*
X114264025Y-144826061D01*
X114360851Y-144774306D01*
X114360854Y-144774305D01*
X114558968Y-144714207D01*
X114765000Y-144693915D01*
X114971031Y-144714207D01*
G37*
G36*
X107351031Y-144714207D02*
G01*
X107549145Y-144774305D01*
X107549148Y-144774306D01*
X107615030Y-144809521D01*
X107731729Y-144871897D01*
X107891765Y-145003235D01*
X108023103Y-145163271D01*
X108023104Y-145163273D01*
X108120694Y-145345851D01*
X108120694Y-145345852D01*
X108120695Y-145345854D01*
X108180793Y-145543968D01*
X108196000Y-145698370D01*
X108196000Y-146301629D01*
X108180793Y-146456031D01*
X108120695Y-146654145D01*
X108120694Y-146654148D01*
X108068940Y-146750974D01*
X108023103Y-146836729D01*
X107891765Y-146996765D01*
X107731729Y-147128103D01*
X107645975Y-147173939D01*
X107549149Y-147225694D01*
X107549146Y-147225695D01*
X107351032Y-147285793D01*
X107145000Y-147306085D01*
X106938969Y-147285793D01*
X106740855Y-147225695D01*
X106740852Y-147225694D01*
X106644026Y-147173939D01*
X106558272Y-147128103D01*
X106398236Y-146996765D01*
X106266898Y-146836729D01*
X106169306Y-146654148D01*
X106169305Y-146654147D01*
X106149272Y-146588108D01*
X106109207Y-146456032D01*
X106094000Y-146301630D01*
X106094000Y-145698371D01*
X106109207Y-145543969D01*
X106169305Y-145345855D01*
X106169306Y-145345852D01*
X106204521Y-145279970D01*
X106266897Y-145163271D01*
X106398235Y-145003235D01*
X106558271Y-144871897D01*
X106644025Y-144826061D01*
X106740851Y-144774306D01*
X106740854Y-144774305D01*
X106938968Y-144714207D01*
X107145000Y-144693915D01*
X107351031Y-144714207D01*
G37*
G36*
X103541031Y-144714207D02*
G01*
X103739145Y-144774305D01*
X103739148Y-144774306D01*
X103805030Y-144809521D01*
X103921729Y-144871897D01*
X104081765Y-145003235D01*
X104213103Y-145163271D01*
X104213104Y-145163273D01*
X104310694Y-145345851D01*
X104310694Y-145345852D01*
X104310695Y-145345854D01*
X104370793Y-145543968D01*
X104386000Y-145698370D01*
X104386000Y-146301629D01*
X104370793Y-146456031D01*
X104310695Y-146654145D01*
X104310694Y-146654148D01*
X104258940Y-146750974D01*
X104213103Y-146836729D01*
X104081765Y-146996765D01*
X103921729Y-147128103D01*
X103835975Y-147173939D01*
X103739149Y-147225694D01*
X103739146Y-147225695D01*
X103541032Y-147285793D01*
X103335000Y-147306085D01*
X103128969Y-147285793D01*
X102930855Y-147225695D01*
X102930852Y-147225694D01*
X102834026Y-147173939D01*
X102748272Y-147128103D01*
X102588236Y-146996765D01*
X102456898Y-146836729D01*
X102359306Y-146654148D01*
X102359305Y-146654147D01*
X102339272Y-146588108D01*
X102299207Y-146456032D01*
X102284000Y-146301630D01*
X102284000Y-145698371D01*
X102299207Y-145543969D01*
X102359305Y-145345855D01*
X102359306Y-145345852D01*
X102394521Y-145279970D01*
X102456897Y-145163271D01*
X102588235Y-145003235D01*
X102748271Y-144871897D01*
X102834025Y-144826061D01*
X102930851Y-144774306D01*
X102930854Y-144774305D01*
X103128968Y-144714207D01*
X103335000Y-144693915D01*
X103541031Y-144714207D01*
G37*
G36*
X99731031Y-144714207D02*
G01*
X99929145Y-144774305D01*
X99929148Y-144774306D01*
X99995030Y-144809521D01*
X100111729Y-144871897D01*
X100271765Y-145003235D01*
X100403103Y-145163271D01*
X100403104Y-145163273D01*
X100500694Y-145345851D01*
X100500694Y-145345852D01*
X100500695Y-145345854D01*
X100560793Y-145543968D01*
X100576000Y-145698370D01*
X100576000Y-146301629D01*
X100560793Y-146456031D01*
X100500695Y-146654145D01*
X100500694Y-146654148D01*
X100448940Y-146750974D01*
X100403103Y-146836729D01*
X100271765Y-146996765D01*
X100111729Y-147128103D01*
X100025975Y-147173939D01*
X99929149Y-147225694D01*
X99929146Y-147225695D01*
X99731032Y-147285793D01*
X99525000Y-147306085D01*
X99318969Y-147285793D01*
X99120855Y-147225695D01*
X99120852Y-147225694D01*
X99024026Y-147173939D01*
X98938272Y-147128103D01*
X98778236Y-146996765D01*
X98646898Y-146836729D01*
X98549306Y-146654148D01*
X98549305Y-146654147D01*
X98529272Y-146588108D01*
X98489207Y-146456032D01*
X98474000Y-146301630D01*
X98474000Y-145698371D01*
X98489207Y-145543969D01*
X98549305Y-145345855D01*
X98549306Y-145345852D01*
X98584521Y-145279970D01*
X98646897Y-145163271D01*
X98778235Y-145003235D01*
X98938271Y-144871897D01*
X99024025Y-144826061D01*
X99120851Y-144774306D01*
X99120854Y-144774305D01*
X99318968Y-144714207D01*
X99525000Y-144693915D01*
X99731031Y-144714207D01*
G37*
G36*
X111161031Y-144714207D02*
G01*
X111359145Y-144774305D01*
X111359148Y-144774306D01*
X111425030Y-144809521D01*
X111541729Y-144871897D01*
X111701765Y-145003235D01*
X111833103Y-145163271D01*
X111833104Y-145163273D01*
X111930694Y-145345851D01*
X111930694Y-145345852D01*
X111930695Y-145345854D01*
X111990793Y-145543968D01*
X112006000Y-145698370D01*
X112006000Y-146301629D01*
X111990793Y-146456031D01*
X111930695Y-146654145D01*
X111930694Y-146654148D01*
X111878940Y-146750974D01*
X111833103Y-146836729D01*
X111701765Y-146996765D01*
X111541729Y-147128103D01*
X111455975Y-147173939D01*
X111359149Y-147225694D01*
X111359146Y-147225695D01*
X111161032Y-147285793D01*
X110955000Y-147306085D01*
X110748969Y-147285793D01*
X110550855Y-147225695D01*
X110550852Y-147225694D01*
X110454026Y-147173939D01*
X110368272Y-147128103D01*
X110208236Y-146996765D01*
X110076898Y-146836729D01*
X109979306Y-146654148D01*
X109979305Y-146654147D01*
X109959272Y-146588108D01*
X109919207Y-146456032D01*
X109904000Y-146301630D01*
X109904000Y-145698371D01*
X109919207Y-145543969D01*
X109979305Y-145345855D01*
X109979306Y-145345852D01*
X110014521Y-145279970D01*
X110076897Y-145163271D01*
X110208235Y-145003235D01*
X110368271Y-144871897D01*
X110454025Y-144826061D01*
X110550851Y-144774306D01*
X110550854Y-144774305D01*
X110748968Y-144714207D01*
X110955000Y-144693915D01*
X111161031Y-144714207D01*
G37*
G36*
X90206031Y-139634207D02*
G01*
X90404145Y-139694305D01*
X90404148Y-139694306D01*
X90470030Y-139729521D01*
X90586729Y-139791897D01*
X90746765Y-139923235D01*
X90878103Y-140083271D01*
X90878104Y-140083273D01*
X90975694Y-140265851D01*
X90975694Y-140265852D01*
X90975695Y-140265854D01*
X91035793Y-140463968D01*
X91051000Y-140618370D01*
X91051000Y-141221629D01*
X91035793Y-141376031D01*
X90975695Y-141574145D01*
X90975694Y-141574148D01*
X90923940Y-141670974D01*
X90878103Y-141756729D01*
X90746765Y-141916765D01*
X90586729Y-142048103D01*
X90500975Y-142093939D01*
X90404149Y-142145694D01*
X90404146Y-142145695D01*
X90206032Y-142205793D01*
X90000000Y-142226085D01*
X89793969Y-142205793D01*
X89595855Y-142145695D01*
X89595852Y-142145694D01*
X89499026Y-142093939D01*
X89413272Y-142048103D01*
X89253236Y-141916765D01*
X89121898Y-141756729D01*
X89024306Y-141574148D01*
X89024305Y-141574147D01*
X89004272Y-141508108D01*
X88964207Y-141376032D01*
X88949000Y-141221630D01*
X88949000Y-140618371D01*
X88964207Y-140463969D01*
X89024305Y-140265855D01*
X89024306Y-140265852D01*
X89059521Y-140199970D01*
X89121897Y-140083271D01*
X89253235Y-139923235D01*
X89413271Y-139791897D01*
X89499025Y-139746061D01*
X89595851Y-139694306D01*
X89595854Y-139694305D01*
X89793968Y-139634207D01*
X90000000Y-139613915D01*
X90206031Y-139634207D01*
G37*
G36*
X97826031Y-139634207D02*
G01*
X98024145Y-139694305D01*
X98024148Y-139694306D01*
X98090030Y-139729521D01*
X98206729Y-139791897D01*
X98366765Y-139923235D01*
X98498103Y-140083271D01*
X98498104Y-140083273D01*
X98595694Y-140265851D01*
X98595694Y-140265852D01*
X98595695Y-140265854D01*
X98655793Y-140463968D01*
X98671000Y-140618370D01*
X98671000Y-141221629D01*
X98655793Y-141376031D01*
X98595695Y-141574145D01*
X98595694Y-141574148D01*
X98543940Y-141670974D01*
X98498103Y-141756729D01*
X98366765Y-141916765D01*
X98206729Y-142048103D01*
X98120975Y-142093939D01*
X98024149Y-142145694D01*
X98024146Y-142145695D01*
X97826032Y-142205793D01*
X97620000Y-142226085D01*
X97413969Y-142205793D01*
X97215855Y-142145695D01*
X97215852Y-142145694D01*
X97119026Y-142093939D01*
X97033272Y-142048103D01*
X96873236Y-141916765D01*
X96741898Y-141756729D01*
X96644306Y-141574148D01*
X96644305Y-141574147D01*
X96624272Y-141508108D01*
X96584207Y-141376032D01*
X96569000Y-141221630D01*
X96569000Y-140618371D01*
X96584207Y-140463969D01*
X96644305Y-140265855D01*
X96644306Y-140265852D01*
X96679521Y-140199970D01*
X96741897Y-140083271D01*
X96873235Y-139923235D01*
X97033271Y-139791897D01*
X97119025Y-139746061D01*
X97215851Y-139694306D01*
X97215854Y-139694305D01*
X97413968Y-139634207D01*
X97620000Y-139613915D01*
X97826031Y-139634207D01*
G37*
G36*
X101636031Y-139634207D02*
G01*
X101834145Y-139694305D01*
X101834148Y-139694306D01*
X101900030Y-139729521D01*
X102016729Y-139791897D01*
X102176765Y-139923235D01*
X102308103Y-140083271D01*
X102308104Y-140083273D01*
X102405694Y-140265851D01*
X102405694Y-140265852D01*
X102405695Y-140265854D01*
X102465793Y-140463968D01*
X102481000Y-140618370D01*
X102481000Y-141221629D01*
X102465793Y-141376031D01*
X102405695Y-141574145D01*
X102405694Y-141574148D01*
X102353940Y-141670974D01*
X102308103Y-141756729D01*
X102176765Y-141916765D01*
X102016729Y-142048103D01*
X101930975Y-142093939D01*
X101834149Y-142145694D01*
X101834146Y-142145695D01*
X101636032Y-142205793D01*
X101430000Y-142226085D01*
X101223969Y-142205793D01*
X101025855Y-142145695D01*
X101025852Y-142145694D01*
X100929026Y-142093939D01*
X100843272Y-142048103D01*
X100683236Y-141916765D01*
X100551898Y-141756729D01*
X100454306Y-141574148D01*
X100454305Y-141574147D01*
X100434272Y-141508108D01*
X100394207Y-141376032D01*
X100379000Y-141221630D01*
X100379000Y-140618371D01*
X100394207Y-140463969D01*
X100454305Y-140265855D01*
X100454306Y-140265852D01*
X100489521Y-140199970D01*
X100551897Y-140083271D01*
X100683235Y-139923235D01*
X100843271Y-139791897D01*
X100929025Y-139746061D01*
X101025851Y-139694306D01*
X101025854Y-139694305D01*
X101223968Y-139634207D01*
X101430000Y-139613915D01*
X101636031Y-139634207D01*
G37*
G36*
X94016031Y-139634207D02*
G01*
X94214145Y-139694305D01*
X94214148Y-139694306D01*
X94280030Y-139729521D01*
X94396729Y-139791897D01*
X94556765Y-139923235D01*
X94688103Y-140083271D01*
X94688104Y-140083273D01*
X94785694Y-140265851D01*
X94785694Y-140265852D01*
X94785695Y-140265854D01*
X94845793Y-140463968D01*
X94861000Y-140618370D01*
X94861000Y-141221629D01*
X94845793Y-141376031D01*
X94785695Y-141574145D01*
X94785694Y-141574148D01*
X94733940Y-141670974D01*
X94688103Y-141756729D01*
X94556765Y-141916765D01*
X94396729Y-142048103D01*
X94310975Y-142093939D01*
X94214149Y-142145694D01*
X94214146Y-142145695D01*
X94016032Y-142205793D01*
X93810000Y-142226085D01*
X93603969Y-142205793D01*
X93405855Y-142145695D01*
X93405852Y-142145694D01*
X93309026Y-142093939D01*
X93223272Y-142048103D01*
X93063236Y-141916765D01*
X92931898Y-141756729D01*
X92834306Y-141574148D01*
X92834305Y-141574147D01*
X92814272Y-141508108D01*
X92774207Y-141376032D01*
X92759000Y-141221630D01*
X92759000Y-140618371D01*
X92774207Y-140463969D01*
X92834305Y-140265855D01*
X92834306Y-140265852D01*
X92869521Y-140199970D01*
X92931897Y-140083271D01*
X93063235Y-139923235D01*
X93223271Y-139791897D01*
X93309025Y-139746061D01*
X93405851Y-139694306D01*
X93405854Y-139694305D01*
X93603968Y-139634207D01*
X93810000Y-139613915D01*
X94016031Y-139634207D01*
G37*
G36*
X128306031Y-139634207D02*
G01*
X128504145Y-139694305D01*
X128504148Y-139694306D01*
X128570030Y-139729521D01*
X128686729Y-139791897D01*
X128846765Y-139923235D01*
X128978103Y-140083271D01*
X128978104Y-140083273D01*
X129075694Y-140265851D01*
X129075694Y-140265852D01*
X129075695Y-140265854D01*
X129135793Y-140463968D01*
X129151000Y-140618370D01*
X129151000Y-141221629D01*
X129135793Y-141376031D01*
X129075695Y-141574145D01*
X129075694Y-141574148D01*
X129023940Y-141670974D01*
X128978103Y-141756729D01*
X128846765Y-141916765D01*
X128686729Y-142048103D01*
X128600975Y-142093939D01*
X128504149Y-142145694D01*
X128504146Y-142145695D01*
X128306032Y-142205793D01*
X128100000Y-142226085D01*
X127893969Y-142205793D01*
X127695855Y-142145695D01*
X127695852Y-142145694D01*
X127599026Y-142093939D01*
X127513272Y-142048103D01*
X127353236Y-141916765D01*
X127221898Y-141756729D01*
X127124306Y-141574148D01*
X127124305Y-141574147D01*
X127104272Y-141508108D01*
X127064207Y-141376032D01*
X127049000Y-141221630D01*
X127049000Y-140618371D01*
X127064207Y-140463969D01*
X127124305Y-140265855D01*
X127124306Y-140265852D01*
X127159521Y-140199970D01*
X127221897Y-140083271D01*
X127353235Y-139923235D01*
X127513271Y-139791897D01*
X127599025Y-139746061D01*
X127695851Y-139694306D01*
X127695854Y-139694305D01*
X127893968Y-139634207D01*
X128100000Y-139613915D01*
X128306031Y-139634207D01*
G37*
G36*
X124496031Y-139634207D02*
G01*
X124694145Y-139694305D01*
X124694148Y-139694306D01*
X124760030Y-139729521D01*
X124876729Y-139791897D01*
X125036765Y-139923235D01*
X125168103Y-140083271D01*
X125168104Y-140083273D01*
X125265694Y-140265851D01*
X125265694Y-140265852D01*
X125265695Y-140265854D01*
X125325793Y-140463968D01*
X125341000Y-140618370D01*
X125341000Y-141221629D01*
X125325793Y-141376031D01*
X125265695Y-141574145D01*
X125265694Y-141574148D01*
X125213940Y-141670974D01*
X125168103Y-141756729D01*
X125036765Y-141916765D01*
X124876729Y-142048103D01*
X124790975Y-142093939D01*
X124694149Y-142145694D01*
X124694146Y-142145695D01*
X124496032Y-142205793D01*
X124290000Y-142226085D01*
X124083969Y-142205793D01*
X123885855Y-142145695D01*
X123885852Y-142145694D01*
X123789026Y-142093939D01*
X123703272Y-142048103D01*
X123543236Y-141916765D01*
X123411898Y-141756729D01*
X123314306Y-141574148D01*
X123314305Y-141574147D01*
X123294272Y-141508108D01*
X123254207Y-141376032D01*
X123239000Y-141221630D01*
X123239000Y-140618371D01*
X123254207Y-140463969D01*
X123314305Y-140265855D01*
X123314306Y-140265852D01*
X123349521Y-140199970D01*
X123411897Y-140083271D01*
X123543235Y-139923235D01*
X123703271Y-139791897D01*
X123789025Y-139746061D01*
X123885851Y-139694306D01*
X123885854Y-139694305D01*
X124083968Y-139634207D01*
X124290000Y-139613915D01*
X124496031Y-139634207D01*
G37*
G36*
X120686031Y-139634207D02*
G01*
X120884145Y-139694305D01*
X120884148Y-139694306D01*
X120950030Y-139729521D01*
X121066729Y-139791897D01*
X121226765Y-139923235D01*
X121358103Y-140083271D01*
X121358104Y-140083273D01*
X121455694Y-140265851D01*
X121455694Y-140265852D01*
X121455695Y-140265854D01*
X121515793Y-140463968D01*
X121531000Y-140618370D01*
X121531000Y-141221629D01*
X121515793Y-141376031D01*
X121455695Y-141574145D01*
X121455694Y-141574148D01*
X121403940Y-141670974D01*
X121358103Y-141756729D01*
X121226765Y-141916765D01*
X121066729Y-142048103D01*
X120980975Y-142093939D01*
X120884149Y-142145694D01*
X120884146Y-142145695D01*
X120686032Y-142205793D01*
X120480000Y-142226085D01*
X120273969Y-142205793D01*
X120075855Y-142145695D01*
X120075852Y-142145694D01*
X119979026Y-142093939D01*
X119893272Y-142048103D01*
X119733236Y-141916765D01*
X119601898Y-141756729D01*
X119504306Y-141574148D01*
X119504305Y-141574147D01*
X119484272Y-141508108D01*
X119444207Y-141376032D01*
X119429000Y-141221630D01*
X119429000Y-140618371D01*
X119444207Y-140463969D01*
X119504305Y-140265855D01*
X119504306Y-140265852D01*
X119539521Y-140199970D01*
X119601897Y-140083271D01*
X119733235Y-139923235D01*
X119893271Y-139791897D01*
X119979025Y-139746061D01*
X120075851Y-139694306D01*
X120075854Y-139694305D01*
X120273968Y-139634207D01*
X120480000Y-139613915D01*
X120686031Y-139634207D01*
G37*
G36*
X116876031Y-139634207D02*
G01*
X117074145Y-139694305D01*
X117074148Y-139694306D01*
X117140030Y-139729521D01*
X117256729Y-139791897D01*
X117416765Y-139923235D01*
X117548103Y-140083271D01*
X117548104Y-140083273D01*
X117645694Y-140265851D01*
X117645694Y-140265852D01*
X117645695Y-140265854D01*
X117705793Y-140463968D01*
X117721000Y-140618370D01*
X117721000Y-141221629D01*
X117705793Y-141376031D01*
X117645695Y-141574145D01*
X117645694Y-141574148D01*
X117593940Y-141670974D01*
X117548103Y-141756729D01*
X117416765Y-141916765D01*
X117256729Y-142048103D01*
X117170975Y-142093939D01*
X117074149Y-142145694D01*
X117074146Y-142145695D01*
X116876032Y-142205793D01*
X116670000Y-142226085D01*
X116463969Y-142205793D01*
X116265855Y-142145695D01*
X116265852Y-142145694D01*
X116169026Y-142093939D01*
X116083272Y-142048103D01*
X115923236Y-141916765D01*
X115791898Y-141756729D01*
X115694306Y-141574148D01*
X115694305Y-141574147D01*
X115674272Y-141508108D01*
X115634207Y-141376032D01*
X115619000Y-141221630D01*
X115619000Y-140618371D01*
X115634207Y-140463969D01*
X115694305Y-140265855D01*
X115694306Y-140265852D01*
X115729521Y-140199970D01*
X115791897Y-140083271D01*
X115923235Y-139923235D01*
X116083271Y-139791897D01*
X116169025Y-139746061D01*
X116265851Y-139694306D01*
X116265854Y-139694305D01*
X116463968Y-139634207D01*
X116670000Y-139613915D01*
X116876031Y-139634207D01*
G37*
G36*
X113066031Y-139634207D02*
G01*
X113264145Y-139694305D01*
X113264148Y-139694306D01*
X113330030Y-139729521D01*
X113446729Y-139791897D01*
X113606765Y-139923235D01*
X113738103Y-140083271D01*
X113738104Y-140083273D01*
X113835694Y-140265851D01*
X113835694Y-140265852D01*
X113835695Y-140265854D01*
X113895793Y-140463968D01*
X113911000Y-140618370D01*
X113911000Y-141221629D01*
X113895793Y-141376031D01*
X113835695Y-141574145D01*
X113835694Y-141574148D01*
X113783940Y-141670974D01*
X113738103Y-141756729D01*
X113606765Y-141916765D01*
X113446729Y-142048103D01*
X113360975Y-142093939D01*
X113264149Y-142145694D01*
X113264146Y-142145695D01*
X113066032Y-142205793D01*
X112860000Y-142226085D01*
X112653969Y-142205793D01*
X112455855Y-142145695D01*
X112455852Y-142145694D01*
X112359026Y-142093939D01*
X112273272Y-142048103D01*
X112113236Y-141916765D01*
X111981898Y-141756729D01*
X111884306Y-141574148D01*
X111884305Y-141574147D01*
X111864272Y-141508108D01*
X111824207Y-141376032D01*
X111809000Y-141221630D01*
X111809000Y-140618371D01*
X111824207Y-140463969D01*
X111884305Y-140265855D01*
X111884306Y-140265852D01*
X111919521Y-140199970D01*
X111981897Y-140083271D01*
X112113235Y-139923235D01*
X112273271Y-139791897D01*
X112359025Y-139746061D01*
X112455851Y-139694306D01*
X112455854Y-139694305D01*
X112653968Y-139634207D01*
X112860000Y-139613915D01*
X113066031Y-139634207D01*
G37*
G36*
X105446031Y-139634207D02*
G01*
X105644145Y-139694305D01*
X105644148Y-139694306D01*
X105710030Y-139729521D01*
X105826729Y-139791897D01*
X105986765Y-139923235D01*
X106118103Y-140083271D01*
X106118104Y-140083273D01*
X106215694Y-140265851D01*
X106215694Y-140265852D01*
X106215695Y-140265854D01*
X106275793Y-140463968D01*
X106291000Y-140618370D01*
X106291000Y-141221629D01*
X106275793Y-141376031D01*
X106215695Y-141574145D01*
X106215694Y-141574148D01*
X106163940Y-141670974D01*
X106118103Y-141756729D01*
X105986765Y-141916765D01*
X105826729Y-142048103D01*
X105740975Y-142093939D01*
X105644149Y-142145694D01*
X105644146Y-142145695D01*
X105446032Y-142205793D01*
X105240000Y-142226085D01*
X105033969Y-142205793D01*
X104835855Y-142145695D01*
X104835852Y-142145694D01*
X104739026Y-142093939D01*
X104653272Y-142048103D01*
X104493236Y-141916765D01*
X104361898Y-141756729D01*
X104264306Y-141574148D01*
X104264305Y-141574147D01*
X104244272Y-141508108D01*
X104204207Y-141376032D01*
X104189000Y-141221630D01*
X104189000Y-140618371D01*
X104204207Y-140463969D01*
X104264305Y-140265855D01*
X104264306Y-140265852D01*
X104299521Y-140199970D01*
X104361897Y-140083271D01*
X104493235Y-139923235D01*
X104653271Y-139791897D01*
X104739025Y-139746061D01*
X104835851Y-139694306D01*
X104835854Y-139694305D01*
X105033968Y-139634207D01*
X105240000Y-139613915D01*
X105446031Y-139634207D01*
G37*
G36*
X109256031Y-139634207D02*
G01*
X109454145Y-139694305D01*
X109454148Y-139694306D01*
X109520030Y-139729521D01*
X109636729Y-139791897D01*
X109796765Y-139923235D01*
X109928103Y-140083271D01*
X109928104Y-140083273D01*
X110025694Y-140265851D01*
X110025694Y-140265852D01*
X110025695Y-140265854D01*
X110085793Y-140463968D01*
X110101000Y-140618370D01*
X110101000Y-141221629D01*
X110085793Y-141376031D01*
X110025695Y-141574145D01*
X110025694Y-141574148D01*
X109973940Y-141670974D01*
X109928103Y-141756729D01*
X109796765Y-141916765D01*
X109636729Y-142048103D01*
X109550975Y-142093939D01*
X109454149Y-142145694D01*
X109454146Y-142145695D01*
X109256032Y-142205793D01*
X109050000Y-142226085D01*
X108843969Y-142205793D01*
X108645855Y-142145695D01*
X108645852Y-142145694D01*
X108549026Y-142093939D01*
X108463272Y-142048103D01*
X108303236Y-141916765D01*
X108171898Y-141756729D01*
X108074306Y-141574148D01*
X108074305Y-141574147D01*
X108054272Y-141508108D01*
X108014207Y-141376032D01*
X107999000Y-141221630D01*
X107999000Y-140618371D01*
X108014207Y-140463969D01*
X108074305Y-140265855D01*
X108074306Y-140265852D01*
X108109521Y-140199970D01*
X108171897Y-140083271D01*
X108303235Y-139923235D01*
X108463271Y-139791897D01*
X108549025Y-139746061D01*
X108645851Y-139694306D01*
X108645854Y-139694305D01*
X108843968Y-139634207D01*
X109050000Y-139613915D01*
X109256031Y-139634207D01*
G37*
G36*
X66748228Y-136181703D02*
G01*
X66903100Y-136245853D01*
X67042481Y-136338985D01*
X67161015Y-136457519D01*
X67254147Y-136596900D01*
X67318297Y-136751772D01*
X67351000Y-136916184D01*
X67351000Y-137083816D01*
X67318297Y-137248228D01*
X67254147Y-137403100D01*
X67161015Y-137542481D01*
X67042481Y-137661015D01*
X66903100Y-137754147D01*
X66748228Y-137818297D01*
X66583816Y-137851000D01*
X66416184Y-137851000D01*
X66251772Y-137818297D01*
X66096900Y-137754147D01*
X65957519Y-137661015D01*
X65838985Y-137542481D01*
X65745853Y-137403100D01*
X65681703Y-137248228D01*
X65649000Y-137083816D01*
X65649000Y-136916184D01*
X65681703Y-136751772D01*
X65745853Y-136596900D01*
X65838985Y-136457519D01*
X65957519Y-136338985D01*
X66096900Y-136245853D01*
X66251772Y-136181703D01*
X66416184Y-136149000D01*
X66583816Y-136149000D01*
X66748228Y-136181703D01*
G37*
G36*
X119121000Y-127801000D02*
G01*
X117319000Y-127801000D01*
X117319000Y-125999000D01*
X119121000Y-125999000D01*
X119121000Y-127801000D01*
G37*
G36*
X151353512Y-126003927D02*
G01*
X151502812Y-126033624D01*
X151666784Y-126101544D01*
X151814354Y-126200147D01*
X151939853Y-126325646D01*
X152038456Y-126473216D01*
X152106376Y-126637188D01*
X152141000Y-126811259D01*
X152141000Y-126988741D01*
X152106376Y-127162812D01*
X152038456Y-127326784D01*
X151939853Y-127474354D01*
X151814354Y-127599853D01*
X151666784Y-127698456D01*
X151502812Y-127766376D01*
X151353512Y-127796073D01*
X151328742Y-127801000D01*
X151151258Y-127801000D01*
X151126488Y-127796073D01*
X150977188Y-127766376D01*
X150813216Y-127698456D01*
X150665646Y-127599853D01*
X150540147Y-127474354D01*
X150441544Y-127326784D01*
X150373624Y-127162812D01*
X150339000Y-126988741D01*
X150339000Y-126811259D01*
X150373624Y-126637188D01*
X150441544Y-126473216D01*
X150540147Y-126325646D01*
X150665646Y-126200147D01*
X150813216Y-126101544D01*
X150977188Y-126033624D01*
X151126488Y-126003927D01*
X151151258Y-125999000D01*
X151328742Y-125999000D01*
X151353512Y-126003927D01*
G37*
G36*
X148813512Y-126003927D02*
G01*
X148962812Y-126033624D01*
X149126784Y-126101544D01*
X149274354Y-126200147D01*
X149399853Y-126325646D01*
X149498456Y-126473216D01*
X149566376Y-126637188D01*
X149601000Y-126811259D01*
X149601000Y-126988741D01*
X149566376Y-127162812D01*
X149498456Y-127326784D01*
X149399853Y-127474354D01*
X149274354Y-127599853D01*
X149126784Y-127698456D01*
X148962812Y-127766376D01*
X148813512Y-127796073D01*
X148788742Y-127801000D01*
X148611258Y-127801000D01*
X148586488Y-127796073D01*
X148437188Y-127766376D01*
X148273216Y-127698456D01*
X148125646Y-127599853D01*
X148000147Y-127474354D01*
X147901544Y-127326784D01*
X147833624Y-127162812D01*
X147799000Y-126988741D01*
X147799000Y-126811259D01*
X147833624Y-126637188D01*
X147901544Y-126473216D01*
X148000147Y-126325646D01*
X148125646Y-126200147D01*
X148273216Y-126101544D01*
X148437188Y-126033624D01*
X148586488Y-126003927D01*
X148611258Y-125999000D01*
X148788742Y-125999000D01*
X148813512Y-126003927D01*
G37*
G36*
X146273512Y-126003927D02*
G01*
X146422812Y-126033624D01*
X146586784Y-126101544D01*
X146734354Y-126200147D01*
X146859853Y-126325646D01*
X146958456Y-126473216D01*
X147026376Y-126637188D01*
X147061000Y-126811259D01*
X147061000Y-126988741D01*
X147026376Y-127162812D01*
X146958456Y-127326784D01*
X146859853Y-127474354D01*
X146734354Y-127599853D01*
X146586784Y-127698456D01*
X146422812Y-127766376D01*
X146273512Y-127796073D01*
X146248742Y-127801000D01*
X146071258Y-127801000D01*
X146046488Y-127796073D01*
X145897188Y-127766376D01*
X145733216Y-127698456D01*
X145585646Y-127599853D01*
X145460147Y-127474354D01*
X145361544Y-127326784D01*
X145293624Y-127162812D01*
X145259000Y-126988741D01*
X145259000Y-126811259D01*
X145293624Y-126637188D01*
X145361544Y-126473216D01*
X145460147Y-126325646D01*
X145585646Y-126200147D01*
X145733216Y-126101544D01*
X145897188Y-126033624D01*
X146046488Y-126003927D01*
X146071258Y-125999000D01*
X146248742Y-125999000D01*
X146273512Y-126003927D01*
G37*
G36*
X143733512Y-126003927D02*
G01*
X143882812Y-126033624D01*
X144046784Y-126101544D01*
X144194354Y-126200147D01*
X144319853Y-126325646D01*
X144418456Y-126473216D01*
X144486376Y-126637188D01*
X144521000Y-126811259D01*
X144521000Y-126988741D01*
X144486376Y-127162812D01*
X144418456Y-127326784D01*
X144319853Y-127474354D01*
X144194354Y-127599853D01*
X144046784Y-127698456D01*
X143882812Y-127766376D01*
X143733512Y-127796073D01*
X143708742Y-127801000D01*
X143531258Y-127801000D01*
X143506488Y-127796073D01*
X143357188Y-127766376D01*
X143193216Y-127698456D01*
X143045646Y-127599853D01*
X142920147Y-127474354D01*
X142821544Y-127326784D01*
X142753624Y-127162812D01*
X142719000Y-126988741D01*
X142719000Y-126811259D01*
X142753624Y-126637188D01*
X142821544Y-126473216D01*
X142920147Y-126325646D01*
X143045646Y-126200147D01*
X143193216Y-126101544D01*
X143357188Y-126033624D01*
X143506488Y-126003927D01*
X143531258Y-125999000D01*
X143708742Y-125999000D01*
X143733512Y-126003927D01*
G37*
G36*
X141193512Y-126003927D02*
G01*
X141342812Y-126033624D01*
X141506784Y-126101544D01*
X141654354Y-126200147D01*
X141779853Y-126325646D01*
X141878456Y-126473216D01*
X141946376Y-126637188D01*
X141981000Y-126811259D01*
X141981000Y-126988741D01*
X141946376Y-127162812D01*
X141878456Y-127326784D01*
X141779853Y-127474354D01*
X141654354Y-127599853D01*
X141506784Y-127698456D01*
X141342812Y-127766376D01*
X141193512Y-127796073D01*
X141168742Y-127801000D01*
X140991258Y-127801000D01*
X140966488Y-127796073D01*
X140817188Y-127766376D01*
X140653216Y-127698456D01*
X140505646Y-127599853D01*
X140380147Y-127474354D01*
X140281544Y-127326784D01*
X140213624Y-127162812D01*
X140179000Y-126988741D01*
X140179000Y-126811259D01*
X140213624Y-126637188D01*
X140281544Y-126473216D01*
X140380147Y-126325646D01*
X140505646Y-126200147D01*
X140653216Y-126101544D01*
X140817188Y-126033624D01*
X140966488Y-126003927D01*
X140991258Y-125999000D01*
X141168742Y-125999000D01*
X141193512Y-126003927D01*
G37*
G36*
X138653512Y-126003927D02*
G01*
X138802812Y-126033624D01*
X138966784Y-126101544D01*
X139114354Y-126200147D01*
X139239853Y-126325646D01*
X139338456Y-126473216D01*
X139406376Y-126637188D01*
X139441000Y-126811259D01*
X139441000Y-126988741D01*
X139406376Y-127162812D01*
X139338456Y-127326784D01*
X139239853Y-127474354D01*
X139114354Y-127599853D01*
X138966784Y-127698456D01*
X138802812Y-127766376D01*
X138653512Y-127796073D01*
X138628742Y-127801000D01*
X138451258Y-127801000D01*
X138426488Y-127796073D01*
X138277188Y-127766376D01*
X138113216Y-127698456D01*
X137965646Y-127599853D01*
X137840147Y-127474354D01*
X137741544Y-127326784D01*
X137673624Y-127162812D01*
X137639000Y-126988741D01*
X137639000Y-126811259D01*
X137673624Y-126637188D01*
X137741544Y-126473216D01*
X137840147Y-126325646D01*
X137965646Y-126200147D01*
X138113216Y-126101544D01*
X138277188Y-126033624D01*
X138426488Y-126003927D01*
X138451258Y-125999000D01*
X138628742Y-125999000D01*
X138653512Y-126003927D01*
G37*
G36*
X136113512Y-126003927D02*
G01*
X136262812Y-126033624D01*
X136426784Y-126101544D01*
X136574354Y-126200147D01*
X136699853Y-126325646D01*
X136798456Y-126473216D01*
X136866376Y-126637188D01*
X136901000Y-126811259D01*
X136901000Y-126988741D01*
X136866376Y-127162812D01*
X136798456Y-127326784D01*
X136699853Y-127474354D01*
X136574354Y-127599853D01*
X136426784Y-127698456D01*
X136262812Y-127766376D01*
X136113512Y-127796073D01*
X136088742Y-127801000D01*
X135911258Y-127801000D01*
X135886488Y-127796073D01*
X135737188Y-127766376D01*
X135573216Y-127698456D01*
X135425646Y-127599853D01*
X135300147Y-127474354D01*
X135201544Y-127326784D01*
X135133624Y-127162812D01*
X135099000Y-126988741D01*
X135099000Y-126811259D01*
X135133624Y-126637188D01*
X135201544Y-126473216D01*
X135300147Y-126325646D01*
X135425646Y-126200147D01*
X135573216Y-126101544D01*
X135737188Y-126033624D01*
X135886488Y-126003927D01*
X135911258Y-125999000D01*
X136088742Y-125999000D01*
X136113512Y-126003927D01*
G37*
G36*
X133573512Y-126003927D02*
G01*
X133722812Y-126033624D01*
X133886784Y-126101544D01*
X134034354Y-126200147D01*
X134159853Y-126325646D01*
X134258456Y-126473216D01*
X134326376Y-126637188D01*
X134361000Y-126811259D01*
X134361000Y-126988741D01*
X134326376Y-127162812D01*
X134258456Y-127326784D01*
X134159853Y-127474354D01*
X134034354Y-127599853D01*
X133886784Y-127698456D01*
X133722812Y-127766376D01*
X133573512Y-127796073D01*
X133548742Y-127801000D01*
X133371258Y-127801000D01*
X133346488Y-127796073D01*
X133197188Y-127766376D01*
X133033216Y-127698456D01*
X132885646Y-127599853D01*
X132760147Y-127474354D01*
X132661544Y-127326784D01*
X132593624Y-127162812D01*
X132559000Y-126988741D01*
X132559000Y-126811259D01*
X132593624Y-126637188D01*
X132661544Y-126473216D01*
X132760147Y-126325646D01*
X132885646Y-126200147D01*
X133033216Y-126101544D01*
X133197188Y-126033624D01*
X133346488Y-126003927D01*
X133371258Y-125999000D01*
X133548742Y-125999000D01*
X133573512Y-126003927D01*
G37*
G36*
X131033512Y-126003927D02*
G01*
X131182812Y-126033624D01*
X131346784Y-126101544D01*
X131494354Y-126200147D01*
X131619853Y-126325646D01*
X131718456Y-126473216D01*
X131786376Y-126637188D01*
X131821000Y-126811259D01*
X131821000Y-126988741D01*
X131786376Y-127162812D01*
X131718456Y-127326784D01*
X131619853Y-127474354D01*
X131494354Y-127599853D01*
X131346784Y-127698456D01*
X131182812Y-127766376D01*
X131033512Y-127796073D01*
X131008742Y-127801000D01*
X130831258Y-127801000D01*
X130806488Y-127796073D01*
X130657188Y-127766376D01*
X130493216Y-127698456D01*
X130345646Y-127599853D01*
X130220147Y-127474354D01*
X130121544Y-127326784D01*
X130053624Y-127162812D01*
X130019000Y-126988741D01*
X130019000Y-126811259D01*
X130053624Y-126637188D01*
X130121544Y-126473216D01*
X130220147Y-126325646D01*
X130345646Y-126200147D01*
X130493216Y-126101544D01*
X130657188Y-126033624D01*
X130806488Y-126003927D01*
X130831258Y-125999000D01*
X131008742Y-125999000D01*
X131033512Y-126003927D01*
G37*
G36*
X128493512Y-126003927D02*
G01*
X128642812Y-126033624D01*
X128806784Y-126101544D01*
X128954354Y-126200147D01*
X129079853Y-126325646D01*
X129178456Y-126473216D01*
X129246376Y-126637188D01*
X129281000Y-126811259D01*
X129281000Y-126988741D01*
X129246376Y-127162812D01*
X129178456Y-127326784D01*
X129079853Y-127474354D01*
X128954354Y-127599853D01*
X128806784Y-127698456D01*
X128642812Y-127766376D01*
X128493512Y-127796073D01*
X128468742Y-127801000D01*
X128291258Y-127801000D01*
X128266488Y-127796073D01*
X128117188Y-127766376D01*
X127953216Y-127698456D01*
X127805646Y-127599853D01*
X127680147Y-127474354D01*
X127581544Y-127326784D01*
X127513624Y-127162812D01*
X127479000Y-126988741D01*
X127479000Y-126811259D01*
X127513624Y-126637188D01*
X127581544Y-126473216D01*
X127680147Y-126325646D01*
X127805646Y-126200147D01*
X127953216Y-126101544D01*
X128117188Y-126033624D01*
X128266488Y-126003927D01*
X128291258Y-125999000D01*
X128468742Y-125999000D01*
X128493512Y-126003927D01*
G37*
G36*
X125953512Y-126003927D02*
G01*
X126102812Y-126033624D01*
X126266784Y-126101544D01*
X126414354Y-126200147D01*
X126539853Y-126325646D01*
X126638456Y-126473216D01*
X126706376Y-126637188D01*
X126741000Y-126811259D01*
X126741000Y-126988741D01*
X126706376Y-127162812D01*
X126638456Y-127326784D01*
X126539853Y-127474354D01*
X126414354Y-127599853D01*
X126266784Y-127698456D01*
X126102812Y-127766376D01*
X125953512Y-127796073D01*
X125928742Y-127801000D01*
X125751258Y-127801000D01*
X125726488Y-127796073D01*
X125577188Y-127766376D01*
X125413216Y-127698456D01*
X125265646Y-127599853D01*
X125140147Y-127474354D01*
X125041544Y-127326784D01*
X124973624Y-127162812D01*
X124939000Y-126988741D01*
X124939000Y-126811259D01*
X124973624Y-126637188D01*
X125041544Y-126473216D01*
X125140147Y-126325646D01*
X125265646Y-126200147D01*
X125413216Y-126101544D01*
X125577188Y-126033624D01*
X125726488Y-126003927D01*
X125751258Y-125999000D01*
X125928742Y-125999000D01*
X125953512Y-126003927D01*
G37*
G36*
X123413512Y-126003927D02*
G01*
X123562812Y-126033624D01*
X123726784Y-126101544D01*
X123874354Y-126200147D01*
X123999853Y-126325646D01*
X124098456Y-126473216D01*
X124166376Y-126637188D01*
X124201000Y-126811259D01*
X124201000Y-126988741D01*
X124166376Y-127162812D01*
X124098456Y-127326784D01*
X123999853Y-127474354D01*
X123874354Y-127599853D01*
X123726784Y-127698456D01*
X123562812Y-127766376D01*
X123413512Y-127796073D01*
X123388742Y-127801000D01*
X123211258Y-127801000D01*
X123186488Y-127796073D01*
X123037188Y-127766376D01*
X122873216Y-127698456D01*
X122725646Y-127599853D01*
X122600147Y-127474354D01*
X122501544Y-127326784D01*
X122433624Y-127162812D01*
X122399000Y-126988741D01*
X122399000Y-126811259D01*
X122433624Y-126637188D01*
X122501544Y-126473216D01*
X122600147Y-126325646D01*
X122725646Y-126200147D01*
X122873216Y-126101544D01*
X123037188Y-126033624D01*
X123186488Y-126003927D01*
X123211258Y-125999000D01*
X123388742Y-125999000D01*
X123413512Y-126003927D01*
G37*
G36*
X120873512Y-126003927D02*
G01*
X121022812Y-126033624D01*
X121186784Y-126101544D01*
X121334354Y-126200147D01*
X121459853Y-126325646D01*
X121558456Y-126473216D01*
X121626376Y-126637188D01*
X121661000Y-126811259D01*
X121661000Y-126988741D01*
X121626376Y-127162812D01*
X121558456Y-127326784D01*
X121459853Y-127474354D01*
X121334354Y-127599853D01*
X121186784Y-127698456D01*
X121022812Y-127766376D01*
X120873512Y-127796073D01*
X120848742Y-127801000D01*
X120671258Y-127801000D01*
X120646488Y-127796073D01*
X120497188Y-127766376D01*
X120333216Y-127698456D01*
X120185646Y-127599853D01*
X120060147Y-127474354D01*
X119961544Y-127326784D01*
X119893624Y-127162812D01*
X119859000Y-126988741D01*
X119859000Y-126811259D01*
X119893624Y-126637188D01*
X119961544Y-126473216D01*
X120060147Y-126325646D01*
X120185646Y-126200147D01*
X120333216Y-126101544D01*
X120497188Y-126033624D01*
X120646488Y-126003927D01*
X120671258Y-125999000D01*
X120848742Y-125999000D01*
X120873512Y-126003927D01*
G37*
G36*
X153893512Y-126003927D02*
G01*
X154042812Y-126033624D01*
X154206784Y-126101544D01*
X154354354Y-126200147D01*
X154479853Y-126325646D01*
X154578456Y-126473216D01*
X154646376Y-126637188D01*
X154681000Y-126811259D01*
X154681000Y-126988741D01*
X154646376Y-127162812D01*
X154578456Y-127326784D01*
X154479853Y-127474354D01*
X154354354Y-127599853D01*
X154206784Y-127698456D01*
X154042812Y-127766376D01*
X153893512Y-127796073D01*
X153868742Y-127801000D01*
X153691258Y-127801000D01*
X153666488Y-127796073D01*
X153517188Y-127766376D01*
X153353216Y-127698456D01*
X153205646Y-127599853D01*
X153080147Y-127474354D01*
X152981544Y-127326784D01*
X152913624Y-127162812D01*
X152879000Y-126988741D01*
X152879000Y-126811259D01*
X152913624Y-126637188D01*
X152981544Y-126473216D01*
X153080147Y-126325646D01*
X153205646Y-126200147D01*
X153353216Y-126101544D01*
X153517188Y-126033624D01*
X153666488Y-126003927D01*
X153691258Y-125999000D01*
X153868742Y-125999000D01*
X153893512Y-126003927D01*
G37*
G36*
X66748228Y-126021703D02*
G01*
X66903100Y-126085853D01*
X67042481Y-126178985D01*
X67161015Y-126297519D01*
X67254147Y-126436900D01*
X67318297Y-126591772D01*
X67351000Y-126756184D01*
X67351000Y-126923816D01*
X67318297Y-127088228D01*
X67254147Y-127243100D01*
X67161015Y-127382481D01*
X67042481Y-127501015D01*
X66903100Y-127594147D01*
X66748228Y-127658297D01*
X66583816Y-127691000D01*
X66416184Y-127691000D01*
X66251772Y-127658297D01*
X66096900Y-127594147D01*
X65957519Y-127501015D01*
X65838985Y-127382481D01*
X65745853Y-127243100D01*
X65681703Y-127088228D01*
X65649000Y-126923816D01*
X65649000Y-126756184D01*
X65681703Y-126591772D01*
X65745853Y-126436900D01*
X65838985Y-126297519D01*
X65957519Y-126178985D01*
X66096900Y-126085853D01*
X66251772Y-126021703D01*
X66416184Y-125989000D01*
X66583816Y-125989000D01*
X66748228Y-126021703D01*
G37*
G36*
X60748228Y-122181703D02*
G01*
X60903100Y-122245853D01*
X61042481Y-122338985D01*
X61161015Y-122457519D01*
X61254147Y-122596900D01*
X61318297Y-122751772D01*
X61351000Y-122916184D01*
X61351000Y-123083816D01*
X61318297Y-123248228D01*
X61254147Y-123403100D01*
X61161015Y-123542481D01*
X61042481Y-123661015D01*
X60903100Y-123754147D01*
X60748228Y-123818297D01*
X60583816Y-123851000D01*
X60416184Y-123851000D01*
X60251772Y-123818297D01*
X60096900Y-123754147D01*
X59957519Y-123661015D01*
X59838985Y-123542481D01*
X59745853Y-123403100D01*
X59681703Y-123248228D01*
X59649000Y-123083816D01*
X59649000Y-122916184D01*
X59681703Y-122751772D01*
X59745853Y-122596900D01*
X59838985Y-122457519D01*
X59957519Y-122338985D01*
X60096900Y-122245853D01*
X60251772Y-122181703D01*
X60416184Y-122149000D01*
X60583816Y-122149000D01*
X60748228Y-122181703D01*
G37*
G36*
X74368228Y-119801703D02*
G01*
X74523100Y-119865853D01*
X74662481Y-119958985D01*
X74781015Y-120077519D01*
X74874147Y-120216900D01*
X74938297Y-120371772D01*
X74971000Y-120536184D01*
X74971000Y-120703816D01*
X74938297Y-120868228D01*
X74874147Y-121023100D01*
X74781015Y-121162481D01*
X74662481Y-121281015D01*
X74523100Y-121374147D01*
X74368228Y-121438297D01*
X74203816Y-121471000D01*
X74036184Y-121471000D01*
X73871772Y-121438297D01*
X73716900Y-121374147D01*
X73577519Y-121281015D01*
X73458985Y-121162481D01*
X73365853Y-121023100D01*
X73301703Y-120868228D01*
X73269000Y-120703816D01*
X73269000Y-120536184D01*
X73301703Y-120371772D01*
X73365853Y-120216900D01*
X73458985Y-120077519D01*
X73577519Y-119958985D01*
X73716900Y-119865853D01*
X73871772Y-119801703D01*
X74036184Y-119769000D01*
X74203816Y-119769000D01*
X74368228Y-119801703D01*
G37*
G36*
X66748228Y-119801703D02*
G01*
X66903100Y-119865853D01*
X67042481Y-119958985D01*
X67161015Y-120077519D01*
X67254147Y-120216900D01*
X67318297Y-120371772D01*
X67351000Y-120536184D01*
X67351000Y-120703816D01*
X67318297Y-120868228D01*
X67254147Y-121023100D01*
X67161015Y-121162481D01*
X67042481Y-121281015D01*
X66903100Y-121374147D01*
X66748228Y-121438297D01*
X66583816Y-121471000D01*
X66416184Y-121471000D01*
X66251772Y-121438297D01*
X66096900Y-121374147D01*
X65957519Y-121281015D01*
X65838985Y-121162481D01*
X65745853Y-121023100D01*
X65681703Y-120868228D01*
X65649000Y-120703816D01*
X65649000Y-120536184D01*
X65681703Y-120371772D01*
X65745853Y-120216900D01*
X65838985Y-120077519D01*
X65957519Y-119958985D01*
X66096900Y-119865853D01*
X66251772Y-119801703D01*
X66416184Y-119769000D01*
X66583816Y-119769000D01*
X66748228Y-119801703D01*
G37*
G36*
X66748228Y-117261703D02*
G01*
X66903100Y-117325853D01*
X67042481Y-117418985D01*
X67161015Y-117537519D01*
X67254147Y-117676900D01*
X67318297Y-117831772D01*
X67351000Y-117996184D01*
X67351000Y-118163816D01*
X67318297Y-118328228D01*
X67254147Y-118483100D01*
X67161015Y-118622481D01*
X67042481Y-118741015D01*
X66903100Y-118834147D01*
X66748228Y-118898297D01*
X66583816Y-118931000D01*
X66416184Y-118931000D01*
X66251772Y-118898297D01*
X66096900Y-118834147D01*
X65957519Y-118741015D01*
X65838985Y-118622481D01*
X65745853Y-118483100D01*
X65681703Y-118328228D01*
X65649000Y-118163816D01*
X65649000Y-117996184D01*
X65681703Y-117831772D01*
X65745853Y-117676900D01*
X65838985Y-117537519D01*
X65957519Y-117418985D01*
X66096900Y-117325853D01*
X66251772Y-117261703D01*
X66416184Y-117229000D01*
X66583816Y-117229000D01*
X66748228Y-117261703D01*
G37*
G36*
X74368228Y-117261703D02*
G01*
X74523100Y-117325853D01*
X74662481Y-117418985D01*
X74781015Y-117537519D01*
X74874147Y-117676900D01*
X74938297Y-117831772D01*
X74971000Y-117996184D01*
X74971000Y-118163816D01*
X74938297Y-118328228D01*
X74874147Y-118483100D01*
X74781015Y-118622481D01*
X74662481Y-118741015D01*
X74523100Y-118834147D01*
X74368228Y-118898297D01*
X74203816Y-118931000D01*
X74036184Y-118931000D01*
X73871772Y-118898297D01*
X73716900Y-118834147D01*
X73577519Y-118741015D01*
X73458985Y-118622481D01*
X73365853Y-118483100D01*
X73301703Y-118328228D01*
X73269000Y-118163816D01*
X73269000Y-117996184D01*
X73301703Y-117831772D01*
X73365853Y-117676900D01*
X73458985Y-117537519D01*
X73577519Y-117418985D01*
X73716900Y-117325853D01*
X73871772Y-117261703D01*
X74036184Y-117229000D01*
X74203816Y-117229000D01*
X74368228Y-117261703D01*
G37*
G36*
X79748228Y-117181703D02*
G01*
X79903100Y-117245853D01*
X80042481Y-117338985D01*
X80161015Y-117457519D01*
X80254147Y-117596900D01*
X80318297Y-117751772D01*
X80351000Y-117916184D01*
X80351000Y-118083816D01*
X80318297Y-118248228D01*
X80254147Y-118403100D01*
X80161015Y-118542481D01*
X80042481Y-118661015D01*
X79903100Y-118754147D01*
X79748228Y-118818297D01*
X79583816Y-118851000D01*
X79416184Y-118851000D01*
X79251772Y-118818297D01*
X79096900Y-118754147D01*
X78957519Y-118661015D01*
X78838985Y-118542481D01*
X78745853Y-118403100D01*
X78681703Y-118248228D01*
X78649000Y-118083816D01*
X78649000Y-117916184D01*
X78681703Y-117751772D01*
X78745853Y-117596900D01*
X78838985Y-117457519D01*
X78957519Y-117338985D01*
X79096900Y-117245853D01*
X79251772Y-117181703D01*
X79416184Y-117149000D01*
X79583816Y-117149000D01*
X79748228Y-117181703D01*
G37*
G36*
X60748228Y-117181703D02*
G01*
X60903100Y-117245853D01*
X61042481Y-117338985D01*
X61161015Y-117457519D01*
X61254147Y-117596900D01*
X61318297Y-117751772D01*
X61351000Y-117916184D01*
X61351000Y-118083816D01*
X61318297Y-118248228D01*
X61254147Y-118403100D01*
X61161015Y-118542481D01*
X61042481Y-118661015D01*
X60903100Y-118754147D01*
X60748228Y-118818297D01*
X60583816Y-118851000D01*
X60416184Y-118851000D01*
X60251772Y-118818297D01*
X60096900Y-118754147D01*
X59957519Y-118661015D01*
X59838985Y-118542481D01*
X59745853Y-118403100D01*
X59681703Y-118248228D01*
X59649000Y-118083816D01*
X59649000Y-117916184D01*
X59681703Y-117751772D01*
X59745853Y-117596900D01*
X59838985Y-117457519D01*
X59957519Y-117338985D01*
X60096900Y-117245853D01*
X60251772Y-117181703D01*
X60416184Y-117149000D01*
X60583816Y-117149000D01*
X60748228Y-117181703D01*
G37*
G36*
X74368228Y-114721703D02*
G01*
X74523100Y-114785853D01*
X74662481Y-114878985D01*
X74781015Y-114997519D01*
X74874147Y-115136900D01*
X74938297Y-115291772D01*
X74971000Y-115456184D01*
X74971000Y-115623816D01*
X74938297Y-115788228D01*
X74874147Y-115943100D01*
X74781015Y-116082481D01*
X74662481Y-116201015D01*
X74523100Y-116294147D01*
X74368228Y-116358297D01*
X74203816Y-116391000D01*
X74036184Y-116391000D01*
X73871772Y-116358297D01*
X73716900Y-116294147D01*
X73577519Y-116201015D01*
X73458985Y-116082481D01*
X73365853Y-115943100D01*
X73301703Y-115788228D01*
X73269000Y-115623816D01*
X73269000Y-115456184D01*
X73301703Y-115291772D01*
X73365853Y-115136900D01*
X73458985Y-114997519D01*
X73577519Y-114878985D01*
X73716900Y-114785853D01*
X73871772Y-114721703D01*
X74036184Y-114689000D01*
X74203816Y-114689000D01*
X74368228Y-114721703D01*
G37*
G36*
X66748228Y-114721703D02*
G01*
X66903100Y-114785853D01*
X67042481Y-114878985D01*
X67161015Y-114997519D01*
X67254147Y-115136900D01*
X67318297Y-115291772D01*
X67351000Y-115456184D01*
X67351000Y-115623816D01*
X67318297Y-115788228D01*
X67254147Y-115943100D01*
X67161015Y-116082481D01*
X67042481Y-116201015D01*
X66903100Y-116294147D01*
X66748228Y-116358297D01*
X66583816Y-116391000D01*
X66416184Y-116391000D01*
X66251772Y-116358297D01*
X66096900Y-116294147D01*
X65957519Y-116201015D01*
X65838985Y-116082481D01*
X65745853Y-115943100D01*
X65681703Y-115788228D01*
X65649000Y-115623816D01*
X65649000Y-115456184D01*
X65681703Y-115291772D01*
X65745853Y-115136900D01*
X65838985Y-114997519D01*
X65957519Y-114878985D01*
X66096900Y-114785853D01*
X66251772Y-114721703D01*
X66416184Y-114689000D01*
X66583816Y-114689000D01*
X66748228Y-114721703D01*
G37*
G36*
X60748228Y-112181703D02*
G01*
X60903100Y-112245853D01*
X61042481Y-112338985D01*
X61161015Y-112457519D01*
X61254147Y-112596900D01*
X61318297Y-112751772D01*
X61351000Y-112916184D01*
X61351000Y-113083816D01*
X61318297Y-113248228D01*
X61254147Y-113403100D01*
X61161015Y-113542481D01*
X61042481Y-113661015D01*
X60903100Y-113754147D01*
X60748228Y-113818297D01*
X60583816Y-113851000D01*
X60416184Y-113851000D01*
X60251772Y-113818297D01*
X60096900Y-113754147D01*
X59957519Y-113661015D01*
X59838985Y-113542481D01*
X59745853Y-113403100D01*
X59681703Y-113248228D01*
X59649000Y-113083816D01*
X59649000Y-112916184D01*
X59681703Y-112751772D01*
X59745853Y-112596900D01*
X59838985Y-112457519D01*
X59957519Y-112338985D01*
X60096900Y-112245853D01*
X60251772Y-112181703D01*
X60416184Y-112149000D01*
X60583816Y-112149000D01*
X60748228Y-112181703D01*
G37*
G36*
X79748228Y-112181703D02*
G01*
X79903100Y-112245853D01*
X80042481Y-112338985D01*
X80161015Y-112457519D01*
X80254147Y-112596900D01*
X80318297Y-112751772D01*
X80351000Y-112916184D01*
X80351000Y-113083816D01*
X80318297Y-113248228D01*
X80254147Y-113403100D01*
X80161015Y-113542481D01*
X80042481Y-113661015D01*
X79903100Y-113754147D01*
X79748228Y-113818297D01*
X79583816Y-113851000D01*
X79416184Y-113851000D01*
X79251772Y-113818297D01*
X79096900Y-113754147D01*
X78957519Y-113661015D01*
X78838985Y-113542481D01*
X78745853Y-113403100D01*
X78681703Y-113248228D01*
X78649000Y-113083816D01*
X78649000Y-112916184D01*
X78681703Y-112751772D01*
X78745853Y-112596900D01*
X78838985Y-112457519D01*
X78957519Y-112338985D01*
X79096900Y-112245853D01*
X79251772Y-112181703D01*
X79416184Y-112149000D01*
X79583816Y-112149000D01*
X79748228Y-112181703D01*
G37*
G36*
X67351000Y-113851000D02*
G01*
X65649000Y-113851000D01*
X65649000Y-112149000D01*
X67351000Y-112149000D01*
X67351000Y-113851000D01*
G37*
G36*
X74368228Y-112181703D02*
G01*
X74523100Y-112245853D01*
X74662481Y-112338985D01*
X74781015Y-112457519D01*
X74874147Y-112596900D01*
X74938297Y-112751772D01*
X74971000Y-112916184D01*
X74971000Y-113083816D01*
X74938297Y-113248228D01*
X74874147Y-113403100D01*
X74781015Y-113542481D01*
X74662481Y-113661015D01*
X74523100Y-113754147D01*
X74368228Y-113818297D01*
X74203816Y-113851000D01*
X74036184Y-113851000D01*
X73871772Y-113818297D01*
X73716900Y-113754147D01*
X73577519Y-113661015D01*
X73458985Y-113542481D01*
X73365853Y-113403100D01*
X73301703Y-113248228D01*
X73269000Y-113083816D01*
X73269000Y-112916184D01*
X73301703Y-112751772D01*
X73365853Y-112596900D01*
X73458985Y-112457519D01*
X73577519Y-112338985D01*
X73716900Y-112245853D01*
X73871772Y-112181703D01*
X74036184Y-112149000D01*
X74203816Y-112149000D01*
X74368228Y-112181703D01*
G37*
G36*
X138653512Y-103143927D02*
G01*
X138802812Y-103173624D01*
X138966784Y-103241544D01*
X139114354Y-103340147D01*
X139239853Y-103465646D01*
X139338456Y-103613216D01*
X139406376Y-103777188D01*
X139441000Y-103951259D01*
X139441000Y-104128741D01*
X139406376Y-104302812D01*
X139338456Y-104466784D01*
X139239853Y-104614354D01*
X139114354Y-104739853D01*
X138966784Y-104838456D01*
X138802812Y-104906376D01*
X138653512Y-104936073D01*
X138628742Y-104941000D01*
X138451258Y-104941000D01*
X138426488Y-104936073D01*
X138277188Y-104906376D01*
X138113216Y-104838456D01*
X137965646Y-104739853D01*
X137840147Y-104614354D01*
X137741544Y-104466784D01*
X137673624Y-104302812D01*
X137639000Y-104128741D01*
X137639000Y-103951259D01*
X137673624Y-103777188D01*
X137741544Y-103613216D01*
X137840147Y-103465646D01*
X137965646Y-103340147D01*
X138113216Y-103241544D01*
X138277188Y-103173624D01*
X138426488Y-103143927D01*
X138451258Y-103139000D01*
X138628742Y-103139000D01*
X138653512Y-103143927D01*
G37*
G36*
X153893512Y-103143927D02*
G01*
X154042812Y-103173624D01*
X154206784Y-103241544D01*
X154354354Y-103340147D01*
X154479853Y-103465646D01*
X154578456Y-103613216D01*
X154646376Y-103777188D01*
X154681000Y-103951259D01*
X154681000Y-104128741D01*
X154646376Y-104302812D01*
X154578456Y-104466784D01*
X154479853Y-104614354D01*
X154354354Y-104739853D01*
X154206784Y-104838456D01*
X154042812Y-104906376D01*
X153893512Y-104936073D01*
X153868742Y-104941000D01*
X153691258Y-104941000D01*
X153666488Y-104936073D01*
X153517188Y-104906376D01*
X153353216Y-104838456D01*
X153205646Y-104739853D01*
X153080147Y-104614354D01*
X152981544Y-104466784D01*
X152913624Y-104302812D01*
X152879000Y-104128741D01*
X152879000Y-103951259D01*
X152913624Y-103777188D01*
X152981544Y-103613216D01*
X153080147Y-103465646D01*
X153205646Y-103340147D01*
X153353216Y-103241544D01*
X153517188Y-103173624D01*
X153666488Y-103143927D01*
X153691258Y-103139000D01*
X153868742Y-103139000D01*
X153893512Y-103143927D01*
G37*
G36*
X151353512Y-103143927D02*
G01*
X151502812Y-103173624D01*
X151666784Y-103241544D01*
X151814354Y-103340147D01*
X151939853Y-103465646D01*
X152038456Y-103613216D01*
X152106376Y-103777188D01*
X152141000Y-103951259D01*
X152141000Y-104128741D01*
X152106376Y-104302812D01*
X152038456Y-104466784D01*
X151939853Y-104614354D01*
X151814354Y-104739853D01*
X151666784Y-104838456D01*
X151502812Y-104906376D01*
X151353512Y-104936073D01*
X151328742Y-104941000D01*
X151151258Y-104941000D01*
X151126488Y-104936073D01*
X150977188Y-104906376D01*
X150813216Y-104838456D01*
X150665646Y-104739853D01*
X150540147Y-104614354D01*
X150441544Y-104466784D01*
X150373624Y-104302812D01*
X150339000Y-104128741D01*
X150339000Y-103951259D01*
X150373624Y-103777188D01*
X150441544Y-103613216D01*
X150540147Y-103465646D01*
X150665646Y-103340147D01*
X150813216Y-103241544D01*
X150977188Y-103173624D01*
X151126488Y-103143927D01*
X151151258Y-103139000D01*
X151328742Y-103139000D01*
X151353512Y-103143927D01*
G37*
G36*
X146273512Y-103143927D02*
G01*
X146422812Y-103173624D01*
X146586784Y-103241544D01*
X146734354Y-103340147D01*
X146859853Y-103465646D01*
X146958456Y-103613216D01*
X147026376Y-103777188D01*
X147061000Y-103951259D01*
X147061000Y-104128741D01*
X147026376Y-104302812D01*
X146958456Y-104466784D01*
X146859853Y-104614354D01*
X146734354Y-104739853D01*
X146586784Y-104838456D01*
X146422812Y-104906376D01*
X146273512Y-104936073D01*
X146248742Y-104941000D01*
X146071258Y-104941000D01*
X146046488Y-104936073D01*
X145897188Y-104906376D01*
X145733216Y-104838456D01*
X145585646Y-104739853D01*
X145460147Y-104614354D01*
X145361544Y-104466784D01*
X145293624Y-104302812D01*
X145259000Y-104128741D01*
X145259000Y-103951259D01*
X145293624Y-103777188D01*
X145361544Y-103613216D01*
X145460147Y-103465646D01*
X145585646Y-103340147D01*
X145733216Y-103241544D01*
X145897188Y-103173624D01*
X146046488Y-103143927D01*
X146071258Y-103139000D01*
X146248742Y-103139000D01*
X146273512Y-103143927D01*
G37*
G36*
X143733512Y-103143927D02*
G01*
X143882812Y-103173624D01*
X144046784Y-103241544D01*
X144194354Y-103340147D01*
X144319853Y-103465646D01*
X144418456Y-103613216D01*
X144486376Y-103777188D01*
X144521000Y-103951259D01*
X144521000Y-104128741D01*
X144486376Y-104302812D01*
X144418456Y-104466784D01*
X144319853Y-104614354D01*
X144194354Y-104739853D01*
X144046784Y-104838456D01*
X143882812Y-104906376D01*
X143733512Y-104936073D01*
X143708742Y-104941000D01*
X143531258Y-104941000D01*
X143506488Y-104936073D01*
X143357188Y-104906376D01*
X143193216Y-104838456D01*
X143045646Y-104739853D01*
X142920147Y-104614354D01*
X142821544Y-104466784D01*
X142753624Y-104302812D01*
X142719000Y-104128741D01*
X142719000Y-103951259D01*
X142753624Y-103777188D01*
X142821544Y-103613216D01*
X142920147Y-103465646D01*
X143045646Y-103340147D01*
X143193216Y-103241544D01*
X143357188Y-103173624D01*
X143506488Y-103143927D01*
X143531258Y-103139000D01*
X143708742Y-103139000D01*
X143733512Y-103143927D01*
G37*
G36*
X141193512Y-103143927D02*
G01*
X141342812Y-103173624D01*
X141506784Y-103241544D01*
X141654354Y-103340147D01*
X141779853Y-103465646D01*
X141878456Y-103613216D01*
X141946376Y-103777188D01*
X141981000Y-103951259D01*
X141981000Y-104128741D01*
X141946376Y-104302812D01*
X141878456Y-104466784D01*
X141779853Y-104614354D01*
X141654354Y-104739853D01*
X141506784Y-104838456D01*
X141342812Y-104906376D01*
X141193512Y-104936073D01*
X141168742Y-104941000D01*
X140991258Y-104941000D01*
X140966488Y-104936073D01*
X140817188Y-104906376D01*
X140653216Y-104838456D01*
X140505646Y-104739853D01*
X140380147Y-104614354D01*
X140281544Y-104466784D01*
X140213624Y-104302812D01*
X140179000Y-104128741D01*
X140179000Y-103951259D01*
X140213624Y-103777188D01*
X140281544Y-103613216D01*
X140380147Y-103465646D01*
X140505646Y-103340147D01*
X140653216Y-103241544D01*
X140817188Y-103173624D01*
X140966488Y-103143927D01*
X140991258Y-103139000D01*
X141168742Y-103139000D01*
X141193512Y-103143927D01*
G37*
G36*
X136113512Y-103143927D02*
G01*
X136262812Y-103173624D01*
X136426784Y-103241544D01*
X136574354Y-103340147D01*
X136699853Y-103465646D01*
X136798456Y-103613216D01*
X136866376Y-103777188D01*
X136901000Y-103951259D01*
X136901000Y-104128741D01*
X136866376Y-104302812D01*
X136798456Y-104466784D01*
X136699853Y-104614354D01*
X136574354Y-104739853D01*
X136426784Y-104838456D01*
X136262812Y-104906376D01*
X136113512Y-104936073D01*
X136088742Y-104941000D01*
X135911258Y-104941000D01*
X135886488Y-104936073D01*
X135737188Y-104906376D01*
X135573216Y-104838456D01*
X135425646Y-104739853D01*
X135300147Y-104614354D01*
X135201544Y-104466784D01*
X135133624Y-104302812D01*
X135099000Y-104128741D01*
X135099000Y-103951259D01*
X135133624Y-103777188D01*
X135201544Y-103613216D01*
X135300147Y-103465646D01*
X135425646Y-103340147D01*
X135573216Y-103241544D01*
X135737188Y-103173624D01*
X135886488Y-103143927D01*
X135911258Y-103139000D01*
X136088742Y-103139000D01*
X136113512Y-103143927D01*
G37*
G36*
X128493512Y-103143927D02*
G01*
X128642812Y-103173624D01*
X128806784Y-103241544D01*
X128954354Y-103340147D01*
X129079853Y-103465646D01*
X129178456Y-103613216D01*
X129246376Y-103777188D01*
X129281000Y-103951259D01*
X129281000Y-104128741D01*
X129246376Y-104302812D01*
X129178456Y-104466784D01*
X129079853Y-104614354D01*
X128954354Y-104739853D01*
X128806784Y-104838456D01*
X128642812Y-104906376D01*
X128493512Y-104936073D01*
X128468742Y-104941000D01*
X128291258Y-104941000D01*
X128266488Y-104936073D01*
X128117188Y-104906376D01*
X127953216Y-104838456D01*
X127805646Y-104739853D01*
X127680147Y-104614354D01*
X127581544Y-104466784D01*
X127513624Y-104302812D01*
X127479000Y-104128741D01*
X127479000Y-103951259D01*
X127513624Y-103777188D01*
X127581544Y-103613216D01*
X127680147Y-103465646D01*
X127805646Y-103340147D01*
X127953216Y-103241544D01*
X128117188Y-103173624D01*
X128266488Y-103143927D01*
X128291258Y-103139000D01*
X128468742Y-103139000D01*
X128493512Y-103143927D01*
G37*
G36*
X125953512Y-103143927D02*
G01*
X126102812Y-103173624D01*
X126266784Y-103241544D01*
X126414354Y-103340147D01*
X126539853Y-103465646D01*
X126638456Y-103613216D01*
X126706376Y-103777188D01*
X126741000Y-103951259D01*
X126741000Y-104128741D01*
X126706376Y-104302812D01*
X126638456Y-104466784D01*
X126539853Y-104614354D01*
X126414354Y-104739853D01*
X126266784Y-104838456D01*
X126102812Y-104906376D01*
X125953512Y-104936073D01*
X125928742Y-104941000D01*
X125751258Y-104941000D01*
X125726488Y-104936073D01*
X125577188Y-104906376D01*
X125413216Y-104838456D01*
X125265646Y-104739853D01*
X125140147Y-104614354D01*
X125041544Y-104466784D01*
X124973624Y-104302812D01*
X124939000Y-104128741D01*
X124939000Y-103951259D01*
X124973624Y-103777188D01*
X125041544Y-103613216D01*
X125140147Y-103465646D01*
X125265646Y-103340147D01*
X125413216Y-103241544D01*
X125577188Y-103173624D01*
X125726488Y-103143927D01*
X125751258Y-103139000D01*
X125928742Y-103139000D01*
X125953512Y-103143927D01*
G37*
G36*
X123413512Y-103143927D02*
G01*
X123562812Y-103173624D01*
X123726784Y-103241544D01*
X123874354Y-103340147D01*
X123999853Y-103465646D01*
X124098456Y-103613216D01*
X124166376Y-103777188D01*
X124201000Y-103951259D01*
X124201000Y-104128741D01*
X124166376Y-104302812D01*
X124098456Y-104466784D01*
X123999853Y-104614354D01*
X123874354Y-104739853D01*
X123726784Y-104838456D01*
X123562812Y-104906376D01*
X123413512Y-104936073D01*
X123388742Y-104941000D01*
X123211258Y-104941000D01*
X123186488Y-104936073D01*
X123037188Y-104906376D01*
X122873216Y-104838456D01*
X122725646Y-104739853D01*
X122600147Y-104614354D01*
X122501544Y-104466784D01*
X122433624Y-104302812D01*
X122399000Y-104128741D01*
X122399000Y-103951259D01*
X122433624Y-103777188D01*
X122501544Y-103613216D01*
X122600147Y-103465646D01*
X122725646Y-103340147D01*
X122873216Y-103241544D01*
X123037188Y-103173624D01*
X123186488Y-103143927D01*
X123211258Y-103139000D01*
X123388742Y-103139000D01*
X123413512Y-103143927D01*
G37*
G36*
X120873512Y-103143927D02*
G01*
X121022812Y-103173624D01*
X121186784Y-103241544D01*
X121334354Y-103340147D01*
X121459853Y-103465646D01*
X121558456Y-103613216D01*
X121626376Y-103777188D01*
X121661000Y-103951259D01*
X121661000Y-104128741D01*
X121626376Y-104302812D01*
X121558456Y-104466784D01*
X121459853Y-104614354D01*
X121334354Y-104739853D01*
X121186784Y-104838456D01*
X121022812Y-104906376D01*
X120873512Y-104936073D01*
X120848742Y-104941000D01*
X120671258Y-104941000D01*
X120646488Y-104936073D01*
X120497188Y-104906376D01*
X120333216Y-104838456D01*
X120185646Y-104739853D01*
X120060147Y-104614354D01*
X119961544Y-104466784D01*
X119893624Y-104302812D01*
X119859000Y-104128741D01*
X119859000Y-103951259D01*
X119893624Y-103777188D01*
X119961544Y-103613216D01*
X120060147Y-103465646D01*
X120185646Y-103340147D01*
X120333216Y-103241544D01*
X120497188Y-103173624D01*
X120646488Y-103143927D01*
X120671258Y-103139000D01*
X120848742Y-103139000D01*
X120873512Y-103143927D01*
G37*
G36*
X119121000Y-104941000D02*
G01*
X117319000Y-104941000D01*
X117319000Y-103139000D01*
X119121000Y-103139000D01*
X119121000Y-104941000D01*
G37*
G36*
X148813512Y-103143927D02*
G01*
X148962812Y-103173624D01*
X149126784Y-103241544D01*
X149274354Y-103340147D01*
X149399853Y-103465646D01*
X149498456Y-103613216D01*
X149566376Y-103777188D01*
X149601000Y-103951259D01*
X149601000Y-104128741D01*
X149566376Y-104302812D01*
X149498456Y-104466784D01*
X149399853Y-104614354D01*
X149274354Y-104739853D01*
X149126784Y-104838456D01*
X148962812Y-104906376D01*
X148813512Y-104936073D01*
X148788742Y-104941000D01*
X148611258Y-104941000D01*
X148586488Y-104936073D01*
X148437188Y-104906376D01*
X148273216Y-104838456D01*
X148125646Y-104739853D01*
X148000147Y-104614354D01*
X147901544Y-104466784D01*
X147833624Y-104302812D01*
X147799000Y-104128741D01*
X147799000Y-103951259D01*
X147833624Y-103777188D01*
X147901544Y-103613216D01*
X148000147Y-103465646D01*
X148125646Y-103340147D01*
X148273216Y-103241544D01*
X148437188Y-103173624D01*
X148586488Y-103143927D01*
X148611258Y-103139000D01*
X148788742Y-103139000D01*
X148813512Y-103143927D01*
G37*
G36*
X131033512Y-103143927D02*
G01*
X131182812Y-103173624D01*
X131346784Y-103241544D01*
X131494354Y-103340147D01*
X131619853Y-103465646D01*
X131718456Y-103613216D01*
X131786376Y-103777188D01*
X131821000Y-103951259D01*
X131821000Y-104128741D01*
X131786376Y-104302812D01*
X131718456Y-104466784D01*
X131619853Y-104614354D01*
X131494354Y-104739853D01*
X131346784Y-104838456D01*
X131182812Y-104906376D01*
X131033512Y-104936073D01*
X131008742Y-104941000D01*
X130831258Y-104941000D01*
X130806488Y-104936073D01*
X130657188Y-104906376D01*
X130493216Y-104838456D01*
X130345646Y-104739853D01*
X130220147Y-104614354D01*
X130121544Y-104466784D01*
X130053624Y-104302812D01*
X130019000Y-104128741D01*
X130019000Y-103951259D01*
X130053624Y-103777188D01*
X130121544Y-103613216D01*
X130220147Y-103465646D01*
X130345646Y-103340147D01*
X130493216Y-103241544D01*
X130657188Y-103173624D01*
X130806488Y-103143927D01*
X130831258Y-103139000D01*
X131008742Y-103139000D01*
X131033512Y-103143927D01*
G37*
G36*
X133573512Y-103143927D02*
G01*
X133722812Y-103173624D01*
X133886784Y-103241544D01*
X134034354Y-103340147D01*
X134159853Y-103465646D01*
X134258456Y-103613216D01*
X134326376Y-103777188D01*
X134361000Y-103951259D01*
X134361000Y-104128741D01*
X134326376Y-104302812D01*
X134258456Y-104466784D01*
X134159853Y-104614354D01*
X134034354Y-104739853D01*
X133886784Y-104838456D01*
X133722812Y-104906376D01*
X133573512Y-104936073D01*
X133548742Y-104941000D01*
X133371258Y-104941000D01*
X133346488Y-104936073D01*
X133197188Y-104906376D01*
X133033216Y-104838456D01*
X132885646Y-104739853D01*
X132760147Y-104614354D01*
X132661544Y-104466784D01*
X132593624Y-104302812D01*
X132559000Y-104128741D01*
X132559000Y-103951259D01*
X132593624Y-103777188D01*
X132661544Y-103613216D01*
X132760147Y-103465646D01*
X132885646Y-103340147D01*
X133033216Y-103241544D01*
X133197188Y-103173624D01*
X133346488Y-103143927D01*
X133371258Y-103139000D01*
X133548742Y-103139000D01*
X133573512Y-103143927D01*
G37*
G36*
X60748228Y-102021703D02*
G01*
X60903100Y-102085853D01*
X61042481Y-102178985D01*
X61161015Y-102297519D01*
X61254147Y-102436900D01*
X61318297Y-102591772D01*
X61351000Y-102756184D01*
X61351000Y-102923816D01*
X61318297Y-103088228D01*
X61254147Y-103243100D01*
X61161015Y-103382481D01*
X61042481Y-103501015D01*
X60903100Y-103594147D01*
X60748228Y-103658297D01*
X60583816Y-103691000D01*
X60416184Y-103691000D01*
X60251772Y-103658297D01*
X60096900Y-103594147D01*
X59957519Y-103501015D01*
X59838985Y-103382481D01*
X59745853Y-103243100D01*
X59681703Y-103088228D01*
X59649000Y-102923816D01*
X59649000Y-102756184D01*
X59681703Y-102591772D01*
X59745853Y-102436900D01*
X59838985Y-102297519D01*
X59957519Y-102178985D01*
X60096900Y-102085853D01*
X60251772Y-102021703D01*
X60416184Y-101989000D01*
X60583816Y-101989000D01*
X60748228Y-102021703D01*
G37*
G36*
X124651988Y-92633624D02*
G01*
X124802812Y-92663624D01*
X124966784Y-92731544D01*
X125114354Y-92830147D01*
X125239853Y-92955646D01*
X125338456Y-93103216D01*
X125406376Y-93267188D01*
X125441000Y-93441259D01*
X125441000Y-93618741D01*
X125406376Y-93792812D01*
X125338456Y-93956784D01*
X125239853Y-94104354D01*
X125114354Y-94229853D01*
X124966784Y-94328456D01*
X124802812Y-94396376D01*
X124653512Y-94426073D01*
X124628742Y-94431000D01*
X124451258Y-94431000D01*
X124426488Y-94426073D01*
X124277188Y-94396376D01*
X124113216Y-94328456D01*
X123965646Y-94229853D01*
X123840147Y-94104354D01*
X123741544Y-93956784D01*
X123673624Y-93792812D01*
X123639000Y-93618741D01*
X123639000Y-93441259D01*
X123673624Y-93267188D01*
X123741544Y-93103216D01*
X123840147Y-92955646D01*
X123965646Y-92830147D01*
X124113216Y-92731544D01*
X124277188Y-92663624D01*
X124428012Y-92633624D01*
X124451258Y-92629000D01*
X124628742Y-92629000D01*
X124651988Y-92633624D01*
G37*
G36*
X127191988Y-92633624D02*
G01*
X127342812Y-92663624D01*
X127506784Y-92731544D01*
X127654354Y-92830147D01*
X127779853Y-92955646D01*
X127878456Y-93103216D01*
X127946376Y-93267188D01*
X127981000Y-93441259D01*
X127981000Y-93618741D01*
X127946376Y-93792812D01*
X127878456Y-93956784D01*
X127779853Y-94104354D01*
X127654354Y-94229853D01*
X127506784Y-94328456D01*
X127342812Y-94396376D01*
X127193512Y-94426073D01*
X127168742Y-94431000D01*
X126991258Y-94431000D01*
X126966488Y-94426073D01*
X126817188Y-94396376D01*
X126653216Y-94328456D01*
X126505646Y-94229853D01*
X126380147Y-94104354D01*
X126281544Y-93956784D01*
X126213624Y-93792812D01*
X126179000Y-93618741D01*
X126179000Y-93441259D01*
X126213624Y-93267188D01*
X126281544Y-93103216D01*
X126380147Y-92955646D01*
X126505646Y-92830147D01*
X126653216Y-92731544D01*
X126817188Y-92663624D01*
X126968012Y-92633624D01*
X126991258Y-92629000D01*
X127168742Y-92629000D01*
X127191988Y-92633624D01*
G37*
G36*
X122111988Y-92633624D02*
G01*
X122262812Y-92663624D01*
X122426784Y-92731544D01*
X122574354Y-92830147D01*
X122699853Y-92955646D01*
X122798456Y-93103216D01*
X122866376Y-93267188D01*
X122901000Y-93441259D01*
X122901000Y-93618741D01*
X122866376Y-93792812D01*
X122798456Y-93956784D01*
X122699853Y-94104354D01*
X122574354Y-94229853D01*
X122426784Y-94328456D01*
X122262812Y-94396376D01*
X122113512Y-94426073D01*
X122088742Y-94431000D01*
X121911258Y-94431000D01*
X121886488Y-94426073D01*
X121737188Y-94396376D01*
X121573216Y-94328456D01*
X121425646Y-94229853D01*
X121300147Y-94104354D01*
X121201544Y-93956784D01*
X121133624Y-93792812D01*
X121099000Y-93618741D01*
X121099000Y-93441259D01*
X121133624Y-93267188D01*
X121201544Y-93103216D01*
X121300147Y-92955646D01*
X121425646Y-92830147D01*
X121573216Y-92731544D01*
X121737188Y-92663624D01*
X121888012Y-92633624D01*
X121911258Y-92629000D01*
X122088742Y-92629000D01*
X122111988Y-92633624D01*
G37*
G36*
X120361000Y-94431000D02*
G01*
X118559000Y-94431000D01*
X118559000Y-92629000D01*
X120361000Y-92629000D01*
X120361000Y-94431000D01*
G37*
G36*
X99901000Y-94401000D02*
G01*
X98099000Y-94401000D01*
X98099000Y-92599000D01*
X99901000Y-92599000D01*
X99901000Y-94401000D01*
G37*
G36*
X81573512Y-92603927D02*
G01*
X81722812Y-92633624D01*
X81886784Y-92701544D01*
X82034354Y-92800147D01*
X82159853Y-92925646D01*
X82258456Y-93073216D01*
X82326376Y-93237188D01*
X82361000Y-93411259D01*
X82361000Y-93588741D01*
X82326376Y-93762812D01*
X82258456Y-93926784D01*
X82159853Y-94074354D01*
X82034354Y-94199853D01*
X81886784Y-94298456D01*
X81722812Y-94366376D01*
X81573512Y-94396073D01*
X81548742Y-94401000D01*
X81371258Y-94401000D01*
X81346488Y-94396073D01*
X81197188Y-94366376D01*
X81033216Y-94298456D01*
X80885646Y-94199853D01*
X80760147Y-94074354D01*
X80661544Y-93926784D01*
X80593624Y-93762812D01*
X80559000Y-93588741D01*
X80559000Y-93411259D01*
X80593624Y-93237188D01*
X80661544Y-93073216D01*
X80760147Y-92925646D01*
X80885646Y-92800147D01*
X81033216Y-92701544D01*
X81197188Y-92633624D01*
X81346488Y-92603927D01*
X81371258Y-92599000D01*
X81548742Y-92599000D01*
X81573512Y-92603927D01*
G37*
G36*
X70773512Y-92603927D02*
G01*
X70922812Y-92633624D01*
X71086784Y-92701544D01*
X71234354Y-92800147D01*
X71359853Y-92925646D01*
X71458456Y-93073216D01*
X71526376Y-93237188D01*
X71561000Y-93411259D01*
X71561000Y-93588741D01*
X71526376Y-93762812D01*
X71458456Y-93926784D01*
X71359853Y-94074354D01*
X71234354Y-94199853D01*
X71086784Y-94298456D01*
X70922812Y-94366376D01*
X70773512Y-94396073D01*
X70748742Y-94401000D01*
X70571258Y-94401000D01*
X70546488Y-94396073D01*
X70397188Y-94366376D01*
X70233216Y-94298456D01*
X70085646Y-94199853D01*
X69960147Y-94074354D01*
X69861544Y-93926784D01*
X69793624Y-93762812D01*
X69759000Y-93588741D01*
X69759000Y-93411259D01*
X69793624Y-93237188D01*
X69861544Y-93073216D01*
X69960147Y-92925646D01*
X70085646Y-92800147D01*
X70233216Y-92701544D01*
X70397188Y-92633624D01*
X70546488Y-92603927D01*
X70571258Y-92599000D01*
X70748742Y-92599000D01*
X70773512Y-92603927D01*
G37*
G36*
X68233512Y-92603927D02*
G01*
X68382812Y-92633624D01*
X68546784Y-92701544D01*
X68694354Y-92800147D01*
X68819853Y-92925646D01*
X68918456Y-93073216D01*
X68986376Y-93237188D01*
X69021000Y-93411259D01*
X69021000Y-93588741D01*
X68986376Y-93762812D01*
X68918456Y-93926784D01*
X68819853Y-94074354D01*
X68694354Y-94199853D01*
X68546784Y-94298456D01*
X68382812Y-94366376D01*
X68233512Y-94396073D01*
X68208742Y-94401000D01*
X68031258Y-94401000D01*
X68006488Y-94396073D01*
X67857188Y-94366376D01*
X67693216Y-94298456D01*
X67545646Y-94199853D01*
X67420147Y-94074354D01*
X67321544Y-93926784D01*
X67253624Y-93762812D01*
X67219000Y-93588741D01*
X67219000Y-93411259D01*
X67253624Y-93237188D01*
X67321544Y-93073216D01*
X67420147Y-92925646D01*
X67545646Y-92800147D01*
X67693216Y-92701544D01*
X67857188Y-92633624D01*
X68006488Y-92603927D01*
X68031258Y-92599000D01*
X68208742Y-92599000D01*
X68233512Y-92603927D01*
G37*
G36*
X65693512Y-92603927D02*
G01*
X65842812Y-92633624D01*
X66006784Y-92701544D01*
X66154354Y-92800147D01*
X66279853Y-92925646D01*
X66378456Y-93073216D01*
X66446376Y-93237188D01*
X66481000Y-93411259D01*
X66481000Y-93588741D01*
X66446376Y-93762812D01*
X66378456Y-93926784D01*
X66279853Y-94074354D01*
X66154354Y-94199853D01*
X66006784Y-94298456D01*
X65842812Y-94366376D01*
X65693512Y-94396073D01*
X65668742Y-94401000D01*
X65491258Y-94401000D01*
X65466488Y-94396073D01*
X65317188Y-94366376D01*
X65153216Y-94298456D01*
X65005646Y-94199853D01*
X64880147Y-94074354D01*
X64781544Y-93926784D01*
X64713624Y-93762812D01*
X64679000Y-93588741D01*
X64679000Y-93411259D01*
X64713624Y-93237188D01*
X64781544Y-93073216D01*
X64880147Y-92925646D01*
X65005646Y-92800147D01*
X65153216Y-92701544D01*
X65317188Y-92633624D01*
X65466488Y-92603927D01*
X65491258Y-92599000D01*
X65668742Y-92599000D01*
X65693512Y-92603927D01*
G37*
G36*
X63153512Y-92603927D02*
G01*
X63302812Y-92633624D01*
X63466784Y-92701544D01*
X63614354Y-92800147D01*
X63739853Y-92925646D01*
X63838456Y-93073216D01*
X63906376Y-93237188D01*
X63941000Y-93411259D01*
X63941000Y-93588741D01*
X63906376Y-93762812D01*
X63838456Y-93926784D01*
X63739853Y-94074354D01*
X63614354Y-94199853D01*
X63466784Y-94298456D01*
X63302812Y-94366376D01*
X63153512Y-94396073D01*
X63128742Y-94401000D01*
X62951258Y-94401000D01*
X62926488Y-94396073D01*
X62777188Y-94366376D01*
X62613216Y-94298456D01*
X62465646Y-94199853D01*
X62340147Y-94074354D01*
X62241544Y-93926784D01*
X62173624Y-93762812D01*
X62139000Y-93588741D01*
X62139000Y-93411259D01*
X62173624Y-93237188D01*
X62241544Y-93073216D01*
X62340147Y-92925646D01*
X62465646Y-92800147D01*
X62613216Y-92701544D01*
X62777188Y-92633624D01*
X62926488Y-92603927D01*
X62951258Y-92599000D01*
X63128742Y-92599000D01*
X63153512Y-92603927D01*
G37*
G36*
X61401000Y-94401000D02*
G01*
X59599000Y-94401000D01*
X59599000Y-92599000D01*
X61401000Y-92599000D01*
X61401000Y-94401000D01*
G37*
G36*
X104193512Y-92603927D02*
G01*
X104342812Y-92633624D01*
X104506784Y-92701544D01*
X104654354Y-92800147D01*
X104779853Y-92925646D01*
X104878456Y-93073216D01*
X104946376Y-93237188D01*
X104981000Y-93411259D01*
X104981000Y-93588741D01*
X104946376Y-93762812D01*
X104878456Y-93926784D01*
X104779853Y-94074354D01*
X104654354Y-94199853D01*
X104506784Y-94298456D01*
X104342812Y-94366376D01*
X104193512Y-94396073D01*
X104168742Y-94401000D01*
X103991258Y-94401000D01*
X103966488Y-94396073D01*
X103817188Y-94366376D01*
X103653216Y-94298456D01*
X103505646Y-94199853D01*
X103380147Y-94074354D01*
X103281544Y-93926784D01*
X103213624Y-93762812D01*
X103179000Y-93588741D01*
X103179000Y-93411259D01*
X103213624Y-93237188D01*
X103281544Y-93073216D01*
X103380147Y-92925646D01*
X103505646Y-92800147D01*
X103653216Y-92701544D01*
X103817188Y-92633624D01*
X103966488Y-92603927D01*
X103991258Y-92599000D01*
X104168742Y-92599000D01*
X104193512Y-92603927D01*
G37*
G36*
X101653512Y-92603927D02*
G01*
X101802812Y-92633624D01*
X101966784Y-92701544D01*
X102114354Y-92800147D01*
X102239853Y-92925646D01*
X102338456Y-93073216D01*
X102406376Y-93237188D01*
X102441000Y-93411259D01*
X102441000Y-93588741D01*
X102406376Y-93762812D01*
X102338456Y-93926784D01*
X102239853Y-94074354D01*
X102114354Y-94199853D01*
X101966784Y-94298456D01*
X101802812Y-94366376D01*
X101653512Y-94396073D01*
X101628742Y-94401000D01*
X101451258Y-94401000D01*
X101426488Y-94396073D01*
X101277188Y-94366376D01*
X101113216Y-94298456D01*
X100965646Y-94199853D01*
X100840147Y-94074354D01*
X100741544Y-93926784D01*
X100673624Y-93762812D01*
X100639000Y-93588741D01*
X100639000Y-93411259D01*
X100673624Y-93237188D01*
X100741544Y-93073216D01*
X100840147Y-92925646D01*
X100965646Y-92800147D01*
X101113216Y-92701544D01*
X101277188Y-92633624D01*
X101426488Y-92603927D01*
X101451258Y-92599000D01*
X101628742Y-92599000D01*
X101653512Y-92603927D01*
G37*
G36*
X84901000Y-94401000D02*
G01*
X83099000Y-94401000D01*
X83099000Y-92599000D01*
X84901000Y-92599000D01*
X84901000Y-94401000D01*
G37*
M02*
