M48
; DRILL file {KiCad (5.1.5)-3} date 31/07/2020 11:25:03
; FORMAT={-:-/ absolute / inch / decimal}
; #@! TF.CreationDate,2020-07-31T11:25:03+01:00
; #@! TF.GenerationSoftware,Kicad,Pcbnew,(5.1.5)-3
FMAT,2
INCH
T1C0.0315
T2C0.0394
T3C0.0512
%
G90
G05
T1
X2.3819Y-4.6457
X2.3819Y-4.8425
X2.6181Y-4.9937
X2.6181Y-5.3937
X3.1299Y-4.4488
X3.1299Y-4.6457
X2.6181Y-4.4488
X2.6181Y-4.5488
X2.6181Y-4.6488
X2.6181Y-4.7488
X2.9181Y-4.4488
X2.9181Y-4.5488
X2.9181Y-4.6488
X2.9181Y-4.7488
X2.3819Y-4.0488
X2.3819Y-4.4488
T2
X3.8976Y-3.6811
X3.9976Y-3.6811
X4.0976Y-3.6811
X3.2071Y-3.6811
X3.3071Y-3.6811
X4.6543Y-4.0961
X4.6543Y-4.9961
X4.7543Y-4.0961
X4.7543Y-4.9961
X4.8543Y-4.0961
X4.8543Y-4.9961
X4.9543Y-4.0961
X4.9543Y-4.9961
X5.0543Y-4.0961
X5.0543Y-4.9961
X5.1543Y-4.0961
X5.1543Y-4.9961
X5.2543Y-4.0961
X5.2543Y-4.9961
X5.3543Y-4.0961
X5.3543Y-4.9961
X5.4543Y-4.0961
X5.4543Y-4.9961
X5.5543Y-4.0961
X5.5543Y-4.9961
X5.6543Y-4.0961
X5.6543Y-4.9961
X5.7543Y-4.0961
X5.7543Y-4.9961
X5.8543Y-4.0961
X5.8543Y-4.9961
X5.9543Y-4.0961
X5.9543Y-4.9961
X6.0543Y-4.0961
X6.0543Y-4.9961
X4.7031Y-3.6823
X4.8031Y-3.6823
X4.9031Y-3.6823
X5.0031Y-3.6823
X2.3819Y-3.6811
X2.4819Y-3.6811
X2.5819Y-3.6811
X2.6819Y-3.6811
X2.7819Y-3.6811
T3
X3.5433Y-5.548
X3.6183Y-5.748
X3.6933Y-5.548
X3.7683Y-5.748
X3.8433Y-5.548
X3.9183Y-5.748
X3.9933Y-5.548
X4.0683Y-5.748
X4.1433Y-5.548
X4.2183Y-5.748
X4.2933Y-5.548
X4.3683Y-5.748
X4.4433Y-5.548
X4.5183Y-5.748
X4.5933Y-5.548
X4.6683Y-5.748
X4.7433Y-5.548
X4.8183Y-5.748
X4.8933Y-5.548
X4.9683Y-5.748
X5.0433Y-5.548
T0
M30
